<?xml version="1.0" encoding="UTF-8" standalone="no"?>
<svg
   xmlns:dc="http://purl.org/dc/elements/1.1/"
   xmlns:cc="http://creativecommons.org/ns#"
   xmlns:rdf="http://www.w3.org/1999/02/22-rdf-syntax-ns#"
   xmlns:svg="http://www.w3.org/2000/svg"
   xmlns="http://www.w3.org/2000/svg"
   xmlns:sodipodi="http://sodipodi.sourceforge.net/DTD/sodipodi-0.dtd"
   xmlns:inkscape="http://www.inkscape.org/namespaces/inkscape"
   inkscape:version="1.0 (4035a4fb49, 2020-05-01)"
   height="128"
   width="128"
   sodipodi:docname="adjust128.svg"
   xml:space="preserve"
   viewBox="0 0 128 128"
   y="0px"
   x="0px"
   id="Capa_1"
   version="1.1"><metadata
   id="metadata6466"><rdf:RDF><cc:Work
       rdf:about=""><dc:format>image/svg+xml</dc:format><dc:type
         rdf:resource="http://purl.org/dc/dcmitype/StillImage" /><dc:title></dc:title></cc:Work></rdf:RDF></metadata><defs
   id="defs6464">
	
	
	
</defs><sodipodi:namedview
   inkscape:current-layer="Capa_1"
   inkscape:cy="55.136684"
   inkscape:cx="52.405514"
   inkscape:zoom="3.7946429"
   showgrid="false"
   id="namedview6462"
   inkscape:window-height="480"
   inkscape:window-width="640"
   inkscape:pageshadow="2"
   inkscape:pageopacity="0"
   guidetolerance="10"
   gridtolerance="10"
   objecttolerance="10"
   borderopacity="1"
   bordercolor="#666666"
   pagecolor="#ffffff" />
<path
   style="stroke-width:2.27529"
   d="M 15.927059,0 C 14.671096,0 13.651765,1.0170565 13.651765,2.2752941 V 91.193966 C 5.9453435,92.304309 0,98.932063 0,106.93882 c 0,8.78036 7.1444235,15.92706 15.927059,15.92706 8.782635,0 15.927059,-7.1467 15.927059,-15.92706 0,-8.006757 -5.945344,-14.634511 -13.651765,-15.744854 V 2.2752941 C 18.202353,1.0170565 17.183021,0 15.927059,0 Z M 63.708235,0 C 62.452273,0 61.432941,1.0170565 61.432941,2.2752941 V 44.670422 c -8.195609,0.901018 -14.59388,7.861498 -14.593877,16.291463 0,8.429964 6.398268,15.390444 14.593877,16.291461 v 43.337244 c 0,1.25824 1.019332,2.27529 2.275294,2.27529 1.255963,0 2.275294,-1.01705 2.275294,-2.27529 V 77.11114 c 7.736,-1.312845 13.651765,-8.044658 13.651765,-16.149255 0,-8.104598 -5.915765,-14.836413 -13.651765,-16.149257 V 2.2752941 C 65.983529,1.0170565 64.964198,0 63.708235,0 Z m 47.781175,0 c -8.78263,0 -15.927057,7.1466988 -15.927057,15.927059 0,8.00676 5.945347,14.634514 13.651767,15.744858 v 88.918673 c 0,1.25824 1.01933,2.27529 2.27529,2.27529 1.25596,0 2.2753,-1.01705 2.2753,-2.27529 V 31.671917 c 7.70642,-1.110344 13.65176,-7.738098 13.65176,-15.744858 C 127.41647,7.1466988 120.27205,0 111.48941,0 Z m 0,4.5505882 c 6.27299,0 11.37647,5.1034847 11.37647,11.3764708 0,6.272986 -5.10348,11.37647 -11.37647,11.37647 -6.27298,0 -11.37647,-5.103484 -11.37647,-11.37647 0,-6.2729861 5.10349,-11.3764708 11.37647,-11.3764708 z M 63.237179,49.114358 c 6.534645,0 11.847527,5.315157 11.847527,11.847527 0,6.532369 -5.315158,11.847527 -11.847527,11.847527 -6.53237,0 -11.847527,-5.315158 -11.847527,-11.847527 0,-6.53237 5.312882,-11.847527 11.847527,-11.847527 z m -47.31012,46.447995 c 6.272986,0 11.37647,5.103487 11.37647,11.376467 0,6.27299 -5.103484,11.37647 -11.37647,11.37647 -6.2729861,0 -11.3764708,-5.10348 -11.3764708,-11.37647 0,-6.27298 5.1034847,-11.376467 11.3764708,-11.376467 z"
   id="path6423" />








<g
   id="g6447">
</g>
<g
   id="g6449">
</g>
<g
   id="g6451">
</g>
<g
   id="g6453">
</g>
<g
   id="g6455">
</g>
<g
   id="g6457">
</g>
<g
   id="g6459">
</g>
</svg>
