<?xml version="1.0" encoding="UTF-8" standalone="no"?>
<svg
   xmlns:dc="http://purl.org/dc/elements/1.1/"
   xmlns:cc="http://creativecommons.org/ns#"
   xmlns:rdf="http://www.w3.org/1999/02/22-rdf-syntax-ns#"
   xmlns:svg="http://www.w3.org/2000/svg"
   xmlns="http://www.w3.org/2000/svg"
   xmlns:sodipodi="http://sodipodi.sourceforge.net/DTD/sodipodi-0.dtd"
   xmlns:inkscape="http://www.inkscape.org/namespaces/inkscape"
   inkscape:version="1.0 (4035a4fb49, 2020-05-01)"
   height="128"
   width="128"
   sodipodi:docname="graph128.svg"
   xml:space="preserve"
   viewBox="0 0 128 128"
   y="0px"
   x="0px"
   id="Capa_1"
   version="1.1"><metadata
   id="metadata6881"><rdf:RDF><cc:Work
       rdf:about=""><dc:format>image/svg+xml</dc:format><dc:type
         rdf:resource="http://purl.org/dc/dcmitype/StillImage" /><dc:title></dc:title></cc:Work></rdf:RDF></metadata><defs
   id="defs6879">
	

		
	</defs><sodipodi:namedview
   inkscape:current-layer="Capa_1"
   inkscape:cy="74.614961"
   inkscape:cx="66.024852"
   inkscape:zoom="3.3209612"
   showgrid="false"
   id="namedview6877"
   inkscape:window-height="480"
   inkscape:window-width="640"
   inkscape:pageshadow="2"
   inkscape:pageopacity="0"
   guidetolerance="10"
   gridtolerance="10"
   objecttolerance="10"
   borderopacity="1"
   bordercolor="#666666"
   pagecolor="#ffffff" />
<path
   style="stroke-width:0.249413"
   d="M 114.9294,8.137553e-5 C 107.89597,-0.02485986 102.18414,5.6866828 102.1592,12.720111 c 0,3.317184 1.2721,6.509565 3.59163,8.878982 L 82.430779,68.264046 c -0.498825,-0.07482 -1.022394,-0.14955 -1.546161,-0.14955 -1.646118,0 -3.292438,0.323945 -4.813853,0.947475 L 57.963526,48.685177 c 1.047532,-1.870592 1.621083,-3.965559 1.646024,-6.135446 0,-7.05837 -5.711348,-12.770204 -12.769717,-12.770204 -7.05837,0 -12.770204,5.711834 -12.770204,12.770204 0.02494,3.042831 1.122258,5.985702 3.142499,8.280295 L 15.03976,89.613644 C 14.291522,89.464002 13.517955,89.389074 12.769717,89.389074 5.7113479,89.389074 0,95.100912 0,102.15928 c 0,7.05837 5.7113479,12.76972 12.769717,12.76972 7.058369,0 12.770204,-5.71135 12.770204,-12.76972 -0.02494,-3.042833 -1.122258,-5.986185 -3.142497,-8.280778 L 44.544947,55.09488 c 2.369418,0.473884 4.838794,0.22486 7.058565,-0.722907 L 69.71075,74.748767 c -1.047531,1.870593 -1.596239,3.9905 -1.62118,6.135447 -0.02494,7.058371 5.686602,12.794952 12.720033,12.819894 7.058362,0.02492 12.794944,-5.686603 12.819885,-12.720032 0,-3.317185 -1.272095,-6.534798 -3.59163,-8.929156 L 113.35791,25.389967 c 0.49883,0.07483 1.0224,0.14955 1.54616,0.14955 7.05837,0 12.7702,-5.711349 12.7702,-12.769718 0,-7.0583698 -5.6865,-12.76971762447 -12.74487,-12.76971762447 z"
   id="path6840" />
<g
   id="g6846">
</g>
<g
   id="g6848">
</g>
<g
   id="g6850">
</g>
<g
   id="g6852">
</g>
<g
   id="g6854">
</g>
<g
   id="g6856">
</g>
<g
   id="g6858">
</g>
<g
   id="g6860">
</g>
<g
   id="g6862">
</g>
<g
   id="g6864">
</g>
<g
   id="g6866">
</g>
<g
   id="g6868">
</g>
<g
   id="g6870">
</g>
<g
   id="g6872">
</g>
<g
   id="g6874">
</g>
</svg>
