<?xml version="1.0" encoding="UTF-8" standalone="no"?>
<!-- Generator: Adobe Illustrator 19.0.0, SVG Export Plug-In . SVG Version: 6.00 Build 0)  -->

<svg
   xmlns:dc="http://purl.org/dc/elements/1.1/"
   xmlns:cc="http://creativecommons.org/ns#"
   xmlns:rdf="http://www.w3.org/1999/02/22-rdf-syntax-ns#"
   xmlns:svg="http://www.w3.org/2000/svg"
   xmlns="http://www.w3.org/2000/svg"
   xmlns:sodipodi="http://sodipodi.sourceforge.net/DTD/sodipodi-0.dtd"
   xmlns:inkscape="http://www.inkscape.org/namespaces/inkscape"
   version="1.1"
   id="Capa_1"
   x="0px"
   y="0px"
   viewBox="0 0 128 128"
   xml:space="preserve"
   sodipodi:docname="pause128.svg"
   width="128"
   height="128"
   inkscape:version="0.92.3 (2405546, 2018-03-11)"><metadata
   id="metadata1471"><rdf:RDF><cc:Work
       rdf:about=""><dc:format>image/svg+xml</dc:format><dc:type
         rdf:resource="http://purl.org/dc/dcmitype/StillImage" /><dc:title></dc:title></cc:Work></rdf:RDF></metadata><defs
   id="defs1469">
	

	

		
	
		
	</defs><sodipodi:namedview
   pagecolor="#ffffff"
   bordercolor="#666666"
   borderopacity="1"
   objecttolerance="10"
   gridtolerance="10"
   guidetolerance="10"
   inkscape:pageopacity="0"
   inkscape:pageshadow="2"
   inkscape:window-width="640"
   inkscape:window-height="480"
   id="namedview1467"
   showgrid="false"
   inkscape:zoom="0.65080869"
   inkscape:cx="238.9335"
   inkscape:cy="238.9335"
   inkscape:current-layer="Capa_1" />
<path
   d="M 29.182808,21.879923 C 27.424901,21.879923 26,23.304825 26,25.062731 V 107.81719 C 26,109.5751 27.424901,111 29.182808,111 h 25.462827 c 1.757906,0 3.183172,-1.4249 3.183172,-3.18281 V 25.062731 c 0,-1.757906 -1.425266,-3.182808 -3.183172,-3.182808 z m 44.560038,0 c -1.757906,0 -3.182807,1.424902 -3.182807,3.182808 v 82.754459 c 0,1.75791 1.424901,3.18281 3.182807,3.18281 h 25.462828 c 1.757906,0 3.182806,-1.4249 3.182806,-3.18281 V 25.062731 c 0,-1.757906 -1.42472,-3.182808 -3.182442,-3.182808 z"
   id="path1424"
   inkscape:connector-curvature="0"
   style="stroke-width:0.1864955" />

<g
   id="g1436"
   transform="translate(0,-349.867)">
</g>
<g
   id="g1438"
   transform="translate(0,-349.867)">
</g>
<g
   id="g1440"
   transform="translate(0,-349.867)">
</g>
<g
   id="g1442"
   transform="translate(0,-349.867)">
</g>
<g
   id="g1444"
   transform="translate(0,-349.867)">
</g>
<g
   id="g1446"
   transform="translate(0,-349.867)">
</g>
<g
   id="g1448"
   transform="translate(0,-349.867)">
</g>
<g
   id="g1450"
   transform="translate(0,-349.867)">
</g>
<g
   id="g1452"
   transform="translate(0,-349.867)">
</g>
<g
   id="g1454"
   transform="translate(0,-349.867)">
</g>
<g
   id="g1456"
   transform="translate(0,-349.867)">
</g>
<g
   id="g1458"
   transform="translate(0,-349.867)">
</g>
<g
   id="g1460"
   transform="translate(0,-349.867)">
</g>
<g
   id="g1462"
   transform="translate(0,-349.867)">
</g>
<g
   id="g1464"
   transform="translate(0,-349.867)">
</g>
</svg>