<?xml version="1.0" encoding="iso-8859-1"?>
<!-- Generator: Adobe Illustrator 19.0.0, SVG Export Plug-In . SVG Version: 6.00 Build 0)  -->
<svg version="1.1" id="Capa_1" xmlns="http://www.w3.org/2000/svg" xmlns:xlink="http://www.w3.org/1999/xlink" x="0px" y="0px"
	 viewBox="0 0 496 496" style="enable-background:new 0 0 496 496;" xml:space="preserve">
<g>
	<g>
		<g>
			<path d="M488,80H8c-4.418,0-8,3.582-8,8v320c0,4.418,3.582,8,8,8h480c4.418,0,8-3.582,8-8V88C496,83.582,492.418,80,488,80z
				 M56,400H16V200h24v112c0,4.418,3.582,8,8,8h8V400z M120,400H72v-80h8c4.418,0,8-3.582,8-8V200h16v112c0,4.418,3.582,8,8,8h8V400
				z M56,304V200h16v104H56z M184,400h-48v-80h8c4.418,0,8-3.582,8-8V200h32V400z M120,304V200h16v104H120z M248,400h-48V200h32v112
				c0,4.418,3.582,8,8,8h8V400z M312,400h-48v-80h8c4.418,0,8-3.582,8-8V200h16v112c0,4.418,3.582,8,8,8h8V400z M248,304V200h16v104
				H248z M376,400h-48v-80h8c4.418,0,8-3.582,8-8V200h16v112c0,4.418,3.582,8,8,8h8V400z M312,304V200h16v104H312z M440,400h-48v-80
				h8c4.418,0,8-3.582,8-8V200h32V400z M376,304V200h16v104H376z M480,400h-24V200h24V400z M480,184H16V96h464V184z"/>
			<path d="M32,176h56c4.418,0,8-3.582,8-8v-56c0-4.418-3.582-8-8-8H32c-4.418,0-8,3.582-8,8v56C24,172.418,27.582,176,32,176z
				 M40,120h40v40H40V120z"/>
			<path d="M432,136h8v32c0,4.418,3.582,8,8,8s8-3.582,8-8v-32h8c4.418,0,8-3.582,8-8s-3.582-8-8-8h-8v-8c0-4.418-3.582-8-8-8
				s-8,3.582-8,8v8h-8c-4.418,0-8,3.582-8,8S427.582,136,432,136z"/>
			<path d="M384,152c0,4.418,3.582,8,8,8h8v8c0,4.418,3.582,8,8,8s8-3.582,8-8v-8h8c4.418,0,8-3.582,8-8s-3.582-8-8-8h-8v-32
				c0-4.418-3.582-8-8-8s-8,3.582-8,8v32h-8C387.582,144,384,147.582,384,152z"/>
			<path d="M352,136h8v32c0,4.418,3.582,8,8,8s8-3.582,8-8v-32h8c4.418,0,8-3.582,8-8s-3.582-8-8-8h-8v-8c0-4.418-3.582-8-8-8
				s-8,3.582-8,8v8h-8c-4.418,0-8,3.582-8,8S347.582,136,352,136z"/>
			<path d="M128,152c13.255,0,24-10.745,24-24s-10.745-24-24-24s-24,10.745-24,24S114.745,152,128,152z M128,120
				c4.418,0,8,3.582,8,8s-3.582,8-8,8s-8-3.582-8-8S123.582,120,128,120z"/>
			<path d="M184,152c13.255,0,24-10.745,24-24s-10.745-24-24-24s-24,10.745-24,24S170.745,152,184,152z M184,120
				c4.418,0,8,3.582,8,8s-3.582,8-8,8s-8-3.582-8-8S179.582,120,184,120z"/>
			<path d="M240,152c13.255,0,24-10.745,24-24s-10.745-24-24-24s-24,10.745-24,24S226.745,152,240,152z M240,120
				c4.418,0,8,3.582,8,8s-3.582,8-8,8s-8-3.582-8-8S235.582,120,240,120z"/>
			<path d="M112,176h144c4.418,0,8-3.582,8-8s-3.582-8-8-8H112c-4.418,0-8,3.582-8,8S107.582,176,112,176z"/>
		</g>
	</g>
</g>
<g>
</g>
<g>
</g>
<g>
</g>
<g>
</g>
<g>
</g>
<g>
</g>
<g>
</g>
<g>
</g>
<g>
</g>
<g>
</g>
<g>
</g>
<g>
</g>
<g>
</g>
<g>
</g>
<g>
</g>
</svg>
