<?xml version="1.0" encoding="UTF-8" standalone="no"?>
<!-- Generator: Adobe Illustrator 19.0.0, SVG Export Plug-In . SVG Version: 6.00 Build 0)  -->

<svg
   xmlns:dc="http://purl.org/dc/elements/1.1/"
   xmlns:cc="http://creativecommons.org/ns#"
   xmlns:rdf="http://www.w3.org/1999/02/22-rdf-syntax-ns#"
   xmlns:svg="http://www.w3.org/2000/svg"
   xmlns="http://www.w3.org/2000/svg"
   xmlns:sodipodi="http://sodipodi.sourceforge.net/DTD/sodipodi-0.dtd"
   xmlns:inkscape="http://www.inkscape.org/namespaces/inkscape"
   version="1.1"
   id="Capa_1"
   x="0px"
   y="0px"
   viewBox="0 0 128 128"
   xml:space="preserve"
   sodipodi:docname="play-button128.svg"
   width="128"
   height="128"
   inkscape:version="0.92.3 (2405546, 2018-03-11)"><metadata
   id="metadata1556"><rdf:RDF><cc:Work
       rdf:about=""><dc:format>image/svg+xml</dc:format><dc:type
         rdf:resource="http://purl.org/dc/dcmitype/StillImage" /><dc:title></dc:title></cc:Work></rdf:RDF></metadata><defs
   id="defs1554" /><sodipodi:namedview
   pagecolor="#ffffff"
   bordercolor="#666666"
   borderopacity="1"
   objecttolerance="10"
   gridtolerance="10"
   guidetolerance="10"
   inkscape:pageopacity="0"
   inkscape:pageshadow="2"
   inkscape:window-width="640"
   inkscape:window-height="480"
   id="namedview1552"
   showgrid="false"
   inkscape:zoom="3.7024691"
   inkscape:cx="157.02469"
   inkscape:cy="58.958316"
   inkscape:current-layer="Capa_1" />
<path
   d="M 96.755617,64.055979 34.372965,21.033459 C 33.71257,20.579571 32.856422,20.532247 32.150852,20.900089 31.443132,21.272234 31,22.003617 31,22.803836 v 86.045034 c 0,0.80022 0.443132,1.53376 1.150852,1.9059 0.314065,0.16349 0.658245,0.24523 1.000274,0.24523 0.428074,0 0.853997,-0.12907 1.221839,-0.38075 L 96.755617,67.596733 c 0.582955,-0.402261 0.929286,-1.062657 0.929286,-1.770377 0,-0.707721 -0.348482,-1.368116 -0.929286,-1.770377 z"
   id="path1519"
   inkscape:connector-curvature="0"
   style="stroke-width:2.15112591" />
<g
   id="g1521"
   transform="translate(0,86.000999)">
</g>
<g
   id="g1523"
   transform="translate(0,86.000999)">
</g>
<g
   id="g1525"
   transform="translate(0,86.000999)">
</g>
<g
   id="g1527"
   transform="translate(0,86.000999)">
</g>
<g
   id="g1529"
   transform="translate(0,86.000999)">
</g>
<g
   id="g1531"
   transform="translate(0,86.000999)">
</g>
<g
   id="g1533"
   transform="translate(0,86.000999)">
</g>
<g
   id="g1535"
   transform="translate(0,86.000999)">
</g>
<g
   id="g1537"
   transform="translate(0,86.000999)">
</g>
<g
   id="g1539"
   transform="translate(0,86.000999)">
</g>
<g
   id="g1541"
   transform="translate(0,86.000999)">
</g>
<g
   id="g1543"
   transform="translate(0,86.000999)">
</g>
<g
   id="g1545"
   transform="translate(0,86.000999)">
</g>
<g
   id="g1547"
   transform="translate(0,86.000999)">
</g>
<g
   id="g1549"
   transform="translate(0,86.000999)">
</g>
</svg>