<?xml version="1.0" encoding="UTF-8" standalone="no"?>
<svg
   xmlns:dc="http://purl.org/dc/elements/1.1/"
   xmlns:cc="http://creativecommons.org/ns#"
   xmlns:rdf="http://www.w3.org/1999/02/22-rdf-syntax-ns#"
   xmlns:svg="http://www.w3.org/2000/svg"
   xmlns="http://www.w3.org/2000/svg"
   xmlns:sodipodi="http://sodipodi.sourceforge.net/DTD/sodipodi-0.dtd"
   xmlns:inkscape="http://www.inkscape.org/namespaces/inkscape"
   version="1.1"
   id="Capa_1"
   x="0px"
   y="0px"
   viewBox="0 0 128 128"
   xml:space="preserve"
   sodipodi:docname="redo128.svg"
   width="128"
   height="128"
   inkscape:version="1.0 (4035a4fb49, 2020-05-01)"><metadata
   id="metadata121"><rdf:RDF><cc:Work
       rdf:about=""><dc:format>image/svg+xml</dc:format><dc:type
         rdf:resource="http://purl.org/dc/dcmitype/StillImage" /><dc:title /></cc:Work></rdf:RDF></metadata><defs
   id="defs119" /><sodipodi:namedview
   inkscape:document-rotation="0"
   pagecolor="#ffffff"
   bordercolor="#666666"
   borderopacity="1"
   objecttolerance="10"
   gridtolerance="10"
   guidetolerance="10"
   inkscape:pageopacity="0"
   inkscape:pageshadow="2"
   inkscape:window-width="640"
   inkscape:window-height="480"
   id="namedview117"
   showgrid="false"
   inkscape:zoom="5.7247431"
   inkscape:cx="44.459811"
   inkscape:cy="60.197042"
   inkscape:current-layer="Capa_1" />
<path
   d="M 127.9569,54.853773 73.400505,0 V 32.791851 C 42.35635,32.489599 27.660589,45.910541 27.138962,46.402919 -6.5596438,74.441621 0.61395442,113.65875 0.6895173,114.05119 l 1.2187561,6.27172 3.2687038,-5.48928 C 30.297977,72.623237 64.935025,75.116812 73.400505,76.447694 V 109.70755 Z M 4.8844757,106.2414 C 4.5773492,94.36097 7.0904242,69.425221 30.358915,50.061625 30.497853,49.932436 44.121109,37.664438 72.700939,37.664438 c 1.001817,0 2.025572,0.01463 3.063953,0.04875 l 2.510637,0.07313 V 11.814621 L 121.08068,54.853773 78.275529,97.890488 V 72.513549 l -1.864697,-0.45094 C 75.979393,71.952921 34.804937,62.6075 4.8844757,106.2414 Z"
   id="path84"
   style="stroke-width:2.43751" />















</svg>
