<?xml version="1.0" encoding="UTF-8" standalone="no"?>
<svg
   xmlns:dc="http://purl.org/dc/elements/1.1/"
   xmlns:cc="http://creativecommons.org/ns#"
   xmlns:rdf="http://www.w3.org/1999/02/22-rdf-syntax-ns#"
   xmlns:svg="http://www.w3.org/2000/svg"
   xmlns="http://www.w3.org/2000/svg"
   xmlns:sodipodi="http://sodipodi.sourceforge.net/DTD/sodipodi-0.dtd"
   xmlns:inkscape="http://www.inkscape.org/namespaces/inkscape"
   inkscape:version="1.0 (4035a4fb49, 2020-05-01)"
   width="128"
   height="128"
   version="1.1"
   viewBox="0 0 128 128"
   xml:space="preserve"
   id="svg85"
   sodipodi:docname="settings128.svg"><defs
   id="defs89" /><sodipodi:namedview
   inkscape:document-rotation="0"
   inkscape:current-layer="svg85"
   showgrid="false"
   id="namedview87"
   inkscape:window-height="480"
   inkscape:window-width="640"
   inkscape:pageshadow="2"
   inkscape:pageopacity="0"
   guidetolerance="10"
   gridtolerance="10"
   objecttolerance="10"
   borderopacity="1"
   bordercolor="#666666"
   pagecolor="#ffffff" /><metadata
   id="metadata75"><rdf:RDF><cc:Work
       rdf:about=""><dc:format>image/svg+xml</dc:format><dc:type
         rdf:resource="http://purl.org/dc/dcmitype/StillImage" /><dc:title /></cc:Work></rdf:RDF></metadata>
	<path
   d="M 64.326172 0.005859375 C 60.752918 0.025095312 57.177433 0.07765992 53.611328 0.025390625 C 50.25557 0.79404112 51.974051 5.0038749 51.550781 7.5078125 C 53.072542 12.628268 48.177615 12.629524 44.400391 14.005859 C 40.360651 14.621596 36.104968 20.865958 33.240234 15.755859 C 31.299067 14.167194 29.920795 11.60477 27.482422 10.849609 C 24.399896 12.165068 22.467465 15.421053 19.892578 17.585938 C 16.970395 20.660659 13.711966 23.460349 11 26.707031 C 10.647756 29.562749 14.022449 30.961381 15.541016 33.029297 C 20.540364 35.7155 15.486124 39.583427 14.402344 43.40625 C 12.486192 46.935901 13.248418 53.176878 7.7988281 51.550781 C 5.2855646 51.937211 1.9354597 50.542311 0.1875 52.808594 C -0.18579009 59.914012 0.12992921 67.088493 0.025390625 74.220703 C 0.79404112 77.576461 5.0038749 75.85798 7.5078125 76.28125 C 12.628422 74.759489 12.629422 79.656112 14.005859 83.433594 C 14.621442 87.473333 20.866576 91.729531 15.755859 94.59375 C 14.1674 96.534401 11.604306 97.911492 10.849609 100.34961 C 12.165068 103.43203 15.421053 105.36454 17.585938 107.93945 C 20.664703 110.85133 23.446403 114.13469 26.710938 116.81445 C 29.573352 117.17486 30.964987 113.80866 33.029297 112.29102 C 35.7155 107.29165 39.583427 112.34584 43.40625 113.42969 C 46.935901 115.34561 53.176878 114.5835 51.550781 120.0332 C 51.937469 122.54654 50.542311 125.89657 52.808594 127.64453 C 59.914012 128.01782 67.088493 127.702 74.220703 127.80664 C 77.576461 127.0379 75.85798 122.82803 76.28125 120.32422 C 74.759489 115.20351 79.656112 115.20263 83.433594 113.82617 C 87.473591 113.2102 91.728907 106.96613 94.595703 112.07422 C 96.535839 113.66039 97.913038 116.22158 100.34961 116.97461 C 103.43203 115.6592 105.36454 112.40307 107.93945 110.23828 C 110.86164 107.16359 114.12007 104.36398 116.83203 101.11719 C 117.1842 98.261471 113.80969 96.862837 112.29102 94.794922 C 107.29268 92.109491 112.34461 88.241714 113.42969 84.419922 C 115.34535 80.891043 114.58557 74.655668 120.0332 76.28125 C 122.54654 75.894562 125.89657 77.289721 127.64453 75.023438 C 128.01782 67.918019 127.702 60.743538 127.80664 53.611328 C 127.83444 52.507426 126.84804 51.522958 125.74414 51.550781 L 116.05859 51.550781 C 115.62244 45.744799 110.36656 39.763795 110.28516 35.025391 C 112.4319 32.74262 114.88434 30.709841 116.82422 28.257812 C 117.17613 25.402249 113.80135 24.0039 112.2832 21.935547 C 108.5289 18.332834 105.05164 14.392134 101.125 11 C 98.269277 10.647859 96.870908 14.022681 94.802734 15.541016 C 92.1155 20.539797 88.247167 15.485823 84.423828 14.400391 C 80.894434 12.484188 74.655153 13.248264 76.28125 7.7988281 C 75.89482 5.2855646 77.289721 1.9354597 75.023438 0.1875 C 71.470729 0.000854955 67.899426 -0.013376562 64.326172 0.005859375 z M 57.462891 4.0117188 C 57.992392 3.9791982 58.609698 4.0330302 59.287109 4.1484375 L 72.160156 4.1484375 C 72.412366 7.6515543 71.62054 11.387446 72.625 14.726562 C 79.115478 16.921175 86.041913 18.919984 91.833984 22.941406 C 94.625296 22.799329 96.024325 19.635428 98.121094 18.050781 C 99.714989 15.314264 101.30844 16.122974 102.90234 18.380859 C 105.93684 21.415287 108.97135 24.449946 112.00586 27.484375 C 109.70248 30.143529 106.49546 32.228705 104.8418 35.304688 C 107.88893 41.44171 111.3878 47.747067 112.65039 54.685547 C 114.72655 56.55458 117.94999 55.310434 120.55273 55.671875 C 123.61583 54.857023 124.14524 56.577462 123.68359 59.287109 L 123.68359 72.160156 C 120.18047 72.412366 116.44474 71.62054 113.10547 72.625 C 110.91132 79.115993 108.91285 86.043608 104.89062 91.835938 C 105.03257 94.62725 108.19638 96.026793 109.78125 98.123047 C 112.51847 99.716169 111.70792 101.3087 109.45117 102.90234 C 106.41666 105.93684 103.38216 108.97135 100.34766 112.00586 C 97.6885 109.70248 95.603327 106.49546 92.527344 104.8418 C 86.390321 107.88893 80.084964 111.3878 73.146484 112.65039 C 71.277451 114.72655 72.521597 117.94999 72.160156 120.55273 C 72.975008 123.61583 71.254569 124.14524 68.544922 123.68359 L 55.671875 123.68359 C 55.419665 120.18047 56.211492 116.44474 55.207031 113.10547 C 48.716038 110.91132 41.788422 108.91285 35.996094 104.89062 C 33.204781 105.03257 31.805238 108.19638 29.708984 109.78125 C 28.115862 112.51847 26.521551 111.70741 24.927734 109.45117 C 21.892764 106.41718 18.859163 103.3836 15.824219 100.34961 C 18.127574 97.690454 21.332614 95.60528 22.986328 92.529297 C 19.939611 86.392016 16.44079 80.087432 15.179688 73.148438 C 13.105666 71.276312 9.881568 72.522112 7.2792969 72.160156 C 4.2162208 72.975008 3.6868083 71.254569 4.1484375 68.544922 L 4.1484375 55.671875 C 7.6515543 55.419665 11.387446 56.211492 14.726562 55.207031 C 16.920867 48.716038 18.919262 41.788422 22.941406 35.996094 C 22.799406 33.204781 19.63566 31.805238 18.050781 29.708984 C 15.314368 28.115089 16.119707 26.519933 18.378906 24.925781 L 27.482422 15.824219 C 30.142091 18.127677 32.228447 21.332227 35.304688 22.986328 C 41.441454 19.940332 47.745372 16.441278 54.683594 15.179688 C 56.555719 13.105666 55.309919 9.881568 55.671875 7.2792969 C 55.060736 4.9819898 55.874386 4.1092803 57.462891 4.0117188 z M 62.666016 41.244141 C 49.808856 41.646121 39.116981 54.596679 41.505859 67.369141 C 43.125773 80.648422 58.011122 89.944916 70.658203 85.566406 C 83.522715 81.990898 90.523281 65.942832 84.34375 54.091797 C 80.701519 46.366288 72.468485 41.157473 63.916016 41.246094 C 63.497126 41.23252 63.080763 41.231174 62.666016 41.244141 z M 64.130859 45.316406 C 66.508783 45.311516 68.895055 45.787806 71.136719 46.824219 C 81.645812 50.863701 85.907986 65.160987 79.291016 74.28125 C 75.924695 79.333436 69.993272 82.510185 63.916016 82.464844 C 52.593875 82.853593 43.087048 71.191762 45.744141 60.177734 C 47.233506 51.488896 55.638276 45.33387 64.130859 45.316406 z "
   style="stroke-width:0.25762"
   id="g79" />
	
</svg>
