<?xml version="1.0" encoding="UTF-8" standalone="no"?>
<svg
   xmlns:dc="http://purl.org/dc/elements/1.1/"
   xmlns:cc="http://creativecommons.org/ns#"
   xmlns:rdf="http://www.w3.org/1999/02/22-rdf-syntax-ns#"
   xmlns:svg="http://www.w3.org/2000/svg"
   xmlns="http://www.w3.org/2000/svg"
   xmlns:sodipodi="http://sodipodi.sourceforge.net/DTD/sodipodi-0.dtd"
   xmlns:inkscape="http://www.inkscape.org/namespaces/inkscape"
   inkscape:version="1.0 (4035a4fb49, 2020-05-01)"
   sodipodi:docname="song128.svg"
   version="1.1"
   width="128"
   viewBox="0 0 128 128"
   height="128"
   enable-background="new 0 0 512 512"
   id="Capa_1">
  <metadata
     id="metadata6220">
    <rdf:RDF>
      <cc:Work
         rdf:about="">
        <dc:format>image/svg+xml</dc:format>
        <dc:type
           rdf:resource="http://purl.org/dc/dcmitype/StillImage" />
        <dc:title></dc:title>
      </cc:Work>
    </rdf:RDF>
  </metadata>
  <defs
     id="defs6218" />
  <sodipodi:namedview
     inkscape:current-layer="Capa_1"
     inkscape:cy="60.005404"
     inkscape:cx="60.807836"
     inkscape:zoom="4.695631"
     showgrid="false"
     id="namedview6216"
     inkscape:window-height="480"
     inkscape:window-width="640"
     inkscape:pageshadow="2"
     inkscape:pageopacity="0"
     guidetolerance="10"
     gridtolerance="10"
     objecttolerance="10"
     borderopacity="1"
     bordercolor="#666666"
     pagecolor="#ffffff" />
  <path
     style="stroke-width:0.249699"
     d="m 26.480193,0 v 55.285085 c -2.680278,-1.797588 -5.901404,-2.848138 -9.363741,-2.848138 -9.2938248,0 -16.85473325,7.560908 -16.85473325,16.854734 0,9.293824 7.56090845,16.854732 16.85473325,16.854732 9.350756,0 17.012993,-7.669028 16.846443,-17.166858 h 0.0083 V 14.427964 c 2.361661,2.063019 5.01286,4.080148 7.880662,6.9477 4.751536,4.752036 3.834744,10.989169 3.834744,18.513871 h 7.490993 c 0,-7.741191 1.102042,-16.679561 -6.028884,-23.810237 C 44.909392,13.839991 42.790338,12.066639 40.920837,10.50202 35.977031,6.3644955 33.971185,4.5060817 33.971185,0 Z M 127.97729,25.902448 63.804452,38.623967 v 58.360979 c -2.680027,-1.797587 -5.901154,-2.847656 -9.36374,-2.847656 -9.293825,0 -16.854734,7.56091 -16.854734,16.85474 0,9.29382 7.560909,16.85473 16.854734,16.85473 9.293824,0 16.854733,-7.56091 16.854733,-16.85473 V 59.578262 C 83.710516,57.11922 108.15437,52.278873 120.48629,49.836559 v 32.166399 c -2.68002,-1.797588 -5.90114,-2.848137 -9.36373,-2.848137 -9.29383,0 -16.854742,7.560908 -16.854742,16.854736 0,9.293823 7.560912,16.854733 16.854742,16.854733 9.29382,0 16.85473,-7.56091 16.85473,-16.854733 z"
     id="path6209" />
</svg>
