<?xml version="1.0" encoding="UTF-8" standalone="no"?>
<svg
   xmlns:dc="http://purl.org/dc/elements/1.1/"
   xmlns:cc="http://creativecommons.org/ns#"
   xmlns:rdf="http://www.w3.org/1999/02/22-rdf-syntax-ns#"
   xmlns:svg="http://www.w3.org/2000/svg"
   xmlns="http://www.w3.org/2000/svg"
   xmlns:sodipodi="http://sodipodi.sourceforge.net/DTD/sodipodi-0.dtd"
   xmlns:inkscape="http://www.inkscape.org/namespaces/inkscape"
   inkscape:version="1.0 (4035a4fb49, 2020-05-01)"
   height="128"
   width="128"
   sodipodi:docname="sound128.svg"
   xml:space="preserve"
   viewBox="0 0 128 128"
   y="0px"
   x="0px"
   id="Capa_1"
   version="1.1"><metadata
   id="metadata1466"><rdf:RDF><cc:Work
       rdf:about=""><dc:format>image/svg+xml</dc:format><dc:type
         rdf:resource="http://purl.org/dc/dcmitype/StillImage" /><dc:title></dc:title></cc:Work></rdf:RDF></metadata><defs
   id="defs1464">
	
	
	
	
</defs><sodipodi:namedview
   inkscape:current-layer="Capa_1"
   showgrid="false"
   id="namedview1462"
   inkscape:window-height="480"
   inkscape:window-width="640"
   inkscape:pageshadow="2"
   inkscape:pageopacity="0"
   guidetolerance="10"
   gridtolerance="10"
   objecttolerance="10"
   borderopacity="1"
   bordercolor="#666666"
   pagecolor="#ffffff" />
<path
   style="stroke-width:2.12589"
   d="m 93.676212,14 c -0.8282,-3.98e-4 -1.617968,0.483906 -1.963957,1.295465 -0.457067,1.082078 0.0473,2.331039 1.129379,2.790231 18.503756,7.850915 30.460026,25.909559 30.460026,46.005604 0,20.784834 -12.53133,39.074 -31.921575,46.5869 -1.094834,0.42518 -1.637602,1.65803 -1.212424,2.75287 0.325262,0.84185 1.132237,1.35774 1.984719,1.35774 0.255107,0 0.511011,-0.0434 0.763992,-0.14118 C 113.95631,106.4906 127.55344,86.644875 127.55344,64.0913 127.55344,42.283913 114.5794,22.686656 94.502487,14.166085 94.232498,14.052882 93.952281,14.000133 93.676212,14 Z m -36.588571,2.254607 c -1.128317,0.01648 -2.252515,0.336455 -3.27188,0.950838 -0.09779,0.0574 -0.193158,0.12287 -0.278192,0.19515 L 24.734241,41.769448 H 2.1258907 C 0.95027316,41.769448 0,42.719721 0,43.895338 v 40.391924 c 0,0.565487 0.22315209,1.10553 0.62281955,1.503071 0.39966745,0.397542 0.93758425,0.62282 1.50307115,0.62282 l 22.5543723,-0.0083 28.790872,26.444917 c 0.106295,0.0978 0.22345,0.181 0.344626,0.25328 1.045938,0.63139 2.204615,0.95084 3.363225,0.95084 1.099086,-0.002 2.195648,-0.2856 3.205446,-0.85534 2.123765,-1.19902 3.39229,-3.38838 3.39229,-5.85867 V 22.968602 c 0,-2.468159 -1.268525,-4.657528 -3.39229,-5.858656 C 59.34806,16.5232 58.215957,16.238131 57.087641,16.254607 Z m 0.369539,4.276694 c 0.376283,0.05049 0.673973,0.184653 0.83873,0.278193 0.769572,0.435808 1.229031,1.242849 1.229031,2.159108 v 84.371288 c 0,0.91626 -0.459459,1.7233 -1.229031,2.15911 -0.329513,0.18495 -1.164988,0.5408 -2.125891,0.054 L 27.63658,83.340576 v -9.682767 c 0,-1.175618 -0.950274,-2.125891 -2.125891,-2.125891 -1.175618,0 -2.125891,0.950273 -2.125891,2.125891 v 8.495259 l -19.1330165,0.0083 V 46.021216 H 23.384798 v 8.503563 c 0,1.175618 0.950273,2.125891 2.125891,2.125891 1.175617,0 2.125891,-0.950273 2.125891,-2.125891 V 44.879392 L 56.13265,20.772125 c 0.490018,-0.257233 0.948248,-0.291314 1.32453,-0.240824 z m 24.186159,4.239325 c -0.826108,0.06079 -1.5805,0.602756 -1.864306,1.436637 -0.376283,1.109715 0.220993,2.320477 1.332833,2.698886 15.095951,5.125522 25.236654,19.266382 25.236654,35.189303 0,15.908041 -10.120641,30.0489 -25.186829,35.189304 -1.109715,0.378409 -1.705064,1.589074 -1.324528,2.703034 0.301877,0.88225 1.12526,1.43664 2.00963,1.43664 0.227471,0 0.457632,-0.0334 0.685103,-0.1121 16.790285,-5.729273 28.068404,-21.491092 28.068404,-39.221021 0,-17.74481 -11.300209,-33.504603 -28.122383,-39.216872 -0.277429,-0.09407 -0.559209,-0.124064 -0.834578,-0.103802 z M 69.901114,36.471328 c -0.821923,0.09875 -1.544029,0.67145 -1.789569,1.519681 -0.325259,1.126722 0.322272,2.307188 1.453246,2.63245 10.39348,3.003883 17.654859,12.653435 17.654859,23.467841 0,10.814407 -7.261379,20.46811 -17.654859,23.471994 -1.128848,0.325259 -1.778507,1.505728 -1.453246,2.63245 0.26999,0.93114 1.118087,1.536288 2.042849,1.536288 0.195582,0 0.394021,-0.02776 0.589603,-0.08304 C 82.948736,88.11789 91.46728,76.785 91.46728,64.091307 c 0,-12.69582 -8.52067,-24.02456 -20.723283,-27.553538 -0.28168,-0.08025 -0.568909,-0.09934 -0.842883,-0.06643 z"
   id="path1421" />















</svg>
