<svg height="512" viewBox="0 0 128 128" width="512" xmlns="http://www.w3.org/2000/svg"><g><path d="m121.693 4.557h-115.386a1.749 1.749 0 0 0 -1.75 1.75v115.386a1.749 1.749 0 0 0 1.75 1.75h115.386a1.749 1.749 0 0 0 1.75-1.75v-115.386a1.749 1.749 0 0 0 -1.75-1.75zm-1.75 115.386h-111.886v-111.886h111.886z"/><path d="m44.021 39.343h2.047v49.77a5.071 5.071 0 1 0 10.141 0v-49.77h2.047a1.749 1.749 0 0 0 1.75-1.75v-6.247a1.749 1.749 0 0 0 -1.75-1.75h-2.047v-10.178a5.071 5.071 0 0 0 -10.141 0v10.182h-2.047a1.75 1.75 0 0 0 -1.75 1.75v6.247a1.75 1.75 0 0 0 1.75 1.746zm8.688 49.77a1.571 1.571 0 1 1 -3.141 0v-49.77h3.141zm-3.141-69.695a1.571 1.571 0 0 1 3.141 0v10.182h-3.141zm-3.797 13.682h10.735v2.747h-10.735z"/><path d="m51.139 98.447a7.6 7.6 0 1 0 7.6 7.6 7.611 7.611 0 0 0 -7.6-7.6zm0 11.7a4.1 4.1 0 1 1 4.1-4.1 4.108 4.108 0 0 1 -4.1 4.105z"/><path d="m18.3 80.884h2.047v8.229a5.071 5.071 0 1 0 10.141 0v-8.229h2.047a1.749 1.749 0 0 0 1.75-1.75v-6.247a1.749 1.749 0 0 0 -1.75-1.75h-2.048v-51.719a5.071 5.071 0 0 0 -10.141 0v51.719h-2.046a1.749 1.749 0 0 0 -1.75 1.75v6.247a1.749 1.749 0 0 0 1.75 1.75zm8.688 8.229a1.571 1.571 0 1 1 -3.141 0v-8.229h3.141zm-3.142-69.695a1.571 1.571 0 0 1 3.141 0v51.719h-3.141zm-3.8 55.219h10.738v2.747h-10.735z"/><path d="m25.417 98.447a7.6 7.6 0 1 0 7.6 7.6 7.612 7.612 0 0 0 -7.6-7.6zm0 11.7a4.1 4.1 0 1 1 4.1-4.1 4.108 4.108 0 0 1 -4.1 4.105z"/><path d="m76.861 98.447a7.6 7.6 0 1 0 7.6 7.6 7.611 7.611 0 0 0 -7.6-7.6zm0 11.7a4.1 4.1 0 1 1 4.1-4.1 4.108 4.108 0 0 1 -4.1 4.105z"/><path d="m69.744 78.884h2.047v10.229a5.071 5.071 0 1 0 10.141 0v-10.229h2.046a1.749 1.749 0 0 0 1.75-1.75v-6.247a1.749 1.749 0 0 0 -1.75-1.75h-2.046v-49.719a5.071 5.071 0 0 0 -10.141 0v49.719h-2.047a1.749 1.749 0 0 0 -1.75 1.75v6.247a1.749 1.749 0 0 0 1.75 1.75zm8.688 10.229a1.571 1.571 0 1 1 -3.141 0v-10.229h3.141zm-3.141-69.695a1.571 1.571 0 0 1 3.141 0v49.719h-3.141zm-3.8 53.219h10.737v2.747h-10.734z"/><path d="m102.583 98.447a7.6 7.6 0 1 0 7.6 7.6 7.611 7.611 0 0 0 -7.6-7.6zm0 11.7a4.1 4.1 0 1 1 4.1-4.1 4.108 4.108 0 0 1 -4.1 4.105z"/><path d="m95.466 37.4h2.047v51.713a5.071 5.071 0 1 0 10.141 0v-51.713h2.046a1.75 1.75 0 0 0 1.75-1.75v-6.25a1.75 1.75 0 0 0 -1.75-1.75h-2.047v-8.232a5.071 5.071 0 0 0 -10.141 0v8.229h-2.046a1.75 1.75 0 0 0 -1.75 1.75v6.248a1.75 1.75 0 0 0 1.75 1.755zm8.688 51.718a1.571 1.571 0 1 1 -3.141 0v-51.718h3.141zm-3.141-69.695a1.571 1.571 0 0 1 3.141 0v8.229h-3.141zm-3.8 11.729h10.735v2.748h-10.732z"/></g></svg>