<?xml version="1.0" encoding="UTF-8" standalone="no"?>
<svg
   xmlns:dc="http://purl.org/dc/elements/1.1/"
   xmlns:cc="http://creativecommons.org/ns#"
   xmlns:rdf="http://www.w3.org/1999/02/22-rdf-syntax-ns#"
   xmlns:svg="http://www.w3.org/2000/svg"
   xmlns="http://www.w3.org/2000/svg"
   xmlns:sodipodi="http://sodipodi.sourceforge.net/DTD/sodipodi-0.dtd"
   xmlns:inkscape="http://www.inkscape.org/namespaces/inkscape"
   inkscape:version="1.0 (4035a4fb49, 2020-05-01)"
   height="128"
   width="128"
   sodipodi:docname="undo128.svg"
   xml:space="preserve"
   viewBox="0 0 128 128"
   y="0px"
   x="0px"
   id="Capa_1"
   version="1.1"><metadata
   id="metadata209"><rdf:RDF><cc:Work
       rdf:about=""><dc:format>image/svg+xml</dc:format><dc:type
         rdf:resource="http://purl.org/dc/dcmitype/StillImage" /><dc:title></dc:title></cc:Work></rdf:RDF></metadata><defs
   id="defs207" /><sodipodi:namedview
   inkscape:current-layer="Capa_1"
   inkscape:cy="62.496873"
   inkscape:cx="111.83347"
   inkscape:zoom="5.7239798"
   showgrid="false"
   id="namedview205"
   inkscape:window-height="480"
   inkscape:window-width="640"
   inkscape:pageshadow="2"
   inkscape:pageopacity="0"
   guidetolerance="10"
   gridtolerance="10"
   objecttolerance="10"
   borderopacity="1"
   bordercolor="#666666"
   pagecolor="#ffffff" />
<path
   style="stroke-width:2.43419"
   id="path172"
   d="m 125.89118,119.79354 -3.26425,-5.48178 C 97.54996,72.176017 63.227953,74.761121 54.827581,76.124265 V 109.33142 L 0,54.406467 54.827581,0 v 32.691103 c 0.279931,0 0.557428,-0.0024 0.83736,-0.0024 30.468692,0 44.530979,12.81355 45.134659,13.37828 33.5455,27.90793 26.38413,67.071527 26.30867,67.463427 z M 62.083886,70.812873 c 14.115839,0 40.112934,4.680938 60.837584,34.918387 C 123.23305,93.871907 120.74044,68.987235 97.581605,49.715793 97.34062,49.501584 83.134717,36.658825 52.468856,37.605723 l -2.507211,0.07302 V 11.69139 L 6.8936117,54.421072 49.959211,97.564565 V 72.214964 l 1.849981,-0.457627 c 0.131446,-0.03408 4.048049,-0.944464 10.274694,-0.944464 z" />















</svg>
