<?xml version="1.0" encoding="UTF-8" standalone="no"?>
<svg
   xmlns:dc="http://purl.org/dc/elements/1.1/"
   xmlns:cc="http://creativecommons.org/ns#"
   xmlns:rdf="http://www.w3.org/1999/02/22-rdf-syntax-ns#"
   xmlns:svg="http://www.w3.org/2000/svg"
   xmlns="http://www.w3.org/2000/svg"
   xmlns:sodipodi="http://sodipodi.sourceforge.net/DTD/sodipodi-0.dtd"
   xmlns:inkscape="http://www.inkscape.org/namespaces/inkscape"
   inkscape:version="1.0 (4035a4fb49, 2020-05-01)"
   height="128"
   width="128"
   sodipodi:docname="wave128.svg"
   xml:space="preserve"
   viewBox="0 0 128 128"
   y="0px"
   x="0px"
   id="Capa_1"
   version="1.1"><metadata
   id="metadata4974"><rdf:RDF><cc:Work
       rdf:about=""><dc:format>image/svg+xml</dc:format><dc:type
         rdf:resource="http://purl.org/dc/dcmitype/StillImage" /><dc:title></dc:title></cc:Work></rdf:RDF></metadata><defs
   id="defs4972" /><sodipodi:namedview
   inkscape:current-layer="Capa_1"
   inkscape:cy="93.870183"
   inkscape:cx="27.734618"
   inkscape:zoom="3.6221616"
   showgrid="false"
   id="namedview4970"
   inkscape:window-height="480"
   inkscape:window-width="640"
   inkscape:pageshadow="2"
   inkscape:pageopacity="0"
   guidetolerance="10"
   gridtolerance="10"
   objecttolerance="10"
   borderopacity="1"
   bordercolor="#666666"
   pagecolor="#ffffff" />

<path
   d="M 37.765625 0 C 36.162001 -5.9211895e-16 34.861328 1.3009462 34.861328 2.9042969 L 34.861328 124.91992 C 34.861328 126.52354 36.162001 127.82422 37.765625 127.82422 C 39.369248 127.82422 40.671603 126.52355 40.671875 124.91992 L 40.671875 2.9042969 C 40.671875 1.3006737 39.369248 0 37.765625 0 z M 55.197266 5.8105469 C 53.593642 5.8105469 52.292969 7.1112206 52.292969 8.7148438 L 52.292969 119.10938 C 52.292969 120.713 53.593642 122.01562 55.197266 122.01562 C 56.800888 122.01562 58.101562 120.713 58.101562 119.10938 L 58.101562 8.7148438 C 58.101562 7.1112206 56.800888 5.8105469 55.197266 5.8105469 z M 90.058594 5.8105469 C 88.45497 5.8105469 87.154297 7.1112206 87.154297 8.7148438 L 87.154297 119.10938 C 87.154297 120.713 88.45497 122.01562 90.058594 122.01562 C 91.662217 122.01562 92.962622 120.713 92.962891 119.10938 L 92.962891 8.7148438 C 92.962891 7.1112206 91.662217 5.8105469 90.058594 5.8105469 z M 20.335938 23.240234 C 18.732313 23.240234 17.431641 24.542861 17.431641 26.146484 L 17.431641 101.67969 C 17.431641 103.28331 18.732314 104.58398 20.335938 104.58398 C 21.93956 104.58398 23.240234 103.28331 23.240234 101.67969 L 23.240234 26.146484 C 23.240234 24.542861 21.93956 23.240234 20.335938 23.240234 z M 72.628906 29.050781 C 71.025283 29.050781 69.722656 30.353408 69.722656 31.957031 L 69.722656 95.869141 C 69.722656 97.472761 71.025283 98.773438 72.628906 98.773438 C 74.232529 98.773437 75.53293 97.472761 75.533203 95.869141 L 75.533203 31.957031 C 75.533203 30.353408 74.232529 29.050781 72.628906 29.050781 z M 107.49023 29.050781 C 105.88661 29.050781 104.58398 30.353408 104.58398 31.957031 L 104.58398 95.869141 C 104.58398 97.472761 105.88661 98.773438 107.49023 98.773438 C 109.09385 98.773437 110.39426 97.472761 110.39453 95.869141 L 110.39453 31.957031 C 110.39453 30.353408 109.09385 29.050781 107.49023 29.050781 z M 2.9042969 46.482422 C 1.3006737 46.482422 0 47.783096 0 49.386719 L 0 78.4375 C -2.9605947e-16 80.041124 1.3006737 81.34375 2.9042969 81.34375 C 4.50792 81.34375 5.8102746 80.041124 5.8105469 78.4375 L 5.8105469 49.386719 C 5.8105469 47.783096 4.50792 46.482422 2.9042969 46.482422 z M 124.91992 46.482422 C 123.3163 46.482422 122.01562 47.783096 122.01562 49.386719 L 122.01562 78.4375 C 122.01563 80.041124 123.3163 81.34375 124.91992 81.34375 C 126.52355 81.34375 127.8259 80.041124 127.82617 78.4375 L 127.82617 49.386719 C 127.82617 47.783096 126.52355 46.482422 124.91992 46.482422 z "
   style="stroke-width:0.272354"
   id="path4923" />






















</svg>
