<?xml version="1.0" encoding="iso-8859-1"?>
<!-- Generator: Adobe Illustrator 19.0.0, SVG Export Plug-In . SVG Version: 6.00 Build 0)  -->
<svg version="1.1" id="Capa_1" xmlns="http://www.w3.org/2000/svg" xmlns:xlink="http://www.w3.org/1999/xlink" x="0px" y="0px"
	 viewBox="0 0 490.667 490.667" style="enable-background:new 0 0 490.667 490.667;" xml:space="preserve">
<g>
	<path style="fill:#607D8B;" d="M96,480H10.667C4.779,480,0,475.221,0,469.333s4.779-10.667,10.667-10.667H96
		c5.888,0,10.667,4.779,10.667,10.667S101.888,480,96,480z"/>
	<path style="fill:#607D8B;" d="M96,416H10.667C4.779,416,0,411.221,0,405.333s4.779-10.667,10.667-10.667H96
		c5.888,0,10.667,4.779,10.667,10.667S101.888,416,96,416z"/>
	<path style="fill:#607D8B;" d="M96,352H10.667C4.779,352,0,347.221,0,341.333s4.779-10.667,10.667-10.667H96
		c5.888,0,10.667,4.779,10.667,10.667S101.888,352,96,352z"/>
	<path style="fill:#607D8B;" d="M96,288H10.667C4.779,288,0,283.221,0,277.333s4.779-10.667,10.667-10.667H96
		c5.888,0,10.667,4.779,10.667,10.667S101.888,288,96,288z"/>
	<path style="fill:#607D8B;" d="M96,224H10.667C4.779,224,0,219.221,0,213.333s4.779-10.667,10.667-10.667H96
		c5.888,0,10.667,4.779,10.667,10.667S101.888,224,96,224z"/>
</g>
<g>
	<path style="fill:#F44336;" d="M224,480h-85.333c-5.888,0-10.667-4.779-10.667-10.667s4.779-10.667,10.667-10.667H224
		c5.888,0,10.667,4.779,10.667,10.667S229.888,480,224,480z"/>
	<path style="fill:#F44336;" d="M224,416h-85.333c-5.888,0-10.667-4.779-10.667-10.667s4.779-10.667,10.667-10.667H224
		c5.888,0,10.667,4.779,10.667,10.667S229.888,416,224,416z"/>
	<path style="fill:#F44336;" d="M224,352h-85.333c-5.888,0-10.667-4.779-10.667-10.667s4.779-10.667,10.667-10.667H224
		c5.888,0,10.667,4.779,10.667,10.667S229.888,352,224,352z"/>
	<path style="fill:#F44336;" d="M224,288h-85.333c-5.888,0-10.667-4.779-10.667-10.667s4.779-10.667,10.667-10.667H224
		c5.888,0,10.667,4.779,10.667,10.667S229.888,288,224,288z"/>
	<path style="fill:#F44336;" d="M224,224h-85.333c-5.888,0-10.667-4.779-10.667-10.667s4.779-10.667,10.667-10.667H224
		c5.888,0,10.667,4.779,10.667,10.667S229.888,224,224,224z"/>
	<path style="fill:#F44336;" d="M224,160h-85.333c-5.888,0-10.667-4.779-10.667-10.667s4.779-10.667,10.667-10.667H224
		c5.888,0,10.667,4.779,10.667,10.667S229.888,160,224,160z"/>
	<path style="fill:#F44336;" d="M224,96h-85.333C132.779,96,128,91.221,128,85.333s4.779-10.667,10.667-10.667H224
		c5.888,0,10.667,4.779,10.667,10.667S229.888,96,224,96z"/>
	<path style="fill:#F44336;" d="M224,32h-85.333C132.779,32,128,27.221,128,21.333s4.779-10.667,10.667-10.667H224
		c5.888,0,10.667,4.779,10.667,10.667S229.888,32,224,32z"/>
</g>
<g>
	<path style="fill:#4CAF50;" d="M352,480h-85.333c-5.888,0-10.667-4.779-10.667-10.667s4.779-10.667,10.667-10.667H352
		c5.888,0,10.667,4.779,10.667,10.667S357.888,480,352,480z"/>
	<path style="fill:#4CAF50;" d="M352,416h-85.333c-5.888,0-10.667-4.779-10.667-10.667s4.779-10.667,10.667-10.667H352
		c5.888,0,10.667,4.779,10.667,10.667S357.888,416,352,416z"/>
	<path style="fill:#4CAF50;" d="M352,352h-85.333c-5.888,0-10.667-4.779-10.667-10.667s4.779-10.667,10.667-10.667H352
		c5.888,0,10.667,4.779,10.667,10.667S357.888,352,352,352z"/>
</g>
<g>
	<path style="fill:#FFC107;" d="M480,480h-85.333c-5.888,0-10.667-4.779-10.667-10.667s4.779-10.667,10.667-10.667H480
		c5.888,0,10.667,4.779,10.667,10.667S485.888,480,480,480z"/>
	<path style="fill:#FFC107;" d="M480,416h-85.333c-5.888,0-10.667-4.779-10.667-10.667s4.779-10.667,10.667-10.667H480
		c5.888,0,10.667,4.779,10.667,10.667S485.888,416,480,416z"/>
	<path style="fill:#FFC107;" d="M480,352h-85.333c-5.888,0-10.667-4.779-10.667-10.667s4.779-10.667,10.667-10.667H480
		c5.888,0,10.667,4.779,10.667,10.667S485.888,352,480,352z"/>
	<path style="fill:#FFC107;" d="M480,288h-85.333c-5.888,0-10.667-4.779-10.667-10.667s4.779-10.667,10.667-10.667H480
		c5.888,0,10.667,4.779,10.667,10.667S485.888,288,480,288z"/>
	<path style="fill:#FFC107;" d="M480,224h-85.333c-5.888,0-10.667-4.779-10.667-10.667s4.779-10.667,10.667-10.667H480
		c5.888,0,10.667,4.779,10.667,10.667S485.888,224,480,224z"/>
	<path style="fill:#FFC107;" d="M480,160h-85.333c-5.888,0-10.667-4.779-10.667-10.667s4.779-10.667,10.667-10.667H480
		c5.888,0,10.667,4.779,10.667,10.667S485.888,160,480,160z"/>
</g>
<path d="M96,480H10.667C4.779,480,0,475.221,0,469.333s4.779-10.667,10.667-10.667H96c5.888,0,10.667,4.779,10.667,10.667
	S101.888,480,96,480z"/>
<path d="M96,416H10.667C4.779,416,0,411.221,0,405.333s4.779-10.667,10.667-10.667H96c5.888,0,10.667,4.779,10.667,10.667
	S101.888,416,96,416z"/>
<path d="M96,352H10.667C4.779,352,0,347.221,0,341.333s4.779-10.667,10.667-10.667H96c5.888,0,10.667,4.779,10.667,10.667
	S101.888,352,96,352z"/>
<path d="M96,288H10.667C4.779,288,0,283.221,0,277.333s4.779-10.667,10.667-10.667H96c5.888,0,10.667,4.779,10.667,10.667
	S101.888,288,96,288z"/>
<path d="M96,224H10.667C4.779,224,0,219.221,0,213.333s4.779-10.667,10.667-10.667H96c5.888,0,10.667,4.779,10.667,10.667
	S101.888,224,96,224z"/>
<path d="M224,480h-85.333c-5.888,0-10.667-4.779-10.667-10.667s4.779-10.667,10.667-10.667H224c5.888,0,10.667,4.779,10.667,10.667
	S229.888,480,224,480z"/>
<path d="M224,416h-85.333c-5.888,0-10.667-4.779-10.667-10.667s4.779-10.667,10.667-10.667H224c5.888,0,10.667,4.779,10.667,10.667
	S229.888,416,224,416z"/>
<path d="M224,352h-85.333c-5.888,0-10.667-4.779-10.667-10.667s4.779-10.667,10.667-10.667H224c5.888,0,10.667,4.779,10.667,10.667
	S229.888,352,224,352z"/>
<path d="M224,288h-85.333c-5.888,0-10.667-4.779-10.667-10.667s4.779-10.667,10.667-10.667H224c5.888,0,10.667,4.779,10.667,10.667
	S229.888,288,224,288z"/>
<path d="M224,224h-85.333c-5.888,0-10.667-4.779-10.667-10.667s4.779-10.667,10.667-10.667H224c5.888,0,10.667,4.779,10.667,10.667
	S229.888,224,224,224z"/>
<path d="M224,160h-85.333c-5.888,0-10.667-4.779-10.667-10.667s4.779-10.667,10.667-10.667H224c5.888,0,10.667,4.779,10.667,10.667
	S229.888,160,224,160z"/>
<path d="M224,96h-85.333C132.779,96,128,91.221,128,85.333s4.779-10.667,10.667-10.667H224c5.888,0,10.667,4.779,10.667,10.667
	S229.888,96,224,96z"/>
<path d="M224,32h-85.333C132.779,32,128,27.221,128,21.333s4.779-10.667,10.667-10.667H224c5.888,0,10.667,4.779,10.667,10.667
	S229.888,32,224,32z"/>
<path d="M352,480h-85.333c-5.888,0-10.667-4.779-10.667-10.667s4.779-10.667,10.667-10.667H352c5.888,0,10.667,4.779,10.667,10.667
	S357.888,480,352,480z"/>
<path d="M352,416h-85.333c-5.888,0-10.667-4.779-10.667-10.667s4.779-10.667,10.667-10.667H352c5.888,0,10.667,4.779,10.667,10.667
	S357.888,416,352,416z"/>
<path d="M352,352h-85.333c-5.888,0-10.667-4.779-10.667-10.667s4.779-10.667,10.667-10.667H352c5.888,0,10.667,4.779,10.667,10.667
	S357.888,352,352,352z"/>
<path d="M480,480h-85.333c-5.888,0-10.667-4.779-10.667-10.667s4.779-10.667,10.667-10.667H480c5.888,0,10.667,4.779,10.667,10.667
	S485.888,480,480,480z"/>
<path d="M480,416h-85.333c-5.888,0-10.667-4.779-10.667-10.667s4.779-10.667,10.667-10.667H480c5.888,0,10.667,4.779,10.667,10.667
	S485.888,416,480,416z"/>
<path d="M480,352h-85.333c-5.888,0-10.667-4.779-10.667-10.667s4.779-10.667,10.667-10.667H480c5.888,0,10.667,4.779,10.667,10.667
	S485.888,352,480,352z"/>
<path d="M480,288h-85.333c-5.888,0-10.667-4.779-10.667-10.667s4.779-10.667,10.667-10.667H480c5.888,0,10.667,4.779,10.667,10.667
	S485.888,288,480,288z"/>
<path d="M480,224h-85.333c-5.888,0-10.667-4.779-10.667-10.667s4.779-10.667,10.667-10.667H480c5.888,0,10.667,4.779,10.667,10.667
	S485.888,224,480,224z"/>
<path d="M480,160h-85.333c-5.888,0-10.667-4.779-10.667-10.667s4.779-10.667,10.667-10.667H480c5.888,0,10.667,4.779,10.667,10.667
	S485.888,160,480,160z"/>
<g>
</g>
<g>
</g>
<g>
</g>
<g>
</g>
<g>
</g>
<g>
</g>
<g>
</g>
<g>
</g>
<g>
</g>
<g>
</g>
<g>
</g>
<g>
</g>
<g>
</g>
<g>
</g>
<g>
</g>
</svg>
