<?xml version="1.0" encoding="UTF-8" standalone="no"?>
<svg
   xmlns:dc="http://purl.org/dc/elements/1.1/"
   xmlns:cc="http://creativecommons.org/ns#"
   xmlns:rdf="http://www.w3.org/1999/02/22-rdf-syntax-ns#"
   xmlns:svg="http://www.w3.org/2000/svg"
   xmlns="http://www.w3.org/2000/svg"
   xmlns:sodipodi="http://sodipodi.sourceforge.net/DTD/sodipodi-0.dtd"
   xmlns:inkscape="http://www.inkscape.org/namespaces/inkscape"
   inkscape:version="1.0 (4035a4fb49, 2020-05-01)"
   height="512"
   width="512"
   sodipodi:docname="wave512.svg"
   xml:space="preserve"
   viewBox="0 0 511.99999 511.99999"
   y="0px"
   x="0px"
   id="Capa_1"
   version="1.1"><metadata
   id="metadata1068"><rdf:RDF><cc:Work
       rdf:about=""><dc:format>image/svg+xml</dc:format><dc:type
         rdf:resource="http://purl.org/dc/dcmitype/StillImage" /><dc:title></dc:title></cc:Work></rdf:RDF></metadata><defs
   id="defs1066" /><sodipodi:namedview
   inkscape:current-layer="Capa_1"
   showgrid="false"
   id="namedview1064"
   inkscape:window-height="480"
   inkscape:window-width="640"
   inkscape:pageshadow="2"
   inkscape:pageopacity="0"
   guidetolerance="10"
   gridtolerance="10"
   objecttolerance="10"
   borderopacity="1"
   bordercolor="#666666"
   pagecolor="#ffffff" />
<g
   transform="scale(1.0902611)"
   id="g1015">
	<path
   id="path999"
   d="M 10.667,298.667 C 4.779,298.667 0,293.888 0,288 V 181.333 c 0,-5.888 4.779,-10.667 10.667,-10.667 5.888,0 10.667,4.779 10.667,10.667 V 288 c -0.001,5.888 -4.779,10.667 -10.667,10.667 z"
   style="fill:#f44336" />
	<path
   id="path1001"
   d="M 74.667,384 C 68.779,384 64,379.221 64,373.333 V 96 c 0,-5.888 4.779,-10.667 10.667,-10.667 5.888,0 10.666,4.779 10.666,10.667 v 277.333 c 0,5.888 -4.778,10.667 -10.666,10.667 z"
   style="fill:#f44336" />
	<path
   id="path1003"
   d="m 138.667,469.333 c -5.888,0 -10.667,-4.779 -10.667,-10.667 v -448 C 128,4.779 132.779,0 138.667,0 c 5.888,0 10.667,4.779 10.667,10.667 v 448 c -0.001,5.888 -4.779,10.666 -10.667,10.666 z"
   style="fill:#f44336" />
	<path
   id="path1005"
   d="M 202.667,448 C 196.779,448 192,443.221 192,437.333 V 32 c 0,-5.888 4.779,-10.667 10.667,-10.667 5.888,0 10.666,4.779 10.666,10.667 v 405.333 c 0,5.888 -4.778,10.667 -10.666,10.667 z"
   style="fill:#f44336" />
	<path
   id="path1007"
   d="M 266.667,362.667 C 260.779,362.667 256,357.888 256,352 V 117.333 c 0,-5.888 4.779,-10.667 10.667,-10.667 5.888,0 10.667,4.779 10.667,10.667 V 352 c -10e-4,5.888 -4.779,10.667 -10.667,10.667 z"
   style="fill:#f44336" />
	<path
   id="path1009"
   d="M 330.667,448 C 324.779,448 320,443.221 320,437.333 V 32 c 0,-5.888 4.779,-10.667 10.667,-10.667 5.888,0 10.667,4.779 10.667,10.667 V 437.333 C 341.333,443.221 336.555,448 330.667,448 Z"
   style="fill:#f44336" />
	<path
   id="path1011"
   d="M 394.667,362.667 C 388.779,362.667 384,357.888 384,352 V 117.333 c 0,-5.888 4.779,-10.667 10.667,-10.667 5.888,0 10.667,4.779 10.667,10.667 V 352 c -10e-4,5.888 -4.779,10.667 -10.667,10.667 z"
   style="fill:#f44336" />
	<path
   id="path1013"
   d="M 458.667,298.667 C 452.779,298.667 448,293.888 448,288 V 181.333 c 0,-5.888 4.779,-10.667 10.667,-10.667 5.888,0 10.667,4.779 10.667,10.667 V 288 c -10e-4,5.888 -4.779,10.667 -10.667,10.667 z"
   style="fill:#f44336" />
</g>
<path
   style="stroke-width:1.09026"
   id="path1017"
   d="M 11.629815,325.62501 C 5.2103578,325.62501 0,320.41465 0,313.99519 V 197.70031 c 0,-6.41945 5.2103578,-11.62981 11.629815,-11.62981 6.419457,0 11.629815,5.21036 11.629815,11.62981 v 116.29488 c -0.0011,6.41946 -5.210358,11.62982 -11.629815,11.62982 z" />
<path
   style="stroke-width:1.09026"
   id="path1019"
   d="m 81.406525,418.66026 c -6.419457,0 -11.629815,-5.21036 -11.629815,-11.62982 V 104.66506 c 0,-6.419452 5.210358,-11.62981 11.629815,-11.62981 6.419457,0 11.628725,5.210358 11.628725,11.62981 v 302.36538 c 0,6.41946 -5.209268,11.62982 -11.628725,11.62982 z" />
<path
   style="stroke-width:1.09026"
   id="path1021"
   d="m 151.18323,511.69551 c -6.41945,0 -11.62981,-5.21036 -11.62981,-11.62982 V 11.628725 C 139.55342,5.2103578 144.76378,0 151.18323,0 c 6.41946,0 11.62982,5.2103578 11.62982,11.629815 V 500.06678 c -0.001,6.41946 -5.21036,11.62873 -11.62982,11.62873 z" />
<path
   style="stroke-width:1.09026"
   id="path1023"
   d="m 220.95994,488.43697 c -6.41945,0 -11.62981,-5.21036 -11.62981,-11.62982 V 34.888355 c 0,-6.419457 5.21036,-11.629815 11.62981,-11.629815 6.41946,0 11.62873,5.210358 11.62873,11.629815 V 476.80715 c 0,6.41946 -5.20927,11.62982 -11.62873,11.62982 z" />
<path
   style="stroke-width:1.09026"
   id="path1025"
   d="m 290.73665,395.40172 c -6.41945,0 -11.62981,-5.21036 -11.62981,-11.62982 V 127.9236 c 0,-6.41945 5.21036,-11.62981 11.62981,-11.62981 6.41946,0 11.62982,5.21036 11.62982,11.62981 v 255.8483 c -10e-4,6.41946 -5.21036,11.62982 -11.62982,11.62982 z" />
<path
   style="stroke-width:1.09026"
   id="path1027"
   d="m 360.51336,488.43697 c -6.41945,0 -11.62981,-5.21036 -11.62981,-11.62982 V 34.888355 c 0,-6.419457 5.21036,-11.629815 11.62981,-11.629815 6.41946,0 11.62982,5.210358 11.62982,11.629815 V 476.80715 c -10e-4,6.41946 -5.21036,11.62982 -11.62982,11.62982 z" />
<path
   style="stroke-width:1.09026"
   id="path1029"
   d="m 430.29007,395.40172 c -6.41945,0 -11.62981,-5.21036 -11.62981,-11.62982 V 127.9236 c 0,-6.41945 5.21036,-11.62981 11.62981,-11.62981 6.41946,0 11.62982,5.21036 11.62982,11.62981 v 255.8483 c -0.001,6.41946 -5.21036,11.62982 -11.62982,11.62982 z" />
<path
   style="stroke-width:1.09026"
   id="path1031"
   d="m 500.06678,325.62501 c -6.41945,0 -11.62981,-5.21036 -11.62981,-11.62982 V 197.70031 c 0,-6.41945 5.21036,-11.62981 11.62981,-11.62981 6.41946,0 11.62982,5.21036 11.62982,11.62981 v 116.29488 c -10e-4,6.41946 -5.21036,11.62982 -11.62982,11.62982 z" />
<g
   id="g1033">
</g>
<g
   id="g1035">
</g>
<g
   id="g1037">
</g>
<g
   id="g1039">
</g>
<g
   id="g1041">
</g>
<g
   id="g1043">
</g>
<g
   id="g1045">
</g>
<g
   id="g1047">
</g>
<g
   id="g1049">
</g>
<g
   id="g1051">
</g>
<g
   id="g1053">
</g>
<g
   id="g1055">
</g>
<g
   id="g1057">
</g>
<g
   id="g1059">
</g>
<g
   id="g1061">
</g>
</svg>
