<?xml version='1.0' encoding='UTF-8' standalone='no'?>
<!DOCTYPE svg PUBLIC '-//W3C//DTD SVG 1.1//EN' 'http://www.w3.org/Graphics/SVG/1.1/DTD/svg11.dtd'>
<!-- Animated using aniGen version 0.8.1 Quality of Life - http://anigen.org -->
<svg xmlns:dc="http://purl.org/dc/elements/1.1/" xmlns:cc="http://creativecommons.org/ns#" xmlns:rdf="http://www.w3.org/1999/02/22-rdf-syntax-ns#" xmlns:svg="http://www.w3.org/2000/svg" xmlns="http://www.w3.org/2000/svg" xmlns:sodipodi="http://sodipodi.sourceforge.net/DTD/sodipodi-0.dtd" xmlns:inkscape="http://www.inkscape.org/namespaces/inkscape" sodipodi:docname="charsynth.svg" inkscape:version="1.0 (4035a4f, 2020-05-01)" id="svg2385" version="1.1" viewBox="0 0 70 90" height="90mm" width="70mm" preserveAspectRatio="xMidYMid" xmlns:xlink="http://www.w3.org/1999/xlink" xmlns:anigen="http://www.anigen.org/namespace" anigen:version="0.8.1">
  <defs id="defs2379">
    <filter inkscape:collect="always" style="color-interpolation-filters:sRGB" id="filter39359-55-6-0" x="-0.0019434401" width="1.0038869" y="-0.0017485661" height="1.0034971">
      <feGaussianBlur inkscape:collect="always" stdDeviation="0.01890388" id="feGaussianBlur39361-4-2-2"></feGaussianBlur>
    </filter>
    <filter inkscape:collect="always" style="color-interpolation-filters:sRGB" id="filter39355-1-4-3" x="-0.0098036937" width="1.0196074" y="-0.0064987624" height="1.0129975">
      <feGaussianBlur inkscape:collect="always" stdDeviation="0.10000675" id="feGaussianBlur39357-8-7-7"></feGaussianBlur>
    </filter>
  </defs>
  <sodipodi:namedview inkscape:window-maximized="0" inkscape:window-y="23" inkscape:window-x="0" inkscape:window-height="930" inkscape:window-width="1280" inkscape:snap-global="false" showgrid="false" inkscape:document-rotation="0" inkscape:current-layer="layer1" inkscape:document-units="mm" inkscape:cy="-53.86351623133876" inkscape:cx="65.16939088007666" inkscape:zoom="5.656854249492381" inkscape:pageshadow="2" inkscape:pageopacity="0.0" borderopacity="1.0" bordercolor="#666666" pagecolor="#ffffff" id="base"></sodipodi:namedview>
  <metadata id="metadata2382">
    <rdf:rdf id="rdf:rdf2668">
      <cc:work rdf:about="" id="cc:work496">
        <dc:format id="dc:format5793">image/svg+xml</dc:format>
        <dc:type rdf:resource="http://purl.org/dc/dcmitype/StillImage" id="dc:type3840"></dc:type>
        <dc:title id="dc:title2261"></dc:title>
      </cc:work>
    </rdf:rdf>
  </metadata>
  <g style="display:inline" id="layer1" inkscape:groupmode="layer" inkscape:label="Layer 1">
    <g transform="matrix(0.17864598333835602 0 0 -0.2016846388578415 37.0618963279114 79.14258365875783)" id="g6096" inkscape:transform-center-x="-25.16412995525134" inkscape:transform-center-y="76.20218277579926">
      <g transform="matrix(1 0 0 1 57.32327153064324 130.763887895276)" id="g4585" inkscape:transform-center-x="25.16412995525134" inkscape:transform-center-y="-76.20218277579926">
        <path id="path4587" style="fill:#000001;fill-opacity:1;fill-rule:nonzero;stroke:none" d="M 0 0 L 0 -12 C -0.857 -16.582 -2.449 -20.747999999999998 -5.276 -24.616 C -7.775 -28.034 -7.093999999999999 -32.465 -6.218999999999999 -36.230000000000004 C -2.728999999999999 -51.238 -5.406 -65.938 -7.715 -80.69500000000001 C -9.072 -89.37100000000001 -10.69 -98.00300000000001 -11.745000000000001 -106.726 C -12.429 -112.38 -13.754000000000001 -117.837 -17.057000000000002 -122.628 C -19.968000000000004 -127.566 -24.412000000000003 -129.531 -29.998000000000005 -129.427 C -33.479000000000006 -129.36499999999998 -36.965 -129.427 -40.447 -129.423 C -50.527 -129.416 -53.086 -127.70700000000001 -56.95100000000001 -118.431 C -58.68800000000001 -114.277 -59.45900000000001 -109.943 -59.43800000000001 -105.435 C -59.42900000000001 -103.35900000000001 -59.83800000000001 -101.132 -62.49100000000001 -101.261 C -65.17500000000001 -101.39399999999999 -64.498 -103.863 -64.56400000000001 -105.50699999999999 C -64.74900000000001 -110.10099999999998 -64.27600000000001 -114.73599999999999 -65.58800000000001 -119.24999999999999 C -65.971 -131.308 -76.10700000000001 -135.765 -84.68700000000001 -137.85899999999998 C -93.92800000000001 -140.11499999999998 -102.89600000000002 -137.582 -111.162 -133.33899999999997 C -114.99000000000001 -131.37599999999998 -116.851 -127.43099999999997 -117.322 -123.04399999999997 C -117.403 -116.88599999999997 -118.516 -110.80599999999997 -118.70700000000001 -104.64799999999997 C -118.795 -101.83499999999997 -119.745 -99.14199999999997 -123.364 -99.46599999999997 C -130.267 -100.08299999999997 -136.267 -98.20099999999996 -141.01500000000001 -93.14399999999996 C -145.829 -88.01599999999996 -147.162 -81.28099999999996 -147.81900000000002 -74.71899999999997 C -149.34500000000003 -59.468999999999966 -148.359 -44.169999999999966 -147.56400000000002 -28.897999999999968 C -147.37300000000002 -25.237999999999968 -147.466 -21.57599999999997 -147.38200000000003 -17.916999999999966 C -147.13400000000004 -7.217999999999966 -142.80700000000004 1.184000000000033 -130.88400000000004 2.992000000000033 C -129.57300000000004 3.1910000000000327 -128.30300000000005 3.649000000000033 -126.99600000000004 3.903000000000033 C -118.68000000000004 5.513000000000033 -118.55800000000004 5.492000000000033 -117.34600000000003 13.745000000000033 C -115.94200000000004 23.298000000000034 -112.90000000000003 32.50300000000003 -107.54400000000004 40.24500000000003 C -101.93600000000004 48.35000000000004 -94.07800000000005 54.610000000000035 -83.17500000000004 54.458000000000034 C -72.70100000000004 54.31300000000003 -62.02500000000004 55.949000000000034 -51.79700000000004 53.775000000000034 C -35.533000000000044 50.317000000000036 -22.06200000000004 42.29200000000003 -15.453000000000038 25.845000000000034 C -14.75300000000004 24.102000000000036 -13.861000000000038 22.533000000000033 -12.377000000000038 21.386000000000035 C -5.33 15.941 -1.283 8.773 0 0"></path>
      </g>
      <g transform="matrix(1 0 0 1 -41.85151789806764 162.90451289527596)" id="g4593" inkscape:transform-center-x="25.16412995525134" inkscape:transform-center-y="-76.20218277579926">
        <path id="path4595" style="fill:#d4dff0;fill-opacity:1;fill-rule:evenodd;stroke:none" d="M 0 0 C 5.452 6.801 11.62 12.425 21.198 11.338 C 30.216 10.315 39.429 12.427 48.334 9.032 C 55.69 6.227 61.888 2.154 67.136 -4.837 C 64.126 -4.985 61.562 -5.384 59.043 -5.189 C 47.688 -4.312 36.542 -5.392 25.495 -8.094 C 18.952 -9.693999999999999 14.614 -13.954 13.700000000000001 -20.177 C 12.077000000000002 -31.243000000000002 12.269000000000002 -42.348 17.624000000000002 -52.752 C 23.304000000000002 -63.786 33.481 -66.83500000000001 44.54600000000001 -67.528 C 55.09100000000001 -68.18900000000001 65.331 -65.37100000000001 75.446 -62.688 C 81.376 -61.116 81.292 -60.800000000000004 81.122 -67.161 C 81.712 -76.148 79.269 -84.593 76.523 -92.988 C 73.726 -101.543 67.27799999999999 -105.914 58.92099999999999 -107.303 C 49.75299999999999 -108.826 40.46799999999999 -109.86099999999999 31.29199999999999 -106.79299999999999 C 29.43099999999999 -106.16999999999999 27.34899999999999 -105.785 25.39899999999999 -105.86599999999999 C 14.621999999999991 -106.31699999999998 9.86799999999999 -98.98399999999998 5.975999999999992 -90.80799999999999 C -0.19500000000000828 -77.84299999999999 -2.213000000000008 -63.867999999999995 -3.1850000000000076 -49.724999999999994 C -3.5600000000000076 -44.26199999999999 -3.997000000000008 -38.791 -4.407000000000007 -33.339 C -5.272 -21.839 -2.916 -10.918 0 0"></path>
      </g>
      <g transform="matrix(1 0 0 1 -41.85151789806764 162.90451289527596)" id="g4597" inkscape:transform-center-x="25.16412995525134" inkscape:transform-center-y="-76.20218277579926">
        <path id="path4599" style="fill:#8394c2;fill-opacity:1;fill-rule:evenodd;stroke:none" d="M 0 0 C 1.063 -7.481 -3.03 -14.194 -3.086 -21.573 C -3.239 -41.713 -1.7439999999999998 -61.69 3.501 -81.158 C 5.554 -88.781 9.31 -95.918 15.008 -101.787 C 15.934 -102.74000000000001 16.791999999999998 -103.16300000000001 17.942 -103.27300000000001 C 28.433 -104.275 38.572 -108.19900000000001 49.306 -107.11600000000001 C 53.26 -106.71700000000001 57.29 -106.47500000000001 61.11 -105.48300000000002 C 68.548 -103.55100000000002 73.365 -98.80900000000001 75.761 -91.28300000000002 C 78.27799999999999 -83.37600000000002 79.203 -75.16800000000002 81.122 -67.16000000000001 C 83.003 -80.39300000000001 82.868 -93.58800000000001 80.675 -106.78800000000001 C 79.313 -114.97900000000001 78.191 -123.185 75.54599999999999 -131.12800000000001 C 74.505 -134.257 75.38 -137.72000000000003 75.544 -141.042 C 75.938 -149.035 73.63799999999999 -151.468 65.755 -151.701 C 64.092 -151.75 62.425 -151.72799999999998 60.76 -151.695 C 53.428999999999995 -151.548 50.852999999999994 -148.951 51.077 -141.513 C 51.167 -138.548 51.925999999999995 -135.61100000000002 52.174 -132.644 C 52.321 -130.87300000000002 53.706 -131.226 54.659 -130.806 C 59.71 -128.58200000000002 63.935 -125.59900000000002 66.40299999999999 -122.36300000000001 C 54.57699999999999 -123.78900000000002 43.08299999999999 -123.18500000000002 31.57099999999999 -121.22200000000001 C 25.493999999999993 -120.188 23.728999999999992 -122.27900000000001 22.78599999999999 -128.25 C 21.946999999999992 -133.556 21.850999999999992 -138.824 22.09699999999999 -144.148 C 22.49499999999999 -152.796 18.13199999999999 -157.91899999999998 9.396999999999991 -158.89 C 6.603999999999991 -159.201 3.7749999999999915 -159.087 0.9829999999999917 -158.29799999999997 C -3.5180000000000087 -157.02499999999998 -6.086000000000008 -155.34499999999997 -6.8500000000000085 -149.58899999999997 C -11.312000000000008 -115.96899999999997 -10.661000000000008 -82.27799999999996 -10.359000000000009 -48.50399999999998 C -10.250000000000009 -36.28699999999998 -7.295000000000009 -24.889999999999976 -5.329000000000009 -13.187999999999974 C -4.562 -8.623 -1.834 -4.386 0 0"></path>
      </g>
      <g transform="matrix(1 0 0 1 -62.786607009395766 110.76292659156508)" id="g4601" inkscape:transform-center-x="25.16412995525134" inkscape:transform-center-y="-76.20218277579926">
        <path id="path4603" style="fill:#8293c0;fill-opacity:1;fill-rule:evenodd;stroke:none" d="M 0 0 C -0.511 -21.481 -0.673 -42.958 1.285 -64.387 C 1.521 -66.962 0.7719999999999999 -67.81400000000001 -1.918 -67.911 C -10.891 -68.233 -14.638 -64.85 -16.095 -55.933 C -19.032999999999998 -37.951 -16.823999999999998 -20.061 -15.742999999999999 -2.1400000000000006 C -15.716 -1.6980000000000006 -15.297999999999998 -1.2800000000000007 -15.061999999999998 -0.8520000000000005 C -10.026 -0.844 -5.114 1.372 0 0"></path>
      </g>
      <g transform="matrix(1 0 0 1 47.38287236072139 129.8082909714479)" id="g4605" inkscape:transform-center-x="25.16412995525134" inkscape:transform-center-y="-76.20218277579926">
        <path id="path4607" style="fill:#4a646e;fill-opacity:1;fill-rule:evenodd;stroke:none" d="M 0 0 C 1.716 -6.411 -1.231 -13.287 -8.36 -16.712 C -20.36 -22.479 -32.967 -25.863999999999997 -46.461999999999996 -22.906 C -53.601 -21.342 -59.253 -17.107999999999997 -63.67699999999999 -11.623999999999999 C -68.94999999999999 -5.0859999999999985 -67.06899999999999 9.765 -60.90299999999999 14.757000000000001 C -58.58699999999999 13.035000000000002 -58.105999999999995 10.371000000000002 -57.32699999999999 7.847000000000001 C -54.15299999999999 -2.442999999999998 -48.42199999999999 -6.526999999999999 -37.590999999999994 -6.729999999999999 C -30.611999999999995 -6.8599999999999985 -23.748999999999995 -5.658999999999999 -16.807999999999993 -5.393999999999998 C -10.776 -5.164 -5.225 -2.98 0 0"></path>
      </g>
      <g transform="matrix(1 0 0 1 47.38287236072139 129.8082909714479)" id="g4609" inkscape:transform-center-x="25.16412995525134" inkscape:transform-center-y="-76.20218277579926">
        <path id="path4611" style="fill:#98c7dc;fill-opacity:1;fill-rule:evenodd;stroke:none" d="M 0 0 C -2.455 -4.529 -7.087 -5.481 -11.399 -6.042 C -20.601 -7.2379999999999995 -29.865000000000002 -8.042 -39.181 -7.947 C -49.058 -7.847 -55.429 -3.175 -58.245 6.226 C -59.101 9.079 -60.016 11.914 -60.903 14.757000000000001 C -50.878 16.847 -40.93 19.823 -30.56 19.040000000000003 C -22.782 18.452 -15.203999999999999 16.563000000000002 -8.561999999999998 12.223000000000003 C -4.158 9.345 -0.841 5.482 0 0"></path>
      </g>
      <g transform="matrix(1 0 0 1 -62.786607009395766 110.76292659156508)" id="g4613" inkscape:transform-center-x="25.16412995525134" inkscape:transform-center-y="-76.20218277579926">
        <path id="path4615" style="fill:#d3ddee;fill-opacity:1;fill-rule:evenodd;stroke:none" d="M 0 0 C -4.287 -1.668 -9.166 -0.237 -13.369 -2.664 C -14.565 -3.355 -14.693999999999999 -1.6740000000000002 -15.062 -0.8510000000000002 C -14.943 0.2929999999999997 -14.873999999999999 1.4449999999999996 -14.697999999999999 2.5809999999999995 C -13.339999999999998 11.321 -8.848999999999998 14.282 -0.25099999999999945 12.386999999999999 C 1.727 11.951 0.966 10.73 0.906 9.81 C 0.693 6.534 0.315 3.27 0 0"></path>
      </g>
      <g transform="matrix(1 0 0 1 26.254877823367877 132.76489497535414)" id="g4617" inkscape:transform-center-x="25.16412995525134" inkscape:transform-center-y="-76.20218277579926">
        <path id="path4619" style="fill:#fbfdfc;fill-opacity:1;fill-rule:evenodd;stroke:none" d="M 0 0 C -3.995 -0.953 -9.184 1.666 -14.702 1.2 C -17.941 0.9259999999999999 -21.871 2.394 -21.627 6.589 C -21.416999999999998 10.182 -18.912 12.296 -14.724999999999998 12.723 C -7.854999999999998 13.423 -1.4049999999999976 11.712000000000002 5.128000000000004 10.358 C 7.041 9.962 8.754 8.798 10.207 7.332 C 11.59 5.936 12.525 4.511 11.77 2.475 C 11.018 0.451 9.535 -0.171 7.459 -0.029 C 5.472 0.106 3.467 0 0 0"></path>
      </g>
    <animateTransform attributeName="transform" attributeType="auto" type="skewX" values="0;3;0" calcMode="spline" keyTimes="0;0.49;1" keySplines="0 0 1 1;0 0 1 1" dur="1.85s" begin="0s" repeatCount="indefinite" additive="sum" accumulate="none" fill="freeze" id="animateTransform385"></animateTransform></g>
    <g transform="matrix(0.05862955,0.03028142,-0.03653914,0.0549799,32.960711,46.501033)" id="g5086">
      <g id="g4959">
        <polygon id="polygon4947" points="192.461,402.331 203.493,391.299 203.67,391.476 165.218,429.928 72.698,337.409 111.15,298.956 154.042,341.848 143.01,352.869 " style="fill:#f2f2f2"></polygon>
        <polygon id="polygon4949" points="243.889,351.257 203.67,391.476 203.493,391.299 214.039,380.753 164.577,331.302 154.042,341.848 111.15,298.956 151.37,258.737 " style="fill:#f2f2f2"></polygon>
        <polygon id="polygon4951" points="273.142,321.65 283.931,310.861 284.108,311.038 243.889,351.257 151.37,258.737 191.589,218.518 234.48,261.41 223.68,272.199 " style="fill:#f2f2f2"></polygon>
        <polygon id="polygon4953" points="294.71,300.083 245.258,250.632 234.48,261.41 191.589,218.518 231.797,178.31 274.346,220.859 274.688,221.202 263.899,231.98 313.35,281.442 334.929,259.864 335.105,260.04 284.108,311.038 283.931,310.861 " style="fill:#f2f2f2"></polygon>
        <polygon id="polygon4955" points="364.535,230.61 335.105,260.04 334.929,259.864 285.466,210.413 274.688,221.202 274.346,220.859 231.797,178.31 272.016,138.091 " style="fill:#f2f2f2"></polygon>
        <rect id="rect4957" height="130.838" width="54.375999" style="fill:#f2f2f2" transform="matrix(-0.7071,0.7071,-0.7071,-0.7071,692.9109,43.2399)" y="99.708" x="310.31201"></rect>
      </g>
      <g id="g4967">
        <polygon id="polygon4961" points="192.461,402.331 143.01,352.869 154.042,341.848 164.577,331.302 214.039,380.753 203.493,391.299 " style="fill:#4d4d4d"></polygon>
        <polygon id="polygon4963" points="273.142,321.65 223.68,272.199 234.48,261.41 245.258,250.632 294.71,300.083 283.931,310.861 " style="fill:#4d4d4d"></polygon>
        <polygon id="polygon4965" points="263.899,231.98 274.688,221.202 285.466,210.413 334.929,259.864 313.35,281.442 " style="fill:#4d4d4d"></polygon>
      </g>
      <polygon id="polygon4969" points="401.817,120.72 463.891,229.65 189.822,503.718 48.105,362.002 72.698,337.409 165.218,429.928 203.67,391.476 243.889,351.257 284.108,311.038 335.105,260.04 364.535,230.61 402.988,192.158 310.468,99.639 401.817,8.279 433.445,39.906 " style="fill:#3a88d6"></polygon>
      <g style="display:inline;fill:#000000" id="g4991">
        <path id="path4971" d="m 471.092,225.546 -60.118,-105.49 30.183,-77.133 c 1.199,-3.064 0.47,-6.547 -1.856,-8.874 L 407.677,2.426 c -3.236,-3.235 -8.479,-3.235 -11.713,0 L 42.248,356.141 c -3.235,3.235 -3.235,8.479 0,11.712 l 141.72,141.721 c 1.554,1.554 3.66,2.426 5.857,2.426 2.197,0 4.302,-0.872 5.857,-2.426 L 469.753,235.503 c 2.637,-2.639 3.187,-6.715 1.339,-9.957 z m -278.626,165.069 -37.742,-37.742 9.858,-9.858 37.743,37.742 z m -55.312,-31.886 43.778,43.778 -15.709,15.709 -80.812,-80.813 26.737,-26.737 31.177,31.177 -5.172,5.172 c -3.234,3.236 -3.234,8.479 0.001,11.714 z m 77.063,10.493 -43.778,-43.778 c -1.554,-1.554 -3.66,-2.426 -5.857,-2.426 -2.198,0 -4.302,0.872 -5.857,2.426 l -4.687,4.687 -31.177,-31.177 28.506,-28.506 80.813,80.813 z m 29.675,-29.675 -80.813,-80.813 28.505,-28.506 31.177,31.177 -4.935,4.935 c -1.553,1.553 -2.425,3.66 -2.425,5.856 0,2.197 0.872,4.304 2.425,5.856 l 43.778,43.779 z m 29.247,-29.606 -37.742,-37.742 9.859,-9.858 37.742,37.742 z m 21.752,-21.393 -43.777,-43.778 c -3.236,-3.235 -8.479,-3.235 -11.713,0 l -4.923,4.923 -31.178,-31.177 28.497,-28.497 31.177,31.177 -4.93,4.93 c -3.235,3.235 -3.235,8.479 0,11.712 l 43.778,43.778 z m 18.465,-18.824 -37.742,-37.742 9.858,-9.858 37.743,37.742 z m 21.752,-21.393 -43.778,-43.778 c -1.554,-1.554 -3.66,-2.426 -5.857,-2.426 -2.198,0 -4.302,0.872 -5.857,2.426 l -4.929,4.929 -31.177,-31.177 28.501,-28.501 80.813,80.812 z m 29.428,-29.429 -80.813,-80.813 26.74,-26.74 80.813,80.812 z M 189.824,492.005 59.817,361.997 l 12.881,-12.881 86.669,86.669 c 1.554,1.554 3.66,2.426 5.857,2.426 2.198,0 4.302,-0.872 5.857,-2.426 L 408.848,198.018 c 3.235,-3.235 3.235,-8.479 0,-11.712 l -86.669,-86.669 79.642,-79.642 21.937,21.937 -29.651,75.771 c -0.911,2.329 -0.721,4.946 0.518,7.118 l 58.948,103.437 z" style="fill:#000000"></path>
        <path id="path4973" d="m 200.28,454.168 c -1.323,-3.125 -4.443,-5.183 -7.851,-5.1 -3.463,0.084 -6.571,2.385 -7.655,5.676 -1.152,3.493 0.201,7.438 3.26,9.484 2.843,1.902 6.704,1.827 9.466,-0.19 3.069,-2.239 4.227,-6.356 2.78,-9.87 -0.21,-0.497 0.209,0.508 0,0 z" style="fill:#000000"></path>
        <path id="path4975" d="m 239.428,415.02 c -2.831,-6.692 -12.695,-6.665 -15.354,0.161 -1.174,3.014 -0.455,6.583 1.849,8.872 2.528,2.512 6.478,3.119 9.645,1.497 3.789,-1.94 5.481,-6.595 3.86,-10.53 -0.21,-0.497 0.209,0.508 0,0 z" style="fill:#000000"></path>
        <path id="path4977" d="m 278.576,375.872 c -1.971,-4.68 -7.812,-6.538 -12.11,-3.798 -4.428,2.824 -5.01,9.107 -1.396,12.831 2.752,2.675 7.016,3.191 10.286,1.134 3.372,-2.12 4.74,-6.494 3.22,-10.167 -0.21,-0.497 0.209,0.508 0,0 z" style="fill:#000000"></path>
        <path id="path4979" d="m 210.583,429.641 c -3.579,0.761 -6.321,3.778 -6.63,7.44 -0.282,3.332 1.554,6.573 4.532,8.074 6.79,3.42 14.347,-3.767 11.302,-10.714 -1.537,-3.507 -5.443,-5.555 -9.204,-4.8" style="fill:#000000"></path>
        <path id="path4981" d="m 259.007,395.451 c -1.257,-2.983 -4.165,-5 -7.406,-5.109 -3.639,-0.123 -6.946,2.253 -8.102,5.677 -2.379,7.046 5.518,13.436 11.944,9.797 3.613,-2.044 5.092,-6.534 3.564,-10.365 -0.21,-0.496 0.199,0.497 0,0 z" style="fill:#000000"></path>
        <path id="path4983" d="m 298.144,356.303 c -1.203,-2.997 -4.192,-5.001 -7.4,-5.109 -3.611,-0.121 -6.976,2.251 -8.1,5.677 -2.31,7.042 5.482,13.457 11.948,9.797 3.572,-2.021 5.152,-6.567 3.552,-10.365 -0.199,-0.496 0.21,0.497 0,0 z" style="fill:#000000"></path>
        <path id="path4985" d="m 364.5,273.76 -53.62,53.62 c -3.235,3.235 -3.235,8.479 0,11.712 1.618,1.617 3.738,2.426 5.857,2.426 2.119,0 4.239,-0.808 5.857,-2.426 l 53.62,-53.62 c 3.234,-3.235 3.234,-8.479 0,-11.712 -3.235,-3.234 -8.478,-3.234 -11.714,0 z" style="fill:#000000"></path>
        <path id="path4987" d="m 410.311,239.662 c 1.618,1.617 3.738,2.426 5.857,2.426 2.119,0 4.239,-0.808 5.857,-2.426 l 7.288,-7.288 c 3.235,-3.235 3.235,-8.479 0,-11.712 -3.236,-3.235 -8.479,-3.235 -11.713,0 l -7.288,7.288 c -3.235,3.234 -3.235,8.478 -0.001,11.712 z" style="fill:#000000"></path>
        <path id="path4989" d="m 391.7,246.56 -7.288,7.288 c -3.235,3.235 -3.235,8.479 0,11.712 1.618,1.617 3.738,2.426 5.857,2.426 2.119,0 4.239,-0.808 5.857,-2.426 l 7.288,-7.288 c 3.235,-3.235 3.235,-8.479 0,-11.712 -3.235,-3.233 -8.478,-3.233 -11.714,0 z" style="fill:#000000"></path>
      </g>
      <rect id="rect4993" height="16.565001" width="0.25" transform="matrix(-0.7071,-0.7071,0.7071,-0.7071,70.7918,812.0967)" y="383.10501" x="203.46201"></rect>
      <rect id="rect4995" height="16.565001" width="0.25" transform="matrix(-0.7082,-0.706,0.706,-0.7082,265.6496,731.6838)" y="302.66299" x="283.90302"></rect>
      <g style="display:inline" id="g5013">
        <path id="path4997" d="m 364.226,91.202 c -2.119,0 -4.239,-0.808 -5.857,-2.426 -3.235,-3.235 -3.235,-8.479 0,-11.712 l 35.338,-35.338 c 3.236,-3.235 8.479,-3.235 11.713,0 3.235,3.235 3.235,8.479 0,11.712 l -35.338,35.338 c -1.616,1.617 -3.737,2.426 -5.856,2.426 z" style="fill:#ffffff"></path>
        <path id="path4999" d="m 306.25,149.178 c -2.119,0 -4.239,-0.808 -5.857,-2.426 -3.235,-3.235 -3.235,-8.479 0,-11.712 l 6.626,-6.626 c 3.236,-3.235 8.479,-3.235 11.713,0 3.235,3.235 3.235,8.479 0,11.712 l -6.626,6.626 c -1.617,1.618 -3.737,2.426 -5.856,2.426 z" style="fill:#ffffff"></path>
        <path id="path5001" d="m 267.047,188.381 c -2.119,0 -4.239,-0.808 -5.857,-2.426 -3.235,-3.235 -3.235,-8.479 0,-11.712 l 6.626,-6.626 c 3.236,-3.235 8.479,-3.235 11.713,0 3.235,3.235 3.235,8.479 0,11.712 l -6.626,6.626 c -1.617,1.618 -3.737,2.426 -5.856,2.426 z" style="fill:#ffffff"></path>
        <path id="path5003" d="m 227.843,227.585 c -2.119,0 -4.239,-0.808 -5.857,-2.426 -3.235,-3.235 -3.235,-8.479 0,-11.712 l 6.626,-6.626 c 3.236,-3.235 8.479,-3.235 11.713,0 3.235,3.235 3.235,8.479 0,11.712 l -6.626,6.626 c -1.616,1.617 -3.736,2.426 -5.856,2.426 z" style="fill:#ffffff"></path>
        <path id="path5005" d="m 184.775,270.653 c -2.119,0 -4.239,-0.808 -5.857,-2.426 -3.235,-3.235 -3.235,-8.479 0,-11.712 l 6.626,-6.626 c 3.236,-3.235 8.479,-3.235 11.713,0 3.235,3.235 3.235,8.479 0,11.712 l -6.626,6.626 c -1.616,1.618 -3.737,2.426 -5.856,2.426 z" style="fill:#ffffff"></path>
        <path id="path5007" d="m 148.885,306.543 c -2.119,0 -4.239,-0.808 -5.857,-2.426 -3.235,-3.235 -3.235,-8.479 0,-11.712 l 6.626,-6.626 c 3.236,-3.235 8.479,-3.235 11.713,0 3.234,3.235 3.235,8.479 0,11.712 l -6.626,6.626 c -1.617,1.618 -3.737,2.426 -5.856,2.426 z" style="fill:#ffffff"></path>
        <path id="path5009" d="m 108.025,347.403 c -2.119,0 -4.239,-0.808 -5.857,-2.426 -3.235,-3.235 -3.235,-8.479 0,-11.712 l 6.626,-6.626 c 3.236,-3.235 8.479,-3.235 11.713,0 3.235,3.235 3.235,8.479 0,11.712 l -6.626,6.626 c -1.616,1.617 -3.737,2.426 -5.856,2.426 z" style="fill:#ffffff"></path>
        <path id="path5011" d="m 346.557,108.871 c -2.187,0 -4.318,-0.883 -5.853,-2.429 -0.388,-0.375 -0.729,-0.806 -1.038,-1.259 -0.298,-0.442 -0.552,-0.928 -0.762,-1.425 -0.199,-0.497 -0.363,-1.027 -0.464,-1.546 -0.11,-0.541 -0.165,-1.082 -0.165,-1.623 0,-0.541 0.055,-1.082 0.165,-1.623 0.101,-0.519 0.265,-1.049 0.464,-1.546 0.21,-0.497 0.465,-0.983 0.762,-1.425 0.309,-0.453 0.652,-0.883 1.038,-1.259 0.375,-0.387 0.805,-0.729 1.259,-1.038 0.442,-0.298 0.928,-0.552 1.425,-0.762 0.497,-0.199 1.027,-0.364 1.546,-0.464 2.693,-0.541 5.554,0.342 7.476,2.264 0.387,0.375 0.729,0.806 1.038,1.259 0.298,0.442 0.552,0.928 0.761,1.425 0.199,0.497 0.364,1.027 0.464,1.546 0.112,0.541 0.166,1.082 0.166,1.623 0,0.541 -0.055,1.082 -0.166,1.623 -0.099,0.519 -0.265,1.049 -0.464,1.546 -0.209,0.497 -0.464,0.983 -0.761,1.425 -0.309,0.453 -0.653,0.883 -1.038,1.259 -1.535,1.545 -3.677,2.429 -5.853,2.429 z" style="fill:#ffffff"></path>
      </g>
    </g>
    <g id="g38567-8-2-1" transform="matrix(0.0739751,0.0919607,-0.0919607,0.0739751,47.983787,43.54127)" inkscape:label="righthand" style="display:inline">
      <path id="path37603-3-5-8" fill="#e49542" d="M 21.738618 255.86412 L 6.848827999999999 259.00031 L 4.759747999999999 218.46909000000002 L 22.275128 222.28018000000003 L 29.297307999999997 222.28018000000003 L 30.877778 220.91296000000003 L 88.003068 220.91296000000003 C 89.932908 220.91296000000003 91.678428 221.69493000000003 92.941188 222.95966 C 94.206108 224.22242 94.987878 225.96813 94.987878 227.89777 C 94.987878 231.7551 91.860198 234.88258000000002 88.002878 234.88258000000002 L 90.86537799999999 234.88258000000002 C 92.795018 234.88258000000002 94.54072799999999 235.66455000000002 95.80564799999999 236.92928 C 97.07037799999999 238.19204000000002 97.85234799999999 239.93775 97.85234799999999 241.86739 C 97.85234799999999 245.72668 94.724668 248.85436 90.86733799999999 248.85436 L 85.59479799999998 248.85436 C 87.52444799999998 248.85436 89.27015799999998 249.63633000000002 90.53291799999998 250.90106 C 91.79783799999998 252.16382 92.57960799999998 253.91149000000001 92.57960799999998 255.83917 C 92.57960799999998 259.6965 89.45192799999998 262.82418 85.59479799999998 262.82418 L 62.92293799999999 262.82418 C 42.543767999999986 262.25403 31.335407999999987 269.44801 21.73861799999999 255.86412 Z" style="display:inline;fill:#d4dff0;fill-opacity:1;stroke-width:0.196722" sodipodi:nodetypes="ccccccscscscssccsscc"></path>
      <path style="display:inline;fill:#8293c0;fill-opacity:1;stroke-width:0.196722;filter:url(#filter39359-55-6-0)" sodipodi:nodetypes="cccccsc" d="M 23.695261 236.32554 L 4.4924782 236.1919 L 4.7597485 218.46909 L 22.275322 222.28058 L 24.443787999999998 222.28058 C 23.956705 223.81088 23.695261 225.4417 23.695261 227.13508 Z" id="path37605-5-6-9"></path>
      <path style="display:inline;opacity:1;fill:#8293c0;fill-opacity:1;stroke-width:0.196722;filter:url(#filter39355-1-4-3)" d="M 57.799959 234.88278 L 90.866161 234.88278 C 92.79462600000001 234.88278 94.542107 235.66514 95.807029 236.9283 C 97.07018 238.19322 97.852544 239.93893 97.852544 241.86916 C 97.852544 242.92830999999998 97.61667399999999 243.93415 97.194312 244.83356999999998 C 96.848278 244.09546999999998 96.376539 243.42681 95.807029 242.85729999999998 C 94.542107 241.59414999999998 92.794626 240.81177999999997 90.866161 240.81177999999997 L 63.728764 240.81177999999997 C 60.454328 240.81177999999997 57.799959 238.15740999999997 57.799959 234.88277999999997 Z" id="path37609-2-3-3"></path>
      <path style="display:inline;fill:#8293c0;fill-opacity:1;stroke-width:0.196722" d="M 59.755768 248.85397 L 85.594407 248.85397 C 87.522872 248.85397 89.270353 249.63634 90.535275 250.89949000000001 C 91.79842599999999 252.16441 92.580789 253.91012 92.580789 255.84036 C 92.580789 256.89951 92.34492 257.90535 91.922558 258.80476 C 91.57652399999999 258.06666 91.10478499999999 257.39799999999997 90.535275 256.82849 C 89.270353 255.56534 87.52287199999999 254.78296999999998 85.594407 254.78296999999998 L 65.684574 254.78296999999998 C 62.410137 254.78277999999997 59.755767999999996 252.12840999999997 59.755767999999996 248.85396999999998 Z" id="path37611-2-4-7"></path>
      <path id="path37617-6-0-4" fill="#e49542" d="M 66.676638 219.11532 C 66.676638 214.68672 63.086467999999996 211.09654 58.657858 211.09654 L 39.731247999999994 211.09654 C 30.873837999999992 211.09654 23.693687999999995 218.27689 23.693687999999995 227.1341 L 58.657667999999994 227.1341 C 63.086467999999996 227.1341 66.676638 223.54391999999999 66.676638 219.11532 Z" style="display:inline;fill:#d4dff0;fill-opacity:1;stroke-width:0.196722"></path>
      <path style="display:inline;fill:#8293c0;fill-opacity:1;stroke-width:0.196722" d="M 39.831305 221.31269 L 88.002873 220.91179 C 89.931271 220.89569 91.67881899999999 221.69415 92.94374099999999 222.9573 C 94.206893 224.22222 94.98925599999998 225.96793 94.98925599999998 227.89817 C 94.98925599999998 228.95731999999998 94.75338599999998 229.96316 94.33102399999999 230.86257 C 93.98498999999998 230.12447 93.51325099999998 229.45581 92.94374099999999 228.8863 C 91.67881899999999 227.62315 89.93133799999998 226.84079 88.002873 226.84079 L 48.6512 225.90535 Z" id="path37607-6-6-8" sodipodi:nodetypes="cscsccscc"></path>
      <path id="path37619-7-0-0" fill="#e27d47" d="M 23.811718 225.18616 C 24.771528 217.24725 31.532467999999998 211.09654 39.730458 211.09654 L 58.658058 211.09654 C 63.086078 211.09654 66.676838 214.68731 66.676838 219.11532 C 66.676838 220.24725999999998 66.442738 221.32411 66.02037800000001 222.29985 C 64.787328 219.45604 61.95413800000001 217.46541 58.65805800000001 217.46541 L 37.526978000000014 217.46541 C 31.713448000000014 217.46541 26.623668000000016 220.55768 23.811718000000013 225.18616 Z" style="display:inline;fill:#8293c0;fill-opacity:1;stroke-width:0.196722"></path>
      <path id="path37623-8-4-4" d="M 22.401418 220.80398 L 17.733207999999998 220.00293 C 16.929997999999998 219.86503 16.167308 220.40444 16.029397999999997 221.20746 C 16.014897999999995 221.29206 16.007997999999997 221.37584999999999 16.007997999999997 221.45866999999998 C 16.007997999999997 222.16392 16.515347999999996 222.78771999999998 17.233967999999997 222.91107 L 22.026117999999997 223.73355999999998 C 22.108517999999997 223.74775999999997 22.191947999999996 223.75485999999998 22.275757999999996 223.75485999999998 L 22.546447999999994 223.75485999999998 C 24.978032999999996 224.02853 25.604445999999996 224.33139999999997 25.688664999999993 223.61424999999997 C 25.955934999999993 217.18845999999996 31.701487999999994 212.57219999999998 39.73108799999999 212.57219999999998 L 58.65770799999999 212.57219999999998 C 62.26578799999999 212.57219999999998 66.37820099999999 216.79198999999997 65.20106799999999 219.11557 C 64.530632 220.43896999999998 62.26578799999999 219.30893 58.65770799999999 219.30893 L 40.55062799999999 219.30893 C 39.73580799999999 219.30893 39.07521799999999 219.96933 39.07521799999999 220.78435000000002 C 39.07521799999999 221.59936000000002 39.73580799999999 222.25976000000003 40.55062799999999 222.25976000000003 L 58.657707999999985 222.25976000000003 C 62.74342799999999 222.25976000000003 58.657707999999985 222.25976000000003 67.57038799999998 222.38784000000004 L 88.00271799999999 222.38784000000004 C 89.47557799999998 222.38784000000004 90.85793799999999 222.96109000000004 91.89780799999998 224.00450000000004 C 92.93925799999998 225.04418000000004 93.51269799999999 226.42693000000003 93.51269799999999 227.89802000000003 C 93.51269799999999 230.93442000000002 91.04383799999998 233.40505000000002 88.00782799999999 233.40800000000004 C 88.005828 233.40800000000004 88.00482799999999 233.40781000000004 88.002828 233.40781000000004 L 57.79951799999999 233.40781000000004 C 56.98468799999999 233.40781000000004 56.32409799999999 234.06820000000005 56.32409799999999 234.88322000000005 C 56.32409799999999 235.69824000000006 56.98468799999999 236.35864000000007 57.79951799999999 236.35864000000007 L 90.86473799999999 236.35903000000008 C 92.33660799999998 236.35903000000008 93.72034799999999 236.93208000000007 94.76198799999999 237.97372000000007 C 95.80343799999999 239.01301000000007 96.37707799999998 240.39596000000006 96.37707799999998 241.86685000000008 C 96.37707799999998 244.9062000000001 93.90428799999998 247.37920000000008 90.86492799999998 247.37920000000008 L 58.90174799999998 247.3786100000001 C 58.08692799999998 247.3786100000001 57.42633799999997 248.0390000000001 57.42633799999997 248.8540200000001 C 57.42633799999997 249.6690400000001 58.08692799999997 250.32944000000012 58.90174799999997 250.32944000000012 L 85.58333799999997 250.32944000000012 C 85.58733799999997 250.32944000000012 85.59133799999996 250.3300300000001 85.59473799999996 250.3300300000001 C 87.06700799999996 250.3300300000001 88.44995799999997 250.9028800000001 89.49002799999997 251.9445200000001 C 90.53147799999996 252.9842000000001 91.10491799999997 254.36774000000008 91.10491799999997 255.8402100000001 C 91.10491799999997 258.8774000000001 88.63310799999996 261.3484200000001 85.59473799999996 261.3484200000001 L 56.92743799999997 261.34942000000007 C 56.11261799999997 261.34942000000007 55.45201799999997 262.0098100000001 55.45201799999997 262.8248300000001 C 55.45201799999997 263.6398500000001 56.11261799999997 264.30025000000006 56.92743799999997 264.30025000000006 L 79.09307799999996 264.30025000000006 C 83.02926799999996 264.2512500000001 75.96114799999997 264.2385500000001 85.51290799999997 264.2992500000001 L 85.59470799999997 264.2992500000001 C 90.26016799999996 264.2992500000001 94.05571799999997 260.50448000000006 94.05571799999997 255.8402100000001 C 94.05571799999997 253.7638100000001 93.31309799999997 251.8024900000001 91.95433799999996 250.2603900000001 C 96.10831799999997 249.72392000000008 99.32786799999997 246.1642400000001 99.32786799999997 241.86685000000008 C 99.32786799999997 239.60671000000008 98.44674799999997 237.4823100000001 96.84779799999997 235.88591000000008 C 95.99401799999997 235.03214000000008 94.98994799999997 234.3833500000001 93.89499799999997 233.96414000000007 C 95.47841799999998 232.42558000000008 96.46359799999998 230.27442000000008 96.46359799999998 227.89763000000008 C 96.46359799999998 225.63749000000007 95.58247799999998 223.5130900000001 93.98529799999997 221.9182600000001 C 92.39007799999997 220.31793000000008 90.26547799999997 219.4366200000001 88.00258799999997 219.4366200000001 L 68.14370799999998 219.4366200000001 C 68.14770799999998 219.3298000000001 68.15170799999997 219.2229800000001 68.15170799999997 219.1151700000001 C 68.15170799999997 213.8802100000001 63.89267799999997 209.6209800000001 58.65750799999997 209.6209800000001 L 39.73089799999997 209.6209800000001 C 32.30542799999997 209.6209800000001 25.94521799999997 214.2665700000001 23.402187999999967 220.8038300000001 L 22.401067999999967 220.8038300000001 Z" style="display:inline;stroke-width:0.196722" sodipodi:nodetypes="ccssccsccsssssssscscssssscccsccsssscsccssccsscsccscscsssccc"></path>
      <path id="path37625-4-0-0" d="M 33.776278 264.51403 L 75.741408 263.97949 C 76.55616800000001 263.96909 77.61772800000001 263.85363 77.61772800000001 263.03861 C 77.61772800000001 262.22359 76.95713800000001 261.5632 76.14230800000001 261.5632 L 33.77627800000001 261.5632 C 29.656718000000012 261.5632 25.813758000000014 259.52536 23.49676800000001 256.11164 C 23.17178800000001 255.63262000000003 22.59676800000001 255.3881 22.02626800000001 255.48607 L 6.848828000000008 259.00031 L 6.848828000000008 220.21913 L 16.708728000000008 221.91172 C 17.511948000000007 222.04962 18.274638000000007 221.51041 18.41253800000001 220.70719 C 18.55141800000001 219.90457 18.01102800000001 219.14148 17.208008000000007 219.00358 L 5.623058000000007 217.01492 C 5.194398000000008 216.94132 4.754918000000007 217.06052 4.422458000000008 217.34089 C 4.089998000000008 217.62122 3.897998000000008 218.03394 3.897998000000008 218.46889 L 3.897998000000008 260.75074 C 3.897998000000008 261.18569 4.089998000000008 261.59861 4.422458000000008 261.87874 C 4.7551180000000075 262.15907 5.194398000000008 262.27828 5.623058000000007 262.20471 L 21.621418000000006 258.54942 C 24.525038000000006 262.3015 29.000458000000005 264.57486 33.776278000000005 264.51403 Z" style="display:inline;stroke-width:0.196722" sodipodi:nodetypes="sssssccccccccssssccs"></path>
    <animateTransform attributeName="transform" attributeType="auto" type="translate" values="20.986249188666097 -5.003164273013558;78.00095100542701 -68.7108451573073;20.986249188666097 -5.003164273013558" calcMode="spline" keyTimes="0;0.51;1" keySplines=".5 0 .5 .5;.5 .5 .5 1" dur="1.85s" begin="0s" repeatCount="indefinite" additive="sum" accumulate="none" fill="freeze" id="animateTransform4692"></animateTransform></g>
  </g>
</svg>