<?xml version='1.0' encoding='UTF-8' standalone='no'?>
<!DOCTYPE svg PUBLIC '-//W3C//DTD SVG 1.1//EN' 'http://www.w3.org/Graphics/SVG/1.1/DTD/svg11.dtd'>
<!-- Animated using aniGen version 0.8.1 Quality of Life - http://anigen.org -->
<svg xmlns:dc="http://purl.org/dc/elements/1.1/" xmlns:cc="http://creativecommons.org/ns#" xmlns:rdf="http://www.w3.org/1999/02/22-rdf-syntax-ns#" xmlns:svg="http://www.w3.org/2000/svg" xmlns="http://www.w3.org/2000/svg" xmlns:sodipodi="http://sodipodi.sourceforge.net/DTD/sodipodi-0.dtd" xmlns:inkscape="http://www.inkscape.org/namespaces/inkscape" sodipodi:docname="charguitar.svg" inkscape:version="1.0 (4035a4f, 2020-05-01)" id="svg2385" version="1.1" viewBox="0 0 70 90" height="90mm" width="70mm" preserveAspectRatio="xMidYMid" xmlns:xlink="http://www.w3.org/1999/xlink" xmlns:anigen="http://www.anigen.org/namespace" anigen:version="0.8.1">
  <defs id="defs2379">
    <filter height="1.0034971" y="-0.0017485661" width="1.0038869" x="-0.0019434401" id="filter39359-55-6" style="color-interpolation-filters:sRGB" inkscape:collect="always">
      <feGaussianBlur id="feGaussianBlur39361-4-2" stdDeviation="0.01890388" inkscape:collect="always"></feGaussianBlur>
    </filter>
    <filter height="1.0129975" y="-0.0064987624" width="1.0196074" x="-0.0098036937" id="filter39355-1-4" style="color-interpolation-filters:sRGB" inkscape:collect="always">
      <feGaussianBlur id="feGaussianBlur39357-8-7" stdDeviation="0.10000675" inkscape:collect="always"></feGaussianBlur>
    </filter>
  </defs>
  <sodipodi:namedview inkscape:window-maximized="0" inkscape:window-y="23" inkscape:window-x="0" inkscape:window-height="930" inkscape:window-width="1280" inkscape:snap-global="false" showgrid="false" inkscape:document-rotation="0" inkscape:current-layer="layer1" inkscape:document-units="mm" inkscape:cy="-50.35393568094469" inkscape:cx="54.05623461349542" inkscape:zoom="8.000000000000002" inkscape:pageshadow="2" inkscape:pageopacity="0.0" borderopacity="1.0" bordercolor="#666666" pagecolor="#ffffff" id="base"></sodipodi:namedview>
  <metadata id="metadata2382">
    <rdf:rdf id="rdf:rdf8434">
      <cc:work rdf:about="" id="cc:work4260">
        <dc:format id="dc:format6100">image/svg+xml</dc:format>
        <dc:type rdf:resource="http://purl.org/dc/dcmitype/StillImage" id="dc:type7457"></dc:type>
        <dc:title id="dc:title4175"></dc:title>
      </cc:work>
    </rdf:rdf>
  </metadata>
  <g style="display:inline" id="layer1" inkscape:groupmode="layer" inkscape:label="Layer 1">
    <g transform="matrix(0.16867299,0,0,-0.20324589,-16.808335,200.57907)" id="g6177">
      <g transform="translate(224.002,655.8745)" id="g4513">
        <path id="path4515" style="fill:#000001;fill-opacity:1;fill-rule:nonzero;stroke:none" d="M 0 0 L 0 25 C 0.783 33.753 1.114 42.535 0.954 51.309 C 0.716 64.30199999999999 5.983 71.354 18.405 73.289 C 19.554000000000002 73.468 20.667 73.974 21.824 74.01 C 29.206000000000003 74.24600000000001 29.303 73.99000000000001 30.477000000000004 82.551 C 31.815000000000005 92.31 34.876000000000005 101.62 40.131 109.676 C 45.676 118.179 53.691 124.44 64.705 124.429 C 75.188 124.418 85.875 125.943 96.119 123.783 C 112.414 120.34700000000001 125.884 112.304 132.501 95.844 C 133.203 94.1 134.062 92.515 135.562 91.372 C 142.664 85.962 146.687 78.773 148 70 L 148 58 C 147.143 53.418 145.551 49.252 142.724 45.384 C 140.225 41.967 140.90599999999998 37.535 141.78099999999998 33.769999999999996 C 145.271 18.761999999999997 142.59399999999997 4.061999999999998 140.28499999999997 -10.695000000000007 C 138.92799999999997 -19.370000000000008 137.30999999999997 -28.00400000000001 136.25499999999997 -36.726000000000006 C 135.57099999999997 -42.38000000000001 134.24599999999998 -47.837 130.94299999999996 -52.629000000000005 C 128.03199999999995 -57.566 123.58799999999995 -59.531000000000006 118.00199999999995 -59.428000000000004 C 114.52099999999996 -59.364000000000004 111.03499999999995 -59.428000000000004 107.55299999999995 -59.42400000000001 C 97.47299999999996 -59.416000000000004 94.91399999999996 -57.70700000000001 91.04899999999995 -48.43000000000001 C 89.31199999999995 -44.27700000000001 88.54099999999995 -39.941 88.56199999999995 -35.434000000000005 C 88.57199999999996 -33.358000000000004 88.16199999999995 -31.132000000000005 85.50799999999995 -31.262000000000004 C 82.82499999999996 -31.395000000000003 83.50199999999995 -33.86300000000001 83.43599999999995 -35.509 C 83.25199999999995 -40.102000000000004 83.72299999999996 -44.736000000000004 82.41199999999995 -49.25 C 80.61199999999995 -59.166 73.71099999999996 -66.049 63.29899999999995 -67.982 C 53.92799999999995 -69.724 45.052999999999955 -67.587 36.796999999999954 -63.313 C 32.97899999999996 -61.338 31.121999999999954 -57.385000000000005 30.671999999999954 -52.992000000000004 C 30.568999999999953 -46.858000000000004 29.452999999999953 -40.801 29.289999999999953 -34.666000000000004 C 29.196999999999953 -31.158000000000005 27.508999999999954 -28.943000000000005 23.66099999999995 -29.434000000000005 C 11.435 -30.994 2.473 -21.406 0.996 -8.773 C 0.654 -5.851 0.983 -2.847 0 0"></path>
      </g>
      <g transform="translate(278.916,763.9399)" id="g4521">
        <path id="path4523" style="fill:#1125da;fill-opacity:1;fill-rule:evenodd;stroke:none" d="M 0 0 C 4.33 4.463 9.598 6.156 15.766 5.673 C 20.904 5.272 26.066 5.136 31.222 4.998 C 41.741 4.717 50.52 0.653 57.682 -6.994 C 58.455000000000005 -7.819999999999999 59.879000000000005 -8.55 59.478 -9.775 C 58.982 -11.287 57.283 -11.074 56.010000000000005 -11.054 C 46.361000000000004 -10.897 36.696000000000005 -10.273 27.146000000000004 -12.327 C 23.898000000000003 -13.026 20.494000000000003 -13.318999999999999 17.434000000000005 -14.5 C 11.959000000000005 -16.615000000000002 7.9790000000000045 -20.866 7.424000000000005 -26.631999999999998 C 6.289000000000005 -38.417 6.131000000000005 -50.163 12.736000000000004 -60.973 C 15.549000000000005 -65.575 19.596000000000004 -68.005 24.065000000000005 -70.196 C 34.760000000000005 -75.44 45.775000000000006 -73.88499999999999 56.789 -71.562 C 61.177 -70.636 65.682 -69.926 69.84 -68.347 C 74.117 -66.72099999999999 75.771 -67.389 75.047 -72.083 C 74.365 -77.964 74.752 -83.898 73.229 -89.761 C 68.486 -108.015 62.11 -113.21799999999999 43.429 -114.52499999999999 C 32.589 -115.28399999999999 22.326 -112.28399999999999 11.918000000000003 -110.47899999999998 C 5.947000000000003 -109.44399999999999 3.238000000000003 -103.40799999999999 0.7570000000000032 -98.48499999999999 C -4.745999999999997 -87.56299999999999 -7.131999999999997 -75.78499999999998 -8.668999999999997 -63.59899999999998 C -10.071999999999997 -52.47499999999998 -9.940999999999997 -41.40699999999998 -10.460999999999997 -30.304999999999986 C -10.853999999999997 -21.907999999999987 -7.840999999999997 -14.320999999999986 -6.036999999999996 -6.458999999999985 C -5.389 -3.636 -2.266 -1.946 0 0"></path>
      </g>
      <g transform="translate(278.916,763.9399)" id="g4525">
        <path id="path4527" style="fill:#070b93;fill-opacity:1;fill-rule:evenodd;stroke:none" d="M 0 0 C -8.045 -7.487 -7.949 -17.759 -8.84 -27.432 C -10.14 -41.545 -8.834 -55.735 -6.625 -69.632 C -4.482 -83.11800000000001 -1.3479999999999999 -96.64200000000001 8.565 -107.24600000000001 C 9.709 -108.47000000000001 10.773 -109.13100000000001 12.285 -109.27400000000002 C 22.625 -110.26100000000001 32.632000000000005 -114.38800000000002 43.191 -112.97600000000001 C 48.057 -112.32400000000001 53.004000000000005 -112.39800000000001 57.782000000000004 -110.40300000000002 C 63.476000000000006 -108.02600000000002 66.932 -103.93900000000002 69.043 -98.54700000000003 C 71.962 -91.08900000000003 73.293 -83.23100000000002 74.08000000000001 -75.28400000000002 C 74.19300000000001 -74.14200000000002 73.95100000000001 -72.91700000000002 75.04700000000001 -72.08200000000002 C 76.75000000000001 -87.34900000000002 76.254 -102.43000000000002 73.71900000000001 -117.68800000000002 C 71.91600000000001 -128.54000000000002 67.346 -139.06 69.02100000000002 -150.51500000000001 C 69.53500000000001 -154.02200000000002 67.51600000000002 -156.632 63.33600000000001 -157.35100000000003 C 59.16300000000001 -158.06900000000002 55.030000000000015 -157.979 50.89800000000001 -157.80000000000004 C 45.67800000000001 -157.57500000000005 46.44100000000001 -152.67800000000005 45.26300000000001 -149.55100000000004 C 44.10900000000001 -146.49100000000004 46.164000000000016 -143.37300000000005 46.09200000000001 -140.21300000000005 C 45.993000000000016 -135.84500000000006 50.24000000000001 -136.62600000000006 52.396000000000015 -134.96200000000005 C 54.84000000000002 -133.07800000000006 57.98900000000002 -132.09600000000003 59.847000000000016 -129.12800000000004 C 57.182000000000016 -127.07000000000005 54.64500000000002 -129.04800000000003 52.16800000000001 -129.04400000000004 C 44.01600000000001 -129.03500000000005 35.89500000000001 -129.09000000000003 27.846000000000014 -127.31700000000004 C 20.558000000000014 -125.71200000000003 18.185000000000016 -127.65700000000004 16.789000000000016 -134.83500000000004 C 15.797000000000015 -139.93300000000005 15.602000000000016 -144.95600000000005 15.936000000000016 -150.12800000000004 C 16.500000000000014 -158.85600000000005 11.475000000000016 -164.21800000000005 2.6210000000000164 -164.88300000000004 C -0.7519999999999838 -165.13600000000002 -4.001999999999984 -164.50900000000004 -7.183999999999983 -163.44300000000004 C -11.042999999999983 -162.15200000000004 -12.357999999999983 -159.74300000000005 -13.089999999999982 -155.44200000000004 C -14.878999999999982 -144.93700000000004 -13.813999999999982 -134.17900000000003 -16.41999999999998 -123.80100000000004 C -16.77699999999998 -122.37400000000004 -16.75399999999998 -120.82900000000005 -16.75599999999998 -119.33800000000005 C -16.77299999999998 -100.00900000000004 -16.42199999999998 -80.67300000000006 -16.87299999999998 -61.35400000000005 C -17.22099999999998 -46.44200000000005 -14.80099999999998 -31.93600000000005 -10.745999999999981 -17.84500000000005 C -8.894 -11.408 -8.158 -3.133 0 0"></path>
      </g>
      <g transform="translate(251.8672,705.8843)" id="g4529">
        <path id="path4531" style="fill:#070c91;fill-opacity:1;fill-rule:evenodd;stroke:none" d="M 0 0 C 0.041 -14.802 0.062 -29.604 0.131 -44.407 C 0.158 -50.053 0.32 -55.675 0.989 -61.312999999999995 C 1.768 -67.875 -0.6409999999999999 -69.594 -7.045000000000001 -67.74 C -12.96 -66.02799999999999 -15.479 -62.608999999999995 -15.941000000000003 -56.288 C -16.474000000000004 -49.015 -18.106 -41.812999999999995 -17.758000000000003 -34.486999999999995 C -17.237000000000002 -23.548999999999992 -16.478 -12.620999999999995 -15.768000000000002 -1.6929999999999978 C -15.730000000000002 -1.1039999999999979 -15.212000000000003 -0.5449999999999979 -14.917000000000002 0.027000000000002133 C -11.837000000000002 -1.665999999999998 -8.852 0.5020000000000021 -5.804000000000002 0.2500000000000021 C -3.874 0.091 -1.903 0.844 0 0"></path>
      </g>
      <g transform="translate(362.0645,724.9209)" id="g4533">
        <path id="path4535" style="fill:#4a646e;fill-opacity:1;fill-rule:evenodd;stroke:none" d="M 0 0 C 1.701 -6.429 -1.258 -13.302 -8.368 -16.718 C -20.369 -22.484 -32.975 -25.869 -46.467 -22.908 C -53.602 -21.343 -59.26 -17.111 -63.683 -11.625000000000002 C -68.961 -5.076000000000001 -67.078 9.772999999999998 -60.903999999999996 14.751 C -58.586 13.029 -58.108 10.364 -57.32899999999999 7.8389999999999995 C -54.15299999999999 -2.452000000000001 -48.425999999999995 -6.525000000000001 -37.58099999999999 -6.733 C -30.43699999999999 -6.869999999999999 -23.407999999999987 -5.646 -16.291999999999987 -5.430999999999999 C -10.437 -5.255 -5.074 -2.888 0 0"></path>
      </g>
      <g transform="translate(362.0645,724.9209)" id="g4537">
        <path id="path4539" style="fill:#98c7dc;fill-opacity:1;fill-rule:evenodd;stroke:none" d="M 0 0 C -2.457 -4.524 -7.087 -5.466 -11.399 -6.053 C -21.421 -7.417 -31.527 -8.207 -41.668 -7.911 C -48.964999999999996 -7.699 -55.537 -2.367 -58.004 5.253 C -59.022999999999996 8.402000000000001 -59.940999999999995 11.584 -60.903999999999996 14.751 C -50.879999999999995 16.847 -40.92999999999999 19.835 -30.560999999999996 19.037 C -22.791999999999994 18.439 -15.204999999999997 16.585 -8.562999999999995 12.221 C -4.158 9.326 -0.863 5.468 0 0"></path>
      </g>
      <g transform="translate(251.8672,705.8843)" id="g4541">
        <path id="path4543" style="fill:#1225d5;fill-opacity:1;fill-rule:evenodd;stroke:none" d="M 0 0 C -4.111 -1.924 -8.835 -0.319 -13.016 -2.42 C -15.104 -3.468 -14.458 -0.9689999999999999 -14.917 0.027000000000000135 C -14.677 1.326 -14.421 2.623 -14.198 3.9250000000000003 C -12.97 11.094 -7.433000000000001 14.359 -0.6260000000000012 12.061 C 1.209 11.441 0.917 10.168 0.816 8.892 C 0.583 5.925 0.277 2.964 0 0"></path>
      </g>
      <g transform="translate(345.3535,727.832)" id="g4545">
        <path id="path4547" style="fill:#fbfdfd;fill-opacity:1;fill-rule:evenodd;stroke:none" d="M 0 0 C -7.18 0.692 -14.25 1.358 -21.316 2.064 C -23.576 2.29 -25.012 3.592 -25.307 5.827999999999999 C -25.637999999999998 8.338 -24.823 10.453 -22.375 11.571 C -19.434 12.915 -16.246000000000002 13.312999999999999 -13.131 12.793 C -8.247 11.978 -3.363 10.996 1.387 9.622 C 4.42 8.744 7.414 7.181 6.68 3 C 5.908 -1.388 2.371 0.535 0 0"></path>
      </g>
    <animateTransform attributeName="transform" attributeType="auto" type="skewX" values="0;-3;0" calcMode="spline" keyTimes="0;0.5;1" keySplines="0 0 1 1;0 0 1 1" dur="1.85s" begin="0s" repeatCount="indefinite" additive="sum" accumulate="none" fill="freeze" id="animateTransform1415"></animateTransform><animateTransform attributeName="transform" attributeType="auto" type="translate" values="0 0;30 0;0 0" calcMode="spline" keyTimes="0;0.5;1" keySplines="0 0 1 1;0 0 1 1" dur="1.85s" begin="0s" repeatCount="indefinite" additive="sum" accumulate="none" fill="freeze" id="animateTransform7161"></animateTransform></g>
    <g transform="matrix(0.05769371,0.0408541,-0.0408541,0.05769371,33.032072,43.457896)" id="g4894">
      <path id="path4821" d="m 499.033,58.097 c 1.488,4.089 0.48,8.669 -2.601,11.739 l -3.96,3.96 -19.212,19.225 -19.225,19.213 -4.581,4.592 c -5.577,5.565 -14.597,5.565 -20.174,0 L 395.223,82.77 c -5.565,-5.577 -5.565,-14.609 0,-20.174 l 4.592,-4.581 19.213,-19.225 19.225,-19.225 3.96,-3.96 c 3.069,-3.069 7.65,-4.089 11.739,-2.601 l 28.152,10.263 c 3.105,1.125 5.541,3.573 6.678,6.678 z" style="fill:#f7b239"></path>
      <path id="path4823" d="M 280.342,191.969 394.883,82.43 l 0.34,0.34 34.057,34.057 0.328,0.328 -109.539,114.541 -56.457,59.034 H 263.6 c -0.269,-10.731 -4.499,-21.392 -12.7,-29.581 -8.201,-8.189 -18.862,-12.43 -29.593,-12.7 v -0.023 z" style="fill:#e0b08c"></path>
      <path id="path4825" d="m 320.069,231.696 c 23.103,37.501 22.013,82.969 -5.577,110.547 -7.966,7.978 -17.433,13.73 -27.766,17.327 -26.77,9.349 -45.842,33.213 -48.959,61.4 -2.343,21.041 -10.919,40.524 -26.02,55.625 C 171.13,517.212 98.728,510.687 50.039,461.998 1.363,413.32 -5.163,340.907 35.454,300.301 c 15.101,-15.113 34.584,-23.677 55.625,-26.02 28.187,-3.105 52.063,-22.177 61.4,-48.959 3.597,-10.333 9.361,-19.787 17.327,-27.754 27.59,-27.59 73.046,-28.679 110.535,-5.6 l -59.034,56.457 v 0.023 c -11.469,-0.293 -23.044,3.948 -31.796,12.7 -16.952,16.952 -16.952,44.437 0,61.389 16.952,16.964 44.437,16.964 61.389,0 8.763,-8.763 12.992,-20.326 12.7,-31.807 h 0.012 z" style="fill:#f7b239"></path>
      <path id="path4827" d="m 263.6,290.73 c 0.293,11.481 -3.936,23.044 -12.7,31.807 -16.952,16.964 -44.437,16.964 -61.389,0 -16.952,-16.952 -16.952,-44.437 0,-61.389 8.751,-8.751 20.326,-12.992 31.796,-12.699 10.731,0.269 21.392,4.51 29.593,12.699 8.202,8.19 12.431,18.851 12.7,29.582 z" style="fill:#4d4d4d"></path>
      <g id="g4837">
        <path id="path4829" d="m 42.857,409.108 c -3.587,0 -6.954,-2.212 -8.255,-5.777 -3.224,-8.838 -5.273,-17.904 -6.089,-26.945 -2.231,-24.734 5.092,-46.904 20.619,-62.426 11.442,-11.452 26.677,-18.529 44.053,-20.465 9.256,-1.019 18.292,-3.443 26.868,-7.205 4.444,-1.949 9.627,0.073 11.576,4.516 1.949,4.444 -0.073,9.627 -4.516,11.576 -10.209,4.479 -20.972,7.364 -31.992,8.578 -13.357,1.488 -24.966,6.821 -33.56,15.423 -11.779,11.775 -17.298,28.971 -15.544,48.422 0.678,7.524 2.392,15.094 5.095,22.501 1.662,4.558 -0.684,9.603 -5.244,11.266 -0.994,0.364 -2.011,0.536 -3.011,0.536 z" style="fill:#ffffff"></path>
        <path id="path4831" d="m 146.293,289.405 c -7.751,0 -11.681,-9.814 -6.052,-15.154 2.725,-2.586 6.879,-3.139 10.194,-1.382 3.317,1.757 5.148,5.558 4.516,9.247 -0.712,4.155 -4.442,7.289 -8.658,7.289 z" style="fill:#ffffff"></path>
        <path id="path4833" d="m 183.418,234.122 c -1.585,0 -3.189,-0.429 -4.635,-1.329 -4.12,-2.564 -5.381,-7.983 -2.818,-12.103 2.13,-3.421 4.656,-6.602 7.508,-9.456 9.144,-9.143 21.443,-14.651 35.569,-15.927 4.828,-0.435 9.105,3.127 9.542,7.959 0.437,4.833 -3.127,9.105 -7.961,9.542 -9.977,0.902 -18.526,4.655 -24.724,10.852 -1.906,1.906 -3.593,4.03 -5.014,6.315 -1.663,2.678 -4.533,4.147 -7.467,4.147 z" style="fill:#ffffff"></path>
        <path id="path4835" d="m 419.626,81.211 c -2.248,0 -4.498,-0.858 -6.213,-2.574 -3.431,-3.431 -3.431,-8.994 0,-12.425 l 34.76,-34.76 c 3.431,-3.431 8.995,-3.431 12.425,0 3.431,3.431 3.431,8.994 0,12.425 l -34.76,34.76 c -1.714,1.716 -3.963,2.574 -6.212,2.574 z" style="fill:#ffffff"></path>
      </g>
      <g style="display:inline;fill:#000000" id="g4843">
        <path id="path4839" d="m 77.068,378.355 c -3.431,-3.431 -8.995,-3.431 -12.425,0 -3.431,3.431 -3.431,8.994 0,12.425 l 56.623,56.622 c 1.715,1.716 3.965,2.574 6.213,2.574 2.248,0 4.498,-0.858 6.213,-2.574 3.431,-3.431 3.431,-8.995 0,-12.425 z" style="fill:#000000"></path>
        <path id="path4841" d="m 509.426,78.318 -4.712,-4.712 c 3.817,-5.305 4.856,-12.264 2.579,-18.515 L 497.038,26.938 c -2.024,-5.557 -6.372,-9.905 -11.93,-11.929 L 456.956,4.753 c -6.25,-2.277 -13.21,-1.237 -18.515,2.58 l -4.712,-4.712 c -3.431,-3.431 -8.995,-3.431 -12.425,0 -3.431,3.431 -3.431,8.995 0,12.427 l 4.523,4.523 -6.795,6.795 -4.523,-4.523 c -3.431,-3.431 -8.995,-3.431 -12.425,0 -3.431,3.431 -3.431,8.994 0,12.425 l 4.523,4.523 -6.795,6.795 -4.523,-4.523 c -3.43,-3.431 -8.994,-3.431 -12.425,0 -3.431,3.431 -3.431,8.995 0,12.427 l 4.605,4.605 c -5.325,6.502 -6.538,15.252 -3.674,22.796 L 279.03,181.079 c -40.535,-22.099 -86.75,-18.406 -115.432,10.276 -8.746,8.746 -15.278,19.199 -19.415,31.072 -8.186,23.479 -29.41,40.406 -54.077,43.127 -23.794,2.641 -44.841,12.507 -60.864,28.532 -21.521,21.515 -31.723,51.643 -28.73,84.828 2.941,32.591 18.325,64.306 43.32,89.301 28.874,28.874 65.77,43.741 100.419,43.738 27.789,-0.002 54.136,-9.569 73.712,-29.146 16.024,-16.024 25.891,-37.071 28.532,-60.867 2.73,-24.654 19.658,-45.88 43.124,-54.074 11.895,-4.145 22.354,-10.673 31.085,-19.404 28.683,-28.683 32.372,-74.901 10.265,-115.443 L 431.157,128.254 c 2.638,1.002 5.421,1.522 8.208,1.522 5.181,0 10.36,-1.733 14.588,-5.195 l 4.605,4.605 c 1.715,1.716 3.964,2.574 6.213,2.574 2.249,0 4.498,-0.858 6.213,-2.574 3.431,-3.431 3.431,-8.994 0,-12.425 l -4.523,-4.523 6.795,-6.795 4.523,4.523 c 1.715,1.716 3.965,2.574 6.213,2.574 2.248,0 4.498,-0.858 6.213,-2.574 3.431,-3.431 3.431,-8.995 0,-12.427 l -4.523,-4.523 6.794,-6.794 4.523,4.523 c 1.715,1.715 3.965,2.574 6.213,2.574 2.248,0 4.498,-0.858 6.213,-2.574 3.433,-3.433 3.433,-8.997 10e-4,-12.427 z M 308.278,336.035 c -6.844,6.844 -15.067,11.97 -24.447,15.237 -29.823,10.414 -51.333,37.393 -54.802,68.731 -2.197,19.785 -10.319,37.205 -23.492,50.377 -16.194,16.194 -38.054,24.08 -61.314,24.079 -30.076,-0.002 -62.489,-13.194 -87.965,-38.671 -22.091,-22.091 -35.672,-49.953 -38.244,-78.453 -2.516,-27.904 5.882,-53.057 23.651,-70.826 13.172,-13.173 30.592,-21.295 50.372,-23.491 31.354,-3.457 58.335,-24.971 68.739,-54.809 3.259,-9.354 8.388,-17.573 15.246,-24.43 21.931,-21.931 57.211,-25.333 89.571,-9.854 l -47.874,45.783 c -13.01,0.606 -25.155,5.957 -34.426,15.229 -20.353,20.353 -20.353,53.469 0,73.821 9.86,9.86 22.968,15.289 36.911,15.289 13.943,0 27.051,-5.43 36.911,-15.289 9.274,-9.274 14.626,-21.422 15.229,-34.435 l 45.779,-47.87 c 15.488,32.363 12.088,67.649 -9.845,89.582 z m -53.447,-44.19 c 0,9.249 -3.601,17.944 -10.142,24.485 -6.541,6.541 -15.236,10.142 -24.484,10.142 -9.249,0 -17.945,-3.601 -24.485,-10.142 -13.501,-13.501 -13.501,-35.468 0,-48.969 6.541,-6.541 15.236,-10.142 24.485,-10.142 9.249,0 17.945,3.601 24.484,10.142 v 0 c 6.541,6.538 10.142,15.235 10.142,24.484 z m 13.929,-19.203 c -2.59,-6.555 -6.51,-12.574 -11.644,-17.709 -5.135,-5.136 -11.158,-9.056 -17.715,-11.646 l 155.35,-148.563 22.571,22.571 z M 435.495,110.609 401.437,76.551 c -2.135,-2.135 -2.135,-5.607 0,-7.742 l 46.987,-46.987 c 0.457,-0.456 1.073,-0.701 1.7,-0.701 0.274,0 0.551,0.047 0.817,0.144 l 28.152,10.255 c 0.668,0.244 1.19,0.765 1.433,1.433 l 10.254,28.153 c 0.318,0.872 0.098,1.859 -0.558,2.516 l -46.987,46.987 c -2.132,2.133 -5.604,2.133 -7.74,0 z" style="fill:#000000"></path>
      </g>
    </g>
    <g style="display:inline" inkscape:label="righthand" transform="matrix(0.0739751,0.0919607,-0.0919607,0.0739751,45.703166,44.476205)" id="g38567-8-2">
      <path sodipodi:nodetypes="ccccccscscscssccsscc" style="display:inline;fill:#1125da;fill-opacity:1;stroke-width:0.196722" d="M 21.738618 255.86412 L 6.848827999999999 259.00031 L 4.759747999999999 218.46909000000002 L 22.275128 222.28018000000003 L 29.297307999999997 222.28018000000003 L 30.877778 220.91296000000003 L 88.003068 220.91296000000003 C 89.932908 220.91296000000003 91.678428 221.69493000000003 92.941188 222.95966 C 94.206108 224.22242 94.987878 225.96813 94.987878 227.89777 C 94.987878 231.7551 91.860198 234.88258000000002 88.002878 234.88258000000002 L 90.86537799999999 234.88258000000002 C 92.795018 234.88258000000002 94.54072799999999 235.66455000000002 95.80564799999999 236.92928 C 97.07037799999999 238.19204000000002 97.85234799999999 239.93775 97.85234799999999 241.86739 C 97.85234799999999 245.72668 94.724668 248.85436 90.86733799999999 248.85436 L 85.59479799999998 248.85436 C 87.52444799999998 248.85436 89.27015799999998 249.63633000000002 90.53291799999998 250.90106 C 91.79783799999998 252.16382 92.57960799999998 253.91149000000001 92.57960799999998 255.83917 C 92.57960799999998 259.6965 89.45192799999998 262.82418 85.59479799999998 262.82418 L 62.92293799999999 262.82418 C 42.543767999999986 262.25403 31.335407999999987 269.44801 21.73861799999999 255.86412 Z" fill="#e49542" id="path37603-3-5"></path>
      <path id="path37605-5-6" d="M 23.695261 236.32554 L 4.4924782 236.1919 L 4.7597485 218.46909 L 22.275322 222.28058 L 24.443787999999998 222.28058 C 23.956705 223.81088 23.695261 225.4417 23.695261 227.13508 Z" sodipodi:nodetypes="cccccsc" style="display:inline;fill:#070c91;fill-opacity:1;stroke-width:0.196722;filter:url(#filter39359-55-6)"></path>
      <path id="path37609-2-3" d="M 57.799959 234.88278 L 90.866161 234.88278 C 92.79462600000001 234.88278 94.542107 235.66514 95.807029 236.9283 C 97.07018 238.19322 97.852544 239.93893 97.852544 241.86916 C 97.852544 242.92830999999998 97.61667399999999 243.93415 97.194312 244.83356999999998 C 96.848278 244.09546999999998 96.376539 243.42681 95.807029 242.85729999999998 C 94.542107 241.59414999999998 92.794626 240.81177999999997 90.866161 240.81177999999997 L 63.728764 240.81177999999997 C 60.454328 240.81177999999997 57.799959 238.15740999999997 57.799959 234.88277999999997 Z" style="display:inline;opacity:1;fill:#070c91;fill-opacity:1;stroke-width:0.196722;filter:url(#filter39355-1-4)"></path>
      <path id="path37611-2-4" d="M 59.755768 248.85397 L 85.594407 248.85397 C 87.522872 248.85397 89.270353 249.63634 90.535275 250.89949000000001 C 91.79842599999999 252.16441 92.580789 253.91012 92.580789 255.84036 C 92.580789 256.89951 92.34492 257.90535 91.922558 258.80476 C 91.57652399999999 258.06666 91.10478499999999 257.39799999999997 90.535275 256.82849 C 89.270353 255.56534 87.52287199999999 254.78296999999998 85.594407 254.78296999999998 L 65.684574 254.78296999999998 C 62.410137 254.78277999999997 59.755767999999996 252.12840999999997 59.755767999999996 248.85396999999998 Z" style="display:inline;fill:#070c91;fill-opacity:1;stroke-width:0.196722"></path>
      <path style="display:inline;fill:#1125da;fill-opacity:1;stroke-width:0.196722" d="M 66.676638 219.11532 C 66.676638 214.68672 63.086467999999996 211.09654 58.657858 211.09654 L 39.731247999999994 211.09654 C 30.873837999999992 211.09654 23.693687999999995 218.27689 23.693687999999995 227.1341 L 58.657667999999994 227.1341 C 63.086467999999996 227.1341 66.676638 223.54391999999999 66.676638 219.11532 Z" fill="#e49542" id="path37617-6-0"></path>
      <path sodipodi:nodetypes="cscsccscc" id="path37607-6-6" d="M 39.831305 221.31269 L 88.002873 220.91179 C 89.931271 220.89569 91.67881899999999 221.69415 92.94374099999999 222.9573 C 94.206893 224.22222 94.98925599999998 225.96793 94.98925599999998 227.89817 C 94.98925599999998 228.95731999999998 94.75338599999998 229.96316 94.33102399999999 230.86257 C 93.98498999999998 230.12447 93.51325099999998 229.45581 92.94374099999999 228.8863 C 91.67881899999999 227.62315 89.93133799999998 226.84079 88.002873 226.84079 L 48.6512 225.90535 Z" style="display:inline;fill:#070c91;fill-opacity:1;stroke-width:0.196722"></path>
      <path style="display:inline;fill:#070b93;fill-opacity:1;stroke-width:0.196722" d="M 23.811718 225.18616 C 24.771528 217.24725 31.532467999999998 211.09654 39.730458 211.09654 L 58.658058 211.09654 C 63.086078 211.09654 66.676838 214.68731 66.676838 219.11532 C 66.676838 220.24725999999998 66.442738 221.32411 66.02037800000001 222.29985 C 64.787328 219.45604 61.95413800000001 217.46541 58.65805800000001 217.46541 L 37.526978000000014 217.46541 C 31.713448000000014 217.46541 26.623668000000016 220.55768 23.811718000000013 225.18616 Z" fill="#e27d47" id="path37619-7-0"></path>
      <path sodipodi:nodetypes="ccssccsccsssssssscscssssscccsccsssscsccssccsscsccscscsssccc" style="display:inline;stroke-width:0.196722" d="M 22.401418 220.80398 L 17.733207999999998 220.00293 C 16.929997999999998 219.86503 16.167308 220.40444 16.029397999999997 221.20746 C 16.014897999999995 221.29206 16.007997999999997 221.37584999999999 16.007997999999997 221.45866999999998 C 16.007997999999997 222.16392 16.515347999999996 222.78771999999998 17.233967999999997 222.91107 L 22.026117999999997 223.73355999999998 C 22.108517999999997 223.74775999999997 22.191947999999996 223.75485999999998 22.275757999999996 223.75485999999998 L 22.546447999999994 223.75485999999998 C 24.978032999999996 224.02853 25.604445999999996 224.33139999999997 25.688664999999993 223.61424999999997 C 25.955934999999993 217.18845999999996 31.701487999999994 212.57219999999998 39.73108799999999 212.57219999999998 L 58.65770799999999 212.57219999999998 C 62.26578799999999 212.57219999999998 66.37820099999999 216.79198999999997 65.20106799999999 219.11557 C 64.530632 220.43896999999998 62.26578799999999 219.30893 58.65770799999999 219.30893 L 40.55062799999999 219.30893 C 39.73580799999999 219.30893 39.07521799999999 219.96933 39.07521799999999 220.78435000000002 C 39.07521799999999 221.59936000000002 39.73580799999999 222.25976000000003 40.55062799999999 222.25976000000003 L 58.657707999999985 222.25976000000003 C 62.74342799999999 222.25976000000003 58.657707999999985 222.25976000000003 67.57038799999998 222.38784000000004 L 88.00271799999999 222.38784000000004 C 89.47557799999998 222.38784000000004 90.85793799999999 222.96109000000004 91.89780799999998 224.00450000000004 C 92.93925799999998 225.04418000000004 93.51269799999999 226.42693000000003 93.51269799999999 227.89802000000003 C 93.51269799999999 230.93442000000002 91.04383799999998 233.40505000000002 88.00782799999999 233.40800000000004 C 88.005828 233.40800000000004 88.00482799999999 233.40781000000004 88.002828 233.40781000000004 L 57.79951799999999 233.40781000000004 C 56.98468799999999 233.40781000000004 56.32409799999999 234.06820000000005 56.32409799999999 234.88322000000005 C 56.32409799999999 235.69824000000006 56.98468799999999 236.35864000000007 57.79951799999999 236.35864000000007 L 90.86473799999999 236.35903000000008 C 92.33660799999998 236.35903000000008 93.72034799999999 236.93208000000007 94.76198799999999 237.97372000000007 C 95.80343799999999 239.01301000000007 96.37707799999998 240.39596000000006 96.37707799999998 241.86685000000008 C 96.37707799999998 244.9062000000001 93.90428799999998 247.37920000000008 90.86492799999998 247.37920000000008 L 58.90174799999998 247.3786100000001 C 58.08692799999998 247.3786100000001 57.42633799999997 248.0390000000001 57.42633799999997 248.8540200000001 C 57.42633799999997 249.6690400000001 58.08692799999997 250.32944000000012 58.90174799999997 250.32944000000012 L 85.58333799999997 250.32944000000012 C 85.58733799999997 250.32944000000012 85.59133799999996 250.3300300000001 85.59473799999996 250.3300300000001 C 87.06700799999996 250.3300300000001 88.44995799999997 250.9028800000001 89.49002799999997 251.9445200000001 C 90.53147799999996 252.9842000000001 91.10491799999997 254.36774000000008 91.10491799999997 255.8402100000001 C 91.10491799999997 258.8774000000001 88.63310799999996 261.3484200000001 85.59473799999996 261.3484200000001 L 56.92743799999997 261.34942000000007 C 56.11261799999997 261.34942000000007 55.45201799999997 262.0098100000001 55.45201799999997 262.8248300000001 C 55.45201799999997 263.6398500000001 56.11261799999997 264.30025000000006 56.92743799999997 264.30025000000006 L 79.09307799999996 264.30025000000006 C 83.02926799999996 264.2512500000001 75.96114799999997 264.2385500000001 85.51290799999997 264.2992500000001 L 85.59470799999997 264.2992500000001 C 90.26016799999996 264.2992500000001 94.05571799999997 260.50448000000006 94.05571799999997 255.8402100000001 C 94.05571799999997 253.7638100000001 93.31309799999997 251.8024900000001 91.95433799999996 250.2603900000001 C 96.10831799999997 249.72392000000008 99.32786799999997 246.1642400000001 99.32786799999997 241.86685000000008 C 99.32786799999997 239.60671000000008 98.44674799999997 237.4823100000001 96.84779799999997 235.88591000000008 C 95.99401799999997 235.03214000000008 94.98994799999997 234.3833500000001 93.89499799999997 233.96414000000007 C 95.47841799999998 232.42558000000008 96.46359799999998 230.27442000000008 96.46359799999998 227.89763000000008 C 96.46359799999998 225.63749000000007 95.58247799999998 223.5130900000001 93.98529799999997 221.9182600000001 C 92.39007799999997 220.31793000000008 90.26547799999997 219.4366200000001 88.00258799999997 219.4366200000001 L 68.14370799999998 219.4366200000001 C 68.14770799999998 219.3298000000001 68.15170799999997 219.2229800000001 68.15170799999997 219.1151700000001 C 68.15170799999997 213.8802100000001 63.89267799999997 209.6209800000001 58.65750799999997 209.6209800000001 L 39.73089799999997 209.6209800000001 C 32.30542799999997 209.6209800000001 25.94521799999997 214.2665700000001 23.402187999999967 220.8038300000001 L 22.401067999999967 220.8038300000001 Z" id="path37623-8-4"></path>
      <path sodipodi:nodetypes="sssssccccccccssssccs" style="display:inline;stroke-width:0.196722" d="M 33.776278 264.51403 L 75.741408 263.97949 C 76.55616800000001 263.96909 77.61772800000001 263.85363 77.61772800000001 263.03861 C 77.61772800000001 262.22359 76.95713800000001 261.5632 76.14230800000001 261.5632 L 33.77627800000001 261.5632 C 29.656718000000012 261.5632 25.813758000000014 259.52536 23.49676800000001 256.11164 C 23.17178800000001 255.63262000000003 22.59676800000001 255.3881 22.02626800000001 255.48607 L 6.848828000000008 259.00031 L 6.848828000000008 220.21913 L 16.708728000000008 221.91172 C 17.511948000000007 222.04962 18.274638000000007 221.51041 18.41253800000001 220.70719 C 18.55141800000001 219.90457 18.01102800000001 219.14148 17.208008000000007 219.00358 L 5.623058000000007 217.01492 C 5.194398000000008 216.94132 4.754918000000007 217.06052 4.422458000000008 217.34089 C 4.089998000000008 217.62122 3.897998000000008 218.03394 3.897998000000008 218.46889 L 3.897998000000008 260.75074 C 3.897998000000008 261.18569 4.089998000000008 261.59861 4.422458000000008 261.87874 C 4.7551180000000075 262.15907 5.194398000000008 262.27828 5.623058000000007 262.20471 L 21.621418000000006 258.54942 C 24.525038000000006 262.3015 29.000458000000005 264.57486 33.776278000000005 264.51403 Z" id="path37625-4-0"></path>
    <animateTransform attributeName="transform" attributeType="auto" type="translate" values="14.780844977529123 4.339320415138054;29.778648021084962 24.559521859982667;14.780844977529123 4.339320415138054" calcMode="spline" keyTimes="0;0.5;1" keySplines=".25 0 .75 .75;.25 .25 .75 1" dur="0.92s" begin="0s" repeatCount="indefinite" additive="sum" accumulate="none" fill="freeze" id="animateTransform5036"></animateTransform></g>
  </g>
</svg>