<?xml version='1.0' encoding='UTF-8' standalone='no'?>
<!DOCTYPE svg PUBLIC '-//W3C//DTD SVG 1.1//EN' 'http://www.w3.org/Graphics/SVG/1.1/DTD/svg11.dtd'>
<!-- Animated using aniGen version 0.8.1 Quality of Life - http://anigen.org -->
<svg xmlns:dc="http://purl.org/dc/elements/1.1/" xmlns:cc="http://creativecommons.org/ns#" xmlns:rdf="http://www.w3.org/1999/02/22-rdf-syntax-ns#" xmlns:svg="http://www.w3.org/2000/svg" xmlns="http://www.w3.org/2000/svg" xmlns:sodipodi="http://sodipodi.sourceforge.net/DTD/sodipodi-0.dtd" xmlns:inkscape="http://www.inkscape.org/namespaces/inkscape" sodipodi:docname="charchoir.svg" inkscape:version="1.0 (4035a4f, 2020-05-01)" id="svg2385" version="1.1" viewBox="0 0 70 90" height="90mm" width="70mm" preserveAspectRatio="xMidYMid" xmlns:xlink="http://www.w3.org/1999/xlink" xmlns:anigen="http://www.anigen.org/namespace" anigen:version="0.8.1">
  <defs id="defs2379"></defs>
  <sodipodi:namedview inkscape:window-maximized="0" inkscape:window-y="23" inkscape:window-x="0" inkscape:window-height="930" inkscape:window-width="1280" inkscape:snap-global="false" showgrid="false" inkscape:document-rotation="0" inkscape:current-layer="layer1" inkscape:document-units="mm" inkscape:cy="-56.88714235406417" inkscape:cx="53.903955470360685" inkscape:zoom="4" inkscape:pageshadow="2" inkscape:pageopacity="0.0" borderopacity="1.0" bordercolor="#666666" pagecolor="#ffffff" id="base"></sodipodi:namedview>
  <metadata id="metadata2382">
    <rdf:rdf id="rdf:rdf6919">
      <cc:work rdf:about="" id="cc:work4694">
        <dc:format id="dc:format9700">image/svg+xml</dc:format>
        <dc:type rdf:resource="http://purl.org/dc/dcmitype/StillImage" id="dc:type3920"></dc:type>
        <dc:title id="dc:title7605"></dc:title>
      </cc:work>
    </rdf:rdf>
  </metadata>
  <g style="display:inline" id="layer1" inkscape:groupmode="layer" inkscape:label="Layer 1">
    <g transform="matrix(-0.17689494,0,0,-0.21311425,123.02535,206.47912)" id="g5879">
      <g transform="translate(401.6475,652.4785)" id="g4549">
        <path id="path4551" style="fill:#000100;fill-opacity:1;fill-rule:nonzero;stroke:none" d="M 0 0 L 0 25 C 0.783 33.753 1.113 42.535 0.953 51.309 C 0.717 64.301 5.9830000000000005 71.354 18.406 73.289 C 19.555 73.467 20.668 73.973 21.823999999999998 74.01 C 29.208999999999996 74.24300000000001 29.304 73.995 30.477999999999998 82.55000000000001 C 31.816 92.30900000000001 34.876999999999995 101.61900000000001 40.131 109.67500000000001 C 45.677 118.17800000000001 53.691 124.43900000000001 64.705 124.42900000000002 C 75.188 124.41800000000002 85.874 125.94300000000001 96.119 123.78300000000002 C 112.412 120.34600000000002 125.884 112.30400000000002 132.5 95.84300000000002 C 133.201 94.09900000000002 134.062 92.51500000000001 135.562 91.37200000000001 C 142.663 85.961 146.687 78.772 148 70 L 148 58 C 147.143 53.418 145.55 49.252 142.723 45.385 C 140.22500000000002 41.967 140.906 37.535 141.781 33.769999999999996 C 145.27 18.761999999999997 142.59300000000002 4.061999999999998 140.284 -10.695000000000007 C 138.928 -19.369000000000007 137.309 -28.003000000000007 136.254 -36.72500000000001 C 135.57 -42.379000000000005 134.245 -47.83600000000001 130.94199999999998 -52.629000000000005 C 128.03199999999998 -57.566 123.58799999999998 -59.531000000000006 118.00099999999998 -59.428000000000004 C 114.51999999999998 -59.36300000000001 111.03499999999998 -59.426 107.55299999999997 -59.42400000000001 C 97.47299999999997 -59.416000000000004 94.91599999999997 -57.70700000000001 91.04999999999997 -48.43000000000001 C 89.31299999999997 -44.27600000000001 88.54099999999997 -39.941 88.56299999999997 -35.434000000000005 C 88.57199999999997 -33.357000000000006 88.16199999999998 -31.131000000000004 85.50799999999997 -31.262000000000004 C 82.82399999999997 -31.393000000000004 83.50099999999996 -33.861000000000004 83.43599999999996 -35.508 C 83.24999999999996 -40.102000000000004 83.72299999999997 -44.736000000000004 82.41199999999996 -49.25 C 80.61099999999996 -59.166 73.71099999999996 -66.049 63.298999999999964 -67.982 C 53.92799999999996 -69.723 45.05299999999997 -67.586 36.79699999999997 -63.313 C 32.97899999999997 -61.338 31.12299999999997 -57.385000000000005 30.67199999999997 -52.992000000000004 C 30.56999999999997 -46.858000000000004 29.48099999999997 -40.800000000000004 29.272999999999968 -34.666000000000004 C 29.17799999999997 -31.865000000000002 28.266999999999967 -29.165000000000003 24.657999999999966 -29.480000000000004 C 17.587999999999965 -30.100000000000005 11.457999999999966 -28.133000000000003 6.706999999999965 -22.863000000000003 C 1.877 -17.51 1.26 -10.613 0.514 -3.838 C 0.371 -2.555 0.924 -1.178 0 0"></path>
      </g>
      <g transform="translate(450.5342,754.5693)" id="g4557">
        <path id="path4559" style="fill:#237f18;fill-opacity:1;fill-rule:evenodd;stroke:none" d="M 0 0 C 4.644 7.877 13.896 12.34 22.604 11.373 C 27.212 10.860999999999999 31.902 10.985999999999999 36.555 10.988999999999999 C 49.108000000000004 10.996999999999998 58.739999999999995 5.377999999999999 67.283 -5.079000000000002 C 63.517 -5.079000000000002 60.628 -5.202000000000003 57.752 -5.057000000000002 C 46.913000000000004 -4.5100000000000025 36.217 -5.289000000000002 25.672000000000004 -8.005000000000003 C 18.219000000000005 -9.926000000000002 13.406000000000004 -15.638000000000002 13.144000000000004 -23.327 C 12.787000000000004 -33.804 12.586000000000004 -44.124 18.105000000000004 -53.817 C 23.240000000000002 -62.831 31.646000000000004 -65.66 40.758 -67.069 C 52.660000000000004 -68.91 64.1 -65.386 75.50200000000001 -62.645 C 81.18800000000002 -61.277 81.09800000000001 -60.899 81.09 -67.087 C 81.313 -75.802 79.375 -84.12 76.727 -92.361 C 73.96900000000001 -100.94200000000001 67.643 -105.491 59.417 -107.165 C 50.111000000000004 -109.06 40.629000000000005 -109.727 31.269000000000002 -106.849 C 29.369000000000003 -106.265 27.328000000000003 -105.769 25.379 -105.85600000000001 C 15.114 -106.32300000000001 10.258000000000001 -99.47600000000001 6.268000000000001 -91.72000000000001 C 0.8680000000000003 -81.22200000000001 -1.6389999999999993 -69.906 -2.3859999999999992 -58.167000000000016 C -2.733999999999999 -52.69300000000001 -4.369 -47.41300000000002 -4.399999999999999 -41.84900000000002 C -4.48 -27.718 -4.914 -13.59 0 0"></path>
      </g>
      <g transform="translate(450.5342,754.5693)" id="g4561">
        <path id="path4563" style="fill:#134d29;fill-opacity:1;fill-rule:evenodd;stroke:none" d="M 0 0 C 0.662 -3.217 -0.361 -6.301 -0.986 -9.349 C -4.131 -24.684 -3.2889999999999997 -39.917 -1.263 -55.340999999999994 C -0.35599999999999987 -62.23499999999999 0.7370000000000001 -69.042 2.021 -75.862 C 3.8890000000000002 -85.77199999999999 8.648 -94.095 14.931999999999999 -101.76499999999999 C 16.093 -103.18299999999999 17.564 -103.317 18.898999999999997 -103.41599999999998 C 28.764999999999997 -104.14899999999999 38.196999999999996 -108.13999999999999 48.30499999999999 -107.12399999999998 C 54.227999999999994 -106.52899999999998 60.08699999999999 -106.27099999999999 65.619 -103.44899999999998 C 70.406 -101.00799999999998 73.471 -97.51699999999998 75.139 -92.52999999999999 C 77.672 -84.96399999999998 79.53699999999999 -77.26899999999999 80.16799999999999 -69.29099999999998 C 80.22699999999999 -68.53699999999998 80.77099999999999 -67.82099999999998 81.08999999999999 -67.08699999999999 C 82.92999999999999 -77.32699999999998 82.06099999999999 -87.618 81.76199999999999 -97.91099999999999 C 81.30699999999999 -113.52199999999999 74.24999999999999 -128.13199999999998 75.06899999999999 -143.969 C 75.36299999999999 -149.661 73.49499999999999 -151.021 67.91899999999998 -151.155 C 65.42099999999998 -151.216 62.91999999999998 -151.175 60.42199999999998 -151.175 C 53.17199999999998 -151.17600000000002 51.914999999999985 -150.382 51.28599999999999 -143.401 C 50.96599999999999 -139.84300000000002 51.84599999999999 -136.17100000000002 52.231999999999985 -132.556 C 52.39799999999998 -131.00500000000002 53.905999999999985 -131.157 54.88299999999998 -130.68 C 59.05499999999998 -128.64000000000001 62.957999999999984 -126.21400000000001 66.32799999999997 -122.56200000000001 C 61.48199999999997 -123.34300000000002 56.67999999999998 -122.99500000000002 51.88499999999998 -123.11300000000001 C 45.87499999999998 -123.26100000000001 39.973999999999975 -122.69800000000001 34.101999999999975 -121.35700000000001 C 32.040999999999976 -120.88700000000001 29.755999999999975 -120.93800000000002 27.646999999999977 -121.24900000000001 C 25.034999999999975 -121.635 23.401999999999976 -122.956 22.940999999999978 -126.10100000000001 C 22.065999999999978 -132.067 22.052999999999976 -138.01700000000002 22.10199999999998 -143.995 C 22.181999999999977 -153.907 14.333999999999978 -160.542 4.360999999999979 -158.936 C 2.7289999999999797 -158.673 1.1289999999999791 -158.18300000000002 -0.4740000000000206 -157.755 C -4.93600000000002 -156.565 -6.92500000000002 -154.287 -7.083000000000021 -149.04 C -7.387000000000021 -138.962 -8.71700000000002 -128.878 -10.21300000000002 -118.886 C -10.98800000000002 -113.707 -10.72300000000002 -108.597 -10.78500000000002 -103.466 C -10.950000000000019 -89.972 -11.31600000000002 -76.452 -10.72700000000002 -62.98199999999999 C -10.01200000000002 -46.638999999999996 -10.36100000000002 -30.14999999999999 -5.82000000000002 -14.141999999999989 C -4.406 -9.162 -1.779 -4.776 0 0"></path>
      </g>
      <g transform="translate(429.5029,701.5645)" id="g4565">
        <path id="path4567" style="fill:#134c28;fill-opacity:1;fill-rule:evenodd;stroke:none" d="M 0 0 C 0.049 -15.327 0.013 -30.655 0.191 -45.98 C 0.26 -51.782 0.75 -57.583 1.191 -63.373 C 1.411 -66.26599999999999 0.19600000000000006 -67.033 -2.556 -67.109 C -11.274999999999999 -67.353 -15.681000000000001 -63.019999999999996 -16.708 -51.93599999999999 C -18.043999999999997 -37.53099999999999 -17.974999999999998 -23.103999999999992 -15.992999999999999 -8.74199999999999 C -15.591 -5.82599999999999 -16.793 -2.7239999999999904 -14.970999999999998 0.017000000000010118 C -11.645999999999997 -0.029999999999989882 -8.505999999999998 1.3960000000000101 -5.1629999999999985 1.2320000000000102 C -3.36 1.143 -1.494 1.363 0 0"></path>
      </g>
      <g transform="translate(539.7021,721.5195)" id="g4569">
        <path id="path4571" style="fill:#4a646e;fill-opacity:1;fill-rule:evenodd;stroke:none" d="M 0 0 C 1.725 -6.374 -1.384 -13.41 -8.345 -16.732 C -20.215 -22.398 -32.602000000000004 -25.64 -45.982 -23.016 C -60.262 -20.214999999999996 -69.719 -6.206999999999997 -66.057 7.2010000000000005 C -65.21900000000001 10.272 -63.971000000000004 13.184000000000001 -60.888000000000005 14.782 C -58.50600000000001 13.542 -58.273 11.095 -57.627 8.904 C -54.231 -2.6140000000000008 -48.789 -6.699 -36.658 -6.673 C -28.029000000000003 -6.654 -19.495 -5.473 -10.945 -4.471 C -6.859 -3.992 -3.658 -1.463 0 0"></path>
      </g>
      <g transform="translate(539.7021,721.5195)" id="g4573">
        <path id="path4575" style="fill:#98c7dc;fill-opacity:1;fill-rule:evenodd;stroke:none" d="M 0 0 C -2.451 -4.538 -7.094 -5.518 -11.402 -6.027 C -20.445 -7.1 -29.540999999999997 -7.751 -38.677 -8.032 C -49.357 -8.361 -56.769 -1.1680000000000001 -58.573 7.175000000000001 C -59.132 9.757000000000001 -60.104 12.249 -60.888 14.782 C -50.857 16.835 -40.915 19.828 -30.543 19.044 C -22.762 18.457 -15.196 16.563000000000002 -8.550999999999998 12.22 C -4.141 9.337 -0.841 5.478 0 0"></path>
      </g>
      <g transform="translate(429.5029,701.5645)" id="g4577">
        <path id="path4579" style="fill:#237d1a;fill-opacity:1;fill-rule:evenodd;stroke:none" d="M 0 0 C -4.253 -0.174 -8.594 0.419 -12.645 -1.488 C -14.201 -2.221 -14.713 -1.289 -14.969 0.016000000000000014 C -14.866999999999999 1.504 -14.881 3.0100000000000002 -14.642999999999999 4.477 C -13.399999999999999 12.138 -8.009999999999998 15.313 -0.5639999999999983 12.982000000000001 C 1.275 12.407 1.102 11.1 1.007 9.857 C 0.755 6.565 0.346 3.285 0 0"></path>
      </g>
      <g transform="translate(522.6592,724.3691)" id="g4581">
        <path id="path4583" style="fill:#fafdfd;fill-opacity:1;fill-rule:evenodd;stroke:none" d="M 0 0 C -7.08 0.707 -14.27 1.427 -21.461 2.141 C -24.56 2.449 -25.038999999999998 4.732 -25.076999999999998 7.154 C -25.127 10.286 -23.101999999999997 12.243 -20.360999999999997 12.600999999999999 C -12.173 13.67 -4.287 11.774 3.418 9.202 C 6.265 8.252 7.627 5.956 7.027 2.916 C 6.178 -1.398 2.59 0.658 0 0"></path>
      </g>
    <animateTransform attributeName="transform" attributeType="auto" type="skewX" values="-5;0;-5" calcMode="spline" keyTimes="0;0.5;1" keySplines="0 0 1 1;0 0 1 1" dur="1.85s" begin="0s" repeatCount="indefinite" additive="sum" accumulate="none" fill="freeze" id="animateTransform4062"></animateTransform><animateTransform attributeName="transform" attributeType="auto" type="translate" values="50 0;0 0;50 0" calcMode="spline" keyTimes="0;0.5;1" keySplines="0 0 1 1;0 0 1 1" dur="1.85s" begin="0s" repeatCount="indefinite" additive="sum" accumulate="none" fill="freeze" id="animateTransform3154"></animateTransform></g>
    <g transform="matrix(-0.03821894,0,0,0.03821894,31.352443,54.257008)" id="g5465">
      <path id="path5392" d="M 208.344 395.904 C 205.367 392.937 204.077 388.674 204.909 384.555 L 223.789 290.134 C 224.96699999999998 284.362 221.243 278.728 215.47099999999998 277.54900000000004 C 214.76799999999997 277.40600000000006 214.05299999999997 277.333 213.33499999999998 277.333 L 85.33499999999998 277.333 C 79.44399999999997 277.322 74.65999999999998 282.09000000000003 74.64899999999997 287.98100000000005 C 74.64399999999998 290.821 75.77199999999998 293.54600000000005 77.78299999999997 295.5520000000001 L 117.33499999999998 335.0830000000001 L 117.33499999999998 414.50700000000006 C 117.33499999999998 432.33700000000005 126.24499999999998 448.98800000000006 141.07899999999998 458.88000000000005 L 186.07099999999997 488.87500000000006 C 190.29999999999998 491.69900000000007 195.93399999999997 491.1460000000001 199.53199999999998 487.5520000000001 L 208.36399999999998 478.7200000000001 C 218.40499999999997 468.7410000000001 224.03599999999997 455.1590000000001 224.00099999999998 441.0030000000001 L 224.00099999999998 433.6640000000001 C 224.03099999999998 419.4920000000001 218.39299999999997 405.8970000000001 208.34399999999997 395.9040000000001 Z" style="fill:#607d8b"></path>
      <ellipse id="ellipse5394" ry="202.66701" rx="74.667" cy="213.33299" cx="394.66901" style="fill:#b0bec5"></ellipse>
      <g id="g5400">
        <path id="path5396" d="M 384.002 149.333 C 378.111 149.333 373.33500000000004 154.109 373.33500000000004 160 L 373.33500000000004 266.66700000000003 C 373.33500000000004 272.55800000000005 378.11100000000005 277.334 384.002 277.334 C 416.247 274.093 439.962 245.635 437.33500000000004 213.334 C 439.96200000000005 181.03300000000002 416.247 152.574 384.00200000000007 149.333 Z" style="fill:#f44336"></path>
        <path id="path5398" d="M 213.336 277.333 C 173.976 277.333 160.00300000000001 242.85800000000003 160.00300000000001 213.33300000000003 C 160.00300000000001 183.80800000000002 173.97600000000003 149.33300000000003 213.336 149.33300000000003 C 219.227 149.33300000000003 224.00300000000001 144.55700000000002 224.00300000000001 138.66600000000003 C 224.00300000000001 132.77500000000003 219.227 128.00000000000003 213.336 128.00000000000003 L 96.002 128.00000000000003 C 48.873999999999995 128.00000000000003 10.668999999999997 166.20500000000004 10.668999999999997 213.33300000000003 C 10.668999999999997 260.461 48.873999999999995 298.66600000000005 96.002 298.66600000000005 L 213.33499999999998 298.66600000000005 C 219.22599999999997 298.66600000000005 224.00199999999998 293.89000000000004 224.00199999999998 287.9990000000001 C 224.00199999999998 282.1090000000001 219.22699999999998 277.3330000000001 213.33599999999998 277.3330000000001 Z" style="fill:#f44336"></path>
      </g>
      <g id="g5406">
        <path id="path5402" d="M 330.669 213.333 C 330.669 141.952 344.70599999999996 76.37299999999999 367.298 42.153999999999996 C 370.551 37.242 369.206 30.623999999999995 364.294 27.370999999999995 C 360.621 24.938999999999997 355.83099999999996 25.013999999999996 352.23699999999997 27.561999999999994 L 209.837 128 C 167.74599999999998 129.877 138.66899999999998 164.437 138.66899999999998 213.333 C 138.66899999999998 262.229 167.74599999999998 296.789 209.837 298.666 L 352.23699999999997 399.18899999999996 C 357.04299999999995 402.59499999999997 363.70099999999996 401.46099999999996 367.10699999999997 396.65399999999994 C 369.654 393.05999999999995 369.72999999999996 388.2699999999999 367.29799999999994 384.5969999999999 C 344.70599999999996 350.2929999999999 330.6689999999999 284.7149999999999 330.6689999999999 213.3329999999999 Z" style="fill:#f5f5f5"></path>
        <path id="path5404" d="M 394.669 426.667 C 339.202 426.667 309.336 316.758 309.336 213.33399999999997 C 309.336 109.91 339.202 0 394.669 0 C 450.13599999999997 0 480.00199999999995 109.909 480.00199999999995 213.333 C 480.00199999999995 316.757 450.13599999999997 426.66700000000003 394.669 426.66700000000003 Z M 394.669 21.33299999999997 C 364.397 21.33299999999997 330.669 100.26599999999998 330.669 213.33299999999997 C 330.669 326.4 364.397 405.33299999999997 394.669 405.33299999999997 C 424.941 405.33299999999997 458.669 326.4 458.669 213.33299999999997 C 458.669 100.26599999999998 424.941 21.33299999999997 394.669 21.33299999999997 Z" style="fill:#f5f5f5"></path>
      </g>
      <path id="path5408" d="M 394.669 426.667 C 339.202 426.667 309.336 316.758 309.336 213.33399999999997 C 309.336 109.91 339.202 0 394.669 0 C 450.13599999999997 0 480.00199999999995 109.909 480.00199999999995 213.333 C 480.00199999999995 316.757 450.13599999999997 426.66700000000003 394.669 426.66700000000003 Z M 394.669 21.33299999999997 C 364.397 21.33299999999997 330.669 100.26599999999998 330.669 213.33299999999997 C 330.669 326.4 364.397 405.33299999999997 394.669 405.33299999999997 C 424.941 405.33299999999997 458.669 326.4 458.669 213.33299999999997 C 458.669 100.26599999999998 424.941 21.33299999999997 394.669 21.33299999999997 Z"></path>
      <path id="path5410" d="M 384.002 277.333 C 378.111 277.333 373.33500000000004 272.557 373.33500000000004 266.66600000000005 C 373.33500000000004 260.77500000000003 378.11100000000005 255.99900000000005 384.002 255.99900000000005 C 401.645 255.99900000000005 416.002 236.79900000000006 416.002 213.33200000000005 C 416.002 189.86500000000007 401.645 170.66500000000005 384.002 170.66500000000005 C 378.111 170.66500000000005 373.33500000000004 165.88900000000004 373.33500000000004 159.99800000000005 C 373.33500000000004 154.10700000000006 378.11100000000005 149.33100000000005 384.002 149.33100000000005 C 416.247 152.57200000000006 439.962 181.03000000000006 437.33500000000004 213.33100000000005 C 439.96200000000005 245.63400000000004 416.247 274.09200000000004 384.00200000000007 277.333 Z"></path>
      <path id="path5412" d="M 358.402 401.067 C 356.19599999999997 401.073 354.042 400.395 352.23699999999997 399.12600000000003 L 209.944 298.667 L 96.002 298.667 C 48.873999999999995 298.667 10.668999999999997 260.462 10.668999999999997 213.33399999999997 C 10.669 166.206 48.874 128 96.002 128 L 209.943 128 L 352.216 27.563 C 357.012 24.142 363.673 25.256 367.094 30.051 C 369.67 33.662 369.743 38.489 367.277 42.176 C 344.70599999999996 76.331 330.669 141.93099999999998 330.669 213.33300000000003 C 330.669 284.735 344.70599999999996 350.336 367.277 384.49 C 370.529 389.402 369.183 396.02 364.271 399.272 C 362.524 400.428 360.476 401.045 358.38100000000003 401.044 Z M 96.002 149.333 C 60.656 149.333 32.001999999999995 177.987 32.001999999999995 213.333 C 32.001999999999995 248.679 60.65599999999999 277.33299999999997 96.002 277.33299999999997 L 213.33499999999998 277.33299999999997 C 215.54099999999997 277.327 217.695 278.005 219.49999999999997 279.27399999999994 L 331.159 358.20699999999994 C 315.977 311.44199999999995 308.604 262.49499999999995 309.335 213.33199999999994 C 308.613 164.19799999999992 315.98699999999997 115.28099999999993 331.159 68.54299999999995 L 219.5 147.476 C 217.685 148.715 215.532 149.363 213.335 149.332 L 96.002 149.332 Z"></path>
      <path id="path5414" d="M 192.002 490.667 C 189.899 490.66499999999996 187.84300000000002 490.042 186.09300000000002 488.875 L 141.08 458.88 C 126.24600000000001 448.988 117.33600000000001 432.337 117.33600000000001 414.507 L 117.33600000000001 335.083 L 77.784 295.552 C 73.69200000000001 291.315 73.80900000000001 284.562 78.046 280.469 C 82.18 276.477 88.733 276.477 92.86600000000001 280.469 L 135.53300000000002 323.13599999999997 C 137.53500000000003 325.13199999999995 138.663 327.84 138.669 330.667 L 138.669 414.50699999999995 C 138.67000000000002 425.20599999999996 144.01700000000002 435.19699999999995 152.92000000000002 441.131 L 190.65900000000002 466.28299999999996 L 193.30400000000003 463.638 C 199.32600000000002 457.63899999999995 202.69800000000004 449.48199999999997 202.66900000000004 440.98199999999997 L 202.66900000000004 433.66499999999996 C 202.69200000000004 425.17299999999994 199.32000000000005 417.02399999999994 193.30400000000003 411.03 C 185.25100000000003 403.022 181.75100000000003 391.50899999999996 183.98100000000002 380.37399999999997 L 200.53600000000003 297.686 C 163.03200000000004 291.71299999999997 138.66900000000004 259.32899999999995 138.66900000000004 213.33399999999997 C 138.66900000000004 162.28299999999996 168.68500000000003 128.00099999999998 213.33600000000004 128.00099999999998 C 219.22700000000003 128.00099999999998 224.00300000000004 132.777 224.00300000000004 138.66799999999998 C 224.00300000000004 144.55899999999997 219.22700000000003 149.33499999999998 213.33600000000004 149.33499999999998 C 173.97600000000006 149.33499999999998 160.00300000000004 183.80999999999997 160.00300000000004 213.33499999999998 C 160.00300000000004 242.85999999999999 173.97600000000006 277.335 213.33600000000004 277.335 C 219.22700000000003 277.334 224.00400000000005 282.108 224.00500000000005 287.99899999999997 C 224.00500000000005 288.71599999999995 223.93300000000005 289.43199999999996 223.78900000000004 290.135 L 204.80200000000005 384.556 C 203.97900000000004 388.686 205.27700000000004 392.953 208.25800000000004 395.92699999999996 C 218.34700000000004 405.9 224.01800000000003 419.501 224.00200000000004 433.68699999999995 L 224.00200000000004 441.00399999999996 C 224.04200000000003 455.157 218.41900000000004 468.739 208.38600000000002 478.72099999999995 L 199.55400000000003 487.55299999999994 C 197.55000000000004 489.55099999999993 194.83300000000003 490.67199999999997 192.00200000000004 490.6669999999999 Z"></path>
    <animateTransform attributeName="transform" attributeType="auto" type="rotate" values="0 10.668999671936035 0;-5 10.668999671936035 0;0 10.668999671936035 0" calcMode="spline" keyTimes="0;0.47;1" keySplines="0 0 1 1;0 0 1 1" dur="1.85s" begin="0s" repeatCount="indefinite" additive="sum" accumulate="none" fill="freeze" id="animateTransform5079"></animateTransform></g>
  </g>
</svg>