<?xml version="1.0" encoding="UTF-8" standalone="no"?>
<svg
   xmlns:dc="http://purl.org/dc/elements/1.1/"
   xmlns:cc="http://creativecommons.org/ns#"
   xmlns:rdf="http://www.w3.org/1999/02/22-rdf-syntax-ns#"
   xmlns:svg="http://www.w3.org/2000/svg"
   xmlns="http://www.w3.org/2000/svg"
   xmlns:sodipodi="http://sodipodi.sourceforge.net/DTD/sodipodi-0.dtd"
   xmlns:inkscape="http://www.inkscape.org/namespaces/inkscape"
   sodipodi:docname="charpiano.svg"
   inkscape:version="1.0 (4035a4f, 2020-05-01)"
   id="svg2385"
   version="1.1"
   viewBox="0 0 70 90"
   height="90mm"
   width="70mm">
  <defs
     id="defs2379">
    <filter
       inkscape:collect="always"
       style="color-interpolation-filters:sRGB"
       id="filter39359-55-6-5"
       x="-0.0019434401"
       width="1.0038869"
       y="-0.0017485661"
       height="1.0034971">
      <feGaussianBlur
         inkscape:collect="always"
         stdDeviation="0.01890388"
         id="feGaussianBlur39361-4-2-7" />
    </filter>
    <filter
       inkscape:collect="always"
       style="color-interpolation-filters:sRGB"
       id="filter39355-1-4-0"
       x="-0.0098036937"
       width="1.0196074"
       y="-0.0064987624"
       height="1.0129975">
      <feGaussianBlur
         inkscape:collect="always"
         stdDeviation="0.10000675"
         id="feGaussianBlur39357-8-7-0" />
    </filter>
    <filter
       height="1.0034971"
       y="-0.0017485661"
       width="1.0038869"
       x="-0.0019434401"
       id="filter39359-55-6-5-3"
       style="color-interpolation-filters:sRGB"
       inkscape:collect="always">
      <feGaussianBlur
         id="feGaussianBlur39361-4-2-7-0"
         stdDeviation="0.01890388"
         inkscape:collect="always" />
    </filter>
    <filter
       height="1.0129975"
       y="-0.0064987624"
       width="1.0196074"
       x="-0.0098036937"
       id="filter39355-1-4-0-4"
       style="color-interpolation-filters:sRGB"
       inkscape:collect="always">
      <feGaussianBlur
         id="feGaussianBlur39357-8-7-0-8"
         stdDeviation="0.10000675"
         inkscape:collect="always" />
    </filter>
  </defs>
  <sodipodi:namedview
     inkscape:window-maximized="0"
     inkscape:window-y="23"
     inkscape:window-x="0"
     inkscape:window-height="954"
     inkscape:window-width="1280"
     inkscape:snap-global="false"
     showgrid="false"
     inkscape:document-rotation="0"
     inkscape:current-layer="layer1"
     inkscape:document-units="mm"
     inkscape:cy="264.03999"
     inkscape:cx="85.911892"
     inkscape:zoom="1.979899"
     inkscape:pageshadow="2"
     inkscape:pageopacity="0.0"
     borderopacity="1.0"
     bordercolor="#666666"
     pagecolor="#ffffff"
     id="base" />
  <metadata
     id="metadata2382">
    <rdf:RDF>
      <cc:Work
         rdf:about="">
        <dc:format>image/svg+xml</dc:format>
        <dc:type
           rdf:resource="http://purl.org/dc/dcmitype/StillImage" />
        <dc:title />
      </cc:Work>
    </rdf:RDF>
  </metadata>
  <g
     style="display:inline"
     id="layer1"
     inkscape:groupmode="layer"
     inkscape:label="Layer 1">
    <g
       transform="matrix(-0.16198096,0,0,-0.19327301,57.866057,187.90029)"
       id="g5990">
      <g
         transform="translate(42.5088,659.3765)"
         id="g4477">
        <path
           id="path4479"
           style="fill:#010000;fill-opacity:1;fill-rule:nonzero;stroke:none"
           d="m 0,0 v 25 c 0.783,8.753 1.114,17.536 0.954,26.309 -0.239,12.994 5.029,20.045 17.45,21.981 1.149,0.178 2.263,0.684 3.419,0.721 7.378,0.237 7.478,-0.027 8.654,8.541 1.338,9.759 4.399,19.069 9.653,27.125 5.546,8.503 13.56,14.763 24.575,14.752 10.484,-0.011 21.17,1.514 31.414,-0.646 16.295,-3.435 29.765,-11.479 36.383,-27.939 0.701,-1.744 1.562,-3.328 3.062,-4.471 C 142.664,85.962 146.689,78.773 148,70 V 58 c -0.858,-4.581 -2.447,-8.749 -5.275,-12.617 -2.498,-3.417 -1.818,-7.848 -0.942,-11.614 3.488,-15.008 0.811,-29.707 -1.498,-44.465 -1.357,-8.675 -2.974,-17.308 -4.029,-26.031 -0.684,-5.654 -2.01,-11.111 -5.313,-15.902 -2.91,-4.937 -7.354,-6.902 -12.941,-6.801 -3.481,0.065 -6.966,0.002 -10.449,0.004 -10.08,0.008 -12.639,1.719 -16.504,10.994 -1.738,4.153 -2.509,8.489 -2.488,12.995 0.009,2.076 -0.398,4.302 -3.051,4.173 -2.684,-0.13 -2.008,-2.599 -2.074,-4.244 -0.184,-4.593 0.289,-9.226 -1.023,-13.74 -1.854,-10.227 -10.005,-17.725 -20.571,-18.991 -8.709,-1.044 -16.915,0.926 -24.625,4.679 -4.099,1.996 -6.017,6.017 -6.546,10.572 -0.104,6.133 -1.219,12.189 -1.382,18.324 -0.093,3.51 -1.786,5.72 -5.631,5.229 C 11.436,-30.992 2.472,-21.409 0.995,-8.772 0.654,-5.85 0.983,-2.846 0,0" />
      </g>
      <g
         transform="translate(91.3335,761.4453)"
         id="g4485">
        <path
           id="path4487"
           style="fill:#c01701;fill-opacity:1;fill-rule:evenodd;stroke:none"
           d="m 0,0 c 5.913,7.413 12.673,12.952 23.1,11.511 3.929,-0.543 7.965,-0.484 11.948,-0.427 11.248,0.162 20.785,-3.671 28.514,-11.874 0.857,-0.91 2.557,-1.669 1.919,-3.143 -0.581,-1.345 -2.302,-1.142 -3.603,-1.129 -8.804,0.089 -17.627,0.768 -26.367,-0.958 -3.744,-0.739 -7.597,-1.122 -11.216,-2.26 -6.054,-1.905 -10.202,-6.408 -10.798,-12.531 -1.129,-11.59 -1.233,-23.149 5.137,-33.86 2.766,-4.653 6.738,-7.167 11.164,-9.379 10.612,-5.304 21.645,-3.966 32.657,-1.644 4.702,0.991 9.476,1.936 13.955,3.607 4.691,1.751 5.117,-0.392 4.746,-4.027 -0.354,-6.933 -0.873,-13.787 -2.655,-20.599 -3.71,-14.192 -9.765,-18.887 -24.097,-21.127 -12.328,-1.926 -23.903,1.091 -35.579,3.205 -6.709,1.214 -10.272,7.734 -12.836,13.646 -4.785,11.035 -7.095,22.697 -8.644,34.704 -1.31,10.155 -1.068,20.249 -1.744,30.352 C -5.01,-16.814 -1.53,-8.624 0,0" />
      </g>
      <g
         transform="translate(91.3335,761.4453)"
         id="g4489">
        <path
           id="path4491"
           style="fill:#770a39;fill-opacity:1;fill-rule:evenodd;stroke:none"
           d="m 0,0 c 0.411,-4.712 -0.519,-9.241 -2.084,-13.633 -0.52,-1.459 -0.677,-2.885 -0.749,-4.381 -0.724,-15.139 -10e-4,-30.269 2.313,-45.184 1.56,-10.051 3.588,-20.396 8.738,-29.294 3.546,-6.126 7.837,-12.11 17.058,-11.867 6.966,0.185 13.81,-3.751 21.075,-2.642 5.69,0.868 11.518,0.32 17.111,2.454 6.095,2.325 9.776,6.52 11.824,12.471 2.544,7.391 4.047,15.005 4.879,22.762 0.122,1.142 -0.089,2.365 0.991,3.2 2.736,-21.717 0.53,-43.002 -5.467,-63.978 -1.164,-4.073 -0.27,-8.282 -0.363,-12.426 -0.159,-6.984 -1.13,-8.074 -7.889,-8.728 -1.98,-0.19 -3.951,-0.574 -5.935,-0.633 -7.669,-0.229 -10.584,2.448 -10.278,10.219 0.213,5.429 0.24,11.149 7.489,13.06 3.024,0.797 5.541,3.323 8.737,6.642 -6.124,-0.802 -11.019,-1.125 -15.937,-1.122 -5.846,0.005 -11.588,0.614 -17.303,1.747 -2.299,0.456 -4.658,0.62 -6.941,0.038 -2.395,-0.613 -3.959,-1.857 -4.29,-4.745 -0.703,-6.121 -1.095,-12.22 -0.903,-18.381 0.269,-8.619 -4.857,-13.978 -13.628,-14.526 -4.625,-0.289 -8.839,1.116 -12.989,2.947 -1.642,0.724 -1.955,1.928 -2.163,3.537 -4.185,32.4 -4.398,64.949 -4.033,97.544 0.159,14.149 1.897,28.024 5.439,41.657 C -4.11,-8.691 -1.798,-4.413 0,0" />
      </g>
      <g
         transform="translate(70.3896,709.4678)"
         id="g4493">
        <path
           id="path4495"
           style="fill:#760b39;fill-opacity:1;fill-rule:evenodd;stroke:none"
           d="m 0,0 c 0.062,-16.971 0.079,-33.943 0.225,-50.913 0.03,-3.472 0.635,-6.936 0.813,-10.413 0.338,-6.574 -3.238,-8.863 -9.407,-5.974 -4.778,2.238 -7.019,5.504 -7.904,11.347 -2.726,18.004 -0.365,35.786 0.552,53.65 0.023,0.441 0.448,0.861 0.684,1.291 2.494,-0.15 4.769,0.767 7.115,1.395 C -5.267,1.095 -2.552,1.902 0,0" />
      </g>
      <g
         transform="translate(180.5752,728.4258)"
         id="g4497">
        <path
           id="path4499"
           style="fill:#4a646e;fill-opacity:1;fill-rule:evenodd;stroke:none"
           d="m 0,0 c 1.703,-6.417 -1.274,-13.284 -8.365,-16.726 -12.166,-5.905 -24.965,-9.2 -38.607,-6.071 -6.745,1.547 -12.091,5.687 -16.447,10.773 -5.454,6.364 -3.736,21.757 2.527,26.789 2.21,-1.123 2.523,-3.355 3.131,-5.4 3.636,-12.224 8.779,-16.105 21.603,-16.035 8.458,0.046 16.832,1.199 25.215,2.193 C -6.857,-3.992 -3.66,-1.457 0,0" />
      </g>
      <g
         transform="translate(180.5752,728.4258)"
         id="g4501">
        <path
           id="path4503"
           style="fill:#98c7dc;fill-opacity:1;fill-rule:evenodd;stroke:none"
           d="m 0,0 c -2.456,-4.527 -7.091,-5.523 -11.4,-6.035 -9.044,-1.073 -18.126,-2.029 -27.28,-1.926 -10.699,0.121 -16.957,4.793 -19.877,15.121 -0.72,2.551 -1.552,5.071 -2.335,7.605 10.027,2.064 19.966,5.047 30.337,4.276 7.614,-0.567 15.033,-2.412 21.581,-6.541 C -4.383,9.605 -0.895,5.669 0,0" />
      </g>
      <g
         transform="translate(70.3896,709.4678)"
         id="g4505">
        <path
           id="path4507"
           style="fill:#bd1804;fill-opacity:1;fill-rule:evenodd;stroke:none"
           d="m 0,0 c -3.861,0.069 -7.573,-0.584 -11.199,-1.976 -1.299,-0.499 -3.229,-1.947 -3.837,0.965 0.224,1.633 0.383,3.279 0.684,4.897 1.339,7.183 6.745,10.308 13.681,8.092 C 1.163,11.393 0.929,10.15 0.823,8.859 0.58,5.904 0.278,2.953 0,0" />
      </g>
      <g
         transform="translate(160.2031,731.3799)"
         id="g4509">
        <path
           id="path4511"
           style="fill:#fbfdfc;fill-opacity:1;fill-rule:evenodd;stroke:none"
           d="m 0,0 c -4.933,0.545 -11.313,1.335 -17.714,1.921 -3.355,0.308 -4.049,2.487 -4.055,5.171 -0.004,3.119 1.988,4.961 4.771,5.409 7.691,1.237 15.081,-0.766 22.427,-2.704 1.592,-0.42 3.049,-1.349 4.084,-2.735 1,-1.338 2.15,-2.742 1.367,-4.519 C 10.074,0.72 8.574,-0.17 6.468,-0.023 4.812,0.093 3.142,0 0,0" />
      </g>
    </g>
    <g
       transform="matrix(0.76400307,0,0,0.53626786,-32.524536,-72.883135)"
       id="g6284">
      <path
         id="path5205"
         fill="#e6e7e8"
         d="M 116.3723,256.44654 H 64.727093 l 3.155704,-9.46712 c 0.24212,-0.72758 0.922826,-1.21834 1.689945,-1.21834 h 41.953508 c 0.76752,-8.3e-4 1.44945,0.48995 1.69198,1.21834 z m 0,0"
         style="stroke-width:0.104348" />
      <g
         id="g5217"
         fill="#37474f"
         transform="matrix(0.10434776,0,0,0.10434776,63.840952,234.13568)">
        <path
           id="path5207"
           d="M 96.203125,162.61328 H 80.058594 c -2.742188,-0.004 -5.3125,-1.32422 -6.917969,-3.54687 -1.601563,-2.22266 -2.035156,-5.08204 -1.171875,-7.6836 l 13.320312,-39.97265 h 34.136718 l -15.12109,45.36328 c -1.16406,3.48828 -4.425784,5.83984 -8.101565,5.83984 z m 0,0" />
        <path
           id="path5209"
           d="m 163.39453,162.61328 h -16.83594 c -2.5039,-0.004 -4.88672,-1.10547 -6.50781,-3.01953 -1.61719,-1.91406 -2.31641,-4.44141 -1.90625,-6.91406 l 6.87891,-41.26953 h 34.13281 l -7.34766,44.0664 c -0.68359,4.11719 -4.24218,7.13281 -8.41406,7.13672 z m 0,0" />
        <path
           id="path5211"
           d="m 382.33594,152.71484 c 0.40234,2.47266 -0.30469,4.9961 -1.9336,6.90235 -1.625,1.90625 -4.00781,3.0039 -6.51562,2.99609 H 255.95703 c -4.71094,0 -8.53125,-3.82031 -8.53125,-8.53516 v -42.66796 h 128 z m 0,0" />
        <path
           id="path5213"
           d="m 147.15625,256.48047 h -10.66406 l 93.94922,92.5 24.15234,-24.14844 -68.35547,-68.35156 z m 0,0" />
        <path
           id="path5215"
           d="m 329.01953,446.88281 -71.69531,-71.02344 -0.17188,-0.17187 24.32032,-23.97656 83.96875,83.96875 z m 0,0" />
      </g>
      <path
         id="path5219"
         fill="#607d8b"
         d="m 90.932239,268.05767 7.150268,-7.15883 h 5.031113 l -9.901626,9.90163 z m 0,0"
         style="stroke-width:0.104348" />
      <path
         id="path5221"
         fill="#607d8b"
         d="m 82.842027,281.0722 7.814261,-7.71644 0.01793,-0.0179 -2.760324,-2.26141 -8.53043,8.52146 z m 0,0"
         style="stroke-width:0.104348" />
      <path
         id="path5231"
         fill="#9e9e9e"
         d="m 93.211994,270.80047 c 0.0073,-0.0355 0.01018,-0.0713 0.009,-0.1072 4.17e-4,-1.32595 -0.975406,-2.45014 -2.288721,-2.6356 -0.125951,-0.0253 -0.254348,-0.0375 -0.382744,-0.0355 -0.04769,-0.002 -0.09538,0.002 -0.142256,0.009 -1.364265,0.064 -2.455841,1.15557 -2.520242,2.51984 -0.0073,0.0469 -0.01019,0.0946 -0.009,0.14225 -0.0016,0.12881 0.0102,0.2572 0.03587,0.38315 0.185461,1.31291 1.309646,2.28913 2.635596,2.28832 0.03587,0.002 0.07174,-0.002 0.106793,-0.009 0.01018,0.009 0.02568,0.009 0.03587,0 1.364266,-0.064 2.455433,-1.15557 2.519836,-2.51983"
         style="stroke-width:0.104348" />
      <path
         id="path5233"
         fill="#9e9e9e"
         d="m 78.083606,279.59788 h 4.451899 c 0.983559,0 1.780842,0.79728 1.780842,1.78084 0,0.98356 -0.797283,1.78084 -1.780842,1.78084 h -4.451899 c -0.983559,0 -1.780841,-0.79728 -1.780841,-1.78084 0,-0.98356 0.797282,-1.78084 1.780841,-1.78084 z m 0,0"
         style="stroke-width:0.104348" />
      <path
         id="path5235"
         fill="#9e9e9e"
         d="m 98.563484,279.59788 h 4.452306 c 0.98356,0 1.78084,0.79728 1.78084,1.78084 0,0.98356 -0.79728,1.78084 -1.78084,1.78084 h -4.452306 c -0.983559,0 -1.780841,-0.79728 -1.780841,-1.78084 0,-0.98356 0.797282,-1.78084 1.780841,-1.78084 z m 0,0"
         style="stroke-width:0.104348" />
      <path
         id="path5237"
         fill="#4527a0"
         d="m 103.11362,260.89884 h 11.47744 c 0.98355,0 1.78124,-0.79769 1.78124,-1.78125 v -2.67105 H 64.727093 v 2.67105 c 0,0.98356 0.797282,1.78125 1.780841,1.78125 h 31.574573"
         style="stroke-width:0.104348" />
      <path
         id="path5239"
         fill="#673ab7"
         d="m 100.4662,260.89884 h 10.68546 c 0.94932,-0.0351 1.69116,-0.83152 1.65855,-1.78125 v -2.67105 H 64.727093 v 2.67105 c -0.03261,0.94932 0.708831,1.74579 1.657743,1.78125 H 95.78278"
         style="stroke-width:0.104348" />
      <path
         id="path5241"
         d="m 117.21728,256.16529 -3.15571,-9.46834 c -0.33872,-1.01087 -1.24809,-1.72255 -2.31073,-1.80815 -19.093523,0.008 -23.270332,0.0571 -42.40269,0 -1.061005,0.0872 -1.968342,0.7985 -2.306249,1.80815 l -3.160188,9.46834 c -0.02568,0.0831 -0.03954,0.16997 -0.04076,0.2572 v 0.0241 2.67105 c 0,1.47555 1.195923,2.67147 2.671466,2.67147 H 77.71839 l 9.180157,9.04075 -7.883555,7.87744 h -0.931385 c -1.475543,0 -2.671466,1.19593 -2.671466,2.67147 0,1.47514 1.195923,2.67106 2.671466,2.67106 h 4.451899 c 0.908151,0.004 1.75557,-0.4553 2.247553,-1.21875 0.491984,-0.76345 0.560462,-1.725 0.181794,-2.55041 0.02731,-0.0163 0.0538,-0.0338 0.07908,-0.0534 l 5.630296,-5.6303 5.538584,5.5394 c -0.207473,0.38152 -0.317527,0.80829 -0.320788,1.24239 0,1.47514 1.195923,2.67106 2.671465,2.67106 h 4.45231 c 1.47514,0 2.67106,-1.19592 2.67106,-2.67106 0,-1.47554 -1.19592,-2.67147 -2.67106,-2.67147 h -0.67337 l -7.889263,-7.88926 9.028943,-9.02893 h 11.10896 c 1.47554,0 2.67146,-1.19592 2.67146,-2.67147 v -2.67105 c 0,-0.009 -0.004,-0.0151 -0.004,-0.0241 -10e-4,-0.0872 -0.0151,-0.17405 -0.0408,-0.2572 z m -4.84606,-8.90462 2.76603,8.29524 h -5.19334 l -2.22595,-8.90421 h 3.8091 c 0.38315,4.2e-4 0.7231,0.24579 0.84416,0.60897 z m -26.184766,8.29524 0.801358,-8.82391 c 0,-0.0277 -0.009,-0.0526 -0.009,-0.0803 h 1.789809 v 3.56169 c 0,0.98356 0.797282,1.78084 1.780841,1.78084 v 3.56168 z m -6.143881,0 0.647281,-3.56168 h 0.202989 c 0.87106,0.003 1.615352,-0.62772 1.755978,-1.48777 l 0.641168,-3.85476 h 1.916982 l -0.80951,8.90421 z m -7.02554,0 0.979483,-3.58043 c 0.719837,-0.0412 1.342663,-0.51522 1.574184,-1.19837 l 1.374049,-4.12541 h 0.979482 l -0.544972,3.26862 c -0.08193,0.47241 0.03179,0.95788 0.315896,1.34429 0.283696,0.38641 0.7125,0.64076 1.187771,0.70394 l -0.652581,3.58736 z m 0.365625,-8.90421 h 1.685053 l -1.188178,3.56169 h -1.683831 z m 7.507332,3.56169 h -1.755977 l 0.593885,-3.56169 h 1.755978 z m 21.96643,0 h -2.67147 l -0.712499,-3.56169 h 2.789669 z m -4.488995,0 h -3.365623 v -3.56169 h 2.688993 c -0.0065,0.0591 -0.0065,0.11903 0,0.17813 z m -5.146465,0 h -2.671465 v -3.56169 h 2.671465 z m -0.890624,1.78084 h 3.187906 l 0.296331,3.56168 h -3.484237 z m 5.2716,3.56168 -0.296739,-3.56168 h 4.096053 c -0.006,0.0485 -0.007,0.0974 -0.004,0.14592 l 0.5682,3.41576 z m 6.167934,0 -0.59674,-3.59633 c 0.9591,-0.16793 1.6019,-1.07935 1.43804,-2.03926 l -0.54497,-3.26862 h 1.81589 l 2.22595,8.90421 z m -35.0421,-8.29524 c 0.121059,-0.36318 0.461005,-0.60856 0.844157,-0.60897 h 1.932879 l -0.999048,2.99796 c -0.178941,0.53438 -0.09375,1.12215 0.229891,1.58356 0.323641,0.46101 0.84701,0.74144 1.410325,0.75489 l -0.975815,3.5678 h -5.208013 z m 14.178251,14.52839 5.841437,5.84144 c -0.526223,0.3057 -0.962771,0.74388 -1.267255,1.27051 l -7.223229,-7.11195 z m 14.39673,16.91819 -4.950811,-4.95081 c 0.522146,-0.30407 0.956657,-0.73858 1.260732,-1.26073 l 6.211545,6.21154 z m -13.253388,0 h -2.510868 l 6.061953,-6.05502 c 0.331793,0.50095 0.784646,0.90938 1.316983,1.18818 z m 8.280973,-7.91331 v 0.01 0.0118 c -0.05666,0.86739 -0.736549,1.56481 -1.602717,1.64266 -0.04239,0.002 -0.08478,0.006 -0.126357,0.0126 h -0.05544 c -0.897147,-0.0175 -1.643477,-0.69497 -1.747825,-1.586 -0.01141,-0.0489 -0.0159,-0.11128 -0.02405,-0.16835 0.0081,-0.0424 0.01345,-0.0852 0.0159,-0.12799 0.04728,-0.90285 0.76875,-1.62431 1.671602,-1.6716 0.02935,8.4e-4 0.0587,-8.3e-4 0.08804,-0.004 0.08764,-4.2e-4 0.175272,0.009 0.260869,0.0277 0.865353,0.12595 1.51019,0.86291 1.519972,1.73723 -0.0053,0.0387 -0.0077,0.0778 -0.0069,0.11658 z m -1.647146,-3.74592 -5.258964,-5.25896 h 10.506923 z m -8.147685,15.22092 h -4.451899 c -0.491984,0 -0.890625,-0.39864 -0.890625,-0.89022 0,-0.49198 0.398641,-0.89062 0.890625,-0.89062 h 4.451899 c 0.491983,0 0.890625,0.39864 0.890625,0.89062 0,0.49158 -0.398642,0.89022 -0.890625,0.89022 z m 21.370505,-0.89022 c 0,0.49158 -0.39864,0.89022 -0.89022,0.89022 h -4.452306 c -0.491983,0 -0.890624,-0.39864 -0.890624,-0.89022 0,-0.49198 0.398641,-0.89062 0.890624,-0.89062 h 4.452306 c 0.49158,0 0.89022,0.39864 0.89022,0.89062 z M 93.697047,269.0559 c -0.276358,-0.53315 -0.683151,-0.98804 -1.182472,-1.32228 l 5.937633,-5.94456 h 2.515352 z m 21.784633,-9.93831 c 0,0.49199 -0.39864,0.89063 -0.89062,0.89063 H 66.507934 c -0.491983,0 -0.890624,-0.39864 -0.890624,-0.89063 v -1.78084 h 49.86437 z"
         style="stroke-width:0.104348"
         sodipodi:nodetypes="ccccccccsscccssscscccccsssscccssscccccccccccccsccccccccccccccccccccccccccccccccccccccccccccccccccccccccccccccccccccccccccccccccccccccccccccccccccccccccccccsssssssssssssscccccssssccs" />
    </g>
    <g
       id="g38567-8-2-5"
       transform="matrix(0.0739751,0.0919607,-0.0919607,0.0739751,42.093236,35.622866)"
       inkscape:label="righthand"
       style="display:inline">
      <path
         id="path37603-3-5-6"
         fill="#e49542"
         d="m 21.738618,255.86412 -14.88979,3.13619 -2.08908,-40.53122 17.51538,3.81109 h 7.02218 l 1.58047,-1.36722 h 57.12529 c 1.92984,0 3.67536,0.78197 4.93812,2.0467 1.26492,1.26276 2.04669,3.00847 2.04669,4.93811 0,3.85733 -3.12768,6.98481 -6.985,6.98481 h 2.8625 c 1.92964,0 3.67535,0.78197 4.94027,2.0467 1.26473,1.26276 2.0467,3.00847 2.0467,4.93811 0,3.85929 -3.12768,6.98697 -6.98501,6.98697 h -5.27254 c 1.92965,0 3.67536,0.78197 4.93812,2.0467 1.26492,1.26276 2.04669,3.01043 2.04669,4.93811 0,3.85733 -3.12768,6.98501 -6.98481,6.98501 h -22.67186 c -20.37917,-0.57015 -31.58753,6.62383 -41.18432,-6.96006 z"
         style="display:inline;fill:#c01701;fill-opacity:1;stroke-width:0.196722"
         sodipodi:nodetypes="ccccccscscscssccsscc" />
      <path
         style="display:inline;fill:#770a39;fill-opacity:1;stroke-width:0.196722;filter:url(#filter39359-55-6-5)"
         sodipodi:nodetypes="cccccsc"
         d="M 23.695261,236.32554 4.4924782,236.1919 4.7597485,218.46909 22.275322,222.28058 h 2.168466 c -0.487083,1.5303 -0.748527,3.16112 -0.748527,4.8545 z"
         id="path37605-5-6-7" />
      <path
         style="display:inline;opacity:1;fill:#770a39;fill-opacity:1;stroke-width:0.196722;filter:url(#filter39355-1-4-0)"
         d="m 57.799959,234.88278 h 33.066202 c 1.928465,0 3.675946,0.78236 4.940868,2.04552 1.263151,1.26492 2.045515,3.01063 2.045515,4.94086 0,1.05915 -0.23587,2.06499 -0.658232,2.96441 -0.346034,-0.7381 -0.817773,-1.40676 -1.387283,-1.97627 -1.264922,-1.26315 -3.012403,-2.04552 -4.940868,-2.04552 H 63.728764 c -3.274436,0 -5.928805,-2.65437 -5.928805,-5.929 z"
         id="path37609-2-3-8" />
      <path
         style="display:inline;fill:#770a39;fill-opacity:1;stroke-width:0.196722"
         d="m 59.755768,248.85397 h 25.838639 c 1.928465,0 3.675946,0.78237 4.940868,2.04552 1.263151,1.26492 2.045514,3.01063 2.045514,4.94087 0,1.05915 -0.235869,2.06499 -0.658231,2.9644 -0.346034,-0.7381 -0.817773,-1.40676 -1.387283,-1.97627 -1.264922,-1.26315 -3.012403,-2.04552 -4.940868,-2.04552 H 65.684574 c -3.274437,-1.9e-4 -5.928806,-2.65456 -5.928806,-5.929 z"
         id="path37611-2-4-0" />
      <path
         id="path37617-6-0-6"
         fill="#e49542"
         d="m 66.676638,219.11532 c 0,-4.4286 -3.59017,-8.01878 -8.01878,-8.01878 h -18.92661 c -8.85741,0 -16.03756,7.18035 -16.03756,16.03756 h 34.96398 c 4.4288,0 8.01897,-3.59018 8.01897,-8.01878 z"
         style="display:inline;fill:#c01701;fill-opacity:1;stroke-width:0.196722" />
      <path
         style="display:inline;fill:#770a39;fill-opacity:1;stroke-width:0.196722"
         d="m 39.831305,221.31269 48.171568,-0.4009 c 1.928398,-0.0161 3.675946,0.78236 4.940868,2.04551 1.263152,1.26492 2.045515,3.01063 2.045515,4.94087 0,1.05915 -0.23587,2.06499 -0.658232,2.9644 -0.346034,-0.7381 -0.817773,-1.40676 -1.387283,-1.97627 -1.264922,-1.26315 -3.012403,-2.04551 -4.940868,-2.04551 L 48.6512,225.90535 Z"
         id="path37607-6-6-5"
         sodipodi:nodetypes="cscsccscc" />
      <path
         id="path37619-7-0-7"
         fill="#e27d47"
         d="m 23.811718,225.18616 c 0.95981,-7.93891 7.72075,-14.08962 15.91874,-14.08962 h 18.9276 c 4.42802,0 8.01878,3.59077 8.01878,8.01878 0,1.13194 -0.2341,2.20879 -0.65646,3.18453 -1.23305,-2.84381 -4.06624,-4.83444 -7.36232,-4.83444 h -21.13108 c -5.81353,0 -10.90331,3.09227 -13.71526,7.72075 z"
         style="display:inline;fill:#770a39;fill-opacity:1;stroke-width:0.196722" />
      <path
         id="path37623-8-4-3"
         d="m 22.401418,220.80398 -4.66821,-0.80105 c -0.80321,-0.1379 -1.5659,0.40151 -1.70381,1.20453 -0.0145,0.0846 -0.0214,0.16839 -0.0214,0.25121 0,0.70525 0.50735,1.32905 1.22597,1.4524 l 4.79215,0.82249 c 0.0824,0.0142 0.16583,0.0213 0.24964,0.0213 h 0.27069 c 2.431585,0.27367 3.057998,0.57654 3.142217,-0.14061 0.26727,-6.42579 6.012823,-11.04205 14.042423,-11.04205 h 18.92662 c 3.60808,0 7.720493,4.21979 6.54336,6.54337 -0.670436,1.3234 -2.93528,0.19336 -6.54336,0.19336 h -18.10708 c -0.81482,0 -1.47541,0.6604 -1.47541,1.47542 0,0.81501 0.66059,1.47541 1.47541,1.47541 h 18.10708 c 4.08572,0 0,0 8.91268,0.12808 h 20.43233 c 1.47286,0 2.85522,0.57325 3.89509,1.61666 1.04145,1.03968 1.61489,2.42243 1.61489,3.89352 0,3.0364 -2.46886,5.50703 -5.50487,5.50998 -0.002,0 -0.003,-1.9e-4 -0.005,-1.9e-4 h -30.20331 c -0.81483,0 -1.47542,0.66039 -1.47542,1.47541 0,0.81502 0.66059,1.47542 1.47542,1.47542 l 33.06522,3.9e-4 c 1.47187,0 2.85561,0.57305 3.89725,1.61469 1.04145,1.03929 1.61509,2.42224 1.61509,3.89313 0,3.03935 -2.47279,5.51235 -5.51215,5.51235 l -31.96318,-5.9e-4 c -0.81482,0 -1.47541,0.66039 -1.47541,1.47541 0,0.81502 0.66059,1.47542 1.47541,1.47542 h 26.68159 c 0.004,0 0.008,5.9e-4 0.0114,5.9e-4 1.47227,0 2.85522,0.57285 3.89529,1.61449 1.04145,1.03968 1.61489,2.42322 1.61489,3.89569 0,3.03719 -2.47181,5.50821 -5.51018,5.50821 l -28.6673,0.001 c -0.81482,0 -1.47542,0.66039 -1.47542,1.47541 0,0.81502 0.6606,1.47542 1.47542,1.47542 h 22.16564 c 3.93619,-0.049 -3.13193,-0.0617 6.41983,-0.001 h 0.0818 c 4.66546,0 8.46101,-3.79477 8.46101,-8.45904 0,-2.0764 -0.74262,-4.03772 -2.10138,-5.57982 4.15398,-0.53647 7.37353,-4.09615 7.37353,-8.39354 0,-2.26014 -0.88112,-4.38454 -2.48007,-5.98094 -0.85378,-0.85377 -1.85785,-1.50256 -2.9528,-1.92177 1.58342,-1.53856 2.5686,-3.68972 2.5686,-6.06651 0,-2.26014 -0.88112,-4.38454 -2.4783,-5.97937 -1.59522,-1.60033 -3.71982,-2.48164 -5.98271,-2.48164 h -19.85888 c 0.004,-0.10682 0.008,-0.21364 0.008,-0.32145 0,-5.23496 -4.25903,-9.49419 -9.4942,-9.49419 h -18.92661 c -7.42547,0 -13.78568,4.64559 -16.32871,11.18285 h -1.00112 z"
         style="display:inline;stroke-width:0.196722"
         sodipodi:nodetypes="ccssccsccsssssssscscssssscccsccsssscsccssccsscsccscscsssccc" />
      <path
         id="path37625-4-0-4"
         d="m 33.776278,264.51403 41.96513,-0.53454 c 0.81476,-0.0104 1.87632,-0.12586 1.87632,-0.94088 0,-0.81502 -0.66059,-1.47541 -1.47542,-1.47541 h -42.36603 c -4.11956,0 -7.96252,-2.03784 -10.27951,-5.45156 -0.32498,-0.47902 -0.9,-0.72354 -1.4705,-0.62557 l -15.17744,3.51424 v -38.78118 l 9.8599,1.69259 c 0.80322,0.1379 1.56591,-0.40131 1.70381,-1.20453 0.13888,-0.80262 -0.40151,-1.56571 -1.20453,-1.70361 l -11.58495,-1.98866 c -0.42866,-0.0736 -0.86814,0.0456 -1.2006,0.32597 -0.33246,0.28033 -0.52446,0.69305 -0.52446,1.128 v 42.28185 c 0,0.43495 0.192,0.84787 0.52446,1.128 0.33266,0.28033 0.77194,0.39954 1.2006,0.32597 l 15.99836,-3.65529 c 2.90362,3.75208 7.37904,6.02544 12.15486,5.96461 z"
         style="display:inline;stroke-width:0.196722"
         sodipodi:nodetypes="sssssccccccccssssccs" />
    </g>
    <g
       style="display:inline"
       inkscape:label="righthand"
       transform="matrix(-0.0739751,0.0919607,0.0919607,0.0739751,26.420171,35.938896)"
       id="g38567-8-2-5-7">
      <path
         sodipodi:nodetypes="ccccccscscscssccsscc"
         style="display:inline;fill:#c01701;fill-opacity:1;stroke-width:0.196722"
         d="m 21.738618,255.86412 -14.88979,3.13619 -2.08908,-40.53122 17.51538,3.81109 h 7.02218 l 1.58047,-1.36722 h 57.12529 c 1.92984,0 3.67536,0.78197 4.93812,2.0467 1.26492,1.26276 2.04669,3.00847 2.04669,4.93811 0,3.85733 -3.12768,6.98481 -6.985,6.98481 h 2.8625 c 1.92964,0 3.67535,0.78197 4.94027,2.0467 1.26473,1.26276 2.0467,3.00847 2.0467,4.93811 0,3.85929 -3.12768,6.98697 -6.98501,6.98697 h -5.27254 c 1.92965,0 3.67536,0.78197 4.93812,2.0467 1.26492,1.26276 2.04669,3.01043 2.04669,4.93811 0,3.85733 -3.12768,6.98501 -6.98481,6.98501 h -22.67186 c -20.37917,-0.57015 -31.58753,6.62383 -41.18432,-6.96006 z"
         fill="#e49542"
         id="path37603-3-5-6-5" />
      <path
         id="path37605-5-6-7-9"
         d="M 23.695261,236.32554 4.4924782,236.1919 4.7597485,218.46909 22.275322,222.28058 h 2.168466 c -0.487083,1.5303 -0.748527,3.16112 -0.748527,4.8545 z"
         sodipodi:nodetypes="cccccsc"
         style="display:inline;fill:#770a39;fill-opacity:1;stroke-width:0.196722;filter:url(#filter39359-55-6-5-3)" />
      <path
         id="path37609-2-3-8-5"
         d="m 57.799959,234.88278 h 33.066202 c 1.928465,0 3.675946,0.78236 4.940868,2.04552 1.263151,1.26492 2.045515,3.01063 2.045515,4.94086 0,1.05915 -0.23587,2.06499 -0.658232,2.96441 -0.346034,-0.7381 -0.817773,-1.40676 -1.387283,-1.97627 -1.264922,-1.26315 -3.012403,-2.04552 -4.940868,-2.04552 H 63.728764 c -3.274436,0 -5.928805,-2.65437 -5.928805,-5.929 z"
         style="display:inline;opacity:1;fill:#770a39;fill-opacity:1;stroke-width:0.196722;filter:url(#filter39355-1-4-0-4)" />
      <path
         id="path37611-2-4-0-3"
         d="m 59.755768,248.85397 h 25.838639 c 1.928465,0 3.675946,0.78237 4.940868,2.04552 1.263151,1.26492 2.045514,3.01063 2.045514,4.94087 0,1.05915 -0.235869,2.06499 -0.658231,2.9644 -0.346034,-0.7381 -0.817773,-1.40676 -1.387283,-1.97627 -1.264922,-1.26315 -3.012403,-2.04552 -4.940868,-2.04552 H 65.684574 c -3.274437,-1.9e-4 -5.928806,-2.65456 -5.928806,-5.929 z"
         style="display:inline;fill:#770a39;fill-opacity:1;stroke-width:0.196722" />
      <path
         style="display:inline;fill:#c01701;fill-opacity:1;stroke-width:0.196722"
         d="m 66.676638,219.11532 c 0,-4.4286 -3.59017,-8.01878 -8.01878,-8.01878 h -18.92661 c -8.85741,0 -16.03756,7.18035 -16.03756,16.03756 h 34.96398 c 4.4288,0 8.01897,-3.59018 8.01897,-8.01878 z"
         fill="#e49542"
         id="path37617-6-0-6-2" />
      <path
         sodipodi:nodetypes="cscsccscc"
         id="path37607-6-6-5-7"
         d="m 39.831305,221.31269 48.171568,-0.4009 c 1.928398,-0.0161 3.675946,0.78236 4.940868,2.04551 1.263152,1.26492 2.045515,3.01063 2.045515,4.94087 0,1.05915 -0.23587,2.06499 -0.658232,2.9644 -0.346034,-0.7381 -0.817773,-1.40676 -1.387283,-1.97627 -1.264922,-1.26315 -3.012403,-2.04551 -4.940868,-2.04551 L 48.6512,225.90535 Z"
         style="display:inline;fill:#770a39;fill-opacity:1;stroke-width:0.196722" />
      <path
         style="display:inline;fill:#770a39;fill-opacity:1;stroke-width:0.196722"
         d="m 23.811718,225.18616 c 0.95981,-7.93891 7.72075,-14.08962 15.91874,-14.08962 h 18.9276 c 4.42802,0 8.01878,3.59077 8.01878,8.01878 0,1.13194 -0.2341,2.20879 -0.65646,3.18453 -1.23305,-2.84381 -4.06624,-4.83444 -7.36232,-4.83444 h -21.13108 c -5.81353,0 -10.90331,3.09227 -13.71526,7.72075 z"
         fill="#e27d47"
         id="path37619-7-0-7-3" />
      <path
         sodipodi:nodetypes="ccssccsccsssssssscscssssscccsccsssscsccssccsscsccscscsssccc"
         style="display:inline;stroke-width:0.196722"
         d="m 22.401418,220.80398 -4.66821,-0.80105 c -0.80321,-0.1379 -1.5659,0.40151 -1.70381,1.20453 -0.0145,0.0846 -0.0214,0.16839 -0.0214,0.25121 0,0.70525 0.50735,1.32905 1.22597,1.4524 l 4.79215,0.82249 c 0.0824,0.0142 0.16583,0.0213 0.24964,0.0213 h 0.27069 c 2.431585,0.27367 3.057998,0.57654 3.142217,-0.14061 0.26727,-6.42579 6.012823,-11.04205 14.042423,-11.04205 h 18.92662 c 3.60808,0 7.720493,4.21979 6.54336,6.54337 -0.670436,1.3234 -2.93528,0.19336 -6.54336,0.19336 h -18.10708 c -0.81482,0 -1.47541,0.6604 -1.47541,1.47542 0,0.81501 0.66059,1.47541 1.47541,1.47541 h 18.10708 c 4.08572,0 0,0 8.91268,0.12808 h 20.43233 c 1.47286,0 2.85522,0.57325 3.89509,1.61666 1.04145,1.03968 1.61489,2.42243 1.61489,3.89352 0,3.0364 -2.46886,5.50703 -5.50487,5.50998 -0.002,0 -0.003,-1.9e-4 -0.005,-1.9e-4 h -30.20331 c -0.81483,0 -1.47542,0.66039 -1.47542,1.47541 0,0.81502 0.66059,1.47542 1.47542,1.47542 l 33.06522,3.9e-4 c 1.47187,0 2.85561,0.57305 3.89725,1.61469 1.04145,1.03929 1.61509,2.42224 1.61509,3.89313 0,3.03935 -2.47279,5.51235 -5.51215,5.51235 l -31.96318,-5.9e-4 c -0.81482,0 -1.47541,0.66039 -1.47541,1.47541 0,0.81502 0.66059,1.47542 1.47541,1.47542 h 26.68159 c 0.004,0 0.008,5.9e-4 0.0114,5.9e-4 1.47227,0 2.85522,0.57285 3.89529,1.61449 1.04145,1.03968 1.61489,2.42322 1.61489,3.89569 0,3.03719 -2.47181,5.50821 -5.51018,5.50821 l -28.6673,0.001 c -0.81482,0 -1.47542,0.66039 -1.47542,1.47541 0,0.81502 0.6606,1.47542 1.47542,1.47542 h 22.16564 c 3.93619,-0.049 -3.13193,-0.0617 6.41983,-0.001 h 0.0818 c 4.66546,0 8.46101,-3.79477 8.46101,-8.45904 0,-2.0764 -0.74262,-4.03772 -2.10138,-5.57982 4.15398,-0.53647 7.37353,-4.09615 7.37353,-8.39354 0,-2.26014 -0.88112,-4.38454 -2.48007,-5.98094 -0.85378,-0.85377 -1.85785,-1.50256 -2.9528,-1.92177 1.58342,-1.53856 2.5686,-3.68972 2.5686,-6.06651 0,-2.26014 -0.88112,-4.38454 -2.4783,-5.97937 -1.59522,-1.60033 -3.71982,-2.48164 -5.98271,-2.48164 h -19.85888 c 0.004,-0.10682 0.008,-0.21364 0.008,-0.32145 0,-5.23496 -4.25903,-9.49419 -9.4942,-9.49419 h -18.92661 c -7.42547,0 -13.78568,4.64559 -16.32871,11.18285 h -1.00112 z"
         id="path37623-8-4-3-9" />
      <path
         sodipodi:nodetypes="sssssccccccccssssccs"
         style="display:inline;stroke-width:0.196722"
         d="m 33.776278,264.51403 41.96513,-0.53454 c 0.81476,-0.0104 1.87632,-0.12586 1.87632,-0.94088 0,-0.81502 -0.66059,-1.47541 -1.47542,-1.47541 h -42.36603 c -4.11956,0 -7.96252,-2.03784 -10.27951,-5.45156 -0.32498,-0.47902 -0.9,-0.72354 -1.4705,-0.62557 l -15.17744,3.51424 v -38.78118 l 9.8599,1.69259 c 0.80322,0.1379 1.56591,-0.40131 1.70381,-1.20453 0.13888,-0.80262 -0.40151,-1.56571 -1.20453,-1.70361 l -11.58495,-1.98866 c -0.42866,-0.0736 -0.86814,0.0456 -1.2006,0.32597 -0.33246,0.28033 -0.52446,0.69305 -0.52446,1.128 v 42.28185 c 0,0.43495 0.192,0.84787 0.52446,1.128 0.33266,0.28033 0.77194,0.39954 1.2006,0.32597 l 15.99836,-3.65529 c 2.90362,3.75208 7.37904,6.02544 12.15486,5.96461 z"
         id="path37625-4-0-4-7" />
    </g>
  </g>
</svg>
