<?xml version="1.0" encoding="UTF-8" standalone="no"?>
<svg
   xmlns:dc="http://purl.org/dc/elements/1.1/"
   xmlns:cc="http://creativecommons.org/ns#"
   xmlns:rdf="http://www.w3.org/1999/02/22-rdf-syntax-ns#"
   xmlns:svg="http://www.w3.org/2000/svg"
   xmlns="http://www.w3.org/2000/svg"
   xmlns:sodipodi="http://sodipodi.sourceforge.net/DTD/sodipodi-0.dtd"
   xmlns:inkscape="http://www.inkscape.org/namespaces/inkscape"
   sodipodi:docname="chardrive.svg"
   inkscape:version="1.0 (4035a4f, 2020-05-01)"
   id="svg2385"
   version="1.1"
   viewBox="0 0 70 90"
   height="90mm"
   width="70mm">
  <defs
     id="defs2379">
    <filter
       height="1.0034971"
       y="-0.0017485661"
       width="1.0038869"
       x="-0.0019434401"
       id="filter39359-5-7"
       style="color-interpolation-filters:sRGB"
       inkscape:collect="always">
      <feGaussianBlur
         id="feGaussianBlur39361-3-6"
         stdDeviation="0.01890388"
         inkscape:collect="always" />
    </filter>
    <filter
       height="1.0129975"
       y="-0.0064987624"
       width="1.0196074"
       x="-0.0098036937"
       id="filter39355-9-0"
       style="color-interpolation-filters:sRGB"
       inkscape:collect="always">
      <feGaussianBlur
         id="feGaussianBlur39357-9-0"
         stdDeviation="0.10000675"
         inkscape:collect="always" />
    </filter>
  </defs>
  <sodipodi:namedview
     inkscape:window-maximized="0"
     inkscape:window-y="23"
     inkscape:window-x="0"
     inkscape:window-height="930"
     inkscape:window-width="1280"
     inkscape:snap-global="false"
     showgrid="false"
     inkscape:document-rotation="0"
     inkscape:current-layer="layer1"
     inkscape:document-units="mm"
     inkscape:cy="226.55885"
     inkscape:cx="138.03254"
     inkscape:zoom="1.979899"
     inkscape:pageshadow="2"
     inkscape:pageopacity="0.0"
     borderopacity="1.0"
     bordercolor="#666666"
     pagecolor="#ffffff"
     id="base" />
  <metadata
     id="metadata2382">
    <rdf:RDF>
      <cc:Work
         rdf:about="">
        <dc:format>image/svg+xml</dc:format>
        <dc:type
           rdf:resource="http://purl.org/dc/dcmitype/StillImage" />
        <dc:title />
      </cc:Work>
    </rdf:RDF>
  </metadata>
  <g
     style="display:inline"
     id="layer1"
     inkscape:groupmode="layer"
     inkscape:label="Layer 1">
    <g
       transform="matrix(0.44134919,0,0,0.53510337,16.841111,48.179976)"
       id="g5414">
      <g
         transform="matrix(0.35277777,0,0,-0.35277777,57.742974,5.4866801)"
         id="g4202">
        <path
           id="path4204"
           style="fill:#010001;fill-opacity:1;fill-rule:nonzero;stroke:none"
           d="m 0,0 v -12 c -0.858,-4.581 -2.448,-8.749 -5.275,-12.617 -2.498,-3.417 -1.818,-7.848 -0.942,-11.614 3.488,-15.008 0.811,-29.707 -1.498,-44.465 -1.357,-8.676 -2.974,-17.308 -4.029,-26.031 -0.684,-5.654 -2.01,-11.111 -5.313,-15.902 -2.91,-4.938 -7.354,-6.903 -12.941,-6.799 -3.481,0.062 -6.967,0 -10.449,0.002 -10.08,0.008 -12.639,1.718 -16.504,10.996 -1.738,4.152 -2.509,8.488 -2.488,12.994 0.009,2.076 -0.4,4.305 -3.053,4.172 -2.683,-0.133 -2.006,-2.602 -2.072,-4.248 -0.184,-4.592 0.287,-9.227 -1.024,-13.74 -1.799,-9.92 -8.726,-16.821 -19.141,-18.737 -9.38,-1.726 -18.267,0.395 -26.519,4.705 -3.809,1.991 -5.661,5.953 -6.088,10.358 -0.156,6.148 -1.173,12.23 -1.418,18.379 -0.113,2.873 -1.26,4.855 -4.785,5.158 -16.615,1.424 -23.016,7.955 -24.389,24.785 -1.244,15.267 -0.415,30.531 0.369,45.789 0.19,3.656 0.059,7.317 0.159,10.974 0.293,10.844 4.677,19.048 16.523,20.867 1.965,0.302 3.891,1.299 5.853,1.152 5.324,-0.4 6.858,2.614 7.337,7.177 0.79,7.508 3.604,14.426 6.119,21.499 3.143,8.843 9.505,14.173 17.019,18.731 2.187,1.327 4.588,1.894 7.138,1.899 8.138,0.3 16.296,-0.624 24.411,0.516 h 9 c 13.847,-2.132 25.888,-8.122 33.65,-19.773 4.915,-7.379 9.815,-14.64 15.547,-21.396 C -1.736,9.217 -0.988,4.511 0,0" />
      </g>
      <g
         transform="matrix(0.35277777,0,0,-0.35277777,26.668224,-13.225179)"
         id="g4210">
        <path
           id="path4212"
           style="fill:#232323;fill-opacity:1;fill-rule:evenodd;stroke:none"
           d="m 0,0 c 0.17,0.307 0.197,0.626 0.086,0.958 h 25 C 21.358,-1.136 17.327,0.236 13.447,0.022 8.979,-0.223 4.484,-0.013 0,0" />
      </g>
      <g
         transform="matrix(0.35277777,0,0,-0.35277777,22.762834,-5.8521599)"
         id="g4214">
        <path
           id="path4216"
           style="fill:#e752be;fill-opacity:1;fill-rule:evenodd;stroke:none"
           d="M 0,0 C 5.453,6.806 11.631,12.419 21.201,11.384 30.855,10.341 40.785,12.537 50.2,8.344 56.707,5.446 62.273,1.65 66.783,-4.584 63.653,-5.168 60.936,-5.393 58.145,-5.154 46.785,-4.182 35.604,-5.409 24.625,-8.3 18.63,-9.878 14.51,-14.18 13.692,-20.067 c -1.559,-11.249 -1.389,-22.451 4.044,-33.056 4.924,-9.611 13.723,-12.695 23.212,-14.132 11.763,-1.781 23.092,1.74 34.351,4.546 6.086,1.517 5.99,1.899 5.758,-4.489 0.374,-8.404 -1.557,-16.402 -3.994,-24.369 -2.933,-9.594 -9.684,-14.45 -19.143,-15.954 -8.909,-1.417 -17.841,-2.105 -26.686,0.729 -1.877,0.601 -3.949,0.973 -5.906,0.909 -10.742,-0.346 -15.551,6.937 -19.432,15.147 -7.257,15.352 -8.971,32.002 -9.976,48.586 -0.619,10.214 -1.382,20.639 1.162,30.827 C -1.854,-7.574 -0.331,-3.941 0,0" />
      </g>
      <g
         transform="matrix(0.35277777,0,0,-0.35277777,22.132385,-1.9168189)"
         id="g4218">
        <path
           id="path4220"
           style="fill:#a728b3;fill-opacity:1;fill-rule:evenodd;stroke:none"
           d="m 0,0 c -2.762,-17.392 -1,-34.745 1.189,-51.972 1.329,-10.451 3.951,-20.965 9.181,-30.189 3.248,-5.729 7.31,-11.207 15.984,-11.144 8.078,0.061 15.986,-3.506 24.379,-2.742 6.296,0.574 12.527,1.21 18.188,4.225 3.995,2.126 6.505,5.686 7.882,9.889 2.526,7.703 4.832,15.475 5.197,23.67 0.033,0.752 0.551,1.482 0.844,2.221 1.834,-13.748 1.25,-27.354 -0.579,-41.147 -1.542,-11.628 -6.615,-22.655 -5.206,-34.835 0.707,-6.119 -1.653,-7.894 -7.773,-8.473 -2.148,-0.203 -4.326,-0.128 -6.49,-0.128 -7.353,-0.006 -10.273,3.017 -9.907,10.55 0.135,2.803 0.86,5.575 1.11,8.379 0.147,1.647 1.429,1.529 2.378,2.063 3.041,1.711 6.059,3.465 9.031,5.289 0.965,0.592 1.764,1.453 3.012,2.504 -2.953,1.15 -5.431,-0.071 -7.895,-0.102 -8.494,-0.111 -16.955,-0.035 -25.341,1.731 -6.961,1.465 -9.338,-0.614 -10.705,-7.524 -1.282,-6.484 -0.743,-12.924 -0.446,-19.379 0.121,-2.638 -0.728,-4.338 -2.75,-5.939 -6.914,-5.479 -16.239,-6.268 -23.865,-1.975 -1.492,0.84 -2.002,1.799 -2.228,3.477 -4.426,32.917 -4.835,65.997 -3.767,99.104 0.25,7.739 -1.5,15.67 1.432,23.256 0.293,0.76 0.69,1.481 1.038,2.22 1.821,4.654 1.332,9.799 3.078,14.469 C -2.5,-1.086 -2.709,1.223 0,0" />
      </g>
      <g
         transform="matrix(0.35277777,0,0,-0.35277777,15.359335,12.554302)"
         id="g4222">
        <path
           id="path4224"
           style="fill:#a628b2;fill-opacity:1;fill-rule:evenodd;stroke:none"
           d="m 0,0 c 0.045,-15.624 -0.006,-31.249 0.185,-46.87 0.071,-5.807 0.637,-11.613 1.12,-17.407 0.21,-2.521 -0.52,-3.473 -3.219,-3.599 -8.772,-0.407 -12.696,3.25 -14.16,12 -2.975,17.794 -0.681,35.478 0.348,53.2 0.037,0.611 0.481,1.197 0.735,1.795 3.475,0.274 6.831,1.315 10.308,1.601 C -3.043,0.855 -1.381,1.431 0,0" />
      </g>
      <g
         transform="matrix(0.35277777,0,0,-0.35277777,54.237245,5.8230901)"
         id="g4226">
        <path
           id="path4228"
           style="fill:#4b646e;fill-opacity:1;fill-rule:evenodd;stroke:none"
           d="m 0,0 c 1.711,-6.421 -1.25,-13.298 -8.363,-16.717 -12.006,-5.77 -24.614,-9.155 -38.11,-6.19 -7.134,1.568 -12.797,5.797 -17.213,11.294 -5.286,6.58 -3.396,21.405 2.799,26.382 2.209,-1.124 2.522,-3.356 3.13,-5.4 3.634,-12.223 8.779,-16.106 21.601,-16.036 8.457,0.045 16.83,1.198 25.213,2.193 C -6.857,-3.99 -3.66,-1.458 0,0" />
      </g>
      <g
         transform="matrix(0.35277777,0,0,-0.35277777,54.237245,5.8230901)"
         id="g4230">
        <path
           id="path4232"
           style="fill:#98c7dd;fill-opacity:1;fill-rule:evenodd;stroke:none"
           d="m 0,0 c -2.455,-4.529 -7.092,-5.521 -11.401,-6.032 -9.044,-1.074 -18.126,-2.031 -27.28,-1.93 -10.698,0.118 -16.989,4.827 -19.866,15.129 -0.713,2.553 -1.557,5.069 -2.34,7.602 6.043,1.521 12.149,2.706 18.356,3.327 1.761,0.566 3.15,0.218 3.937,-1.6 0.338,-1.856 -0.966,-3.089 -1.74,-4.526 -1.705,-3.166 -0.605,-5.448 2.707,-5.896 7.73,-1.048 15.486,-1.988 23.33,-1.825 3.406,0.07 3.697,2.815 4.801,4.942 0.963,1.057 2,1.767 3.414,0.754 C -2.51,7.575 -0.814,4.057 0,0" />
      </g>
      <g
         transform="matrix(0.35277777,0,0,-0.35277777,15.359335,12.554302)"
         id="g4234">
        <path
           id="path4236"
           style="fill:#e453bd;fill-opacity:1;fill-rule:evenodd;stroke:none"
           d="m 0,0 c -4.102,-0.708 -8.412,-0.354 -12.281,-2.214 -1.673,-0.804 -2.383,-0.28 -2.709,1.334 0.139,1.311 0.209,2.635 0.431,3.933 1.435,8.348 5.614,11.03 13.933,9.261 C 1.479,11.867 0.965,10.527 0.885,9.359 0.674,6.234 0.306,3.119 0,0" />
      </g>
      <g
         transform="matrix(0.35277777,0,0,-0.35277777,40.46787,0.23307911)"
         id="g4238">
        <path
           id="path4240"
           style="fill:#9cc5cf;fill-opacity:1;fill-rule:evenodd;stroke:none"
           d="M 0,0 C -0.615,1.607 -1.936,2.118 -3.5,2.25 9.833,4.826 22.121,2.727 32.949,-5.9 31.891,-6.251 30.831,-6.603 29.771,-6.954 22.35,-3.703 14.773,-1.107 6.52,-1.139 4.305,-1.147 1.846,-2.227 0,0" />
      </g>
      <g
         transform="matrix(0.35277777,0,0,-0.35277777,22.132385,-1.9168189)"
         id="g4242">
        <path
           id="path4244"
           style="fill:#9e2e9e;fill-opacity:1;fill-rule:evenodd;stroke:none"
           d="m 0,0 c -3.73,-2.687 -3.418,-6.936 -3.984,-10.76 -0.334,-2.255 0.009,-4.615 -2.123,-6.211 C -5.705,-6.969 -2.695,2.3 1.787,11.156 2.123,7.288 1.927,3.505 0,0" />
      </g>
      <g
         transform="matrix(0.35277777,0,0,-0.35277777,40.46787,0.23307911)"
         id="g4246">
        <path
           id="path4248"
           style="fill:#fbfdfd;fill-opacity:1;fill-rule:evenodd;stroke:none"
           d="m 0,0 c 7.014,-0.179 13.967,-0.125 20.908,-2.068 3.557,-0.996 6.17,-2.795 8.865,-4.885 0.623,-4.182 -0.847,-6.316 -5.4,-5.969 -7.363,0.56 -14.797,0.508 -22.099,1.487 -6.911,0.927 -7.903,4.831 -3.165,10.248 C -0.565,-0.816 -0.295,-0.397 0,0" />
      </g>
    </g>
    <g
       transform="matrix(0.39638071,-0.19409131,0.19409131,0.39638071,41.176511,62.524185)"
       id="g1653">
      <polygon
         id="polygon3309"
         points="503.872,15.246 423.216,71.132 401.111,55.883 398.111,40.005 "
         style="fill:#3a88d6"
         transform="matrix(0.15442865,0.11434494,-0.11434494,0.15442865,-20.470369,-73.89374)" />
      <polygon
         id="polygon3311"
         points="273.592,294.751 246.971,276.382 285.289,221.569 401.111,55.883 423.216,71.132 311.521,238.064 "
         style="fill:#f7b239"
         transform="matrix(0.15442865,0.11434494,-0.11434494,0.15442865,-20.470369,-73.89374)" />
      <polygon
         id="polygon3313"
         points="190.966,397.598 8.124,411.678 284.943,221.33 285.289,221.569 246.971,276.382 273.592,294.751 311.521,238.064 311.976,238.367 250.014,496.752 "
         style="fill:#3a88d6"
         transform="matrix(0.15442865,0.11434494,-0.11434494,0.15442865,-20.470369,-73.89374)" />
      <g
         id="g3325"
         transform="matrix(0.15442865,0.11434494,-0.11434494,0.15442865,-20.470369,-73.89374)"
         style="fill:#000000">
        <path
           id="path3315"
           d="M 511.3,11.948 C 509.717,8.383 505.823,6.447 502.026,7.335 L 396.259,32.091 c -4.236,0.992 -6.939,5.145 -6.13,9.419 L 392.498,54.029 280.109,214.794 3.521,404.98 c -3.027,2.082 -4.28,5.935 -3.056,9.399 1.224,3.464 4.616,5.672 8.282,5.393 l 177.813,-13.687 56.477,94.827 c 1.479,2.483 4.146,3.967 6.977,3.967 0.405,0 0.814,-0.03 1.223,-0.092 3.268,-0.497 5.908,-2.923 6.678,-6.137 L 319.83,240.256 429.114,76.929 508.503,21.923 c 3.206,-2.222 4.381,-6.409 2.797,-9.975 z m -108.154,55.203 8.869,6.118 -140.591,210.117 -13.117,-9.049 z M 246.775,475.438 197.94,393.442 c -1.579,-2.651 -4.528,-4.183 -7.603,-3.942 L 37.609,401.257 253.569,252.76 240.308,271.729 c -1.239,1.773 -1.72,3.967 -1.336,6.095 0.384,2.128 1.601,4.016 3.381,5.245 l 26.627,18.369 c 1.367,0.942 2.977,1.436 4.613,1.436 0.508,0 1.017,-0.048 1.523,-0.144 2.136,-0.407 4.019,-1.655 5.228,-3.461 L 293.866,279.06 Z M 423.21,61.255 408.475,51.09 407.538,46.136 464.155,32.885 Z"
           style="fill:#000000" />
        <path
           id="path3317"
           d="m 223.026,367.896 -26.628,-18.368 c -3.694,-2.547 -8.752,-1.618 -11.298,2.074 -2.547,3.693 -1.618,8.751 2.075,11.298 l 26.628,18.368 c 1.408,0.971 3.014,1.437 4.604,1.437 2.58,0 5.119,-1.227 6.694,-3.511 2.547,-3.691 1.618,-8.75 -2.075,-11.298 z"
           style="fill:#000000" />
        <path
           id="path3319"
           d="m 210.89,328.591 26.629,18.366 c 1.408,0.971 3.014,1.437 4.604,1.437 2.581,0 5.119,-1.227 6.694,-3.511 2.547,-3.693 1.618,-8.752 -2.075,-11.298 l -26.629,-18.366 c -3.695,-2.547 -8.753,-1.618 -11.298,2.075 -2.548,3.692 -1.619,8.75 2.075,11.297 z"
           style="fill:#000000" />
        <path
           id="path3321"
           d="m 244.88,413.703 c -2.674,-6.474 -12.133,-6.578 -14.939,-0.147 -1.375,3.154 -0.581,6.956 1.978,9.268 2.736,2.472 6.901,2.768 9.971,0.735 3.168,-2.098 4.47,-6.348 2.99,-9.856 -0.205,-0.498 0.206,0.487 0,0 z"
           style="fill:#000000" />
        <path
           id="path3323"
           d="m 252.494,389.345 c -1.403,-3.398 -5.05,-5.476 -8.692,-4.93 -3.275,0.491 -5.961,2.984 -6.712,6.204 -1.575,6.757 5.89,12.307 11.911,8.894 3.504,-1.987 5.065,-6.442 3.493,-10.168 -0.206,-0.498 0.206,0.487 0,0 z"
           style="fill:#000000" />
      </g>
      <path
         id="path3327"
         d="m -48.833603,-2.4934876 c -0.399198,-0.2955816 -0.650802,-0.775965 -0.632218,-1.3099687 0.03006,-0.8614331 0.753118,-1.535392 1.614437,-1.5051763 l 25.689519,0.8989 c 0.861742,0.03029 1.535392,0.7531176 1.505445,1.6143963 -0.03006,0.8614331 -0.753118,1.535392 -1.614436,1.5051763 l -25.68952,-0.8989 c -0.327812,-0.011282 -0.628303,-0.1230765 -0.873227,-0.3044276 z"
         style="fill:#ffffff;stroke-width:0.192154" />
    </g>
    <g
       transform="matrix(0.44134919,0,0,0.44134919,49.369353,14.70361)"
       id="g1598">
      <path
         sodipodi:nodetypes="ccccccscscscssccsscc"
         style="display:inline;fill:#e752be;fill-opacity:1;stroke-width:0.0526056"
         d="m -52.421541,113.2498 -3.149162,-2.57681 8.09504,-7.22878 2.141686,4.28833 1.176997,1.46316 0.549782,0.10015 9.574843,11.90278 c 0.323463,0.40211 0.453098,0.89687 0.401229,1.37197 -0.0511,0.47521 -0.283805,0.93071 -0.68587,1.25414 -0.803723,0.64653 -1.979608,0.51904 -2.626138,-0.28468 l 0.479787,0.59643 c 0.32343,0.40207 0.453097,0.89688 0.401589,1.37242 -0.05113,0.47518 -0.283803,0.93071 -0.685867,1.25414 -0.804132,0.64686 -1.980059,0.5194 -2.626591,-0.28432 l -0.883737,-1.0986 c 0.323431,0.40207 0.453099,0.89687 0.401229,1.37197 -0.0511,0.47521 -0.284213,0.93104 -0.685869,1.25414 -0.803724,0.64653 -1.97965,0.51907 -2.626149,-0.28461 l -3.800059,-4.72397 c -3.296981,-4.34182 -6.674585,-5.47143 -5.45274,-9.74786 z"
         fill="#e49542"
         id="path37603-9-5" />
      <path
         id="path37605-1-6"
         d="M 23.695261,236.32554 4.4924782,236.1919 4.7597485,218.46909 22.275322,222.28058 h 2.168466 c -0.487083,1.5303 -0.748527,3.16112 -0.748527,4.8545 z"
         sodipodi:nodetypes="cccccsc"
         style="display:inline;fill:#a728b3;fill-opacity:1;stroke-width:0.196722;filter:url(#filter39359-5-7)"
         transform="matrix(0.16761128,0.20836266,-0.20836266,0.16761128,-2.75265,65.834572)" />
      <path
         id="path37609-59-2"
         d="m 57.799959,234.88278 h 33.066202 c 1.928465,0 3.675946,0.78236 4.940868,2.04552 1.263151,1.26492 2.045515,3.01063 2.045515,4.94086 0,1.05915 -0.23587,2.06499 -0.658232,2.96441 -0.346034,-0.7381 -0.817773,-1.40676 -1.387283,-1.97627 -1.264922,-1.26315 -3.012403,-2.04552 -4.940868,-2.04552 H 63.728764 c -3.274436,0 -5.928805,-2.65437 -5.928805,-5.929 z"
         style="display:inline;fill:#a628b2;fill-opacity:1;stroke-width:0.196722;filter:url(#filter39355-9-0)"
         transform="matrix(0.16761128,0.20836266,-0.20836266,0.16761128,-2.75265,65.834572)" />
      <path
         id="path37611-8-8"
         d="m -44.588784,119.99618 4.330847,5.3838 c 0.323232,0.40182 0.453113,0.89707 0.401935,1.37235 -0.05184,0.47521 -0.284451,0.93082 -0.686641,1.25435 -0.220688,0.17753 -0.469802,0.29697 -0.727998,0.35972 0.09579,-0.19582 0.156049,-0.40618 0.179257,-0.62031 0.05118,-0.47528 -0.0787,-0.97052 -0.401935,-1.37234 l -3.337113,-4.14847 c -0.548793,-0.6823 -0.440623,-1.68027 0.241648,-2.2291 z"
         style="display:inline;fill:#a628b2;fill-opacity:1;stroke-width:0.0526056" />
      <path
         style="display:inline;fill:#e752be;fill-opacity:1;stroke-width:0.0526056"
         d="m -37.232344,116.45369 c 0.922755,-0.74228 1.069061,-2.09209 0.326776,-3.01485 l -3.172313,-3.9436 c -1.484602,-1.84555 -4.184193,-2.13812 -6.029705,-0.65355 l 5.860358,7.28519 c 0.742316,0.92279 2.092129,1.0691 3.014884,0.32681 z"
         fill="#e49542"
         id="path37617-3-5" />
      <path
         sodipodi:nodetypes="cscsccscc"
         id="path37607-09-9"
         d="m -42.189775,111.22843 8.157631,9.96996 c 0.326576,0.39911 0.453115,0.89706 0.401937,1.37235 -0.05184,0.4752 -0.284451,0.93082 -0.686641,1.25435 -0.220687,0.17753 -0.469801,0.29697 -0.727998,0.35972 0.09579,-0.19582 0.156049,-0.40619 0.179257,-0.62031 0.05118,-0.47528 -0.0787,-0.97052 -0.401937,-1.37234 l -6.400874,-8.35621 z"
         style="display:inline;fill:#a628b2;fill-opacity:1;stroke-width:0.0526056" />
      <path
         style="display:inline;fill:#a728b3;fill-opacity:1;stroke-width:0.0526056"
         d="m -45.681925,108.53979 c 1.815048,-1.13067 4.229836,-0.75287 5.603911,0.95529 l 3.17248,3.9438 c 0.742186,0.92264 0.595855,2.27267 -0.326777,3.01485 -0.235854,0.18973 -0.499467,0.32144 -0.773567,0.39699 0.385871,-0.73358 0.325769,-1.65756 -0.226691,-2.34434 l -3.541807,-4.40293 c -0.974414,-1.21132 -2.471832,-1.75354 -3.907549,-1.56366 z"
         fill="#e27d47"
         id="path37619-0-4" />
      <path
         sodipodi:nodetypes="ccssccsccsssssssscscssssscccsccsssscsccssccsscsccscscsssccc"
         style="display:inline;stroke-width:0.0526056"
         d="m -45.005224,107.51143 -0.615536,-1.10695 c -0.105894,-0.19047 -0.346122,-0.25897 -0.536557,-0.15311 -0.02006,0.0112 -0.03867,0.0238 -0.05593,0.0376 -0.146947,0.11821 -0.191886,0.32848 -0.09714,0.49889 l 0.631842,1.13636 c 0.01085,0.0195 0.02336,0.0381 0.0374,0.0556 l 0.04537,0.0564 c 0.350539,0.55252 0.392426,0.73381 0.555969,0.63115 1.383692,-1.02134 3.308568,-0.59792 4.654419,1.07515 l 3.172315,3.9436 c 0.604755,0.75179 0.414796,2.31594 -0.266653,2.46013 -0.388119,0.0821 -0.532275,-0.57919 -1.137029,-1.33098 l -3.034951,-3.77284 c -0.136573,-0.16978 -0.384898,-0.19673 -0.554718,-0.0601 -0.169818,0.1366 -0.196698,0.38493 -0.06012,0.55471 l 3.034951,3.77284 c 0.684812,0.85131 0,0 1.467178,1.87854 l 3.424689,4.25733 c 0.246868,0.30689 0.359123,0.69101 0.31601,1.08256 -0.04207,0.39127 -0.23407,0.74251 -0.540591,0.98909 -0.632672,0.50893 -1.561268,0.40862 -2.070752,-0.22348 -3.35e-4,-4.2e-4 -4.63e-4,-6.6e-4 -7.99e-4,-0.001 l -5.062415,-6.29324 c -0.136575,-0.16979 -0.384898,-0.19674 -0.554717,-0.0601 -0.16982,0.1366 -0.1967,0.38494 -0.06013,0.55472 l 5.542023,6.88962 c 0.246702,0.30668 0.35923,0.69105 0.316782,1.08268 -0.04199,0.3912 -0.233997,0.74252 -0.540476,0.98906 -0.633287,0.50943 -1.563035,0.40869 -2.072466,-0.2246 l -5.357267,-6.66003 c -0.136573,-0.16978 -0.384896,-0.19673 -0.554716,-0.0601 -0.169819,0.1366 -0.1967,0.38494 -0.06013,0.55471 l 4.472136,5.55945 c 6.7e-4,8.4e-4 0.0012,0.002 0.0018,0.002 0.246769,0.30676 0.359206,0.69093 0.316495,1.08224 -0.04207,0.39126 -0.234235,0.74264 -0.541043,0.98944 -0.632837,0.50907 -1.562008,0.40821 -2.071273,-0.22488 l -4.805172,-5.97302 c -0.136573,-0.16978 -0.384897,-0.19674 -0.554717,-0.0601 -0.16982,0.1366 -0.196698,0.38494 -0.06012,0.55472 l 3.715211,4.61849 c 0.66996,0.81194 -0.512091,-0.66292 1.076244,1.33748 l 0.01371,0.017 c 0.781984,0.97211 2.208849,1.12691 3.180709,0.34513 0.432644,-0.34803 0.716838,-0.83151 0.810411,-1.37309 0.808034,0.77561 2.089371,0.8498 2.984787,0.12951 0.470929,-0.37882 0.765889,-0.91849 0.830517,-1.51922 0.03479,-0.321 0.0017,-0.63896 -0.0945,-0.93737 0.585978,0.0721 1.199326,-0.0832 1.694561,-0.48161 0.470929,-0.37883 0.765889,-0.91849 0.830486,-1.5186 0.06607,-0.60062 -0.106403,-1.19102 -0.485688,-1.66252 l -3.328573,-4.13785 c 0.02293,-0.0171 0.04586,-0.0341 0.06832,-0.0522 1.090771,-0.87744 1.264374,-2.47876 0.3869,-3.56957 l -3.172313,-3.9436 c -1.244593,-1.54719 -3.278603,-2.09377 -5.066965,-1.52792 l -0.167799,-0.2086 z"
         id="path37623-7-3" />
      <path
         sodipodi:nodetypes="sssssccccccccssssccs"
         style="display:inline;stroke-width:0.0526056"
         d="m -52.206212,117.20782 7.145208,8.65437 c 0.13873,0.16803 0.340717,0.36986 0.510536,0.23326 0.16982,-0.13661 0.196698,-0.38494 0.06012,-0.55472 l -7.101025,-8.8275 c -0.690485,-0.85836 -0.909998,-2.00066 -0.58706,-3.05561 0.04534,-0.148 -9.2e-5,-0.3088 -0.116127,-0.41125 l -3.276147,-2.57338 8.08055,-6.50017 1.299958,2.33813 c 0.105896,0.19048 0.346082,0.25902 0.536557,0.15312 0.190514,-0.10559 0.258938,-0.34609 0.153076,-0.53652 l -1.527406,-2.74719 c -0.05651,-0.10166 -0.155011,-0.17325 -0.269154,-0.19553 -0.114134,-0.0223 -0.232311,0.007 -0.322939,0.0798 l -8.809958,7.08691 c -0.09063,0.0729 -0.144483,0.18212 -0.147128,0.29835 -0.0027,0.1163 0.04614,0.22781 0.133314,0.30479 l 3.443132,2.7208 c -0.295114,1.23389 -0.01867,2.54745 0.794489,3.53235 z"
         id="path37625-68-9" />
    </g>
  </g>
</svg>
