<?xml version='1.0' encoding='UTF-8' standalone='no'?>
<!DOCTYPE svg PUBLIC '-//W3C//DTD SVG 1.1//EN' 'http://www.w3.org/Graphics/SVG/1.1/DTD/svg11.dtd'>
<!-- Animated using aniGen version 0.8.1 Quality of Life - http://anigen.org -->
<svg xmlns:dc="http://purl.org/dc/elements/1.1/" xmlns:cc="http://creativecommons.org/ns#" xmlns:rdf="http://www.w3.org/1999/02/22-rdf-syntax-ns#" xmlns:svg="http://www.w3.org/2000/svg" xmlns="http://www.w3.org/2000/svg" xmlns:sodipodi="http://sodipodi.sourceforge.net/DTD/sodipodi-0.dtd" xmlns:inkscape="http://www.inkscape.org/namespaces/inkscape" sodipodi:docname="charpiano.svg" inkscape:version="1.0 (4035a4f, 2020-05-01)" id="svg2385" version="1.1" viewBox="0 0 70 90" height="90mm" width="70mm" preserveAspectRatio="xMidYMid" xmlns:xlink="http://www.w3.org/1999/xlink" xmlns:anigen="http://www.anigen.org/namespace" anigen:version="0.8.1">
  <defs id="defs2379">
    <filter inkscape:collect="always" style="color-interpolation-filters:sRGB" id="filter39359-55-6-5" x="-0.0019434401" width="1.0038869" y="-0.0017485661" height="1.0034971">
      <feGaussianBlur inkscape:collect="always" stdDeviation="0.01890388" id="feGaussianBlur39361-4-2-7"></feGaussianBlur>
    </filter>
    <filter inkscape:collect="always" style="color-interpolation-filters:sRGB" id="filter39355-1-4-0" x="-0.0098036937" width="1.0196074" y="-0.0064987624" height="1.0129975">
      <feGaussianBlur inkscape:collect="always" stdDeviation="0.10000675" id="feGaussianBlur39357-8-7-0"></feGaussianBlur>
    </filter>
    <filter height="1.0034971" y="-0.0017485661" width="1.0038869" x="-0.0019434401" id="filter39359-55-6-5-3" style="color-interpolation-filters:sRGB" inkscape:collect="always">
      <feGaussianBlur id="feGaussianBlur39361-4-2-7-0" stdDeviation="0.01890388" inkscape:collect="always"></feGaussianBlur>
    </filter>
    <filter height="1.0129975" y="-0.0064987624" width="1.0196074" x="-0.0098036937" id="filter39355-1-4-0-4" style="color-interpolation-filters:sRGB" inkscape:collect="always">
      <feGaussianBlur id="feGaussianBlur39357-8-7-0-8" stdDeviation="0.10000675" inkscape:collect="always"></feGaussianBlur>
    </filter>
  </defs>
  <sodipodi:namedview inkscape:window-maximized="0" inkscape:window-y="23" inkscape:window-x="0" inkscape:window-height="954" inkscape:window-width="1280" inkscape:snap-global="false" showgrid="false" inkscape:document-rotation="0" inkscape:current-layer="layer1" inkscape:document-units="mm" inkscape:cy="-55.29021659409865" inkscape:cx="55.663875138020515" inkscape:zoom="8.000000000000002" inkscape:pageshadow="2" inkscape:pageopacity="0.0" borderopacity="1.0" bordercolor="#666666" pagecolor="#ffffff" id="base"></sodipodi:namedview>
  <metadata id="metadata2382">
    <rdf:rdf id="rdf:rdf3020">
      <cc:work rdf:about="" id="cc:work3597">
        <dc:format id="dc:format5298">image/svg+xml</dc:format>
        <dc:type rdf:resource="http://purl.org/dc/dcmitype/StillImage" id="dc:type9793"></dc:type>
        <dc:title id="dc:title8916"></dc:title>
      </cc:work>
    </rdf:rdf>
  </metadata>
  <g style="display:inline" id="layer1" inkscape:groupmode="layer" inkscape:label="Layer 1">
    <g transform="matrix(-0.16198094189167023 0 0 -0.19327302277088165 37.90974906439669 92.04174075770106)" id="g5990" inkscape:transform-center-x="19.956291297283315" inkscape:transform-center-y="95.85852324391442">
      <g transform="matrix(1 0 0 1 -80.69266547181599 163.40182671148267)" id="g4477" inkscape:transform-center-x="-19.956291297283315" inkscape:transform-center-y="-95.85852324391442">
        <path id="path4479" style="fill:#010000;fill-opacity:1;fill-rule:nonzero;stroke:none" d="M 0 0 L 0 25 C 0.783 33.753 1.114 42.536 0.954 51.309 C 0.715 64.303 5.983 71.354 18.404 73.28999999999999 C 19.553 73.46799999999999 20.667 73.97399999999999 21.823 74.011 C 29.201 74.24799999999999 29.301000000000002 73.984 30.477 82.55199999999999 C 31.815 92.31099999999999 34.876 101.621 40.13 109.67699999999999 C 45.676 118.17999999999999 53.690000000000005 124.44 64.705 124.42899999999999 C 75.189 124.41799999999999 85.875 125.94299999999998 96.119 123.78299999999999 C 112.414 120.34799999999998 125.884 112.30399999999999 132.502 95.844 C 133.203 94.1 134.06400000000002 92.51599999999999 135.56400000000002 91.37299999999999 C 142.664 85.962 146.689 78.773 148 70 L 148 58 C 147.142 53.419 145.553 49.251 142.725 45.382999999999996 C 140.227 41.965999999999994 140.90699999999998 37.535 141.783 33.76899999999999 C 145.271 18.760999999999992 142.594 4.0619999999999905 140.285 -10.696000000000012 C 138.928 -19.371000000000013 137.311 -28.004000000000012 136.256 -36.72700000000001 C 135.572 -42.381000000000014 134.246 -47.83800000000001 130.943 -52.62900000000001 C 128.03300000000002 -57.56600000000001 123.58900000000001 -59.53100000000001 118.00200000000001 -59.430000000000014 C 114.52100000000002 -59.365000000000016 111.03600000000002 -59.42800000000001 107.55300000000001 -59.426000000000016 C 97.47300000000001 -59.41800000000001 94.91400000000002 -57.707000000000015 91.049 -48.432000000000016 C 89.311 -44.27900000000002 88.54 -39.94300000000001 88.561 -35.43700000000002 C 88.57000000000001 -33.36100000000002 88.16300000000001 -31.13500000000002 85.51 -31.264000000000017 C 82.82600000000001 -31.394000000000016 83.50200000000001 -33.863000000000014 83.436 -35.50800000000002 C 83.25200000000001 -40.10100000000001 83.72500000000001 -44.734000000000016 82.41300000000001 -49.24800000000002 C 80.55900000000001 -59.47500000000002 72.40800000000002 -66.97300000000001 61.84200000000001 -68.23900000000002 C 53.13300000000001 -69.28300000000002 44.927000000000014 -67.31300000000002 37.21700000000001 -63.56000000000002 C 33.11800000000001 -61.564000000000014 31.200000000000014 -57.54300000000001 30.671000000000014 -52.988000000000014 C 30.567000000000014 -46.85500000000001 29.452000000000012 -40.799000000000014 29.289000000000012 -34.664000000000016 C 29.196000000000012 -31.154000000000018 27.50300000000001 -28.944000000000017 23.658000000000012 -29.435000000000016 C 11.436 -30.992 2.472 -21.409 0.995 -8.772 C 0.654 -5.85 0.983 -2.846 0 0"></path>
      </g>
      <g transform="matrix(1 0 0 1 -31.867950811171397 265.4706438501546)" id="g4485" inkscape:transform-center-x="-19.956291297283315" inkscape:transform-center-y="-95.85852324391442">
        <path id="path4487" style="fill:#c01701;fill-opacity:1;fill-rule:evenodd;stroke:none" d="M 0 0 C 5.913 7.413 12.673 12.952 23.1 11.511 C 27.029 10.968 31.065 11.027 35.048 11.084 C 46.296 11.246 55.833 7.413 63.562 -0.7900000000000009 C 64.419 -1.700000000000001 66.119 -2.459000000000001 65.481 -3.9330000000000007 C 64.89999999999999 -5.2780000000000005 63.178999999999995 -5.075000000000001 61.87799999999999 -5.062000000000001 C 53.07399999999999 -4.973000000000001 44.25099999999999 -4.294000000000001 35.510999999999996 -6.020000000000001 C 31.766999999999996 -6.759000000000001 27.913999999999994 -7.142000000000001 24.294999999999995 -8.280000000000001 C 18.240999999999993 -10.185 14.092999999999995 -14.688000000000002 13.496999999999995 -20.811 C 12.367999999999995 -32.400999999999996 12.263999999999994 -43.96 18.633999999999993 -54.671 C 21.39999999999999 -59.324 25.371999999999993 -61.838 29.797999999999995 -64.05 C 40.41 -69.354 51.443 -68.01599999999999 62.45499999999999 -65.694 C 67.157 -64.703 71.931 -63.758 76.41 -62.087 C 81.101 -60.336000000000006 81.527 -62.479000000000006 81.15599999999999 -66.114 C 80.80199999999999 -73.047 80.28299999999999 -79.90100000000001 78.50099999999999 -86.71300000000001 C 74.791 -100.905 68.73599999999999 -105.60000000000001 54.40399999999999 -107.84 C 42.07599999999999 -109.766 30.50099999999999 -106.74900000000001 18.82499999999999 -104.635 C 12.115999999999989 -103.421 8.552999999999988 -96.90100000000001 5.988999999999988 -90.989 C 1.2039999999999882 -79.95400000000001 -1.1060000000000114 -68.292 -2.655000000000012 -56.285000000000004 C -3.965000000000012 -46.13 -3.723000000000012 -36.036 -4.399000000000012 -25.933000000000003 C -5.01 -16.814 -1.53 -8.624 0 0"></path>
      </g>
      <g transform="matrix(1 0 0 1 -31.867950811171397 265.4706438501546)" id="g4489" inkscape:transform-center-x="-19.956291297283315" inkscape:transform-center-y="-95.85852324391442">
        <path id="path4491" style="fill:#770a39;fill-opacity:1;fill-rule:evenodd;stroke:none" d="M 0 0 C 0.411 -4.712 -0.519 -9.241 -2.084 -13.633 C -2.604 -15.091999999999999 -2.761 -16.518 -2.833 -18.014 C -3.5570000000000004 -33.153 -2.834 -48.283 -0.52 -63.19799999999999 C 1.04 -73.249 3.068 -83.594 8.218 -92.49199999999999 C 11.764 -98.618 16.055 -104.60199999999999 25.276 -104.359 C 32.242 -104.17399999999999 39.086 -108.11 46.351 -107.00099999999999 C 52.041 -106.133 57.869 -106.681 63.462 -104.547 C 69.557 -102.222 73.238 -98.027 75.286 -92.076 C 77.83 -84.68499999999999 79.333 -77.071 80.165 -69.314 C 80.287 -68.172 80.07600000000001 -66.949 81.156 -66.11399999999999 C 83.89200000000001 -87.83099999999999 81.686 -109.11599999999999 75.68900000000001 -130.09199999999998 C 74.525 -134.165 75.41900000000001 -138.374 75.32600000000001 -142.51799999999997 C 75.167 -149.50199999999998 74.19600000000001 -150.59199999999998 67.43700000000001 -151.24599999999998 C 65.45700000000001 -151.43599999999998 63.48600000000001 -151.82 61.50200000000001 -151.879 C 53.83300000000001 -152.108 50.918000000000006 -149.43099999999998 51.22400000000001 -141.66 C 51.43700000000001 -136.231 51.46400000000001 -130.511 58.71300000000001 -128.6 C 61.73700000000001 -127.803 64.254 -125.277 67.45 -121.958 C 61.326 -122.76 56.431000000000004 -123.083 51.513000000000005 -123.08 C 45.667 -123.075 39.925000000000004 -122.466 34.21000000000001 -121.333 C 31.91100000000001 -120.877 29.552000000000007 -120.713 27.26900000000001 -121.295 C 24.87400000000001 -121.908 23.31000000000001 -123.152 22.97900000000001 -126.04 C 22.27600000000001 -132.161 21.88400000000001 -138.26000000000002 22.07600000000001 -144.421 C 22.34500000000001 -153.04 17.219000000000012 -158.399 8.448000000000011 -158.947 C 3.823000000000011 -159.236 -0.39099999999998936 -157.831 -4.54099999999999 -156 C -6.182999999999989 -155.276 -6.49599999999999 -154.072 -6.70399999999999 -152.463 C -10.888999999999989 -120.06299999999999 -11.10199999999999 -87.514 -10.736999999999991 -54.919 C -10.57799999999999 -40.769999999999996 -8.839999999999991 -26.894999999999996 -5.297999999999991 -13.262 C -4.11 -8.691 -1.798 -4.413 0 0"></path>
      </g>
      <g transform="matrix(1 0 0 1 -52.81185187318317 213.49307427007642)" id="g4493" inkscape:transform-center-x="-19.956291297283315" inkscape:transform-center-y="-95.85852324391442">
        <path id="path4495" style="fill:#760b39;fill-opacity:1;fill-rule:evenodd;stroke:none" d="M 0 0 C 0.062 -16.971 0.079 -33.943 0.225 -50.913 C 0.255 -54.385 0.86 -57.849 1.038 -61.32599999999999 C 1.3760000000000001 -67.89999999999999 -2.2 -70.189 -8.369 -67.3 C -13.146999999999998 -65.062 -15.388 -61.796 -16.273 -55.952999999999996 C -18.999 -37.949 -16.637999999999998 -20.166999999999994 -15.721 -2.3029999999999973 C -15.698 -1.8619999999999972 -15.273 -1.4419999999999973 -15.037 -1.0119999999999973 C -12.543000000000001 -1.1619999999999973 -10.268 -0.24499999999999733 -7.922000000000001 0.38300000000000267 C -5.267 1.095 -2.552 1.902 0 0"></path>
      </g>
      <g transform="matrix(1 0 0 1 57.37367211363329 232.45108208257645)" id="g4497" inkscape:transform-center-x="-19.956291297283315" inkscape:transform-center-y="-95.85852324391442">
        <path id="path4499" style="fill:#4a646e;fill-opacity:1;fill-rule:evenodd;stroke:none" d="M 0 0 C 1.703 -6.417 -1.274 -13.284 -8.365 -16.726 C -20.531 -22.631 -33.33 -25.926 -46.972 -22.796999999999997 C -53.717 -21.249999999999996 -59.063 -17.109999999999996 -63.419 -12.023999999999997 C -68.87299999999999 -5.6599999999999975 -67.155 9.733000000000004 -60.891999999999996 14.765000000000004 C -58.681999999999995 13.642000000000005 -58.36899999999999 11.410000000000004 -57.760999999999996 9.365000000000004 C -54.12499999999999 -2.8589999999999964 -48.982 -6.739999999999997 -36.157999999999994 -6.669999999999996 C -27.699999999999996 -6.623999999999996 -19.325999999999993 -5.4709999999999965 -10.942999999999994 -4.476999999999997 C -6.857 -3.992 -3.66 -1.457 0 0"></path>
      </g>
      <g transform="matrix(1 0 0 1 57.37367211363329 232.45108208257645)" id="g4501" inkscape:transform-center-x="-19.956291297283315" inkscape:transform-center-y="-95.85852324391442">
        <path id="path4503" style="fill:#98c7dc;fill-opacity:1;fill-rule:evenodd;stroke:none" d="M 0 0 C -2.456 -4.527 -7.091 -5.523 -11.4 -6.035 C -20.444000000000003 -7.1080000000000005 -29.526000000000003 -8.064 -38.68 -7.961 C -49.379 -7.84 -55.637 -3.168 -58.557 7.16 C -59.277 9.711 -60.109 12.231 -60.892 14.765 C -50.865 16.829 -40.926 19.812 -30.555000000000003 19.041 C -22.941000000000003 18.474 -15.522000000000004 16.629 -8.974000000000004 12.5 C -4.383 9.605 -0.895 5.669 0 0"></path>
      </g>
      <g transform="matrix(1 0 0 1 -52.81185187318317 213.49307427007642)" id="g4505" inkscape:transform-center-x="-19.956291297283315" inkscape:transform-center-y="-95.85852324391442">
        <path id="path4507" style="fill:#bd1804;fill-opacity:1;fill-rule:evenodd;stroke:none" d="M 0 0 C -3.861 0.069 -7.573 -0.584 -11.199 -1.976 C -12.498 -2.475 -14.428 -3.923 -15.036 -1.0110000000000001 C -14.812 0.6219999999999999 -14.652999999999999 2.268 -14.352 3.886 C -13.013 11.068999999999999 -7.607 14.193999999999999 -0.6710000000000012 11.978000000000002 C 1.163 11.393 0.929 10.15 0.823 8.859 C 0.58 5.904 0.278 2.953 0 0"></path>
      </g>
      <g transform="matrix(1 0 0 1 37.001563654160606 235.4051989038655)" id="g4509" inkscape:transform-center-x="-19.956291297283315" inkscape:transform-center-y="-95.85852324391442">
        <path id="path4511" style="fill:#fbfdfc;fill-opacity:1;fill-rule:evenodd;stroke:none" d="M 0 0 C -4.933 0.545 -11.313 1.335 -17.714 1.921 C -21.069 2.229 -21.762999999999998 4.408 -21.769 7.0920000000000005 C -21.773 10.211 -19.781 12.053 -16.997999999999998 12.501000000000001 C -9.306999999999999 13.738000000000001 -1.916999999999998 11.735000000000001 5.429000000000002 9.797 C 7.021000000000003 9.377 8.478000000000002 8.448 9.513000000000002 7.062000000000001 C 10.513000000000002 5.724000000000001 11.663000000000002 4.320000000000001 10.880000000000003 2.543000000000001 C 10.074 0.72 8.574 -0.17 6.468 -0.023 C 4.812 0.093 3.142 0 0 0"></path>
      </g>
    <animateTransform attributeName="transform" attributeType="auto" type="skewX" values="0;3;0" calcMode="spline" keyTimes="0;0.5;1" keySplines="0 0 1 1;0 0 1 1" dur="1.85s" begin="0s" repeatCount="indefinite" additive="sum" accumulate="none" fill="freeze" id="animateTransform7434"></animateTransform><animateTransform attributeName="transform" attributeType="auto" type="translate" values="0 0;-3 0;0 0" calcMode="spline" keyTimes="0;0.5;1" keySplines="0 0 1 1;0 0 1 1" dur="1.85s" begin="0s" repeatCount="indefinite" additive="sum" accumulate="none" fill="freeze" id="animateTransform5483"></animateTransform></g>
    <g transform="matrix(0.76400307,0,0,0.53626786,-32.524536,-72.883135)" id="g6284">
      <path id="path5205" fill="#e6e7e8" d="M 116.3723,256.44654 H 64.727093 l 3.155704,-9.46712 c 0.24212,-0.72758 0.922826,-1.21834 1.689945,-1.21834 h 41.953508 c 0.76752,-8.3e-4 1.44945,0.48995 1.69198,1.21834 z m 0,0" style="stroke-width:0.104348"></path>
      <g id="g5217" fill="#37474f" transform="matrix(0.10434776,0,0,0.10434776,63.840952,234.13568)">
        <path id="path5207" d="M 96.203125,162.61328 H 80.058594 c -2.742188,-0.004 -5.3125,-1.32422 -6.917969,-3.54687 -1.601563,-2.22266 -2.035156,-5.08204 -1.171875,-7.6836 l 13.320312,-39.97265 h 34.136718 l -15.12109,45.36328 c -1.16406,3.48828 -4.425784,5.83984 -8.101565,5.83984 z m 0,0"></path>
        <path id="path5209" d="m 163.39453,162.61328 h -16.83594 c -2.5039,-0.004 -4.88672,-1.10547 -6.50781,-3.01953 -1.61719,-1.91406 -2.31641,-4.44141 -1.90625,-6.91406 l 6.87891,-41.26953 h 34.13281 l -7.34766,44.0664 c -0.68359,4.11719 -4.24218,7.13281 -8.41406,7.13672 z m 0,0"></path>
        <path id="path5211" d="m 382.33594,152.71484 c 0.40234,2.47266 -0.30469,4.9961 -1.9336,6.90235 -1.625,1.90625 -4.00781,3.0039 -6.51562,2.99609 H 255.95703 c -4.71094,0 -8.53125,-3.82031 -8.53125,-8.53516 v -42.66796 h 128 z m 0,0"></path>
        <path id="path5213" d="m 147.15625,256.48047 h -10.66406 l 93.94922,92.5 24.15234,-24.14844 -68.35547,-68.35156 z m 0,0"></path>
        <path id="path5215" d="m 329.01953,446.88281 -71.69531,-71.02344 -0.17188,-0.17187 24.32032,-23.97656 83.96875,83.96875 z m 0,0"></path>
      </g>
      <path id="path5219" fill="#607d8b" d="m 90.932239,268.05767 7.150268,-7.15883 h 5.031113 l -9.901626,9.90163 z m 0,0" style="stroke-width:0.104348"></path>
      <path id="path5221" fill="#607d8b" d="m 82.842027,281.0722 7.814261,-7.71644 0.01793,-0.0179 -2.760324,-2.26141 -8.53043,8.52146 z m 0,0" style="stroke-width:0.104348"></path>
      <path id="path5231" fill="#9e9e9e" d="m 93.211994,270.80047 c 0.0073,-0.0355 0.01018,-0.0713 0.009,-0.1072 4.17e-4,-1.32595 -0.975406,-2.45014 -2.288721,-2.6356 -0.125951,-0.0253 -0.254348,-0.0375 -0.382744,-0.0355 -0.04769,-0.002 -0.09538,0.002 -0.142256,0.009 -1.364265,0.064 -2.455841,1.15557 -2.520242,2.51984 -0.0073,0.0469 -0.01019,0.0946 -0.009,0.14225 -0.0016,0.12881 0.0102,0.2572 0.03587,0.38315 0.185461,1.31291 1.309646,2.28913 2.635596,2.28832 0.03587,0.002 0.07174,-0.002 0.106793,-0.009 0.01018,0.009 0.02568,0.009 0.03587,0 1.364266,-0.064 2.455433,-1.15557 2.519836,-2.51983" style="stroke-width:0.104348"></path>
      <path id="path5233" fill="#9e9e9e" d="m 78.083606,279.59788 h 4.451899 c 0.983559,0 1.780842,0.79728 1.780842,1.78084 0,0.98356 -0.797283,1.78084 -1.780842,1.78084 h -4.451899 c -0.983559,0 -1.780841,-0.79728 -1.780841,-1.78084 0,-0.98356 0.797282,-1.78084 1.780841,-1.78084 z m 0,0" style="stroke-width:0.104348"></path>
      <path id="path5235" fill="#9e9e9e" d="m 98.563484,279.59788 h 4.452306 c 0.98356,0 1.78084,0.79728 1.78084,1.78084 0,0.98356 -0.79728,1.78084 -1.78084,1.78084 h -4.452306 c -0.983559,0 -1.780841,-0.79728 -1.780841,-1.78084 0,-0.98356 0.797282,-1.78084 1.780841,-1.78084 z m 0,0" style="stroke-width:0.104348"></path>
      <path id="path5237" fill="#4527a0" d="m 103.11362,260.89884 h 11.47744 c 0.98355,0 1.78124,-0.79769 1.78124,-1.78125 v -2.67105 H 64.727093 v 2.67105 c 0,0.98356 0.797282,1.78125 1.780841,1.78125 h 31.574573" style="stroke-width:0.104348"></path>
      <path id="path5239" fill="#673ab7" d="m 100.4662,260.89884 h 10.68546 c 0.94932,-0.0351 1.69116,-0.83152 1.65855,-1.78125 v -2.67105 H 64.727093 v 2.67105 c -0.03261,0.94932 0.708831,1.74579 1.657743,1.78125 H 95.78278" style="stroke-width:0.104348"></path>
      <path id="path5241" d="m 117.21728,256.16529 -3.15571,-9.46834 c -0.33872,-1.01087 -1.24809,-1.72255 -2.31073,-1.80815 -19.093523,0.008 -23.270332,0.0571 -42.40269,0 -1.061005,0.0872 -1.968342,0.7985 -2.306249,1.80815 l -3.160188,9.46834 c -0.02568,0.0831 -0.03954,0.16997 -0.04076,0.2572 v 0.0241 2.67105 c 0,1.47555 1.195923,2.67147 2.671466,2.67147 H 77.71839 l 9.180157,9.04075 -7.883555,7.87744 h -0.931385 c -1.475543,0 -2.671466,1.19593 -2.671466,2.67147 0,1.47514 1.195923,2.67106 2.671466,2.67106 h 4.451899 c 0.908151,0.004 1.75557,-0.4553 2.247553,-1.21875 0.491984,-0.76345 0.560462,-1.725 0.181794,-2.55041 0.02731,-0.0163 0.0538,-0.0338 0.07908,-0.0534 l 5.630296,-5.6303 5.538584,5.5394 c -0.207473,0.38152 -0.317527,0.80829 -0.320788,1.24239 0,1.47514 1.195923,2.67106 2.671465,2.67106 h 4.45231 c 1.47514,0 2.67106,-1.19592 2.67106,-2.67106 0,-1.47554 -1.19592,-2.67147 -2.67106,-2.67147 h -0.67337 l -7.889263,-7.88926 9.028943,-9.02893 h 11.10896 c 1.47554,0 2.67146,-1.19592 2.67146,-2.67147 v -2.67105 c 0,-0.009 -0.004,-0.0151 -0.004,-0.0241 -10e-4,-0.0872 -0.0151,-0.17405 -0.0408,-0.2572 z m -4.84606,-8.90462 2.76603,8.29524 h -5.19334 l -2.22595,-8.90421 h 3.8091 c 0.38315,4.2e-4 0.7231,0.24579 0.84416,0.60897 z m -26.184766,8.29524 0.801358,-8.82391 c 0,-0.0277 -0.009,-0.0526 -0.009,-0.0803 h 1.789809 v 3.56169 c 0,0.98356 0.797282,1.78084 1.780841,1.78084 v 3.56168 z m -6.143881,0 0.647281,-3.56168 h 0.202989 c 0.87106,0.003 1.615352,-0.62772 1.755978,-1.48777 l 0.641168,-3.85476 h 1.916982 l -0.80951,8.90421 z m -7.02554,0 0.979483,-3.58043 c 0.719837,-0.0412 1.342663,-0.51522 1.574184,-1.19837 l 1.374049,-4.12541 h 0.979482 l -0.544972,3.26862 c -0.08193,0.47241 0.03179,0.95788 0.315896,1.34429 0.283696,0.38641 0.7125,0.64076 1.187771,0.70394 l -0.652581,3.58736 z m 0.365625,-8.90421 h 1.685053 l -1.188178,3.56169 h -1.683831 z m 7.507332,3.56169 h -1.755977 l 0.593885,-3.56169 h 1.755978 z m 21.96643,0 h -2.67147 l -0.712499,-3.56169 h 2.789669 z m -4.488995,0 h -3.365623 v -3.56169 h 2.688993 c -0.0065,0.0591 -0.0065,0.11903 0,0.17813 z m -5.146465,0 h -2.671465 v -3.56169 h 2.671465 z m -0.890624,1.78084 h 3.187906 l 0.296331,3.56168 h -3.484237 z m 5.2716,3.56168 -0.296739,-3.56168 h 4.096053 c -0.006,0.0485 -0.007,0.0974 -0.004,0.14592 l 0.5682,3.41576 z m 6.167934,0 -0.59674,-3.59633 c 0.9591,-0.16793 1.6019,-1.07935 1.43804,-2.03926 l -0.54497,-3.26862 h 1.81589 l 2.22595,8.90421 z m -35.0421,-8.29524 c 0.121059,-0.36318 0.461005,-0.60856 0.844157,-0.60897 h 1.932879 l -0.999048,2.99796 c -0.178941,0.53438 -0.09375,1.12215 0.229891,1.58356 0.323641,0.46101 0.84701,0.74144 1.410325,0.75489 l -0.975815,3.5678 h -5.208013 z m 14.178251,14.52839 5.841437,5.84144 c -0.526223,0.3057 -0.962771,0.74388 -1.267255,1.27051 l -7.223229,-7.11195 z m 14.39673,16.91819 -4.950811,-4.95081 c 0.522146,-0.30407 0.956657,-0.73858 1.260732,-1.26073 l 6.211545,6.21154 z m -13.253388,0 h -2.510868 l 6.061953,-6.05502 c 0.331793,0.50095 0.784646,0.90938 1.316983,1.18818 z m 8.280973,-7.91331 v 0.01 0.0118 c -0.05666,0.86739 -0.736549,1.56481 -1.602717,1.64266 -0.04239,0.002 -0.08478,0.006 -0.126357,0.0126 h -0.05544 c -0.897147,-0.0175 -1.643477,-0.69497 -1.747825,-1.586 -0.01141,-0.0489 -0.0159,-0.11128 -0.02405,-0.16835 0.0081,-0.0424 0.01345,-0.0852 0.0159,-0.12799 0.04728,-0.90285 0.76875,-1.62431 1.671602,-1.6716 0.02935,8.4e-4 0.0587,-8.3e-4 0.08804,-0.004 0.08764,-4.2e-4 0.175272,0.009 0.260869,0.0277 0.865353,0.12595 1.51019,0.86291 1.519972,1.73723 -0.0053,0.0387 -0.0077,0.0778 -0.0069,0.11658 z m -1.647146,-3.74592 -5.258964,-5.25896 h 10.506923 z m -8.147685,15.22092 h -4.451899 c -0.491984,0 -0.890625,-0.39864 -0.890625,-0.89022 0,-0.49198 0.398641,-0.89062 0.890625,-0.89062 h 4.451899 c 0.491983,0 0.890625,0.39864 0.890625,0.89062 0,0.49158 -0.398642,0.89022 -0.890625,0.89022 z m 21.370505,-0.89022 c 0,0.49158 -0.39864,0.89022 -0.89022,0.89022 h -4.452306 c -0.491983,0 -0.890624,-0.39864 -0.890624,-0.89022 0,-0.49198 0.398641,-0.89062 0.890624,-0.89062 h 4.452306 c 0.49158,0 0.89022,0.39864 0.89022,0.89062 z M 93.697047,269.0559 c -0.276358,-0.53315 -0.683151,-0.98804 -1.182472,-1.32228 l 5.937633,-5.94456 h 2.515352 z m 21.784633,-9.93831 c 0,0.49199 -0.39864,0.89063 -0.89062,0.89063 H 66.507934 c -0.491983,0 -0.890624,-0.39864 -0.890624,-0.89063 v -1.78084 h 49.86437 z" style="stroke-width:0.104348" sodipodi:nodetypes="ccccccccsscccssscscccccsssscccssscccccccccccccsccccccccccccccccccccccccccccccccccccccccccccccccccccccccccccccccccccccccccccccccccccccccccccccccccccccccccccsssssssssssssscccccssssccs"></path>
    </g>
    <g id="g38567-8-2-5" transform="matrix(0.0739751,0.0919607,-0.0919607,0.0739751,42.093236,35.622866)" inkscape:label="righthand" style="display:inline">
      <path id="path37603-3-5-6" fill="#e49542" d="M 21.738618 255.86412 L 6.848827999999999 259.00031 L 4.759747999999999 218.46909000000002 L 22.275128 222.28018000000003 L 29.297307999999997 222.28018000000003 L 30.877778 220.91296000000003 L 88.003068 220.91296000000003 C 89.932908 220.91296000000003 91.678428 221.69493000000003 92.941188 222.95966 C 94.206108 224.22242 94.987878 225.96813 94.987878 227.89777 C 94.987878 231.7551 91.860198 234.88258000000002 88.002878 234.88258000000002 L 90.86537799999999 234.88258000000002 C 92.795018 234.88258000000002 94.54072799999999 235.66455000000002 95.80564799999999 236.92928 C 97.07037799999999 238.19204000000002 97.85234799999999 239.93775 97.85234799999999 241.86739 C 97.85234799999999 245.72668 94.724668 248.85436 90.86733799999999 248.85436 L 85.59479799999998 248.85436 C 87.52444799999998 248.85436 89.27015799999998 249.63633000000002 90.53291799999998 250.90106 C 91.79783799999998 252.16382 92.57960799999998 253.91149000000001 92.57960799999998 255.83917 C 92.57960799999998 259.6965 89.45192799999998 262.82418 85.59479799999998 262.82418 L 62.92293799999999 262.82418 C 42.543767999999986 262.25403 31.335407999999987 269.44801 21.73861799999999 255.86412 Z" style="display:inline;fill:#c01701;fill-opacity:1;stroke-width:0.196722" sodipodi:nodetypes="ccccccscscscssccsscc"></path>
      <path style="display:inline;fill:#770a39;fill-opacity:1;stroke-width:0.196722;filter:url(#filter39359-55-6-5)" sodipodi:nodetypes="cccccsc" d="M 23.695261 236.32554 L 4.4924782 236.1919 L 4.7597485 218.46909 L 22.275322 222.28058 L 24.443787999999998 222.28058 C 23.956705 223.81088 23.695261 225.4417 23.695261 227.13508 Z" id="path37605-5-6-7"></path>
      <path style="display:inline;opacity:1;fill:#770a39;fill-opacity:1;stroke-width:0.196722;filter:url(#filter39355-1-4-0)" d="M 57.799959 234.88278 L 90.866161 234.88278 C 92.79462600000001 234.88278 94.542107 235.66514 95.807029 236.9283 C 97.07018 238.19322 97.852544 239.93893 97.852544 241.86916 C 97.852544 242.92830999999998 97.61667399999999 243.93415 97.194312 244.83356999999998 C 96.848278 244.09546999999998 96.376539 243.42681 95.807029 242.85729999999998 C 94.542107 241.59414999999998 92.794626 240.81177999999997 90.866161 240.81177999999997 L 63.728764 240.81177999999997 C 60.454328 240.81177999999997 57.799959 238.15740999999997 57.799959 234.88277999999997 Z" id="path37609-2-3-8"></path>
      <path style="display:inline;fill:#770a39;fill-opacity:1;stroke-width:0.196722" d="M 59.755768 248.85397 L 85.594407 248.85397 C 87.522872 248.85397 89.270353 249.63634 90.535275 250.89949000000001 C 91.79842599999999 252.16441 92.580789 253.91012 92.580789 255.84036 C 92.580789 256.89951 92.34492 257.90535 91.922558 258.80476 C 91.57652399999999 258.06666 91.10478499999999 257.39799999999997 90.535275 256.82849 C 89.270353 255.56534 87.52287199999999 254.78296999999998 85.594407 254.78296999999998 L 65.684574 254.78296999999998 C 62.410137 254.78277999999997 59.755767999999996 252.12840999999997 59.755767999999996 248.85396999999998 Z" id="path37611-2-4-0"></path>
      <path id="path37617-6-0-6" fill="#e49542" d="M 66.676638 219.11532 C 66.676638 214.68672 63.086467999999996 211.09654 58.657858 211.09654 L 39.731247999999994 211.09654 C 30.873837999999992 211.09654 23.693687999999995 218.27689 23.693687999999995 227.1341 L 58.657667999999994 227.1341 C 63.086467999999996 227.1341 66.676638 223.54391999999999 66.676638 219.11532 Z" style="display:inline;fill:#c01701;fill-opacity:1;stroke-width:0.196722"></path>
      <path style="display:inline;fill:#770a39;fill-opacity:1;stroke-width:0.196722" d="M 39.831305 221.31269 L 88.002873 220.91179 C 89.931271 220.89569 91.67881899999999 221.69415 92.94374099999999 222.9573 C 94.206893 224.22222 94.98925599999998 225.96793 94.98925599999998 227.89817 C 94.98925599999998 228.95731999999998 94.75338599999998 229.96316 94.33102399999999 230.86257 C 93.98498999999998 230.12447 93.51325099999998 229.45581 92.94374099999999 228.8863 C 91.67881899999999 227.62315 89.93133799999998 226.84079 88.002873 226.84079 L 48.6512 225.90535 Z" id="path37607-6-6-5" sodipodi:nodetypes="cscsccscc"></path>
      <path id="path37619-7-0-7" fill="#e27d47" d="M 23.811718 225.18616 C 24.771528 217.24725 31.532467999999998 211.09654 39.730458 211.09654 L 58.658058 211.09654 C 63.086078 211.09654 66.676838 214.68731 66.676838 219.11532 C 66.676838 220.24725999999998 66.442738 221.32411 66.02037800000001 222.29985 C 64.787328 219.45604 61.95413800000001 217.46541 58.65805800000001 217.46541 L 37.526978000000014 217.46541 C 31.713448000000014 217.46541 26.623668000000016 220.55768 23.811718000000013 225.18616 Z" style="display:inline;fill:#770a39;fill-opacity:1;stroke-width:0.196722"></path>
      <path id="path37623-8-4-3" d="M 22.401418 220.80398 L 17.733207999999998 220.00293 C 16.929997999999998 219.86503 16.167308 220.40444 16.029397999999997 221.20746 C 16.014897999999995 221.29206 16.007997999999997 221.37584999999999 16.007997999999997 221.45866999999998 C 16.007997999999997 222.16392 16.515347999999996 222.78771999999998 17.233967999999997 222.91107 L 22.026117999999997 223.73355999999998 C 22.108517999999997 223.74775999999997 22.191947999999996 223.75485999999998 22.275757999999996 223.75485999999998 L 22.546447999999994 223.75485999999998 C 24.978032999999996 224.02853 25.604445999999996 224.33139999999997 25.688664999999993 223.61424999999997 C 25.955934999999993 217.18845999999996 31.701487999999994 212.57219999999998 39.73108799999999 212.57219999999998 L 58.65770799999999 212.57219999999998 C 62.26578799999999 212.57219999999998 66.37820099999999 216.79198999999997 65.20106799999999 219.11557 C 64.530632 220.43896999999998 62.26578799999999 219.30893 58.65770799999999 219.30893 L 40.55062799999999 219.30893 C 39.73580799999999 219.30893 39.07521799999999 219.96933 39.07521799999999 220.78435000000002 C 39.07521799999999 221.59936000000002 39.73580799999999 222.25976000000003 40.55062799999999 222.25976000000003 L 58.657707999999985 222.25976000000003 C 62.74342799999999 222.25976000000003 58.657707999999985 222.25976000000003 67.57038799999998 222.38784000000004 L 88.00271799999999 222.38784000000004 C 89.47557799999998 222.38784000000004 90.85793799999999 222.96109000000004 91.89780799999998 224.00450000000004 C 92.93925799999998 225.04418000000004 93.51269799999999 226.42693000000003 93.51269799999999 227.89802000000003 C 93.51269799999999 230.93442000000002 91.04383799999998 233.40505000000002 88.00782799999999 233.40800000000004 C 88.005828 233.40800000000004 88.00482799999999 233.40781000000004 88.002828 233.40781000000004 L 57.79951799999999 233.40781000000004 C 56.98468799999999 233.40781000000004 56.32409799999999 234.06820000000005 56.32409799999999 234.88322000000005 C 56.32409799999999 235.69824000000006 56.98468799999999 236.35864000000007 57.79951799999999 236.35864000000007 L 90.86473799999999 236.35903000000008 C 92.33660799999998 236.35903000000008 93.72034799999999 236.93208000000007 94.76198799999999 237.97372000000007 C 95.80343799999999 239.01301000000007 96.37707799999998 240.39596000000006 96.37707799999998 241.86685000000008 C 96.37707799999998 244.9062000000001 93.90428799999998 247.37920000000008 90.86492799999998 247.37920000000008 L 58.90174799999998 247.3786100000001 C 58.08692799999998 247.3786100000001 57.42633799999997 248.0390000000001 57.42633799999997 248.8540200000001 C 57.42633799999997 249.6690400000001 58.08692799999997 250.32944000000012 58.90174799999997 250.32944000000012 L 85.58333799999997 250.32944000000012 C 85.58733799999997 250.32944000000012 85.59133799999996 250.3300300000001 85.59473799999996 250.3300300000001 C 87.06700799999996 250.3300300000001 88.44995799999997 250.9028800000001 89.49002799999997 251.9445200000001 C 90.53147799999996 252.9842000000001 91.10491799999997 254.36774000000008 91.10491799999997 255.8402100000001 C 91.10491799999997 258.8774000000001 88.63310799999996 261.3484200000001 85.59473799999996 261.3484200000001 L 56.92743799999997 261.34942000000007 C 56.11261799999997 261.34942000000007 55.45201799999997 262.0098100000001 55.45201799999997 262.8248300000001 C 55.45201799999997 263.6398500000001 56.11261799999997 264.30025000000006 56.92743799999997 264.30025000000006 L 79.09307799999996 264.30025000000006 C 83.02926799999996 264.2512500000001 75.96114799999997 264.2385500000001 85.51290799999997 264.2992500000001 L 85.59470799999997 264.2992500000001 C 90.26016799999996 264.2992500000001 94.05571799999997 260.50448000000006 94.05571799999997 255.8402100000001 C 94.05571799999997 253.7638100000001 93.31309799999997 251.8024900000001 91.95433799999996 250.2603900000001 C 96.10831799999997 249.72392000000008 99.32786799999997 246.1642400000001 99.32786799999997 241.86685000000008 C 99.32786799999997 239.60671000000008 98.44674799999997 237.4823100000001 96.84779799999997 235.88591000000008 C 95.99401799999997 235.03214000000008 94.98994799999997 234.3833500000001 93.89499799999997 233.96414000000007 C 95.47841799999998 232.42558000000008 96.46359799999998 230.27442000000008 96.46359799999998 227.89763000000008 C 96.46359799999998 225.63749000000007 95.58247799999998 223.5130900000001 93.98529799999997 221.9182600000001 C 92.39007799999997 220.31793000000008 90.26547799999997 219.4366200000001 88.00258799999997 219.4366200000001 L 68.14370799999998 219.4366200000001 C 68.14770799999998 219.3298000000001 68.15170799999997 219.2229800000001 68.15170799999997 219.1151700000001 C 68.15170799999997 213.8802100000001 63.89267799999997 209.6209800000001 58.65750799999997 209.6209800000001 L 39.73089799999997 209.6209800000001 C 32.30542799999997 209.6209800000001 25.94521799999997 214.2665700000001 23.402187999999967 220.8038300000001 L 22.401067999999967 220.8038300000001 Z" style="display:inline;stroke-width:0.196722" sodipodi:nodetypes="ccssccsccsssssssscscssssscccsccsssscsccssccsscsccscscsssccc"></path>
      <path id="path37625-4-0-4" d="M 33.776278 264.51403 L 75.741408 263.97949 C 76.55616800000001 263.96909 77.61772800000001 263.85363 77.61772800000001 263.03861 C 77.61772800000001 262.22359 76.95713800000001 261.5632 76.14230800000001 261.5632 L 33.77627800000001 261.5632 C 29.656718000000012 261.5632 25.813758000000014 259.52536 23.49676800000001 256.11164 C 23.17178800000001 255.63262000000003 22.59676800000001 255.3881 22.02626800000001 255.48607 L 6.848828000000008 259.00031 L 6.848828000000008 220.21913 L 16.708728000000008 221.91172 C 17.511948000000007 222.04962 18.274638000000007 221.51041 18.41253800000001 220.70719 C 18.55141800000001 219.90457 18.01102800000001 219.14148 17.208008000000007 219.00358 L 5.623058000000007 217.01492 C 5.194398000000008 216.94132 4.754918000000007 217.06052 4.422458000000008 217.34089 C 4.089998000000008 217.62122 3.897998000000008 218.03394 3.897998000000008 218.46889 L 3.897998000000008 260.75074 C 3.897998000000008 261.18569 4.089998000000008 261.59861 4.422458000000008 261.87874 C 4.7551180000000075 262.15907 5.194398000000008 262.27828 5.623058000000007 262.20471 L 21.621418000000006 258.54942 C 24.525038000000006 262.3015 29.000458000000005 264.57486 33.776278000000005 264.51403 Z" style="display:inline;stroke-width:0.196722" sodipodi:nodetypes="sssssccccccccssssccs"></path>
    <animateTransform attributeName="transform" attributeType="auto" type="translate" values="-32.36739954898589 -21.001596727605175;-1.8875835661179519 23.906143296460737;-32.36739954898589 -21.001596727605175" calcMode="spline" keyTimes="0;0.5;1" keySplines="0 0 1 1;0 0 1 1" dur="0.92s" begin="0s" repeatCount="indefinite" additive="sum" accumulate="none" fill="freeze" id="animateTransform8555"></animateTransform></g>
    <g style="display:inline" inkscape:label="righthand" transform="matrix(-0.0739751,0.0919607,0.0919607,0.0739751,26.420171,35.938896)" id="g38567-8-2-5-7">
      <path sodipodi:nodetypes="ccccccscscscssccsscc" style="display:inline;fill:#c01701;fill-opacity:1;stroke-width:0.196722" d="M 21.738618 255.86412 L 6.848827999999999 259.00031 L 4.759747999999999 218.46909000000002 L 22.275128 222.28018000000003 L 29.297307999999997 222.28018000000003 L 30.877778 220.91296000000003 L 88.003068 220.91296000000003 C 89.932908 220.91296000000003 91.678428 221.69493000000003 92.941188 222.95966 C 94.206108 224.22242 94.987878 225.96813 94.987878 227.89777 C 94.987878 231.7551 91.860198 234.88258000000002 88.002878 234.88258000000002 L 90.86537799999999 234.88258000000002 C 92.795018 234.88258000000002 94.54072799999999 235.66455000000002 95.80564799999999 236.92928 C 97.07037799999999 238.19204000000002 97.85234799999999 239.93775 97.85234799999999 241.86739 C 97.85234799999999 245.72668 94.724668 248.85436 90.86733799999999 248.85436 L 85.59479799999998 248.85436 C 87.52444799999998 248.85436 89.27015799999998 249.63633000000002 90.53291799999998 250.90106 C 91.79783799999998 252.16382 92.57960799999998 253.91149000000001 92.57960799999998 255.83917 C 92.57960799999998 259.6965 89.45192799999998 262.82418 85.59479799999998 262.82418 L 62.92293799999999 262.82418 C 42.543767999999986 262.25403 31.335407999999987 269.44801 21.73861799999999 255.86412 Z" fill="#e49542" id="path37603-3-5-6-5"></path>
      <path id="path37605-5-6-7-9" d="M 23.695261 236.32554 L 4.4924782 236.1919 L 4.7597485 218.46909 L 22.275322 222.28058 L 24.443787999999998 222.28058 C 23.956705 223.81088 23.695261 225.4417 23.695261 227.13508 Z" sodipodi:nodetypes="cccccsc" style="display:inline;fill:#770a39;fill-opacity:1;stroke-width:0.196722;filter:url(#filter39359-55-6-5-3)"></path>
      <path id="path37609-2-3-8-5" d="M 57.799959 234.88278 L 90.866161 234.88278 C 92.79462600000001 234.88278 94.542107 235.66514 95.807029 236.9283 C 97.07018 238.19322 97.852544 239.93893 97.852544 241.86916 C 97.852544 242.92830999999998 97.61667399999999 243.93415 97.194312 244.83356999999998 C 96.848278 244.09546999999998 96.376539 243.42681 95.807029 242.85729999999998 C 94.542107 241.59414999999998 92.794626 240.81177999999997 90.866161 240.81177999999997 L 63.728764 240.81177999999997 C 60.454328 240.81177999999997 57.799959 238.15740999999997 57.799959 234.88277999999997 Z" style="display:inline;opacity:1;fill:#770a39;fill-opacity:1;stroke-width:0.196722;filter:url(#filter39355-1-4-0-4)"></path>
      <path id="path37611-2-4-0-3" d="M 59.755768 248.85397 L 85.594407 248.85397 C 87.522872 248.85397 89.270353 249.63634 90.535275 250.89949000000001 C 91.79842599999999 252.16441 92.580789 253.91012 92.580789 255.84036 C 92.580789 256.89951 92.34492 257.90535 91.922558 258.80476 C 91.57652399999999 258.06666 91.10478499999999 257.39799999999997 90.535275 256.82849 C 89.270353 255.56534 87.52287199999999 254.78296999999998 85.594407 254.78296999999998 L 65.684574 254.78296999999998 C 62.410137 254.78277999999997 59.755767999999996 252.12840999999997 59.755767999999996 248.85396999999998 Z" style="display:inline;fill:#770a39;fill-opacity:1;stroke-width:0.196722"></path>
      <path style="display:inline;fill:#c01701;fill-opacity:1;stroke-width:0.196722" d="M 66.676638 219.11532 C 66.676638 214.68672 63.086467999999996 211.09654 58.657858 211.09654 L 39.731247999999994 211.09654 C 30.873837999999992 211.09654 23.693687999999995 218.27689 23.693687999999995 227.1341 L 58.657667999999994 227.1341 C 63.086467999999996 227.1341 66.676638 223.54391999999999 66.676638 219.11532 Z" fill="#e49542" id="path37617-6-0-6-2"></path>
      <path sodipodi:nodetypes="cscsccscc" id="path37607-6-6-5-7" d="M 39.831305 221.31269 L 88.002873 220.91179 C 89.931271 220.89569 91.67881899999999 221.69415 92.94374099999999 222.9573 C 94.206893 224.22222 94.98925599999998 225.96793 94.98925599999998 227.89817 C 94.98925599999998 228.95731999999998 94.75338599999998 229.96316 94.33102399999999 230.86257 C 93.98498999999998 230.12447 93.51325099999998 229.45581 92.94374099999999 228.8863 C 91.67881899999999 227.62315 89.93133799999998 226.84079 88.002873 226.84079 L 48.6512 225.90535 Z" style="display:inline;fill:#770a39;fill-opacity:1;stroke-width:0.196722"></path>
      <path style="display:inline;fill:#770a39;fill-opacity:1;stroke-width:0.196722" d="M 23.811718 225.18616 C 24.771528 217.24725 31.532467999999998 211.09654 39.730458 211.09654 L 58.658058 211.09654 C 63.086078 211.09654 66.676838 214.68731 66.676838 219.11532 C 66.676838 220.24725999999998 66.442738 221.32411 66.02037800000001 222.29985 C 64.787328 219.45604 61.95413800000001 217.46541 58.65805800000001 217.46541 L 37.526978000000014 217.46541 C 31.713448000000014 217.46541 26.623668000000016 220.55768 23.811718000000013 225.18616 Z" fill="#e27d47" id="path37619-7-0-7-3"></path>
      <path sodipodi:nodetypes="ccssccsccsssssssscscssssscccsccsssscsccssccsscsccscscsssccc" style="display:inline;stroke-width:0.196722" d="M 22.401418 220.80398 L 17.733207999999998 220.00293 C 16.929997999999998 219.86503 16.167308 220.40444 16.029397999999997 221.20746 C 16.014897999999995 221.29206 16.007997999999997 221.37584999999999 16.007997999999997 221.45866999999998 C 16.007997999999997 222.16392 16.515347999999996 222.78771999999998 17.233967999999997 222.91107 L 22.026117999999997 223.73355999999998 C 22.108517999999997 223.74775999999997 22.191947999999996 223.75485999999998 22.275757999999996 223.75485999999998 L 22.546447999999994 223.75485999999998 C 24.978032999999996 224.02853 25.604445999999996 224.33139999999997 25.688664999999993 223.61424999999997 C 25.955934999999993 217.18845999999996 31.701487999999994 212.57219999999998 39.73108799999999 212.57219999999998 L 58.65770799999999 212.57219999999998 C 62.26578799999999 212.57219999999998 66.37820099999999 216.79198999999997 65.20106799999999 219.11557 C 64.530632 220.43896999999998 62.26578799999999 219.30893 58.65770799999999 219.30893 L 40.55062799999999 219.30893 C 39.73580799999999 219.30893 39.07521799999999 219.96933 39.07521799999999 220.78435000000002 C 39.07521799999999 221.59936000000002 39.73580799999999 222.25976000000003 40.55062799999999 222.25976000000003 L 58.657707999999985 222.25976000000003 C 62.74342799999999 222.25976000000003 58.657707999999985 222.25976000000003 67.57038799999998 222.38784000000004 L 88.00271799999999 222.38784000000004 C 89.47557799999998 222.38784000000004 90.85793799999999 222.96109000000004 91.89780799999998 224.00450000000004 C 92.93925799999998 225.04418000000004 93.51269799999999 226.42693000000003 93.51269799999999 227.89802000000003 C 93.51269799999999 230.93442000000002 91.04383799999998 233.40505000000002 88.00782799999999 233.40800000000004 C 88.005828 233.40800000000004 88.00482799999999 233.40781000000004 88.002828 233.40781000000004 L 57.79951799999999 233.40781000000004 C 56.98468799999999 233.40781000000004 56.32409799999999 234.06820000000005 56.32409799999999 234.88322000000005 C 56.32409799999999 235.69824000000006 56.98468799999999 236.35864000000007 57.79951799999999 236.35864000000007 L 90.86473799999999 236.35903000000008 C 92.33660799999998 236.35903000000008 93.72034799999999 236.93208000000007 94.76198799999999 237.97372000000007 C 95.80343799999999 239.01301000000007 96.37707799999998 240.39596000000006 96.37707799999998 241.86685000000008 C 96.37707799999998 244.9062000000001 93.90428799999998 247.37920000000008 90.86492799999998 247.37920000000008 L 58.90174799999998 247.3786100000001 C 58.08692799999998 247.3786100000001 57.42633799999997 248.0390000000001 57.42633799999997 248.8540200000001 C 57.42633799999997 249.6690400000001 58.08692799999997 250.32944000000012 58.90174799999997 250.32944000000012 L 85.58333799999997 250.32944000000012 C 85.58733799999997 250.32944000000012 85.59133799999996 250.3300300000001 85.59473799999996 250.3300300000001 C 87.06700799999996 250.3300300000001 88.44995799999997 250.9028800000001 89.49002799999997 251.9445200000001 C 90.53147799999996 252.9842000000001 91.10491799999997 254.36774000000008 91.10491799999997 255.8402100000001 C 91.10491799999997 258.8774000000001 88.63310799999996 261.3484200000001 85.59473799999996 261.3484200000001 L 56.92743799999997 261.34942000000007 C 56.11261799999997 261.34942000000007 55.45201799999997 262.0098100000001 55.45201799999997 262.8248300000001 C 55.45201799999997 263.6398500000001 56.11261799999997 264.30025000000006 56.92743799999997 264.30025000000006 L 79.09307799999996 264.30025000000006 C 83.02926799999996 264.2512500000001 75.96114799999997 264.2385500000001 85.51290799999997 264.2992500000001 L 85.59470799999997 264.2992500000001 C 90.26016799999996 264.2992500000001 94.05571799999997 260.50448000000006 94.05571799999997 255.8402100000001 C 94.05571799999997 253.7638100000001 93.31309799999997 251.8024900000001 91.95433799999996 250.2603900000001 C 96.10831799999997 249.72392000000008 99.32786799999997 246.1642400000001 99.32786799999997 241.86685000000008 C 99.32786799999997 239.60671000000008 98.44674799999997 237.4823100000001 96.84779799999997 235.88591000000008 C 95.99401799999997 235.03214000000008 94.98994799999997 234.3833500000001 93.89499799999997 233.96414000000007 C 95.47841799999998 232.42558000000008 96.46359799999998 230.27442000000008 96.46359799999998 227.89763000000008 C 96.46359799999998 225.63749000000007 95.58247799999998 223.5130900000001 93.98529799999997 221.9182600000001 C 92.39007799999997 220.31793000000008 90.26547799999997 219.4366200000001 88.00258799999997 219.4366200000001 L 68.14370799999998 219.4366200000001 C 68.14770799999998 219.3298000000001 68.15170799999997 219.2229800000001 68.15170799999997 219.1151700000001 C 68.15170799999997 213.8802100000001 63.89267799999997 209.6209800000001 58.65750799999997 209.6209800000001 L 39.73089799999997 209.6209800000001 C 32.30542799999997 209.6209800000001 25.94521799999997 214.2665700000001 23.402187999999967 220.8038300000001 L 22.401067999999967 220.8038300000001 Z" id="path37623-8-4-3-9"></path>
      <path sodipodi:nodetypes="sssssccccccccssssccs" style="display:inline;stroke-width:0.196722" d="M 33.776278 264.51403 L 75.741408 263.97949 C 76.55616800000001 263.96909 77.61772800000001 263.85363 77.61772800000001 263.03861 C 77.61772800000001 262.22359 76.95713800000001 261.5632 76.14230800000001 261.5632 L 33.77627800000001 261.5632 C 29.656718000000012 261.5632 25.813758000000014 259.52536 23.49676800000001 256.11164 C 23.17178800000001 255.63262000000003 22.59676800000001 255.3881 22.02626800000001 255.48607 L 6.848828000000008 259.00031 L 6.848828000000008 220.21913 L 16.708728000000008 221.91172 C 17.511948000000007 222.04962 18.274638000000007 221.51041 18.41253800000001 220.70719 C 18.55141800000001 219.90457 18.01102800000001 219.14148 17.208008000000007 219.00358 L 5.623058000000007 217.01492 C 5.194398000000008 216.94132 4.754918000000007 217.06052 4.422458000000008 217.34089 C 4.089998000000008 217.62122 3.897998000000008 218.03394 3.897998000000008 218.46889 L 3.897998000000008 260.75074 C 3.897998000000008 261.18569 4.089998000000008 261.59861 4.422458000000008 261.87874 C 4.7551180000000075 262.15907 5.194398000000008 262.27828 5.623058000000007 262.20471 L 21.621418000000006 258.54942 C 24.525038000000006 262.3015 29.000458000000005 264.57486 33.776278000000005 264.51403 Z" id="path37625-4-0-4-7"></path>
    <animateTransform attributeName="transform" attributeType="auto" type="translate" values="-27.488906205839832 65.55169511167263;-42.913185010235516 16.620254722793995;-27.488906205839832 65.55169511167263" calcMode="spline" keyTimes="0;0.5;1" keySplines="0 0 1 1;0 0 1 1" dur="0.92s" begin="0s" repeatCount="indefinite" additive="sum" accumulate="none" fill="freeze" id="animateTransform1793"></animateTransform></g>
  </g>
</svg>