<?xml version="1.0" encoding="UTF-8" standalone="no"?>
<svg
   xmlns:dc="http://purl.org/dc/elements/1.1/"
   xmlns:cc="http://creativecommons.org/ns#"
   xmlns:rdf="http://www.w3.org/1999/02/22-rdf-syntax-ns#"
   xmlns:svg="http://www.w3.org/2000/svg"
   xmlns="http://www.w3.org/2000/svg"
   xmlns:sodipodi="http://sodipodi.sourceforge.net/DTD/sodipodi-0.dtd"
   xmlns:inkscape="http://www.inkscape.org/namespaces/inkscape"
   sodipodi:docname="charchoir.svg"
   inkscape:version="1.0 (4035a4f, 2020-05-01)"
   id="svg2385"
   version="1.1"
   viewBox="0 0 70 90"
   height="90mm"
   width="70mm">
  <defs
     id="defs2379" />
  <sodipodi:namedview
     inkscape:window-maximized="0"
     inkscape:window-y="23"
     inkscape:window-x="0"
     inkscape:window-height="930"
     inkscape:window-width="1280"
     inkscape:snap-global="false"
     showgrid="false"
     inkscape:document-rotation="0"
     inkscape:current-layer="layer1"
     inkscape:document-units="mm"
     inkscape:cy="274.5102"
     inkscape:cx="74.278723"
     inkscape:zoom="0.98994949"
     inkscape:pageshadow="2"
     inkscape:pageopacity="0.0"
     borderopacity="1.0"
     bordercolor="#666666"
     pagecolor="#ffffff"
     id="base" />
  <metadata
     id="metadata2382">
    <rdf:RDF>
      <cc:Work
         rdf:about="">
        <dc:format>image/svg+xml</dc:format>
        <dc:type
           rdf:resource="http://purl.org/dc/dcmitype/StillImage" />
        <dc:title />
      </cc:Work>
    </rdf:RDF>
  </metadata>
  <g
     style="display:inline"
     id="layer1"
     inkscape:groupmode="layer"
     inkscape:label="Layer 1">
    <g
       transform="matrix(-0.17689494,0,0,-0.21311425,123.02535,206.47912)"
       id="g5879">
      <g
         transform="translate(401.6475,652.4785)"
         id="g4549">
        <path
           id="path4551"
           style="fill:#000100;fill-opacity:1;fill-rule:nonzero;stroke:none"
           d="m 0,0 v 25 c 0.783,8.753 1.113,17.535 0.953,26.309 -0.236,12.992 5.03,20.045 17.453,21.98 1.149,0.178 2.262,0.684 3.418,0.721 7.385,0.233 7.48,-0.015 8.654,8.54 1.338,9.759 4.399,19.069 9.653,27.125 5.546,8.503 13.56,14.764 24.574,14.754 10.483,-0.011 21.169,1.514 31.414,-0.646 16.293,-3.437 29.765,-11.479 36.381,-27.94 0.701,-1.744 1.562,-3.328 3.062,-4.471 C 142.663,85.961 146.687,78.772 148,70 V 58 c -0.857,-4.582 -2.45,-8.748 -5.277,-12.615 -2.498,-3.418 -1.817,-7.85 -0.942,-11.615 3.489,-15.008 0.812,-29.708 -1.497,-44.465 -1.356,-8.674 -2.975,-17.308 -4.03,-26.03 -0.684,-5.654 -2.009,-11.111 -5.312,-15.904 -2.91,-4.937 -7.354,-6.902 -12.941,-6.799 -3.481,0.065 -6.966,0.002 -10.448,0.004 -10.08,0.008 -12.637,1.717 -16.503,10.994 -1.737,4.154 -2.509,8.489 -2.487,12.996 0.009,2.077 -0.401,4.303 -3.055,4.172 -2.684,-0.131 -2.007,-2.599 -2.072,-4.246 -0.186,-4.594 0.287,-9.228 -1.024,-13.742 -1.801,-9.916 -8.701,-16.799 -19.113,-18.732 -9.371,-1.741 -18.246,0.396 -26.502,4.669 -3.818,1.975 -5.674,5.928 -6.125,10.321 -0.102,6.134 -1.191,12.192 -1.399,18.326 -0.095,2.801 -1.006,5.501 -4.615,5.186 -7.07,-0.62 -13.2,1.347 -17.951,6.617 C 1.877,-17.51 1.26,-10.613 0.514,-3.838 0.371,-2.555 0.924,-1.178 0,0" />
      </g>
      <g
         transform="translate(450.5342,754.5693)"
         id="g4557">
        <path
           id="path4559"
           style="fill:#237f18;fill-opacity:1;fill-rule:evenodd;stroke:none"
           d="m 0,0 c 4.644,7.877 13.896,12.34 22.604,11.373 4.608,-0.512 9.298,-0.387 13.951,-0.384 12.553,0.008 22.185,-5.611 30.728,-16.068 -3.766,0 -6.655,-0.123 -9.531,0.022 -10.839,0.547 -21.535,-0.232 -32.08,-2.948 -7.453,-1.921 -12.266,-7.633 -12.528,-15.322 -0.357,-10.477 -0.558,-20.797 4.961,-30.49 5.135,-9.014 13.541,-11.843 22.653,-13.252 11.902,-1.841 23.342,1.683 34.744,4.424 5.686,1.368 5.596,1.746 5.588,-4.442 0.223,-8.715 -1.715,-17.033 -4.363,-25.274 -2.758,-8.581 -9.084,-13.13 -17.31,-14.804 -9.306,-1.895 -18.788,-2.562 -28.148,0.316 -1.9,0.584 -3.941,1.08 -5.89,0.993 -10.265,-0.467 -15.121,6.38 -19.111,14.136 -5.4,10.498 -7.907,21.814 -8.654,33.553 -0.348,5.474 -1.983,10.754 -2.014,16.318 C -4.48,-27.718 -4.914,-13.59 0,0" />
      </g>
      <g
         transform="translate(450.5342,754.5693)"
         id="g4561">
        <path
           id="path4563"
           style="fill:#134d29;fill-opacity:1;fill-rule:evenodd;stroke:none"
           d="m 0,0 c 0.662,-3.217 -0.361,-6.301 -0.986,-9.349 -3.145,-15.335 -2.303,-30.568 -0.277,-45.992 0.907,-6.894 2,-13.701 3.284,-20.521 1.868,-9.91 6.627,-18.233 12.911,-25.903 1.161,-1.418 2.632,-1.552 3.967,-1.651 9.866,-0.733 19.298,-4.724 29.406,-3.708 5.923,0.595 11.782,0.853 17.314,3.675 4.787,2.441 7.852,5.932 9.52,10.919 2.533,7.566 4.398,15.261 5.029,23.239 0.059,0.754 0.603,1.47 0.922,2.204 1.84,-10.24 0.971,-20.531 0.672,-30.824 -0.455,-15.611 -7.512,-30.221 -6.693,-46.058 0.294,-5.692 -1.574,-7.052 -7.15,-7.186 -2.498,-0.061 -4.999,-0.02 -7.497,-0.02 -7.25,-10e-4 -8.507,0.793 -9.136,7.774 -0.32,3.558 0.56,7.23 0.946,10.845 0.166,1.551 1.674,1.399 2.651,1.876 4.172,2.04 8.075,4.466 11.445,8.118 -4.846,-0.781 -9.648,-0.433 -14.443,-0.551 -6.01,-0.148 -11.911,0.415 -17.783,1.756 -2.061,0.47 -4.346,0.419 -6.455,0.108 -2.612,-0.386 -4.245,-1.707 -4.706,-4.852 -0.875,-5.966 -0.888,-11.916 -0.839,-17.894 0.08,-9.912 -7.768,-16.547 -17.741,-14.941 -1.632,0.263 -3.232,0.753 -4.835,1.181 -4.462,1.19 -6.451,3.468 -6.609,8.715 -0.304,10.078 -1.634,20.162 -3.13,30.154 -0.775,5.179 -0.51,10.289 -0.572,15.42 -0.165,13.494 -0.531,27.014 0.058,40.484 0.715,16.343 0.366,32.832 4.907,48.84 C -4.406,-9.162 -1.779,-4.776 0,0" />
      </g>
      <g
         transform="translate(429.5029,701.5645)"
         id="g4565">
        <path
           id="path4567"
           style="fill:#134c28;fill-opacity:1;fill-rule:evenodd;stroke:none"
           d="m 0,0 c 0.049,-15.327 0.013,-30.655 0.191,-45.98 0.069,-5.802 0.559,-11.603 1,-17.393 0.22,-2.893 -0.995,-3.66 -3.747,-3.736 -8.719,-0.244 -13.125,4.089 -14.152,15.173 -1.336,14.405 -1.267,28.832 0.715,43.194 0.402,2.916 -0.8,6.018 1.022,8.759 3.325,-0.047 6.465,1.379 9.808,1.215 C -3.36,1.143 -1.494,1.363 0,0" />
      </g>
      <g
         transform="translate(539.7021,721.5195)"
         id="g4569">
        <path
           id="path4571"
           style="fill:#4a646e;fill-opacity:1;fill-rule:evenodd;stroke:none"
           d="m 0,0 c 1.725,-6.374 -1.384,-13.41 -8.345,-16.732 -11.87,-5.666 -24.257,-8.908 -37.637,-6.284 -14.28,2.801 -23.737,16.809 -20.075,30.217 0.838,3.071 2.086,5.983 5.169,7.581 2.382,-1.24 2.615,-3.687 3.261,-5.878 3.396,-11.518 8.838,-15.603 20.969,-15.577 8.629,0.019 17.163,1.2 25.713,2.202 C -6.859,-3.992 -3.658,-1.463 0,0" />
      </g>
      <g
         transform="translate(539.7021,721.5195)"
         id="g4573">
        <path
           id="path4575"
           style="fill:#98c7dc;fill-opacity:1;fill-rule:evenodd;stroke:none"
           d="m 0,0 c -2.451,-4.538 -7.094,-5.518 -11.402,-6.027 -9.043,-1.073 -18.139,-1.724 -27.275,-2.005 -10.68,-0.329 -18.092,6.864 -19.896,15.207 -0.559,2.582 -1.531,5.074 -2.315,7.607 10.031,2.053 19.973,5.046 30.345,4.262 7.781,-0.587 15.347,-2.481 21.992,-6.824 C -4.141,9.337 -0.841,5.478 0,0" />
      </g>
      <g
         transform="translate(429.5029,701.5645)"
         id="g4577">
        <path
           id="path4579"
           style="fill:#237d1a;fill-opacity:1;fill-rule:evenodd;stroke:none"
           d="m 0,0 c -4.253,-0.174 -8.594,0.419 -12.645,-1.488 -1.556,-0.733 -2.068,0.199 -2.324,1.504 0.102,1.488 0.088,2.994 0.326,4.461 1.243,7.661 6.633,10.836 14.079,8.505 C 1.275,12.407 1.102,11.1 1.007,9.857 0.755,6.565 0.346,3.285 0,0" />
      </g>
      <g
         transform="translate(522.6592,724.3691)"
         id="g4581">
        <path
           id="path4583"
           style="fill:#fafdfd;fill-opacity:1;fill-rule:evenodd;stroke:none"
           d="m 0,0 c -7.08,0.707 -14.27,1.427 -21.461,2.141 -3.099,0.308 -3.578,2.591 -3.616,5.013 -0.05,3.132 1.975,5.089 4.716,5.447 C -12.173,13.67 -4.287,11.774 3.418,9.202 6.265,8.252 7.627,5.956 7.027,2.916 6.178,-1.398 2.59,0.658 0,0" />
      </g>
    </g>
    <g
       transform="matrix(-0.03821894,0,0,0.03821894,31.352443,54.257008)"
       id="g5465">
      <path
         id="path5392"
         d="m 208.344,395.904 c -2.977,-2.967 -4.267,-7.23 -3.435,-11.349 l 18.88,-94.421 c 1.178,-5.772 -2.546,-11.406 -8.318,-12.585 -0.703,-0.143 -1.418,-0.216 -2.136,-0.216 h -128 c -5.891,-0.011 -10.675,4.757 -10.686,10.648 -0.005,2.84 1.123,5.565 3.134,7.571 l 39.552,39.531 v 79.424 c 0,17.83 8.91,34.481 23.744,44.373 l 44.992,29.995 c 4.229,2.824 9.863,2.271 13.461,-1.323 l 8.832,-8.832 c 10.041,-9.979 15.672,-23.561 15.637,-37.717 v -7.339 c 0.03,-14.172 -5.608,-27.767 -15.657,-37.76 z"
         style="fill:#607d8b" />
      <ellipse
         id="ellipse5394"
         ry="202.66701"
         rx="74.667"
         cy="213.33299"
         cx="394.66901"
         style="fill:#b0bec5" />
      <g
         id="g5400">
        <path
           id="path5396"
           d="m 384.002,149.333 c -5.891,0 -10.667,4.776 -10.667,10.667 v 106.667 c 0,5.891 4.776,10.667 10.667,10.667 32.245,-3.241 55.96,-31.699 53.333,-64 2.627,-32.301 -21.088,-60.76 -53.333,-64.001 z"
           style="fill:#f44336" />
        <path
           id="path5398"
           d="m 213.336,277.333 c -39.36,0 -53.333,-34.475 -53.333,-64 0,-29.525 13.973,-64 53.333,-64 5.891,0 10.667,-4.776 10.667,-10.667 0,-5.891 -4.776,-10.666 -10.667,-10.666 H 96.002 c -47.128,0 -85.333,38.205 -85.333,85.333 0,47.128 38.205,85.333 85.333,85.333 h 117.333 c 5.891,0 10.667,-4.776 10.667,-10.667 0,-5.89 -4.775,-10.666 -10.666,-10.666 z"
           style="fill:#f44336" />
      </g>
      <g
         id="g5406">
        <path
           id="path5402"
           d="m 330.669,213.333 c 0,-71.381 14.037,-136.96 36.629,-171.179 3.253,-4.912 1.908,-11.53 -3.004,-14.783 -3.673,-2.432 -8.463,-2.357 -12.057,0.191 L 209.837,128 c -42.091,1.877 -71.168,36.437 -71.168,85.333 0,48.896 29.077,83.456 71.168,85.333 l 142.4,100.523 c 4.806,3.406 11.464,2.272 14.87,-2.535 2.547,-3.594 2.623,-8.384 0.191,-12.057 -22.592,-34.304 -36.629,-99.882 -36.629,-171.264 z"
           style="fill:#f5f5f5" />
        <path
           id="path5404"
           d="m 394.669,426.667 c -55.467,0 -85.333,-109.909 -85.333,-213.333 C 309.336,109.91 339.202,0 394.669,0 c 55.467,0 85.333,109.909 85.333,213.333 0,103.424 -29.866,213.334 -85.333,213.334 z m 0,-405.334 c -30.272,0 -64,78.933 -64,192 0,113.067 33.728,192 64,192 30.272,0 64,-78.933 64,-192 0,-113.067 -33.728,-192 -64,-192 z"
           style="fill:#f5f5f5" />
      </g>
      <path
         id="path5408"
         d="m 394.669,426.667 c -55.467,0 -85.333,-109.909 -85.333,-213.333 C 309.336,109.91 339.202,0 394.669,0 c 55.467,0 85.333,109.909 85.333,213.333 0,103.424 -29.866,213.334 -85.333,213.334 z m 0,-405.334 c -30.272,0 -64,78.933 -64,192 0,113.067 33.728,192 64,192 30.272,0 64,-78.933 64,-192 0,-113.067 -33.728,-192 -64,-192 z" />
      <path
         id="path5410"
         d="m 384.002,277.333 c -5.891,0 -10.667,-4.776 -10.667,-10.667 0,-5.891 4.776,-10.667 10.667,-10.667 17.643,0 32,-19.2 32,-42.667 0,-23.467 -14.357,-42.667 -32,-42.667 -5.891,0 -10.667,-4.776 -10.667,-10.667 0,-5.891 4.776,-10.667 10.667,-10.667 32.245,3.241 55.96,31.699 53.333,64 2.627,32.303 -21.088,60.761 -53.333,64.002 z" />
      <path
         id="path5412"
         d="m 358.402,401.067 c -2.206,0.006 -4.36,-0.672 -6.165,-1.941 L 209.944,298.667 H 96.002 c -47.128,0 -85.333,-38.205 -85.333,-85.333 C 10.669,166.206 48.874,128 96.002,128 H 209.943 L 352.216,27.563 c 4.796,-3.421 11.457,-2.307 14.878,2.488 2.576,3.611 2.649,8.438 0.183,12.125 -22.571,34.155 -36.608,99.755 -36.608,171.157 0,71.402 14.037,137.003 36.608,171.157 3.252,4.912 1.906,11.53 -3.006,14.782 -1.747,1.156 -3.795,1.773 -5.89,1.772 z M 96.002,149.333 c -35.346,0 -64,28.654 -64,64 0,35.346 28.654,64 64,64 h 117.333 c 2.206,-0.006 4.36,0.672 6.165,1.941 l 111.659,78.933 c -15.182,-46.765 -22.555,-95.712 -21.824,-144.875 -0.722,-49.134 6.652,-98.051 21.824,-144.789 L 219.5,147.476 c -1.815,1.239 -3.968,1.887 -6.165,1.856 H 96.002 Z" />
      <path
         id="path5414"
         d="m 192.002,490.667 c -2.103,-0.002 -4.159,-0.625 -5.909,-1.792 L 141.08,458.88 c -14.834,-9.892 -23.744,-26.543 -23.744,-44.373 V 335.083 L 77.784,295.552 c -4.092,-4.237 -3.975,-10.99 0.262,-15.083 4.134,-3.992 10.687,-3.992 14.82,0 l 42.667,42.667 c 2.002,1.996 3.13,4.704 3.136,7.531 v 83.84 c 10e-4,10.699 5.348,20.69 14.251,26.624 l 37.739,25.152 2.645,-2.645 c 6.022,-5.999 9.394,-14.156 9.365,-22.656 v -7.317 c 0.023,-8.492 -3.349,-16.641 -9.365,-22.635 -8.053,-8.008 -11.553,-19.521 -9.323,-30.656 l 16.555,-82.688 c -37.504,-5.973 -61.867,-38.357 -61.867,-84.352 0,-51.051 30.016,-85.333 74.667,-85.333 5.891,0 10.667,4.776 10.667,10.667 0,5.891 -4.776,10.667 -10.667,10.667 -39.36,0 -53.333,34.475 -53.333,64 0,29.525 13.973,64 53.333,64 5.891,-10e-4 10.668,4.773 10.669,10.664 0,0.717 -0.072,1.433 -0.216,2.136 l -18.987,94.421 c -0.823,4.13 0.475,8.397 3.456,11.371 10.089,9.973 15.76,23.574 15.744,37.76 v 7.317 c 0.04,14.153 -5.583,27.735 -15.616,37.717 l -8.832,8.832 c -2.004,1.998 -4.721,3.119 -7.552,3.114 z" />
    </g>
  </g>
</svg>
