<?xml version='1.0' encoding='UTF-8' standalone='no'?>
<!DOCTYPE svg PUBLIC '-//W3C//DTD SVG 1.1//EN' 'http://www.w3.org/Graphics/SVG/1.1/DTD/svg11.dtd'>
<!-- Animated using aniGen version 0.8.1 Quality of Life - http://anigen.org -->
<svg xmlns:dc="http://purl.org/dc/elements/1.1/" xmlns:cc="http://creativecommons.org/ns#" xmlns:rdf="http://www.w3.org/1999/02/22-rdf-syntax-ns#" xmlns:svg="http://www.w3.org/2000/svg" xmlns="http://www.w3.org/2000/svg" xmlns:sodipodi="http://sodipodi.sourceforge.net/DTD/sodipodi-0.dtd" xmlns:inkscape="http://www.inkscape.org/namespaces/inkscape" sodipodi:docname="chardrive.svg" inkscape:version="1.0 (4035a4f, 2020-05-01)" id="svg2385" version="1.1" viewBox="0 0 70 90" height="90mm" width="70mm" preserveAspectRatio="xMidYMid" xmlns:xlink="http://www.w3.org/1999/xlink" xmlns:anigen="http://www.anigen.org/namespace" anigen:version="0.8.1">
  <defs id="defs2379">
    <filter height="1.0034971" y="-0.0017485661" width="1.0038869" x="-0.0019434401" id="filter39359-5-7" style="color-interpolation-filters:sRGB" inkscape:collect="always">
      <feGaussianBlur id="feGaussianBlur39361-3-6" stdDeviation="0.01890388" inkscape:collect="always"></feGaussianBlur>
    </filter>
    <filter height="1.0129975" y="-0.0064987624" width="1.0196074" x="-0.0098036937" id="filter39355-9-0" style="color-interpolation-filters:sRGB" inkscape:collect="always">
      <feGaussianBlur id="feGaussianBlur39357-9-0" stdDeviation="0.10000675" inkscape:collect="always"></feGaussianBlur>
    </filter>
  </defs>
  <sodipodi:namedview inkscape:window-maximized="0" inkscape:window-y="23" inkscape:window-x="0" inkscape:window-height="930" inkscape:window-width="1280" inkscape:snap-global="false" showgrid="false" inkscape:document-rotation="0" inkscape:current-layer="layer1" inkscape:document-units="mm" inkscape:cy="-59.073166387410524" inkscape:cx="29.184445327703067" inkscape:zoom="5.656854249492378" inkscape:pageshadow="2" inkscape:pageopacity="0.0" borderopacity="1.0" bordercolor="#666666" pagecolor="#ffffff" id="base"></sodipodi:namedview>
  <metadata id="metadata2382">
    <rdf:rdf id="rdf:rdf6629">
      <cc:work rdf:about="" id="cc:work2635">
        <dc:format id="dc:format3277">image/svg+xml</dc:format>
        <dc:type rdf:resource="http://purl.org/dc/dcmitype/StillImage" id="dc:type3351"></dc:type>
        <dc:title id="dc:title4058"></dc:title>
      </cc:work>
    </rdf:rdf>
  </metadata>
  <g style="display:inline" id="layer1" inkscape:groupmode="layer" inkscape:label="Layer 1">
    <g transform="matrix(0.44134919,0,0,0.53510337,16.841111,48.179976)" id="g5414">
      <g transform="matrix(0.35277777,0,0,-0.35277777,57.742974,5.4866801)" id="g4202">
        <path id="path4204" style="fill:#010001;fill-opacity:1;fill-rule:nonzero;stroke:none" d="M 0 0 L 0 -12 C -0.858 -16.581 -2.448 -20.749000000000002 -5.275 -24.617 C -7.773000000000001 -28.034 -7.093 -32.465 -6.2170000000000005 -36.231 C -2.7290000000000005 -51.239000000000004 -5.406000000000001 -65.938 -7.715000000000001 -80.696 C -9.072000000000001 -89.372 -10.689 -98.00399999999999 -11.744 -106.727 C -12.427999999999999 -112.381 -13.754 -117.83800000000001 -17.057 -122.629 C -19.967 -127.56700000000001 -24.410999999999998 -129.532 -29.997999999999998 -129.428 C -33.479 -129.36599999999999 -36.964999999999996 -129.428 -40.446999999999996 -129.426 C -50.526999999999994 -129.41799999999998 -53.086 -127.70799999999998 -56.95099999999999 -118.42999999999999 C -58.68899999999999 -114.27799999999999 -59.459999999999994 -109.942 -59.43899999999999 -105.43599999999999 C -59.42999999999999 -103.36 -59.83899999999999 -101.131 -62.49199999999999 -101.264 C -65.17499999999998 -101.39699999999999 -64.49799999999999 -103.866 -64.564 -105.512 C -64.74799999999999 -110.104 -64.27699999999999 -114.739 -65.588 -119.252 C -67.387 -129.172 -74.314 -136.073 -84.72899999999998 -137.989 C -94.10899999999998 -139.715 -102.99599999999998 -137.594 -111.24799999999999 -133.284 C -115.05699999999999 -131.29299999999998 -116.90899999999999 -127.33099999999999 -117.33599999999998 -122.92599999999999 C -117.49199999999999 -116.77799999999999 -118.50899999999999 -110.69599999999998 -118.75399999999999 -104.54699999999998 C -118.86699999999999 -101.67399999999998 -120.014 -99.69199999999998 -123.53899999999999 -99.38899999999998 C -140.154 -97.96499999999997 -146.55499999999998 -91.43399999999998 -147.928 -74.60399999999998 C -149.172 -59.33699999999999 -148.343 -44.072999999999986 -147.559 -28.814999999999984 C -147.369 -25.158999999999985 -147.5 -21.497999999999983 -147.4 -17.840999999999983 C -147.107 -6.996999999999984 -142.723 1.207000000000015 -130.877 3.0260000000000176 C -128.912 3.3280000000000176 -126.986 4.325000000000017 -125.02400000000002 4.178000000000018 C -119.70000000000002 3.778000000000018 -118.16600000000001 6.792000000000018 -117.68700000000001 11.355000000000018 C -116.897 18.863000000000017 -114.08300000000001 25.78100000000002 -111.56800000000001 32.85400000000001 C -108.42500000000001 41.69700000000002 -102.06300000000002 47.027000000000015 -94.549 51.585000000000015 C -92.36200000000001 52.91200000000001 -89.96100000000001 53.47900000000001 -87.411 53.484000000000016 C -79.273 53.78400000000001 -71.11500000000001 52.860000000000014 -63 54.000000000000014 L -54 54.000000000000014 C -40.153 51.868000000000016 -28.112 45.878000000000014 -20.35 34.22700000000002 C -15.435000000000002 26.84800000000002 -10.535000000000002 19.587000000000018 -4.803000000000001 12.831000000000017 C -1.736 9.217 -0.988 4.511 0 0"></path>
      </g>
      <g transform="matrix(0.35277777,0,0,-0.35277777,26.668224,-13.225179)" id="g4210">
        <path id="path4212" style="fill:#232323;fill-opacity:1;fill-rule:evenodd;stroke:none" d="M 0 0 C 0.17 0.307 0.197 0.626 0.086 0.958 L 25.086 0.958 C 21.358 -1.136 17.327 0.236 13.447 0.022 C 8.979 -0.223 4.484 -0.013 0 0"></path>
      </g>
      <g transform="matrix(0.35277777,0,0,-0.35277777,22.762834,-5.8521599)" id="g4214">
        <path id="path4216" style="fill:#e752be;fill-opacity:1;fill-rule:evenodd;stroke:none" d="M 0 0 C 5.453 6.806 11.631 12.419 21.201 11.384 C 30.855 10.341 40.785 12.537 50.2 8.344 C 56.707 5.446 62.273 1.65 66.783 -4.584 C 63.653 -5.168 60.936 -5.393 58.145 -5.154 C 46.785 -4.182 35.604 -5.409 24.625 -8.3 C 18.63 -9.878 14.51 -14.18 13.692 -20.067 C 12.133000000000001 -31.316000000000003 12.303 -42.518 17.736 -53.123 C 22.66 -62.733999999999995 31.459000000000003 -65.818 40.948 -67.255 C 52.711 -69.036 64.03999999999999 -65.515 75.299 -62.708999999999996 C 81.385 -61.19199999999999 81.289 -60.809999999999995 81.057 -67.198 C 81.431 -75.60199999999999 79.5 -83.6 77.063 -91.567 C 74.13 -101.16099999999999 67.379 -106.017 57.92 -107.52099999999999 C 49.011 -108.93799999999999 40.079 -109.62599999999999 31.234 -106.79199999999999 C 29.357000000000003 -106.19099999999999 27.285000000000004 -105.81899999999999 25.328000000000003 -105.88299999999998 C 14.586000000000002 -106.22899999999998 9.777000000000003 -98.94599999999998 5.896000000000004 -90.73599999999998 C -1.3609999999999953 -75.38399999999997 -3.0749999999999957 -58.73399999999997 -4.0799999999999965 -42.14999999999998 C -4.698999999999996 -31.93599999999998 -5.461999999999996 -21.510999999999978 -2.9179999999999966 -11.322999999999976 C -1.854 -7.574 -0.331 -3.941 0 0"></path>
      </g>
      <g transform="matrix(0.35277777,0,0,-0.35277777,22.132385,-1.9168189)" id="g4218">
        <path id="path4220" style="fill:#a728b3;fill-opacity:1;fill-rule:evenodd;stroke:none" d="M 0 0 C -2.762 -17.392 -1 -34.745 1.189 -51.972 C 2.518 -62.423 5.140000000000001 -72.937 10.37 -82.161 C 13.617999999999999 -87.89 17.68 -93.368 26.354 -93.305 C 34.432 -93.244 42.34 -96.811 50.733000000000004 -96.04700000000001 C 57.029 -95.47300000000001 63.260000000000005 -94.83700000000002 68.921 -91.82200000000002 C 72.91600000000001 -89.69600000000001 75.426 -86.13600000000002 76.80300000000001 -81.93300000000002 C 79.32900000000001 -74.23000000000002 81.635 -66.45800000000003 82.00000000000001 -58.26300000000002 C 82.03300000000002 -57.51100000000002 82.55100000000002 -56.78100000000002 82.84400000000001 -56.042000000000016 C 84.67800000000001 -69.79000000000002 84.09400000000001 -83.39600000000002 82.26500000000001 -97.18900000000002 C 80.72300000000001 -108.81700000000002 75.65000000000002 -119.84400000000002 77.05900000000001 -132.02400000000003 C 77.766 -138.14300000000003 75.406 -139.91800000000003 69.28600000000002 -140.49700000000004 C 67.13800000000002 -140.70000000000005 64.96000000000002 -140.62500000000003 62.796000000000014 -140.62500000000003 C 55.44300000000001 -140.63100000000003 52.52300000000001 -137.60800000000003 52.88900000000001 -130.07500000000002 C 53.02400000000001 -127.27200000000002 53.74900000000001 -124.50000000000001 53.99900000000001 -121.69600000000001 C 54.14600000000001 -120.049 55.42800000000001 -120.16700000000002 56.37700000000001 -119.63300000000001 C 59.418000000000006 -117.92200000000001 62.43600000000001 -116.168 65.40800000000002 -114.34400000000001 C 66.37300000000002 -113.75200000000001 67.17200000000001 -112.891 68.42000000000002 -111.84 C 65.46700000000001 -110.69 62.98900000000002 -111.911 60.52500000000002 -111.94200000000001 C 52.03100000000002 -112.05300000000001 43.57000000000002 -111.977 35.18400000000002 -110.21100000000001 C 28.22300000000002 -108.74600000000001 25.846000000000018 -110.82500000000002 24.47900000000002 -117.73500000000001 C 23.19700000000002 -124.21900000000001 23.736000000000022 -130.65900000000002 24.03300000000002 -137.114 C 24.154000000000018 -139.752 23.305000000000017 -141.452 21.28300000000002 -143.053 C 14.36900000000002 -148.532 5.044000000000018 -149.321 -2.5819999999999794 -145.028 C -4.073999999999979 -144.188 -4.583999999999979 -143.22899999999998 -4.809999999999979 -141.551 C -9.23599999999998 -108.63399999999999 -9.644999999999978 -75.55399999999999 -8.576999999999979 -42.44699999999999 C -8.326999999999979 -34.70799999999999 -10.076999999999979 -26.776999999999987 -7.144999999999978 -19.19099999999999 C -6.851999999999978 -18.430999999999987 -6.454999999999979 -17.709999999999987 -6.106999999999978 -16.97099999999999 C -4.285999999999978 -12.31699999999999 -4.774999999999978 -7.17199999999999 -3.028999999999978 -2.50199999999999 C -2.5 -1.086 -2.709 1.223 0 0"></path>
      </g>
      <g transform="matrix(0.35277777,0,0,-0.35277777,15.359335,12.554302)" id="g4222">
        <path id="path4224" style="fill:#a628b2;fill-opacity:1;fill-rule:evenodd;stroke:none" d="M 0 0 C 0.045 -15.624 -0.006 -31.249 0.185 -46.87 C 0.256 -52.677 0.8220000000000001 -58.483 1.3050000000000002 -64.277 C 1.5150000000000001 -66.798 0.7850000000000001 -67.75 -1.9139999999999997 -67.876 C -10.686 -68.283 -14.61 -64.626 -16.073999999999998 -55.876000000000005 C -19.049 -38.08200000000001 -16.755 -20.398000000000003 -15.725999999999997 -2.676000000000002 C -15.688999999999997 -2.065000000000002 -15.244999999999997 -1.4790000000000019 -14.990999999999998 -0.881000000000002 C -11.515999999999998 -0.607000000000002 -8.159999999999997 0.43399999999999794 -4.682999999999998 0.719999999999998 C -3.043 0.855 -1.381 1.431 0 0"></path>
      </g>
      <g transform="matrix(0.35277777,0,0,-0.35277777,54.237245,5.8230901)" id="g4226">
        <path id="path4228" style="fill:#4b646e;fill-opacity:1;fill-rule:evenodd;stroke:none" d="M 0 0 C 1.711 -6.421 -1.25 -13.298 -8.363 -16.717 C -20.369 -22.487 -32.977000000000004 -25.872 -46.473 -22.907 C -53.607 -21.339 -59.269999999999996 -17.11 -63.686 -11.613 C -68.972 -5.0329999999999995 -67.082 9.792000000000002 -60.887 14.769000000000002 C -58.678 13.645000000000001 -58.365 11.413000000000002 -57.757 9.369000000000002 C -54.123 -2.853999999999999 -48.977999999999994 -6.737 -36.156 -6.667 C -27.698999999999998 -6.622 -19.326 -5.468999999999999 -10.942999999999998 -4.474 C -6.857 -3.99 -3.66 -1.458 0 0"></path>
      </g>
      <g transform="matrix(0.35277777,0,0,-0.35277777,54.237245,5.8230901)" id="g4230">
        <path id="path4232" style="fill:#98c7dd;fill-opacity:1;fill-rule:evenodd;stroke:none" d="M 0 0 C -2.455 -4.529 -7.092 -5.521 -11.401 -6.032 C -20.445 -7.106 -29.527 -8.063 -38.681 -7.962 C -49.379 -7.843999999999999 -55.67 -3.135 -58.547 7.167 C -59.26 9.719999999999999 -60.104 12.236 -60.887 14.769 C -54.844 16.29 -48.738 17.475 -42.531 18.096 C -40.769999999999996 18.662 -39.381 18.314 -38.594 16.496 C -38.256 14.639999999999999 -39.56 13.406999999999998 -40.334 11.969999999999999 C -42.039 8.803999999999998 -40.939 6.5219999999999985 -37.627 6.073999999999999 C -29.897000000000002 5.025999999999999 -22.141000000000002 4.0859999999999985 -14.297000000000004 4.248999999999999 C -10.891000000000004 4.318999999999999 -10.600000000000005 7.063999999999998 -9.496000000000004 9.190999999999999 C -8.533000000000005 10.248 -7.496000000000004 10.957999999999998 -6.082000000000004 9.944999999999999 C -2.51 7.575 -0.814 4.057 0 0"></path>
      </g>
      <g transform="matrix(0.35277777,0,0,-0.35277777,15.359335,12.554302)" id="g4234">
        <path id="path4236" style="fill:#e453bd;fill-opacity:1;fill-rule:evenodd;stroke:none" d="M 0 0 C -4.102 -0.708 -8.412 -0.354 -12.281 -2.214 C -13.954 -3.018 -14.664000000000001 -2.4939999999999998 -14.99 -0.8799999999999999 C -14.851 0.43100000000000005 -14.781 1.755 -14.559000000000001 3.053 C -13.124 11.401 -8.945 14.082999999999998 -0.6260000000000012 12.314 C 1.479 11.867 0.965 10.527 0.885 9.359 C 0.674 6.234 0.306 3.119 0 0"></path>
      </g>
      <g transform="matrix(0.35277777,0,0,-0.35277777,40.46787,0.23307911)" id="g4238">
        <path id="path4240" style="fill:#9cc5cf;fill-opacity:1;fill-rule:evenodd;stroke:none" d="M 0 0 C -0.615 1.607 -1.936 2.118 -3.5 2.25 C 9.833 4.826 22.121 2.727 32.949 -5.9 C 31.891 -6.251 30.831 -6.603 29.771 -6.954 C 22.35 -3.703 14.773 -1.107 6.52 -1.139 C 4.305 -1.147 1.846 -2.227 0 0"></path>
      </g>
      <g transform="matrix(0.35277777,0,0,-0.35277777,22.132385,-1.9168189)" id="g4242">
        <path id="path4244" style="fill:#9e2e9e;fill-opacity:1;fill-rule:evenodd;stroke:none" d="M 0 0 C -3.73 -2.687 -3.418 -6.936 -3.984 -10.76 C -4.318 -13.015 -3.975 -15.375 -6.107 -16.971 C -5.705 -6.969 -2.695 2.3 1.787 11.156 C 2.123 7.288 1.927 3.505 0 0"></path>
      </g>
      <g transform="matrix(0.35277777,0,0,-0.35277777,40.46787,0.23307911)" id="g4246">
        <path id="path4248" style="fill:#fbfdfd;fill-opacity:1;fill-rule:evenodd;stroke:none" d="M 0 0 C 7.014 -0.179 13.967 -0.125 20.908 -2.068 C 24.465 -3.064 27.078000000000003 -4.8629999999999995 29.773000000000003 -6.952999999999999 C 30.396000000000004 -11.135 28.926000000000002 -13.268999999999998 24.373000000000005 -12.922 C 17.010000000000005 -12.362 9.576000000000004 -12.414000000000001 2.2740000000000045 -11.435 C -4.636999999999995 -10.508000000000001 -5.628999999999995 -6.604 -0.8909999999999956 -1.1870000000000012 C -0.565 -0.816 -0.295 -0.397 0 0"></path>
      </g>
    <animateTransform attributeName="transform" attributeType="auto" type="skewX" values="-5;0;-5" calcMode="spline" keyTimes="0;0.5;1" keySplines="0 0 1 1;0 0 1 1" dur="1.85s" begin="0s" repeatCount="indefinite" additive="sum" accumulate="none" fill="freeze" id="animateTransform5315"></animateTransform><animateTransform attributeName="transform" attributeType="auto" type="translate" values="0 0;-5 0;0 0" calcMode="spline" keyTimes="0;0.5;1" keySplines="0 0 1 1;0 0 1 1" dur="1.85s" begin="0s" repeatCount="indefinite" additive="sum" accumulate="none" fill="freeze" id="animateTransform7017"></animateTransform></g>
    <g transform="matrix(0.39638071,-0.19409131,0.19409131,0.39638071,41.176511,62.524185)" id="g1653">
      <polygon id="polygon3309" points="503.872,15.246 423.216,71.132 401.111,55.883 398.111,40.005 " style="fill:#3a88d6" transform="matrix(0.15442865,0.11434494,-0.11434494,0.15442865,-20.470369,-73.89374)"></polygon>
      <polygon id="polygon3311" points="273.592,294.751 246.971,276.382 285.289,221.569 401.111,55.883 423.216,71.132 311.521,238.064 " style="fill:#f7b239" transform="matrix(0.15442865,0.11434494,-0.11434494,0.15442865,-20.470369,-73.89374)"></polygon>
      <polygon id="polygon3313" points="190.966,397.598 8.124,411.678 284.943,221.33 285.289,221.569 246.971,276.382 273.592,294.751 311.521,238.064 311.976,238.367 250.014,496.752 " style="fill:#3a88d6" transform="matrix(0.15442865,0.11434494,-0.11434494,0.15442865,-20.470369,-73.89374)"></polygon>
      <g id="g3325" transform="matrix(0.15442865,0.11434494,-0.11434494,0.15442865,-20.470369,-73.89374)" style="fill:#000000">
        <path id="path3315" d="M 511.3,11.948 C 509.717,8.383 505.823,6.447 502.026,7.335 L 396.259,32.091 c -4.236,0.992 -6.939,5.145 -6.13,9.419 L 392.498,54.029 280.109,214.794 3.521,404.98 c -3.027,2.082 -4.28,5.935 -3.056,9.399 1.224,3.464 4.616,5.672 8.282,5.393 l 177.813,-13.687 56.477,94.827 c 1.479,2.483 4.146,3.967 6.977,3.967 0.405,0 0.814,-0.03 1.223,-0.092 3.268,-0.497 5.908,-2.923 6.678,-6.137 L 319.83,240.256 429.114,76.929 508.503,21.923 c 3.206,-2.222 4.381,-6.409 2.797,-9.975 z m -108.154,55.203 8.869,6.118 -140.591,210.117 -13.117,-9.049 z M 246.775,475.438 197.94,393.442 c -1.579,-2.651 -4.528,-4.183 -7.603,-3.942 L 37.609,401.257 253.569,252.76 240.308,271.729 c -1.239,1.773 -1.72,3.967 -1.336,6.095 0.384,2.128 1.601,4.016 3.381,5.245 l 26.627,18.369 c 1.367,0.942 2.977,1.436 4.613,1.436 0.508,0 1.017,-0.048 1.523,-0.144 2.136,-0.407 4.019,-1.655 5.228,-3.461 L 293.866,279.06 Z M 423.21,61.255 408.475,51.09 407.538,46.136 464.155,32.885 Z" style="fill:#000000"></path>
        <path id="path3317" d="m 223.026,367.896 -26.628,-18.368 c -3.694,-2.547 -8.752,-1.618 -11.298,2.074 -2.547,3.693 -1.618,8.751 2.075,11.298 l 26.628,18.368 c 1.408,0.971 3.014,1.437 4.604,1.437 2.58,0 5.119,-1.227 6.694,-3.511 2.547,-3.691 1.618,-8.75 -2.075,-11.298 z" style="fill:#000000"></path>
        <path id="path3319" d="m 210.89,328.591 26.629,18.366 c 1.408,0.971 3.014,1.437 4.604,1.437 2.581,0 5.119,-1.227 6.694,-3.511 2.547,-3.693 1.618,-8.752 -2.075,-11.298 l -26.629,-18.366 c -3.695,-2.547 -8.753,-1.618 -11.298,2.075 -2.548,3.692 -1.619,8.75 2.075,11.297 z" style="fill:#000000"></path>
        <path id="path3321" d="m 244.88,413.703 c -2.674,-6.474 -12.133,-6.578 -14.939,-0.147 -1.375,3.154 -0.581,6.956 1.978,9.268 2.736,2.472 6.901,2.768 9.971,0.735 3.168,-2.098 4.47,-6.348 2.99,-9.856 -0.205,-0.498 0.206,0.487 0,0 z" style="fill:#000000"></path>
        <path id="path3323" d="m 252.494,389.345 c -1.403,-3.398 -5.05,-5.476 -8.692,-4.93 -3.275,0.491 -5.961,2.984 -6.712,6.204 -1.575,6.757 5.89,12.307 11.911,8.894 3.504,-1.987 5.065,-6.442 3.493,-10.168 -0.206,-0.498 0.206,0.487 0,0 z" style="fill:#000000"></path>
      </g>
      <path id="path3327" d="m -48.833603,-2.4934876 c -0.399198,-0.2955816 -0.650802,-0.775965 -0.632218,-1.3099687 0.03006,-0.8614331 0.753118,-1.535392 1.614437,-1.5051763 l 25.689519,0.8989 c 0.861742,0.03029 1.535392,0.7531176 1.505445,1.6143963 -0.03006,0.8614331 -0.753118,1.535392 -1.614436,1.5051763 l -25.68952,-0.8989 c -0.327812,-0.011282 -0.628303,-0.1230765 -0.873227,-0.3044276 z" style="fill:#ffffff;stroke-width:0.192154"></path>
    </g>
    <g transform="matrix(0.44134919,0,0,0.44134919,49.369353,14.70361)" id="g1598">
      <path sodipodi:nodetypes="ccccccscscscssccsscc" style="display:inline;fill:#e752be;fill-opacity:1;stroke-width:0.0526056" d="M -52.421541 113.2498 L -55.570702999999995 110.67299 L -47.475663 103.44421 L -45.333977 107.73254 L -44.15698 109.1957 L -43.607198 109.29585 L -34.032354999999995 121.19863000000001 C -33.708892 121.60074 -33.579257 122.09550000000002 -33.631125999999995 122.57060000000001 C -33.68222599999999 123.04581000000002 -33.914930999999996 123.50131000000002 -34.316995999999996 123.82474000000002 C -35.120718999999994 124.47127000000002 -36.296603999999995 124.34378000000002 -36.94313399999999 123.54006000000003 L -36.46334699999999 124.13649000000002 C -36.13991699999999 124.53856000000002 -36.01024999999999 125.03337000000002 -36.06175799999999 125.50891000000003 C -36.11288799999999 125.98409000000002 -36.34556099999999 126.43962000000003 -36.74762499999999 126.76305000000004 C -37.551756999999995 127.40991000000004 -38.72768399999999 127.28245000000004 -39.37421599999999 126.47873000000004 L -40.257952999999986 125.38013000000004 C -39.93452199999999 125.78220000000003 -39.804853999999985 126.27700000000004 -39.856723999999986 126.75210000000004 C -39.907823999999984 127.22731000000005 -40.14093699999999 127.68314000000004 -40.54259299999998 128.00624000000005 C -41.346316999999985 128.65277000000006 -42.52224299999998 128.52531000000005 -43.16874199999998 127.72163000000005 L -46.96880099999998 122.99766000000005 C -50.26578199999998 118.65584000000005 -53.64338599999998 117.52623000000006 -52.421540999999976 113.24980000000005 Z" fill="#e49542" id="path37603-9-5"></path>
      <path id="path37605-1-6" d="M 23.695261 236.32554 L 4.4924782 236.1919 L 4.7597485 218.46909 L 22.275322 222.28058 L 24.443787999999998 222.28058 C 23.956705 223.81088 23.695261 225.4417 23.695261 227.13508 Z" sodipodi:nodetypes="cccccsc" style="display:inline;fill:#a728b3;fill-opacity:1;stroke-width:0.196722;filter:url(#filter39359-5-7)" transform="matrix(0.16761128,0.20836266,-0.20836266,0.16761128,-2.75265,65.834572)"></path>
      <path id="path37609-59-2" d="M 57.799959 234.88278 L 90.866161 234.88278 C 92.79462600000001 234.88278 94.542107 235.66514 95.807029 236.9283 C 97.07018 238.19322 97.852544 239.93893 97.852544 241.86916 C 97.852544 242.92830999999998 97.61667399999999 243.93415 97.194312 244.83356999999998 C 96.848278 244.09546999999998 96.376539 243.42681 95.807029 242.85729999999998 C 94.542107 241.59414999999998 92.794626 240.81177999999997 90.866161 240.81177999999997 L 63.728764 240.81177999999997 C 60.454328 240.81177999999997 57.799959 238.15740999999997 57.799959 234.88277999999997 Z" style="display:inline;fill:#a628b2;fill-opacity:1;stroke-width:0.196722;filter:url(#filter39355-9-0)" transform="matrix(0.16761128,0.20836266,-0.20836266,0.16761128,-2.75265,65.834572)"></path>
      <path id="path37611-8-8" d="M -44.588784 119.99618 L -40.257937 125.37997999999999 C -39.934705 125.78179999999999 -39.804823999999996 126.27704999999999 -39.856002 126.75232999999999 C -39.907841999999995 127.22753999999999 -40.140452999999994 127.68314999999998 -40.542643 128.00668 C -40.763331 128.18420999999998 -41.012445 128.30364999999998 -41.270641 128.3664 C -41.174851 128.17058 -41.114591999999995 127.96021999999999 -41.091384 127.74609 C -41.040203999999996 127.27081 -41.170083999999996 126.77557 -41.493319 126.37375 L -44.830432 122.22528 C -45.379225000000005 121.54298 -45.271055000000004 120.54501 -44.588784000000004 119.99618 Z" style="display:inline;fill:#a628b2;fill-opacity:1;stroke-width:0.0526056"></path>
      <path style="display:inline;fill:#e752be;fill-opacity:1;stroke-width:0.0526056" d="M -37.232344 116.45369 C -36.309588999999995 115.71141 -36.163283 114.3616 -36.905567999999995 113.43884 L -40.077881 109.49524 C -41.562483 107.64968999999999 -44.262074 107.35712 -46.107586 108.84169 L -40.247228 116.12688 C -39.504912 117.04967 -38.155099 117.19598 -37.232344 116.45369 Z" fill="#e49542" id="path37617-3-5"></path>
      <path sodipodi:nodetypes="cscsccscc" id="path37607-09-9" d="M -42.189775 111.22843 L -34.032143999999995 121.19839 C -33.70556799999999 121.5975 -33.579029 122.09545 -33.630207 122.57074 C -33.682047 123.04594 -33.914657999999996 123.50156 -34.316848 123.82509 C -34.537535 124.00262000000001 -34.786649 124.12206 -35.044846 124.18481 C -34.949056 123.98899 -34.888797 123.77862 -34.865589 123.5645 C -34.814409 123.08922 -34.944289 122.59398 -35.267526 122.19216 L -41.6684 113.83595 Z" style="display:inline;fill:#a628b2;fill-opacity:1;stroke-width:0.0526056"></path>
      <path style="display:inline;fill:#a728b3;fill-opacity:1;stroke-width:0.0526056" d="M -45.681925 108.53979 C -43.866877 107.40912 -41.452089 107.78692 -40.078013999999996 109.49508 L -36.905533999999996 113.43888 C -36.163348 114.36152 -36.309678999999996 115.71155 -37.232310999999996 116.45373 C -37.468165 116.64345999999999 -37.731778 116.77516999999999 -38.005877999999996 116.85072 C -37.620006999999994 116.11713999999999 -37.680108999999995 115.19315999999999 -38.232569 114.50638 L -41.774376 110.10345 C -42.74879 108.89213 -44.246207999999996 108.34991 -45.681925 108.53979 Z" fill="#e27d47" id="path37619-0-4"></path>
      <path sodipodi:nodetypes="ccssccsccsssssssscscssssscccsccsssscsccssccsscsccscscsssccc" style="display:inline;stroke-width:0.0526056" d="M -45.005224 107.51143 L -45.62076 106.40448 C -45.726653999999996 106.21401 -45.966882 106.14551 -46.157317 106.25137000000001 C -46.177377 106.26257000000001 -46.195987 106.27517 -46.213246999999996 106.28897 C -46.36019399999999 106.40718000000001 -46.40513299999999 106.61745 -46.310387 106.78786000000001 L -45.678545 107.92422 C -45.667695 107.94372 -45.655185 107.96232 -45.641145 107.97982 L -45.595775 108.03622 C -45.245236000000006 108.58874 -45.203349 108.77003 -45.039806000000006 108.66737 C -43.656114 107.64603000000001 -41.731238000000005 108.06945 -40.38538700000001 109.74252 L -37.21307200000001 113.68612 C -36.608317000000014 114.43791 -36.79827600000001 116.00206 -37.47972500000001 116.14625000000001 C -37.86784400000001 116.22835 -38.01200000000001 115.56706000000001 -38.61675400000001 114.81527000000001 L -41.65170500000001 111.04243000000001 C -41.788278000000005 110.87265000000001 -42.03660300000001 110.84570000000001 -42.20642300000001 110.98233 C -42.37624100000001 111.11893 -42.403121000000006 111.36726 -42.266543000000006 111.53704 L -39.231592000000006 115.30988 C -38.546780000000005 116.16119 -39.231592000000006 115.30988 -37.76441400000001 117.18842000000001 L -34.33972500000001 121.44575 C -34.09285700000001 121.75264 -33.98060200000001 122.13676000000001 -34.02371500000001 122.52831 C -34.06578500000001 122.91958000000001 -34.25778500000001 123.27082 -34.56430600000001 123.51740000000001 C -35.19697800000001 124.02633000000002 -36.12557400000001 123.92602000000001 -36.63505800000001 123.29392000000001 C -36.63539300000001 123.29350000000001 -36.63552100000001 123.29326000000002 -36.63585700000001 123.29292000000001 L -41.69827200000001 116.99968000000001 C -41.83484700000001 116.82989 -42.08317000000001 116.80294 -42.25298900000001 116.93958 C -42.42280900000001 117.07618000000001 -42.449689000000006 117.32452 -42.31311900000001 117.49430000000001 L -36.77109600000001 124.38392 C -36.52439400000001 124.6906 -36.41186600000001 125.07497000000001 -36.454314000000004 125.4666 C -36.496304 125.8578 -36.688311000000006 126.20912 -36.99479 126.45566 C -37.628077000000005 126.96508999999999 -38.557825 126.86435 -39.067256 126.23106 L -44.424523 119.57103 C -44.561096 119.40124999999999 -44.809419 119.37429999999999 -44.979239 119.51092999999999 C -45.149058 119.64752999999999 -45.175939 119.89586999999999 -45.039369 120.06563999999999 L -40.567233 125.62508999999999 C -40.566563 125.62592999999998 -40.566033000000004 125.62708999999998 -40.565433 125.62708999999998 C -40.318664 125.93384999999998 -40.206227 126.31801999999998 -40.248937999999995 126.70932999999998 C -40.291008 127.10058999999998 -40.483172999999994 127.45196999999997 -40.789981 127.69876999999998 C -41.422818 128.20783999999998 -42.351988999999996 128.10698 -42.861253999999995 127.47388999999998 L -47.666425999999994 121.50086999999998 C -47.80299899999999 121.33108999999997 -48.051323 121.30412999999997 -48.22114299999999 121.44076999999997 C -48.39096299999999 121.57736999999997 -48.41784099999999 121.82570999999997 -48.28126299999999 121.99548999999998 L -44.566051999999985 126.61397999999997 C -43.89609199999998 127.42591999999998 -45.07814299999998 125.95105999999997 -43.48980799999998 127.95145999999997 L -43.47609799999998 127.96845999999996 C -42.69411399999998 128.94056999999995 -41.26724899999998 129.09536999999997 -40.29538899999998 128.31358999999998 C -39.862744999999975 127.96555999999998 -39.578550999999976 127.48207999999998 -39.48497799999998 126.94049999999997 C -38.67694399999998 127.71610999999997 -37.39560699999998 127.79029999999997 -36.50019099999998 127.07000999999997 C -36.02926199999998 126.69118999999996 -35.73430199999998 126.15151999999996 -35.66967399999998 125.55078999999996 C -35.63488399999998 125.22978999999997 -35.66797399999998 124.91182999999997 -35.764173999999976 124.61341999999996 C -35.17819599999998 124.68551999999997 -34.56484799999998 124.53021999999996 -34.069612999999976 124.13180999999996 C -33.59868399999998 123.75297999999997 -33.303723999999974 123.21331999999995 -33.239126999999975 122.61320999999995 C -33.17305699999997 122.01258999999995 -33.345529999999975 121.42218999999996 -33.72481499999998 120.95068999999995 L -37.05338799999998 116.81283999999995 C -37.030457999999975 116.79573999999995 -37.00752799999998 116.77873999999996 -36.98506799999998 116.76063999999995 C -35.89429699999998 115.88319999999996 -35.72069399999998 114.28187999999996 -36.59816799999998 113.19106999999995 L -39.77048099999998 109.24746999999995 C -41.015073999999984 107.70027999999995 -43.04908399999998 107.15369999999994 -44.837445999999986 107.71954999999996 L -45.00524499999999 107.51094999999995 Z" id="path37623-7-3"></path>
      <path sodipodi:nodetypes="sssssccccccccssssccs" style="display:inline;stroke-width:0.0526056" d="M -52.206212 117.20782 L -45.061004 125.86219 C -44.922273999999994 126.03022 -44.720287 126.23205 -44.550467999999995 126.09545 C -44.380647999999994 125.95884 -44.35377 125.71051 -44.490348 125.54073 L -51.591373 116.71323 C -52.281858 115.85486999999999 -52.501371 114.71257 -52.178433 113.65762 C -52.133092999999995 113.50962 -52.178525 113.34881999999999 -52.29456 113.24637 L -55.570707 110.67299 L -47.490156999999996 104.17282 L -46.190199 106.51095000000001 C -46.084303 106.70143 -45.844117 106.76997000000001 -45.653642 106.66407000000001 C -45.463128 106.55848 -45.394704 106.31798 -45.500566 106.12755000000001 L -47.027972 103.38036000000001 C -47.084482 103.27870000000001 -47.182983 103.20711000000001 -47.297126 103.18483 C -47.41126 103.16253 -47.529437 103.19183000000001 -47.620065 103.26463000000001 L -56.430023 110.35154000000001 C -56.520652999999996 110.42444000000002 -56.574506 110.53366000000001 -56.577151 110.64989000000001 C -56.579851 110.76619000000001 -56.531011 110.87770000000002 -56.443837 110.95468000000001 L -53.000705 113.67548000000001 C -53.295819 114.90937000000001 -53.019375000000004 116.22293 -52.206216000000005 117.20783 Z" id="path37625-68-9"></path>
    <animateTransform attributeName="transform" attributeType="auto" type="translate" values="0 0;12.359617803100317 8.434919309929608;-0.8581055374955407 6.83277102622104;6.7520988101202475 14.442975373836829;0 0" calcMode="spline" keyTimes="0;0.29;0.5314;0.756328;1" keySplines=".25 0 .75 1;.25 0 .75 1;.25 0 .75 1;.25 0 .75 1" dur="1.85s" begin="0s" repeatCount="indefinite" additive="sum" accumulate="none" fill="freeze" id="animateTransform4682"></animateTransform></g>
  </g>
</svg>