<?xml version="1.0" encoding="UTF-8" standalone="no"?>
<svg
   xmlns:dc="http://purl.org/dc/elements/1.1/"
   xmlns:cc="http://creativecommons.org/ns#"
   xmlns:rdf="http://www.w3.org/1999/02/22-rdf-syntax-ns#"
   xmlns:svg="http://www.w3.org/2000/svg"
   xmlns="http://www.w3.org/2000/svg"
   xmlns:sodipodi="http://sodipodi.sourceforge.net/DTD/sodipodi-0.dtd"
   xmlns:inkscape="http://www.inkscape.org/namespaces/inkscape"
   sodipodi:docname="charguitar.svg"
   inkscape:version="1.0 (4035a4f, 2020-05-01)"
   id="svg2385"
   version="1.1"
   viewBox="0 0 70 90"
   height="90mm"
   width="70mm">
  <defs
     id="defs2379">
    <filter
       height="1.0034971"
       y="-0.0017485661"
       width="1.0038869"
       x="-0.0019434401"
       id="filter39359-55-6"
       style="color-interpolation-filters:sRGB"
       inkscape:collect="always">
      <feGaussianBlur
         id="feGaussianBlur39361-4-2"
         stdDeviation="0.01890388"
         inkscape:collect="always" />
    </filter>
    <filter
       height="1.0129975"
       y="-0.0064987624"
       width="1.0196074"
       x="-0.0098036937"
       id="filter39355-1-4"
       style="color-interpolation-filters:sRGB"
       inkscape:collect="always">
      <feGaussianBlur
         id="feGaussianBlur39357-8-7"
         stdDeviation="0.10000675"
         inkscape:collect="always" />
    </filter>
  </defs>
  <sodipodi:namedview
     inkscape:window-maximized="0"
     inkscape:window-y="23"
     inkscape:window-x="0"
     inkscape:window-height="930"
     inkscape:window-width="1280"
     inkscape:snap-global="false"
     showgrid="false"
     inkscape:document-rotation="0"
     inkscape:current-layer="layer1"
     inkscape:document-units="mm"
     inkscape:cy="247.48025"
     inkscape:cx="148.69272"
     inkscape:zoom="2.8"
     inkscape:pageshadow="2"
     inkscape:pageopacity="0.0"
     borderopacity="1.0"
     bordercolor="#666666"
     pagecolor="#ffffff"
     id="base" />
  <metadata
     id="metadata2382">
    <rdf:RDF>
      <cc:Work
         rdf:about="">
        <dc:format>image/svg+xml</dc:format>
        <dc:type
           rdf:resource="http://purl.org/dc/dcmitype/StillImage" />
        <dc:title />
      </cc:Work>
    </rdf:RDF>
  </metadata>
  <g
     style="display:inline"
     id="layer1"
     inkscape:groupmode="layer"
     inkscape:label="Layer 1">
    <g
       transform="matrix(0.16867299,0,0,-0.20324589,-16.808335,200.57907)"
       id="g6177">
      <g
         transform="translate(224.002,655.8745)"
         id="g4513">
        <path
           id="path4515"
           style="fill:#000001;fill-opacity:1;fill-rule:nonzero;stroke:none"
           d="m 0,0 v 25 c 0.783,8.753 1.114,17.535 0.954,26.309 -0.238,12.993 5.029,20.045 17.451,21.98 1.149,0.179 2.262,0.685 3.419,0.721 7.382,0.236 7.479,-0.02 8.653,8.541 1.338,9.759 4.399,19.069 9.654,27.125 5.545,8.503 13.56,14.764 24.574,14.753 10.483,-0.011 21.17,1.514 31.414,-0.646 16.295,-3.436 29.765,-11.479 36.382,-27.939 0.702,-1.744 1.561,-3.329 3.061,-4.472 C 142.664,85.962 146.687,78.773 148,70 V 58 c -0.857,-4.582 -2.449,-8.748 -5.276,-12.616 -2.499,-3.417 -1.818,-7.849 -0.943,-11.614 3.49,-15.008 0.813,-29.708 -1.496,-44.465 -1.357,-8.675 -2.975,-17.309 -4.03,-26.031 -0.684,-5.654 -2.009,-11.111 -5.312,-15.903 -2.911,-4.937 -7.355,-6.902 -12.941,-6.799 -3.481,0.064 -6.967,0 -10.449,0.004 -10.08,0.008 -12.639,1.717 -16.504,10.994 -1.737,4.153 -2.508,8.489 -2.487,12.996 0.01,2.076 -0.4,4.302 -3.054,4.172 -2.683,-0.133 -2.006,-2.601 -2.072,-4.247 -0.184,-4.593 0.287,-9.227 -1.024,-13.741 -1.8,-9.916 -8.701,-16.799 -19.113,-18.732 -9.371,-1.742 -18.246,0.395 -26.502,4.669 -3.818,1.975 -5.675,5.928 -6.125,10.321 -0.103,6.134 -1.219,12.191 -1.382,18.326 -0.093,3.508 -1.781,5.723 -5.629,5.232 C 11.435,-30.994 2.473,-21.406 0.996,-8.773 0.654,-5.851 0.983,-2.847 0,0" />
      </g>
      <g
         transform="translate(278.916,763.9399)"
         id="g4521">
        <path
           id="path4523"
           style="fill:#1125da;fill-opacity:1;fill-rule:evenodd;stroke:none"
           d="M 0,0 C 4.33,4.463 9.598,6.156 15.766,5.673 20.904,5.272 26.066,5.136 31.222,4.998 41.741,4.717 50.52,0.653 57.682,-6.994 c 0.773,-0.826 2.197,-1.556 1.796,-2.781 -0.496,-1.512 -2.195,-1.299 -3.468,-1.279 -9.649,0.157 -19.314,0.781 -28.864,-1.273 -3.248,-0.699 -6.652,-0.992 -9.712,-2.173 -5.475,-2.115 -9.455,-6.366 -10.01,-12.132 -1.135,-11.785 -1.293,-23.531 5.312,-34.341 2.813,-4.602 6.86,-7.032 11.329,-9.223 10.695,-5.244 21.71,-3.689 32.724,-1.366 4.388,0.926 8.893,1.636 13.051,3.215 4.277,1.626 5.931,0.958 5.207,-3.736 -0.682,-5.881 -0.295,-11.815 -1.818,-17.678 -4.743,-18.254 -11.119,-23.457 -29.8,-24.764 -10.84,-0.759 -21.103,2.241 -31.511,4.046 -5.971,1.035 -8.68,7.071 -11.161,11.994 -5.503,10.922 -7.889,22.7 -9.426,34.886 -1.403,11.124 -1.272,22.192 -1.792,33.294 -0.393,8.397 2.62,15.984 4.424,23.846 C -5.389,-3.636 -2.266,-1.946 0,0" />
      </g>
      <g
         transform="translate(278.916,763.9399)"
         id="g4525">
        <path
           id="path4527"
           style="fill:#070b93;fill-opacity:1;fill-rule:evenodd;stroke:none"
           d="m 0,0 c -8.045,-7.487 -7.949,-17.759 -8.84,-27.432 -1.3,-14.113 0.006,-28.303 2.215,-42.2 2.143,-13.486 5.277,-27.01 15.19,-37.614 1.144,-1.224 2.208,-1.885 3.72,-2.028 10.34,-0.987 20.347,-5.114 30.906,-3.702 4.866,0.652 9.813,0.578 14.591,2.573 5.694,2.377 9.15,6.464 11.261,11.856 2.919,7.458 4.25,15.316 5.037,23.263 0.113,1.142 -0.129,2.367 0.967,3.202 1.703,-15.267 1.207,-30.348 -1.328,-45.606 -1.803,-10.852 -6.373,-21.372 -4.698,-32.827 0.514,-3.507 -1.505,-6.117 -5.685,-6.836 -4.173,-0.718 -8.306,-0.628 -12.438,-0.449 -5.22,0.225 -4.457,5.122 -5.635,8.249 -1.154,3.06 0.901,6.178 0.829,9.338 -0.099,4.368 4.148,3.587 6.304,5.251 2.444,1.884 5.593,2.866 7.451,5.834 -2.665,2.058 -5.202,0.08 -7.679,0.084 -8.152,0.009 -16.273,-0.046 -24.322,1.727 -7.288,1.605 -9.661,-0.34 -11.057,-7.518 -0.992,-5.098 -1.187,-10.121 -0.853,-15.293 0.564,-8.728 -4.461,-14.09 -13.315,-14.755 -3.373,-0.253 -6.623,0.374 -9.805,1.44 -3.859,1.291 -5.174,3.7 -5.906,8.001 -1.789,10.505 -0.724,21.263 -3.33,31.641 -0.357,1.427 -0.334,2.972 -0.336,4.463 -0.017,19.329 0.334,38.665 -0.117,57.984 -0.348,14.912 2.072,29.418 6.127,43.509 C -8.894,-11.408 -8.158,-3.133 0,0" />
      </g>
      <g
         transform="translate(251.8672,705.8843)"
         id="g4529">
        <path
           id="path4531"
           style="fill:#070c91;fill-opacity:1;fill-rule:evenodd;stroke:none"
           d="m 0,0 c 0.041,-14.802 0.062,-29.604 0.131,-44.407 0.027,-5.646 0.189,-11.268 0.858,-16.906 0.779,-6.562 -1.63,-8.281 -8.034,-6.427 -5.915,1.712 -8.434,5.131 -8.896,11.452 -0.533,7.273 -2.165,14.475 -1.817,21.801 0.521,10.938 1.28,21.866 1.99,32.794 0.038,0.589 0.556,1.148 0.851,1.72 3.08,-1.693 6.065,0.475 9.113,0.223 C -3.874,0.091 -1.903,0.844 0,0" />
      </g>
      <g
         transform="translate(362.0645,724.9209)"
         id="g4533">
        <path
           id="path4535"
           style="fill:#4a646e;fill-opacity:1;fill-rule:evenodd;stroke:none"
           d="m 0,0 c 1.701,-6.429 -1.258,-13.302 -8.368,-16.718 -12.001,-5.766 -24.607,-9.151 -38.099,-6.19 -7.135,1.565 -12.793,5.797 -17.216,11.283 -5.278,6.549 -3.395,21.398 2.779,26.376 2.318,-1.722 2.796,-4.387 3.575,-6.912 3.176,-10.291 8.903,-14.364 19.748,-14.572 7.144,-0.137 14.173,1.087 21.289,1.302 C -10.437,-5.255 -5.074,-2.888 0,0" />
      </g>
      <g
         transform="translate(362.0645,724.9209)"
         id="g4537">
        <path
           id="path4539"
           style="fill:#98c7dc;fill-opacity:1;fill-rule:evenodd;stroke:none"
           d="m 0,0 c -2.457,-4.524 -7.087,-5.466 -11.399,-6.053 -10.022,-1.364 -20.128,-2.154 -30.269,-1.858 -7.297,0.212 -13.869,5.544 -16.336,13.164 -1.019,3.149 -1.937,6.331 -2.9,9.498 10.024,2.096 19.974,5.084 30.343,4.286 7.769,-0.598 15.356,-2.452 21.998,-6.816 C -4.158,9.326 -0.863,5.468 0,0" />
      </g>
      <g
         transform="translate(251.8672,705.8843)"
         id="g4541">
        <path
           id="path4543"
           style="fill:#1225d5;fill-opacity:1;fill-rule:evenodd;stroke:none"
           d="m 0,0 c -4.111,-1.924 -8.835,-0.319 -13.016,-2.42 -2.088,-1.048 -1.442,1.451 -1.901,2.447 0.24,1.299 0.496,2.596 0.719,3.898 1.228,7.169 6.765,10.434 13.572,8.136 C 1.209,11.441 0.917,10.168 0.816,8.892 0.583,5.925 0.277,2.964 0,0" />
      </g>
      <g
         transform="translate(345.3535,727.832)"
         id="g4545">
        <path
           id="path4547"
           style="fill:#fbfdfd;fill-opacity:1;fill-rule:evenodd;stroke:none"
           d="m 0,0 c -7.18,0.692 -14.25,1.358 -21.316,2.064 -2.26,0.226 -3.696,1.528 -3.991,3.764 -0.331,2.51 0.484,4.625 2.932,5.743 2.941,1.344 6.129,1.742 9.244,1.222 C -8.247,11.978 -3.363,10.996 1.387,9.622 4.42,8.744 7.414,7.181 6.68,3 5.908,-1.388 2.371,0.535 0,0" />
      </g>
    </g>
    <g
       transform="matrix(0.05769371,0.0408541,-0.0408541,0.05769371,33.032072,43.457896)"
       id="g4894">
      <path
         id="path4821"
         d="m 499.033,58.097 c 1.488,4.089 0.48,8.669 -2.601,11.739 l -3.96,3.96 -19.212,19.225 -19.225,19.213 -4.581,4.592 c -5.577,5.565 -14.597,5.565 -20.174,0 L 395.223,82.77 c -5.565,-5.577 -5.565,-14.609 0,-20.174 l 4.592,-4.581 19.213,-19.225 19.225,-19.225 3.96,-3.96 c 3.069,-3.069 7.65,-4.089 11.739,-2.601 l 28.152,10.263 c 3.105,1.125 5.541,3.573 6.678,6.678 z"
         style="fill:#f7b239" />
      <path
         id="path4823"
         d="M 280.342,191.969 394.883,82.43 l 0.34,0.34 34.057,34.057 0.328,0.328 -109.539,114.541 -56.457,59.034 H 263.6 c -0.269,-10.731 -4.499,-21.392 -12.7,-29.581 -8.201,-8.189 -18.862,-12.43 -29.593,-12.7 v -0.023 z"
         style="fill:#e0b08c" />
      <path
         id="path4825"
         d="m 320.069,231.696 c 23.103,37.501 22.013,82.969 -5.577,110.547 -7.966,7.978 -17.433,13.73 -27.766,17.327 -26.77,9.349 -45.842,33.213 -48.959,61.4 -2.343,21.041 -10.919,40.524 -26.02,55.625 C 171.13,517.212 98.728,510.687 50.039,461.998 1.363,413.32 -5.163,340.907 35.454,300.301 c 15.101,-15.113 34.584,-23.677 55.625,-26.02 28.187,-3.105 52.063,-22.177 61.4,-48.959 3.597,-10.333 9.361,-19.787 17.327,-27.754 27.59,-27.59 73.046,-28.679 110.535,-5.6 l -59.034,56.457 v 0.023 c -11.469,-0.293 -23.044,3.948 -31.796,12.7 -16.952,16.952 -16.952,44.437 0,61.389 16.952,16.964 44.437,16.964 61.389,0 8.763,-8.763 12.992,-20.326 12.7,-31.807 h 0.012 z"
         style="fill:#f7b239" />
      <path
         id="path4827"
         d="m 263.6,290.73 c 0.293,11.481 -3.936,23.044 -12.7,31.807 -16.952,16.964 -44.437,16.964 -61.389,0 -16.952,-16.952 -16.952,-44.437 0,-61.389 8.751,-8.751 20.326,-12.992 31.796,-12.699 10.731,0.269 21.392,4.51 29.593,12.699 8.202,8.19 12.431,18.851 12.7,29.582 z"
         style="fill:#4d4d4d" />
      <g
         id="g4837">
        <path
           id="path4829"
           d="m 42.857,409.108 c -3.587,0 -6.954,-2.212 -8.255,-5.777 -3.224,-8.838 -5.273,-17.904 -6.089,-26.945 -2.231,-24.734 5.092,-46.904 20.619,-62.426 11.442,-11.452 26.677,-18.529 44.053,-20.465 9.256,-1.019 18.292,-3.443 26.868,-7.205 4.444,-1.949 9.627,0.073 11.576,4.516 1.949,4.444 -0.073,9.627 -4.516,11.576 -10.209,4.479 -20.972,7.364 -31.992,8.578 -13.357,1.488 -24.966,6.821 -33.56,15.423 -11.779,11.775 -17.298,28.971 -15.544,48.422 0.678,7.524 2.392,15.094 5.095,22.501 1.662,4.558 -0.684,9.603 -5.244,11.266 -0.994,0.364 -2.011,0.536 -3.011,0.536 z"
           style="fill:#ffffff" />
        <path
           id="path4831"
           d="m 146.293,289.405 c -7.751,0 -11.681,-9.814 -6.052,-15.154 2.725,-2.586 6.879,-3.139 10.194,-1.382 3.317,1.757 5.148,5.558 4.516,9.247 -0.712,4.155 -4.442,7.289 -8.658,7.289 z"
           style="fill:#ffffff" />
        <path
           id="path4833"
           d="m 183.418,234.122 c -1.585,0 -3.189,-0.429 -4.635,-1.329 -4.12,-2.564 -5.381,-7.983 -2.818,-12.103 2.13,-3.421 4.656,-6.602 7.508,-9.456 9.144,-9.143 21.443,-14.651 35.569,-15.927 4.828,-0.435 9.105,3.127 9.542,7.959 0.437,4.833 -3.127,9.105 -7.961,9.542 -9.977,0.902 -18.526,4.655 -24.724,10.852 -1.906,1.906 -3.593,4.03 -5.014,6.315 -1.663,2.678 -4.533,4.147 -7.467,4.147 z"
           style="fill:#ffffff" />
        <path
           id="path4835"
           d="m 419.626,81.211 c -2.248,0 -4.498,-0.858 -6.213,-2.574 -3.431,-3.431 -3.431,-8.994 0,-12.425 l 34.76,-34.76 c 3.431,-3.431 8.995,-3.431 12.425,0 3.431,3.431 3.431,8.994 0,12.425 l -34.76,34.76 c -1.714,1.716 -3.963,2.574 -6.212,2.574 z"
           style="fill:#ffffff" />
      </g>
      <g
         style="display:inline;fill:#000000"
         id="g4843">
        <path
           id="path4839"
           d="m 77.068,378.355 c -3.431,-3.431 -8.995,-3.431 -12.425,0 -3.431,3.431 -3.431,8.994 0,12.425 l 56.623,56.622 c 1.715,1.716 3.965,2.574 6.213,2.574 2.248,0 4.498,-0.858 6.213,-2.574 3.431,-3.431 3.431,-8.995 0,-12.425 z"
           style="fill:#000000" />
        <path
           id="path4841"
           d="m 509.426,78.318 -4.712,-4.712 c 3.817,-5.305 4.856,-12.264 2.579,-18.515 L 497.038,26.938 c -2.024,-5.557 -6.372,-9.905 -11.93,-11.929 L 456.956,4.753 c -6.25,-2.277 -13.21,-1.237 -18.515,2.58 l -4.712,-4.712 c -3.431,-3.431 -8.995,-3.431 -12.425,0 -3.431,3.431 -3.431,8.995 0,12.427 l 4.523,4.523 -6.795,6.795 -4.523,-4.523 c -3.431,-3.431 -8.995,-3.431 -12.425,0 -3.431,3.431 -3.431,8.994 0,12.425 l 4.523,4.523 -6.795,6.795 -4.523,-4.523 c -3.43,-3.431 -8.994,-3.431 -12.425,0 -3.431,3.431 -3.431,8.995 0,12.427 l 4.605,4.605 c -5.325,6.502 -6.538,15.252 -3.674,22.796 L 279.03,181.079 c -40.535,-22.099 -86.75,-18.406 -115.432,10.276 -8.746,8.746 -15.278,19.199 -19.415,31.072 -8.186,23.479 -29.41,40.406 -54.077,43.127 -23.794,2.641 -44.841,12.507 -60.864,28.532 -21.521,21.515 -31.723,51.643 -28.73,84.828 2.941,32.591 18.325,64.306 43.32,89.301 28.874,28.874 65.77,43.741 100.419,43.738 27.789,-0.002 54.136,-9.569 73.712,-29.146 16.024,-16.024 25.891,-37.071 28.532,-60.867 2.73,-24.654 19.658,-45.88 43.124,-54.074 11.895,-4.145 22.354,-10.673 31.085,-19.404 28.683,-28.683 32.372,-74.901 10.265,-115.443 L 431.157,128.254 c 2.638,1.002 5.421,1.522 8.208,1.522 5.181,0 10.36,-1.733 14.588,-5.195 l 4.605,4.605 c 1.715,1.716 3.964,2.574 6.213,2.574 2.249,0 4.498,-0.858 6.213,-2.574 3.431,-3.431 3.431,-8.994 0,-12.425 l -4.523,-4.523 6.795,-6.795 4.523,4.523 c 1.715,1.716 3.965,2.574 6.213,2.574 2.248,0 4.498,-0.858 6.213,-2.574 3.431,-3.431 3.431,-8.995 0,-12.427 l -4.523,-4.523 6.794,-6.794 4.523,4.523 c 1.715,1.715 3.965,2.574 6.213,2.574 2.248,0 4.498,-0.858 6.213,-2.574 3.433,-3.433 3.433,-8.997 10e-4,-12.427 z M 308.278,336.035 c -6.844,6.844 -15.067,11.97 -24.447,15.237 -29.823,10.414 -51.333,37.393 -54.802,68.731 -2.197,19.785 -10.319,37.205 -23.492,50.377 -16.194,16.194 -38.054,24.08 -61.314,24.079 -30.076,-0.002 -62.489,-13.194 -87.965,-38.671 -22.091,-22.091 -35.672,-49.953 -38.244,-78.453 -2.516,-27.904 5.882,-53.057 23.651,-70.826 13.172,-13.173 30.592,-21.295 50.372,-23.491 31.354,-3.457 58.335,-24.971 68.739,-54.809 3.259,-9.354 8.388,-17.573 15.246,-24.43 21.931,-21.931 57.211,-25.333 89.571,-9.854 l -47.874,45.783 c -13.01,0.606 -25.155,5.957 -34.426,15.229 -20.353,20.353 -20.353,53.469 0,73.821 9.86,9.86 22.968,15.289 36.911,15.289 13.943,0 27.051,-5.43 36.911,-15.289 9.274,-9.274 14.626,-21.422 15.229,-34.435 l 45.779,-47.87 c 15.488,32.363 12.088,67.649 -9.845,89.582 z m -53.447,-44.19 c 0,9.249 -3.601,17.944 -10.142,24.485 -6.541,6.541 -15.236,10.142 -24.484,10.142 -9.249,0 -17.945,-3.601 -24.485,-10.142 -13.501,-13.501 -13.501,-35.468 0,-48.969 6.541,-6.541 15.236,-10.142 24.485,-10.142 9.249,0 17.945,3.601 24.484,10.142 v 0 c 6.541,6.538 10.142,15.235 10.142,24.484 z m 13.929,-19.203 c -2.59,-6.555 -6.51,-12.574 -11.644,-17.709 -5.135,-5.136 -11.158,-9.056 -17.715,-11.646 l 155.35,-148.563 22.571,22.571 z M 435.495,110.609 401.437,76.551 c -2.135,-2.135 -2.135,-5.607 0,-7.742 l 46.987,-46.987 c 0.457,-0.456 1.073,-0.701 1.7,-0.701 0.274,0 0.551,0.047 0.817,0.144 l 28.152,10.255 c 0.668,0.244 1.19,0.765 1.433,1.433 l 10.254,28.153 c 0.318,0.872 0.098,1.859 -0.558,2.516 l -46.987,46.987 c -2.132,2.133 -5.604,2.133 -7.74,0 z"
           style="fill:#000000" />
      </g>
    </g>
    <g
       style="display:inline"
       inkscape:label="righthand"
       transform="matrix(0.0739751,0.0919607,-0.0919607,0.0739751,45.703166,44.476205)"
       id="g38567-8-2">
      <path
         sodipodi:nodetypes="ccccccscscscssccsscc"
         style="display:inline;fill:#1125da;fill-opacity:1;stroke-width:0.196722"
         d="m 21.738618,255.86412 -14.88979,3.13619 -2.08908,-40.53122 17.51538,3.81109 h 7.02218 l 1.58047,-1.36722 h 57.12529 c 1.92984,0 3.67536,0.78197 4.93812,2.0467 1.26492,1.26276 2.04669,3.00847 2.04669,4.93811 0,3.85733 -3.12768,6.98481 -6.985,6.98481 h 2.8625 c 1.92964,0 3.67535,0.78197 4.94027,2.0467 1.26473,1.26276 2.0467,3.00847 2.0467,4.93811 0,3.85929 -3.12768,6.98697 -6.98501,6.98697 h -5.27254 c 1.92965,0 3.67536,0.78197 4.93812,2.0467 1.26492,1.26276 2.04669,3.01043 2.04669,4.93811 0,3.85733 -3.12768,6.98501 -6.98481,6.98501 h -22.67186 c -20.37917,-0.57015 -31.58753,6.62383 -41.18432,-6.96006 z"
         fill="#e49542"
         id="path37603-3-5" />
      <path
         id="path37605-5-6"
         d="M 23.695261,236.32554 4.4924782,236.1919 4.7597485,218.46909 22.275322,222.28058 h 2.168466 c -0.487083,1.5303 -0.748527,3.16112 -0.748527,4.8545 z"
         sodipodi:nodetypes="cccccsc"
         style="display:inline;fill:#070c91;fill-opacity:1;stroke-width:0.196722;filter:url(#filter39359-55-6)" />
      <path
         id="path37609-2-3"
         d="m 57.799959,234.88278 h 33.066202 c 1.928465,0 3.675946,0.78236 4.940868,2.04552 1.263151,1.26492 2.045515,3.01063 2.045515,4.94086 0,1.05915 -0.23587,2.06499 -0.658232,2.96441 -0.346034,-0.7381 -0.817773,-1.40676 -1.387283,-1.97627 -1.264922,-1.26315 -3.012403,-2.04552 -4.940868,-2.04552 H 63.728764 c -3.274436,0 -5.928805,-2.65437 -5.928805,-5.929 z"
         style="display:inline;opacity:1;fill:#070c91;fill-opacity:1;stroke-width:0.196722;filter:url(#filter39355-1-4)" />
      <path
         id="path37611-2-4"
         d="m 59.755768,248.85397 h 25.838639 c 1.928465,0 3.675946,0.78237 4.940868,2.04552 1.263151,1.26492 2.045514,3.01063 2.045514,4.94087 0,1.05915 -0.235869,2.06499 -0.658231,2.9644 -0.346034,-0.7381 -0.817773,-1.40676 -1.387283,-1.97627 -1.264922,-1.26315 -3.012403,-2.04552 -4.940868,-2.04552 H 65.684574 c -3.274437,-1.9e-4 -5.928806,-2.65456 -5.928806,-5.929 z"
         style="display:inline;fill:#070c91;fill-opacity:1;stroke-width:0.196722" />
      <path
         style="display:inline;fill:#1125da;fill-opacity:1;stroke-width:0.196722"
         d="m 66.676638,219.11532 c 0,-4.4286 -3.59017,-8.01878 -8.01878,-8.01878 h -18.92661 c -8.85741,0 -16.03756,7.18035 -16.03756,16.03756 h 34.96398 c 4.4288,0 8.01897,-3.59018 8.01897,-8.01878 z"
         fill="#e49542"
         id="path37617-6-0" />
      <path
         sodipodi:nodetypes="cscsccscc"
         id="path37607-6-6"
         d="m 39.831305,221.31269 48.171568,-0.4009 c 1.928398,-0.0161 3.675946,0.78236 4.940868,2.04551 1.263152,1.26492 2.045515,3.01063 2.045515,4.94087 0,1.05915 -0.23587,2.06499 -0.658232,2.9644 -0.346034,-0.7381 -0.817773,-1.40676 -1.387283,-1.97627 -1.264922,-1.26315 -3.012403,-2.04551 -4.940868,-2.04551 L 48.6512,225.90535 Z"
         style="display:inline;fill:#070c91;fill-opacity:1;stroke-width:0.196722" />
      <path
         style="display:inline;fill:#070b93;fill-opacity:1;stroke-width:0.196722"
         d="m 23.811718,225.18616 c 0.95981,-7.93891 7.72075,-14.08962 15.91874,-14.08962 h 18.9276 c 4.42802,0 8.01878,3.59077 8.01878,8.01878 0,1.13194 -0.2341,2.20879 -0.65646,3.18453 -1.23305,-2.84381 -4.06624,-4.83444 -7.36232,-4.83444 h -21.13108 c -5.81353,0 -10.90331,3.09227 -13.71526,7.72075 z"
         fill="#e27d47"
         id="path37619-7-0" />
      <path
         sodipodi:nodetypes="ccssccsccsssssssscscssssscccsccsssscsccssccsscsccscscsssccc"
         style="display:inline;stroke-width:0.196722"
         d="m 22.401418,220.80398 -4.66821,-0.80105 c -0.80321,-0.1379 -1.5659,0.40151 -1.70381,1.20453 -0.0145,0.0846 -0.0214,0.16839 -0.0214,0.25121 0,0.70525 0.50735,1.32905 1.22597,1.4524 l 4.79215,0.82249 c 0.0824,0.0142 0.16583,0.0213 0.24964,0.0213 h 0.27069 c 2.431585,0.27367 3.057998,0.57654 3.142217,-0.14061 0.26727,-6.42579 6.012823,-11.04205 14.042423,-11.04205 h 18.92662 c 3.60808,0 7.720493,4.21979 6.54336,6.54337 -0.670436,1.3234 -2.93528,0.19336 -6.54336,0.19336 h -18.10708 c -0.81482,0 -1.47541,0.6604 -1.47541,1.47542 0,0.81501 0.66059,1.47541 1.47541,1.47541 h 18.10708 c 4.08572,0 0,0 8.91268,0.12808 h 20.43233 c 1.47286,0 2.85522,0.57325 3.89509,1.61666 1.04145,1.03968 1.61489,2.42243 1.61489,3.89352 0,3.0364 -2.46886,5.50703 -5.50487,5.50998 -0.002,0 -0.003,-1.9e-4 -0.005,-1.9e-4 h -30.20331 c -0.81483,0 -1.47542,0.66039 -1.47542,1.47541 0,0.81502 0.66059,1.47542 1.47542,1.47542 l 33.06522,3.9e-4 c 1.47187,0 2.85561,0.57305 3.89725,1.61469 1.04145,1.03929 1.61509,2.42224 1.61509,3.89313 0,3.03935 -2.47279,5.51235 -5.51215,5.51235 l -31.96318,-5.9e-4 c -0.81482,0 -1.47541,0.66039 -1.47541,1.47541 0,0.81502 0.66059,1.47542 1.47541,1.47542 h 26.68159 c 0.004,0 0.008,5.9e-4 0.0114,5.9e-4 1.47227,0 2.85522,0.57285 3.89529,1.61449 1.04145,1.03968 1.61489,2.42322 1.61489,3.89569 0,3.03719 -2.47181,5.50821 -5.51018,5.50821 l -28.6673,0.001 c -0.81482,0 -1.47542,0.66039 -1.47542,1.47541 0,0.81502 0.6606,1.47542 1.47542,1.47542 h 22.16564 c 3.93619,-0.049 -3.13193,-0.0617 6.41983,-0.001 h 0.0818 c 4.66546,0 8.46101,-3.79477 8.46101,-8.45904 0,-2.0764 -0.74262,-4.03772 -2.10138,-5.57982 4.15398,-0.53647 7.37353,-4.09615 7.37353,-8.39354 0,-2.26014 -0.88112,-4.38454 -2.48007,-5.98094 -0.85378,-0.85377 -1.85785,-1.50256 -2.9528,-1.92177 1.58342,-1.53856 2.5686,-3.68972 2.5686,-6.06651 0,-2.26014 -0.88112,-4.38454 -2.4783,-5.97937 -1.59522,-1.60033 -3.71982,-2.48164 -5.98271,-2.48164 h -19.85888 c 0.004,-0.10682 0.008,-0.21364 0.008,-0.32145 0,-5.23496 -4.25903,-9.49419 -9.4942,-9.49419 h -18.92661 c -7.42547,0 -13.78568,4.64559 -16.32871,11.18285 h -1.00112 z"
         id="path37623-8-4" />
      <path
         sodipodi:nodetypes="sssssccccccccssssccs"
         style="display:inline;stroke-width:0.196722"
         d="m 33.776278,264.51403 41.96513,-0.53454 c 0.81476,-0.0104 1.87632,-0.12586 1.87632,-0.94088 0,-0.81502 -0.66059,-1.47541 -1.47542,-1.47541 h -42.36603 c -4.11956,0 -7.96252,-2.03784 -10.27951,-5.45156 -0.32498,-0.47902 -0.9,-0.72354 -1.4705,-0.62557 l -15.17744,3.51424 v -38.78118 l 9.8599,1.69259 c 0.80322,0.1379 1.56591,-0.40131 1.70381,-1.20453 0.13888,-0.80262 -0.40151,-1.56571 -1.20453,-1.70361 l -11.58495,-1.98866 c -0.42866,-0.0736 -0.86814,0.0456 -1.2006,0.32597 -0.33246,0.28033 -0.52446,0.69305 -0.52446,1.128 v 42.28185 c 0,0.43495 0.192,0.84787 0.52446,1.128 0.33266,0.28033 0.77194,0.39954 1.2006,0.32597 l 15.99836,-3.65529 c 2.90362,3.75208 7.37904,6.02544 12.15486,5.96461 z"
         id="path37625-4-0" />
    </g>
  </g>
</svg>
