<?xml version="1.0" encoding="UTF-8" standalone="no"?>
<svg
   xmlns:dc="http://purl.org/dc/elements/1.1/"
   xmlns:cc="http://creativecommons.org/ns#"
   xmlns:rdf="http://www.w3.org/1999/02/22-rdf-syntax-ns#"
   xmlns:svg="http://www.w3.org/2000/svg"
   xmlns="http://www.w3.org/2000/svg"
   xmlns:sodipodi="http://sodipodi.sourceforge.net/DTD/sodipodi-0.dtd"
   xmlns:inkscape="http://www.inkscape.org/namespaces/inkscape"
   sodipodi:docname="charsynth.svg"
   inkscape:version="1.0 (4035a4f, 2020-05-01)"
   id="svg2385"
   version="1.1"
   viewBox="0 0 70 90"
   height="90mm"
   width="70mm">
  <defs
     id="defs2379">
    <filter
       inkscape:collect="always"
       style="color-interpolation-filters:sRGB"
       id="filter39359-55-6-0"
       x="-0.0019434401"
       width="1.0038869"
       y="-0.0017485661"
       height="1.0034971">
      <feGaussianBlur
         inkscape:collect="always"
         stdDeviation="0.01890388"
         id="feGaussianBlur39361-4-2-2" />
    </filter>
    <filter
       inkscape:collect="always"
       style="color-interpolation-filters:sRGB"
       id="filter39355-1-4-3"
       x="-0.0098036937"
       width="1.0196074"
       y="-0.0064987624"
       height="1.0129975">
      <feGaussianBlur
         inkscape:collect="always"
         stdDeviation="0.10000675"
         id="feGaussianBlur39357-8-7-7" />
    </filter>
  </defs>
  <sodipodi:namedview
     inkscape:window-maximized="0"
     inkscape:window-y="23"
     inkscape:window-x="0"
     inkscape:window-height="930"
     inkscape:window-width="1280"
     inkscape:snap-global="false"
     showgrid="false"
     inkscape:document-rotation="0"
     inkscape:current-layer="layer1"
     inkscape:document-units="mm"
     inkscape:cy="274.52164"
     inkscape:cx="94.782151"
     inkscape:zoom="0.98994949"
     inkscape:pageshadow="2"
     inkscape:pageopacity="0.0"
     borderopacity="1.0"
     bordercolor="#666666"
     pagecolor="#ffffff"
     id="base" />
  <metadata
     id="metadata2382">
    <rdf:RDF>
      <cc:Work
         rdf:about="">
        <dc:format>image/svg+xml</dc:format>
        <dc:type
           rdf:resource="http://purl.org/dc/dcmitype/StillImage" />
        <dc:title />
      </cc:Work>
    </rdf:RDF>
  </metadata>
  <g
     style="display:inline"
     id="layer1"
     inkscape:groupmode="layer"
     inkscape:label="Layer 1">
    <g
       transform="matrix(0.17864596,0,0,-0.20168465,11.897755,155.3447)"
       id="g6096">
      <g
         transform="translate(198.1836,508.5923)"
         id="g4585">
        <path
           id="path4587"
           style="fill:#000001;fill-opacity:1;fill-rule:nonzero;stroke:none"
           d="m 0,0 v -12 c -0.857,-4.582 -2.449,-8.748 -5.276,-12.616 -2.499,-3.418 -1.818,-7.849 -0.943,-11.614 3.49,-15.008 0.813,-29.708 -1.496,-44.465 -1.357,-8.676 -2.975,-17.308 -4.03,-26.031 -0.684,-5.654 -2.009,-11.111 -5.312,-15.902 -2.911,-4.938 -7.355,-6.903 -12.941,-6.799 -3.481,0.062 -6.967,0 -10.449,0.004 -10.08,0.007 -12.639,1.716 -16.504,10.992 -1.737,4.154 -2.508,8.488 -2.487,12.996 0.009,2.076 -0.4,4.303 -3.053,4.174 -2.684,-0.133 -2.007,-2.602 -2.073,-4.246 -0.185,-4.594 0.288,-9.229 -1.024,-13.743 -0.383,-12.058 -10.519,-16.515 -19.099,-18.609 -9.241,-2.256 -18.209,0.277 -26.475,4.52 -3.828,1.963 -5.689,5.908 -6.16,10.295 -0.081,6.158 -1.194,12.238 -1.385,18.396 -0.088,2.813 -1.038,5.506 -4.657,5.182 -6.903,-0.617 -12.903,1.265 -17.651,6.322 -4.814,5.128 -6.147,11.863 -6.804,18.425 -1.526,15.25 -0.54,30.549 0.255,45.821 0.191,3.66 0.098,7.322 0.182,10.981 0.248,10.699 4.575,19.101 16.498,20.909 1.311,0.199 2.581,0.657 3.888,0.911 8.316,1.61 8.438,1.589 9.65,9.842 1.404,9.553 4.446,18.758 9.802,26.5 5.608,8.105 13.466,14.365 24.369,14.213 10.474,-0.145 21.15,1.491 31.378,-0.683 16.264,-3.458 29.735,-11.483 36.344,-27.93 0.7,-1.743 1.592,-3.312 3.076,-4.459 C -5.33,15.941 -1.283,8.773 0,0" />
      </g>
      <g
         transform="translate(99.0088,540.7329)"
         id="g4593">
        <path
           id="path4595"
           style="fill:#d4dff0;fill-opacity:1;fill-rule:evenodd;stroke:none"
           d="M 0,0 C 5.452,6.801 11.62,12.425 21.198,11.338 30.216,10.315 39.429,12.427 48.334,9.032 55.69,6.227 61.888,2.154 67.136,-4.837 64.126,-4.985 61.562,-5.384 59.043,-5.189 47.688,-4.312 36.542,-5.392 25.495,-8.094 c -6.543,-1.6 -10.881,-5.86 -11.795,-12.083 -1.623,-11.066 -1.431,-22.171 3.924,-32.575 5.68,-11.034 15.857,-14.083 26.922,-14.776 10.545,-0.661 20.785,2.157 30.9,4.84 5.93,1.572 5.846,1.888 5.676,-4.473 0.59,-8.987 -1.853,-17.432 -4.599,-25.827 -2.797,-8.555 -9.245,-12.926 -17.602,-14.315 -9.168,-1.523 -18.453,-2.558 -27.629,0.51 -1.861,0.623 -3.943,1.008 -5.893,0.927 -10.777,-0.451 -15.531,6.882 -19.423,15.058 -6.171,12.965 -8.189,26.94 -9.161,41.083 -0.375,5.463 -0.812,10.934 -1.222,16.386 C -5.272,-21.839 -2.916,-10.918 0,0" />
      </g>
      <g
         transform="translate(99.0088,540.7329)"
         id="g4597">
        <path
           id="path4599"
           style="fill:#8394c2;fill-opacity:1;fill-rule:evenodd;stroke:none"
           d="m 0,0 c 1.063,-7.481 -3.03,-14.194 -3.086,-21.573 -0.153,-20.14 1.342,-40.117 6.587,-59.585 2.053,-7.623 5.809,-14.76 11.507,-20.629 0.926,-0.953 1.784,-1.376 2.934,-1.486 10.491,-1.002 20.63,-4.926 31.364,-3.843 3.954,0.399 7.984,0.641 11.804,1.633 7.438,1.932 12.255,6.674 14.651,14.2 2.517,7.907 3.442,16.115 5.361,24.123 1.881,-13.233 1.746,-26.428 -0.447,-39.628 -1.362,-8.191 -2.484,-16.397 -5.129,-24.34 -1.041,-3.129 -0.166,-6.592 -0.002,-9.914 0.394,-7.993 -1.906,-10.426 -9.789,-10.659 -1.663,-0.049 -3.33,-0.027 -4.995,0.006 -7.331,0.147 -9.907,2.744 -9.683,10.182 0.09,2.965 0.849,5.902 1.097,8.869 0.147,1.771 1.532,1.418 2.485,1.838 5.051,2.224 9.276,5.207 11.744,8.443 -11.826,-1.426 -23.32,-0.822 -34.832,1.141 -6.077,1.034 -7.842,-1.057 -8.785,-7.028 -0.839,-5.306 -0.935,-10.574 -0.689,-15.898 0.398,-8.648 -3.965,-13.771 -12.7,-14.742 -2.793,-0.311 -5.622,-0.197 -8.414,0.592 -4.501,1.273 -7.069,2.953 -7.833,8.709 -4.462,33.62 -3.811,67.311 -3.509,101.085 0.109,12.217 3.064,23.614 5.03,35.316 C -4.562,-8.623 -1.834,-4.386 0,0" />
      </g>
      <g
         transform="translate(78.0737,488.5913)"
         id="g4601">
        <path
           id="path4603"
           style="fill:#8293c0;fill-opacity:1;fill-rule:evenodd;stroke:none"
           d="m 0,0 c -0.511,-21.481 -0.673,-42.958 1.285,-64.387 0.236,-2.575 -0.513,-3.427 -3.203,-3.524 -8.973,-0.322 -12.72,3.061 -14.177,11.978 -2.938,17.982 -0.729,35.872 0.352,53.793 0.027,0.442 0.445,0.86 0.681,1.288 C -10.026,-0.844 -5.114,1.372 0,0" />
      </g>
      <g
         transform="translate(188.2432,507.6367)"
         id="g4605">
        <path
           id="path4607"
           style="fill:#4a646e;fill-opacity:1;fill-rule:evenodd;stroke:none"
           d="m 0,0 c 1.716,-6.411 -1.231,-13.287 -8.36,-16.712 -12,-5.767 -24.607,-9.152 -38.102,-6.194 -7.139,1.564 -12.791,5.798 -17.215,11.282 -5.273,6.538 -3.392,21.389 2.774,26.381 2.316,-1.722 2.797,-4.386 3.576,-6.91 3.174,-10.29 8.905,-14.374 19.736,-14.577 6.979,-0.13 13.842,1.071 20.783,1.336 C -10.776,-5.164 -5.225,-2.98 0,0" />
      </g>
      <g
         transform="translate(188.2432,507.6367)"
         id="g4609">
        <path
           id="path4611"
           style="fill:#98c7dc;fill-opacity:1;fill-rule:evenodd;stroke:none"
           d="m 0,0 c -2.455,-4.529 -7.087,-5.481 -11.399,-6.042 -9.202,-1.196 -18.466,-2 -27.782,-1.905 -9.877,0.1 -16.248,4.772 -19.064,14.173 -0.856,2.853 -1.771,5.688 -2.658,8.531 10.025,2.09 19.973,5.066 30.343,4.283 7.778,-0.588 15.356,-2.477 21.998,-6.817 C -4.158,9.345 -0.841,5.482 0,0" />
      </g>
      <g
         transform="translate(78.0737,488.5913)"
         id="g4613">
        <path
           id="path4615"
           style="fill:#d3ddee;fill-opacity:1;fill-rule:evenodd;stroke:none"
           d="m 0,0 c -4.287,-1.668 -9.166,-0.237 -13.369,-2.664 -1.196,-0.691 -1.325,0.99 -1.693,1.813 0.119,1.144 0.188,2.296 0.364,3.432 1.358,8.74 5.849,11.701 14.447,9.806 C 1.727,11.951 0.966,10.73 0.906,9.81 0.693,6.534 0.315,3.27 0,0" />
      </g>
      <g
         transform="translate(167.1152,510.5933)"
         id="g4617">
        <path
           id="path4619"
           style="fill:#fbfdfc;fill-opacity:1;fill-rule:evenodd;stroke:none"
           d="m 0,0 c -3.995,-0.953 -9.184,1.666 -14.702,1.2 -3.239,-0.274 -7.169,1.194 -6.925,5.389 0.21,3.593 2.715,5.707 6.902,6.134 6.87,0.7 13.32,-1.011 19.853,-2.365 C 7.041,9.962 8.754,8.798 10.207,7.332 11.59,5.936 12.525,4.511 11.77,2.475 11.018,0.451 9.535,-0.171 7.459,-0.029 5.472,0.106 3.467,0 0,0" />
      </g>
    </g>
    <g
       transform="matrix(0.05862955,0.03028142,-0.03653914,0.0549799,32.960711,46.501033)"
       id="g5086">
      <g
         id="g4959">
        <polygon
           id="polygon4947"
           points="192.461,402.331 203.493,391.299 203.67,391.476 165.218,429.928 72.698,337.409 111.15,298.956 154.042,341.848 143.01,352.869 "
           style="fill:#f2f2f2" />
        <polygon
           id="polygon4949"
           points="243.889,351.257 203.67,391.476 203.493,391.299 214.039,380.753 164.577,331.302 154.042,341.848 111.15,298.956 151.37,258.737 "
           style="fill:#f2f2f2" />
        <polygon
           id="polygon4951"
           points="273.142,321.65 283.931,310.861 284.108,311.038 243.889,351.257 151.37,258.737 191.589,218.518 234.48,261.41 223.68,272.199 "
           style="fill:#f2f2f2" />
        <polygon
           id="polygon4953"
           points="294.71,300.083 245.258,250.632 234.48,261.41 191.589,218.518 231.797,178.31 274.346,220.859 274.688,221.202 263.899,231.98 313.35,281.442 334.929,259.864 335.105,260.04 284.108,311.038 283.931,310.861 "
           style="fill:#f2f2f2" />
        <polygon
           id="polygon4955"
           points="364.535,230.61 335.105,260.04 334.929,259.864 285.466,210.413 274.688,221.202 274.346,220.859 231.797,178.31 272.016,138.091 "
           style="fill:#f2f2f2" />
        <rect
           id="rect4957"
           height="130.838"
           width="54.375999"
           style="fill:#f2f2f2"
           transform="matrix(-0.7071,0.7071,-0.7071,-0.7071,692.9109,43.2399)"
           y="99.708"
           x="310.31201" />
      </g>
      <g
         id="g4967">
        <polygon
           id="polygon4961"
           points="192.461,402.331 143.01,352.869 154.042,341.848 164.577,331.302 214.039,380.753 203.493,391.299 "
           style="fill:#4d4d4d" />
        <polygon
           id="polygon4963"
           points="273.142,321.65 223.68,272.199 234.48,261.41 245.258,250.632 294.71,300.083 283.931,310.861 "
           style="fill:#4d4d4d" />
        <polygon
           id="polygon4965"
           points="263.899,231.98 274.688,221.202 285.466,210.413 334.929,259.864 313.35,281.442 "
           style="fill:#4d4d4d" />
      </g>
      <polygon
         id="polygon4969"
         points="401.817,120.72 463.891,229.65 189.822,503.718 48.105,362.002 72.698,337.409 165.218,429.928 203.67,391.476 243.889,351.257 284.108,311.038 335.105,260.04 364.535,230.61 402.988,192.158 310.468,99.639 401.817,8.279 433.445,39.906 "
         style="fill:#3a88d6" />
      <g
         style="display:inline;fill:#000000"
         id="g4991">
        <path
           id="path4971"
           d="m 471.092,225.546 -60.118,-105.49 30.183,-77.133 c 1.199,-3.064 0.47,-6.547 -1.856,-8.874 L 407.677,2.426 c -3.236,-3.235 -8.479,-3.235 -11.713,0 L 42.248,356.141 c -3.235,3.235 -3.235,8.479 0,11.712 l 141.72,141.721 c 1.554,1.554 3.66,2.426 5.857,2.426 2.197,0 4.302,-0.872 5.857,-2.426 L 469.753,235.503 c 2.637,-2.639 3.187,-6.715 1.339,-9.957 z m -278.626,165.069 -37.742,-37.742 9.858,-9.858 37.743,37.742 z m -55.312,-31.886 43.778,43.778 -15.709,15.709 -80.812,-80.813 26.737,-26.737 31.177,31.177 -5.172,5.172 c -3.234,3.236 -3.234,8.479 0.001,11.714 z m 77.063,10.493 -43.778,-43.778 c -1.554,-1.554 -3.66,-2.426 -5.857,-2.426 -2.198,0 -4.302,0.872 -5.857,2.426 l -4.687,4.687 -31.177,-31.177 28.506,-28.506 80.813,80.813 z m 29.675,-29.675 -80.813,-80.813 28.505,-28.506 31.177,31.177 -4.935,4.935 c -1.553,1.553 -2.425,3.66 -2.425,5.856 0,2.197 0.872,4.304 2.425,5.856 l 43.778,43.779 z m 29.247,-29.606 -37.742,-37.742 9.859,-9.858 37.742,37.742 z m 21.752,-21.393 -43.777,-43.778 c -3.236,-3.235 -8.479,-3.235 -11.713,0 l -4.923,4.923 -31.178,-31.177 28.497,-28.497 31.177,31.177 -4.93,4.93 c -3.235,3.235 -3.235,8.479 0,11.712 l 43.778,43.778 z m 18.465,-18.824 -37.742,-37.742 9.858,-9.858 37.743,37.742 z m 21.752,-21.393 -43.778,-43.778 c -1.554,-1.554 -3.66,-2.426 -5.857,-2.426 -2.198,0 -4.302,0.872 -5.857,2.426 l -4.929,4.929 -31.177,-31.177 28.501,-28.501 80.813,80.812 z m 29.428,-29.429 -80.813,-80.813 26.74,-26.74 80.813,80.812 z M 189.824,492.005 59.817,361.997 l 12.881,-12.881 86.669,86.669 c 1.554,1.554 3.66,2.426 5.857,2.426 2.198,0 4.302,-0.872 5.857,-2.426 L 408.848,198.018 c 3.235,-3.235 3.235,-8.479 0,-11.712 l -86.669,-86.669 79.642,-79.642 21.937,21.937 -29.651,75.771 c -0.911,2.329 -0.721,4.946 0.518,7.118 l 58.948,103.437 z"
           style="fill:#000000" />
        <path
           id="path4973"
           d="m 200.28,454.168 c -1.323,-3.125 -4.443,-5.183 -7.851,-5.1 -3.463,0.084 -6.571,2.385 -7.655,5.676 -1.152,3.493 0.201,7.438 3.26,9.484 2.843,1.902 6.704,1.827 9.466,-0.19 3.069,-2.239 4.227,-6.356 2.78,-9.87 -0.21,-0.497 0.209,0.508 0,0 z"
           style="fill:#000000" />
        <path
           id="path4975"
           d="m 239.428,415.02 c -2.831,-6.692 -12.695,-6.665 -15.354,0.161 -1.174,3.014 -0.455,6.583 1.849,8.872 2.528,2.512 6.478,3.119 9.645,1.497 3.789,-1.94 5.481,-6.595 3.86,-10.53 -0.21,-0.497 0.209,0.508 0,0 z"
           style="fill:#000000" />
        <path
           id="path4977"
           d="m 278.576,375.872 c -1.971,-4.68 -7.812,-6.538 -12.11,-3.798 -4.428,2.824 -5.01,9.107 -1.396,12.831 2.752,2.675 7.016,3.191 10.286,1.134 3.372,-2.12 4.74,-6.494 3.22,-10.167 -0.21,-0.497 0.209,0.508 0,0 z"
           style="fill:#000000" />
        <path
           id="path4979"
           d="m 210.583,429.641 c -3.579,0.761 -6.321,3.778 -6.63,7.44 -0.282,3.332 1.554,6.573 4.532,8.074 6.79,3.42 14.347,-3.767 11.302,-10.714 -1.537,-3.507 -5.443,-5.555 -9.204,-4.8"
           style="fill:#000000" />
        <path
           id="path4981"
           d="m 259.007,395.451 c -1.257,-2.983 -4.165,-5 -7.406,-5.109 -3.639,-0.123 -6.946,2.253 -8.102,5.677 -2.379,7.046 5.518,13.436 11.944,9.797 3.613,-2.044 5.092,-6.534 3.564,-10.365 -0.21,-0.496 0.199,0.497 0,0 z"
           style="fill:#000000" />
        <path
           id="path4983"
           d="m 298.144,356.303 c -1.203,-2.997 -4.192,-5.001 -7.4,-5.109 -3.611,-0.121 -6.976,2.251 -8.1,5.677 -2.31,7.042 5.482,13.457 11.948,9.797 3.572,-2.021 5.152,-6.567 3.552,-10.365 -0.199,-0.496 0.21,0.497 0,0 z"
           style="fill:#000000" />
        <path
           id="path4985"
           d="m 364.5,273.76 -53.62,53.62 c -3.235,3.235 -3.235,8.479 0,11.712 1.618,1.617 3.738,2.426 5.857,2.426 2.119,0 4.239,-0.808 5.857,-2.426 l 53.62,-53.62 c 3.234,-3.235 3.234,-8.479 0,-11.712 -3.235,-3.234 -8.478,-3.234 -11.714,0 z"
           style="fill:#000000" />
        <path
           id="path4987"
           d="m 410.311,239.662 c 1.618,1.617 3.738,2.426 5.857,2.426 2.119,0 4.239,-0.808 5.857,-2.426 l 7.288,-7.288 c 3.235,-3.235 3.235,-8.479 0,-11.712 -3.236,-3.235 -8.479,-3.235 -11.713,0 l -7.288,7.288 c -3.235,3.234 -3.235,8.478 -0.001,11.712 z"
           style="fill:#000000" />
        <path
           id="path4989"
           d="m 391.7,246.56 -7.288,7.288 c -3.235,3.235 -3.235,8.479 0,11.712 1.618,1.617 3.738,2.426 5.857,2.426 2.119,0 4.239,-0.808 5.857,-2.426 l 7.288,-7.288 c 3.235,-3.235 3.235,-8.479 0,-11.712 -3.235,-3.233 -8.478,-3.233 -11.714,0 z"
           style="fill:#000000" />
      </g>
      <rect
         id="rect4993"
         height="16.565001"
         width="0.25"
         transform="matrix(-0.7071,-0.7071,0.7071,-0.7071,70.7918,812.0967)"
         y="383.10501"
         x="203.46201" />
      <rect
         id="rect4995"
         height="16.565001"
         width="0.25"
         transform="matrix(-0.7082,-0.706,0.706,-0.7082,265.6496,731.6838)"
         y="302.66299"
         x="283.90302" />
      <g
         style="display:inline"
         id="g5013">
        <path
           id="path4997"
           d="m 364.226,91.202 c -2.119,0 -4.239,-0.808 -5.857,-2.426 -3.235,-3.235 -3.235,-8.479 0,-11.712 l 35.338,-35.338 c 3.236,-3.235 8.479,-3.235 11.713,0 3.235,3.235 3.235,8.479 0,11.712 l -35.338,35.338 c -1.616,1.617 -3.737,2.426 -5.856,2.426 z"
           style="fill:#ffffff" />
        <path
           id="path4999"
           d="m 306.25,149.178 c -2.119,0 -4.239,-0.808 -5.857,-2.426 -3.235,-3.235 -3.235,-8.479 0,-11.712 l 6.626,-6.626 c 3.236,-3.235 8.479,-3.235 11.713,0 3.235,3.235 3.235,8.479 0,11.712 l -6.626,6.626 c -1.617,1.618 -3.737,2.426 -5.856,2.426 z"
           style="fill:#ffffff" />
        <path
           id="path5001"
           d="m 267.047,188.381 c -2.119,0 -4.239,-0.808 -5.857,-2.426 -3.235,-3.235 -3.235,-8.479 0,-11.712 l 6.626,-6.626 c 3.236,-3.235 8.479,-3.235 11.713,0 3.235,3.235 3.235,8.479 0,11.712 l -6.626,6.626 c -1.617,1.618 -3.737,2.426 -5.856,2.426 z"
           style="fill:#ffffff" />
        <path
           id="path5003"
           d="m 227.843,227.585 c -2.119,0 -4.239,-0.808 -5.857,-2.426 -3.235,-3.235 -3.235,-8.479 0,-11.712 l 6.626,-6.626 c 3.236,-3.235 8.479,-3.235 11.713,0 3.235,3.235 3.235,8.479 0,11.712 l -6.626,6.626 c -1.616,1.617 -3.736,2.426 -5.856,2.426 z"
           style="fill:#ffffff" />
        <path
           id="path5005"
           d="m 184.775,270.653 c -2.119,0 -4.239,-0.808 -5.857,-2.426 -3.235,-3.235 -3.235,-8.479 0,-11.712 l 6.626,-6.626 c 3.236,-3.235 8.479,-3.235 11.713,0 3.235,3.235 3.235,8.479 0,11.712 l -6.626,6.626 c -1.616,1.618 -3.737,2.426 -5.856,2.426 z"
           style="fill:#ffffff" />
        <path
           id="path5007"
           d="m 148.885,306.543 c -2.119,0 -4.239,-0.808 -5.857,-2.426 -3.235,-3.235 -3.235,-8.479 0,-11.712 l 6.626,-6.626 c 3.236,-3.235 8.479,-3.235 11.713,0 3.234,3.235 3.235,8.479 0,11.712 l -6.626,6.626 c -1.617,1.618 -3.737,2.426 -5.856,2.426 z"
           style="fill:#ffffff" />
        <path
           id="path5009"
           d="m 108.025,347.403 c -2.119,0 -4.239,-0.808 -5.857,-2.426 -3.235,-3.235 -3.235,-8.479 0,-11.712 l 6.626,-6.626 c 3.236,-3.235 8.479,-3.235 11.713,0 3.235,3.235 3.235,8.479 0,11.712 l -6.626,6.626 c -1.616,1.617 -3.737,2.426 -5.856,2.426 z"
           style="fill:#ffffff" />
        <path
           id="path5011"
           d="m 346.557,108.871 c -2.187,0 -4.318,-0.883 -5.853,-2.429 -0.388,-0.375 -0.729,-0.806 -1.038,-1.259 -0.298,-0.442 -0.552,-0.928 -0.762,-1.425 -0.199,-0.497 -0.363,-1.027 -0.464,-1.546 -0.11,-0.541 -0.165,-1.082 -0.165,-1.623 0,-0.541 0.055,-1.082 0.165,-1.623 0.101,-0.519 0.265,-1.049 0.464,-1.546 0.21,-0.497 0.465,-0.983 0.762,-1.425 0.309,-0.453 0.652,-0.883 1.038,-1.259 0.375,-0.387 0.805,-0.729 1.259,-1.038 0.442,-0.298 0.928,-0.552 1.425,-0.762 0.497,-0.199 1.027,-0.364 1.546,-0.464 2.693,-0.541 5.554,0.342 7.476,2.264 0.387,0.375 0.729,0.806 1.038,1.259 0.298,0.442 0.552,0.928 0.761,1.425 0.199,0.497 0.364,1.027 0.464,1.546 0.112,0.541 0.166,1.082 0.166,1.623 0,0.541 -0.055,1.082 -0.166,1.623 -0.099,0.519 -0.265,1.049 -0.464,1.546 -0.209,0.497 -0.464,0.983 -0.761,1.425 -0.309,0.453 -0.653,0.883 -1.038,1.259 -1.535,1.545 -3.677,2.429 -5.853,2.429 z"
           style="fill:#ffffff" />
      </g>
    </g>
    <g
       id="g38567-8-2-1"
       transform="matrix(0.0739751,0.0919607,-0.0919607,0.0739751,47.983787,43.54127)"
       inkscape:label="righthand"
       style="display:inline">
      <path
         id="path37603-3-5-8"
         fill="#e49542"
         d="m 21.738618,255.86412 -14.88979,3.13619 -2.08908,-40.53122 17.51538,3.81109 h 7.02218 l 1.58047,-1.36722 h 57.12529 c 1.92984,0 3.67536,0.78197 4.93812,2.0467 1.26492,1.26276 2.04669,3.00847 2.04669,4.93811 0,3.85733 -3.12768,6.98481 -6.985,6.98481 h 2.8625 c 1.92964,0 3.67535,0.78197 4.94027,2.0467 1.26473,1.26276 2.0467,3.00847 2.0467,4.93811 0,3.85929 -3.12768,6.98697 -6.98501,6.98697 h -5.27254 c 1.92965,0 3.67536,0.78197 4.93812,2.0467 1.26492,1.26276 2.04669,3.01043 2.04669,4.93811 0,3.85733 -3.12768,6.98501 -6.98481,6.98501 h -22.67186 c -20.37917,-0.57015 -31.58753,6.62383 -41.18432,-6.96006 z"
         style="display:inline;fill:#d4dff0;fill-opacity:1;stroke-width:0.196722"
         sodipodi:nodetypes="ccccccscscscssccsscc" />
      <path
         style="display:inline;fill:#8293c0;fill-opacity:1;stroke-width:0.196722;filter:url(#filter39359-55-6-0)"
         sodipodi:nodetypes="cccccsc"
         d="M 23.695261,236.32554 4.4924782,236.1919 4.7597485,218.46909 22.275322,222.28058 h 2.168466 c -0.487083,1.5303 -0.748527,3.16112 -0.748527,4.8545 z"
         id="path37605-5-6-9" />
      <path
         style="display:inline;opacity:1;fill:#8293c0;fill-opacity:1;stroke-width:0.196722;filter:url(#filter39355-1-4-3)"
         d="m 57.799959,234.88278 h 33.066202 c 1.928465,0 3.675946,0.78236 4.940868,2.04552 1.263151,1.26492 2.045515,3.01063 2.045515,4.94086 0,1.05915 -0.23587,2.06499 -0.658232,2.96441 -0.346034,-0.7381 -0.817773,-1.40676 -1.387283,-1.97627 -1.264922,-1.26315 -3.012403,-2.04552 -4.940868,-2.04552 H 63.728764 c -3.274436,0 -5.928805,-2.65437 -5.928805,-5.929 z"
         id="path37609-2-3-3" />
      <path
         style="display:inline;fill:#8293c0;fill-opacity:1;stroke-width:0.196722"
         d="m 59.755768,248.85397 h 25.838639 c 1.928465,0 3.675946,0.78237 4.940868,2.04552 1.263151,1.26492 2.045514,3.01063 2.045514,4.94087 0,1.05915 -0.235869,2.06499 -0.658231,2.9644 -0.346034,-0.7381 -0.817773,-1.40676 -1.387283,-1.97627 -1.264922,-1.26315 -3.012403,-2.04552 -4.940868,-2.04552 H 65.684574 c -3.274437,-1.9e-4 -5.928806,-2.65456 -5.928806,-5.929 z"
         id="path37611-2-4-7" />
      <path
         id="path37617-6-0-4"
         fill="#e49542"
         d="m 66.676638,219.11532 c 0,-4.4286 -3.59017,-8.01878 -8.01878,-8.01878 h -18.92661 c -8.85741,0 -16.03756,7.18035 -16.03756,16.03756 h 34.96398 c 4.4288,0 8.01897,-3.59018 8.01897,-8.01878 z"
         style="display:inline;fill:#d4dff0;fill-opacity:1;stroke-width:0.196722" />
      <path
         style="display:inline;fill:#8293c0;fill-opacity:1;stroke-width:0.196722"
         d="m 39.831305,221.31269 48.171568,-0.4009 c 1.928398,-0.0161 3.675946,0.78236 4.940868,2.04551 1.263152,1.26492 2.045515,3.01063 2.045515,4.94087 0,1.05915 -0.23587,2.06499 -0.658232,2.9644 -0.346034,-0.7381 -0.817773,-1.40676 -1.387283,-1.97627 -1.264922,-1.26315 -3.012403,-2.04551 -4.940868,-2.04551 L 48.6512,225.90535 Z"
         id="path37607-6-6-8"
         sodipodi:nodetypes="cscsccscc" />
      <path
         id="path37619-7-0-0"
         fill="#e27d47"
         d="m 23.811718,225.18616 c 0.95981,-7.93891 7.72075,-14.08962 15.91874,-14.08962 h 18.9276 c 4.42802,0 8.01878,3.59077 8.01878,8.01878 0,1.13194 -0.2341,2.20879 -0.65646,3.18453 -1.23305,-2.84381 -4.06624,-4.83444 -7.36232,-4.83444 h -21.13108 c -5.81353,0 -10.90331,3.09227 -13.71526,7.72075 z"
         style="display:inline;fill:#8293c0;fill-opacity:1;stroke-width:0.196722" />
      <path
         id="path37623-8-4-4"
         d="m 22.401418,220.80398 -4.66821,-0.80105 c -0.80321,-0.1379 -1.5659,0.40151 -1.70381,1.20453 -0.0145,0.0846 -0.0214,0.16839 -0.0214,0.25121 0,0.70525 0.50735,1.32905 1.22597,1.4524 l 4.79215,0.82249 c 0.0824,0.0142 0.16583,0.0213 0.24964,0.0213 h 0.27069 c 2.431585,0.27367 3.057998,0.57654 3.142217,-0.14061 0.26727,-6.42579 6.012823,-11.04205 14.042423,-11.04205 h 18.92662 c 3.60808,0 7.720493,4.21979 6.54336,6.54337 -0.670436,1.3234 -2.93528,0.19336 -6.54336,0.19336 h -18.10708 c -0.81482,0 -1.47541,0.6604 -1.47541,1.47542 0,0.81501 0.66059,1.47541 1.47541,1.47541 h 18.10708 c 4.08572,0 0,0 8.91268,0.12808 h 20.43233 c 1.47286,0 2.85522,0.57325 3.89509,1.61666 1.04145,1.03968 1.61489,2.42243 1.61489,3.89352 0,3.0364 -2.46886,5.50703 -5.50487,5.50998 -0.002,0 -0.003,-1.9e-4 -0.005,-1.9e-4 h -30.20331 c -0.81483,0 -1.47542,0.66039 -1.47542,1.47541 0,0.81502 0.66059,1.47542 1.47542,1.47542 l 33.06522,3.9e-4 c 1.47187,0 2.85561,0.57305 3.89725,1.61469 1.04145,1.03929 1.61509,2.42224 1.61509,3.89313 0,3.03935 -2.47279,5.51235 -5.51215,5.51235 l -31.96318,-5.9e-4 c -0.81482,0 -1.47541,0.66039 -1.47541,1.47541 0,0.81502 0.66059,1.47542 1.47541,1.47542 h 26.68159 c 0.004,0 0.008,5.9e-4 0.0114,5.9e-4 1.47227,0 2.85522,0.57285 3.89529,1.61449 1.04145,1.03968 1.61489,2.42322 1.61489,3.89569 0,3.03719 -2.47181,5.50821 -5.51018,5.50821 l -28.6673,0.001 c -0.81482,0 -1.47542,0.66039 -1.47542,1.47541 0,0.81502 0.6606,1.47542 1.47542,1.47542 h 22.16564 c 3.93619,-0.049 -3.13193,-0.0617 6.41983,-0.001 h 0.0818 c 4.66546,0 8.46101,-3.79477 8.46101,-8.45904 0,-2.0764 -0.74262,-4.03772 -2.10138,-5.57982 4.15398,-0.53647 7.37353,-4.09615 7.37353,-8.39354 0,-2.26014 -0.88112,-4.38454 -2.48007,-5.98094 -0.85378,-0.85377 -1.85785,-1.50256 -2.9528,-1.92177 1.58342,-1.53856 2.5686,-3.68972 2.5686,-6.06651 0,-2.26014 -0.88112,-4.38454 -2.4783,-5.97937 -1.59522,-1.60033 -3.71982,-2.48164 -5.98271,-2.48164 h -19.85888 c 0.004,-0.10682 0.008,-0.21364 0.008,-0.32145 0,-5.23496 -4.25903,-9.49419 -9.4942,-9.49419 h -18.92661 c -7.42547,0 -13.78568,4.64559 -16.32871,11.18285 h -1.00112 z"
         style="display:inline;stroke-width:0.196722"
         sodipodi:nodetypes="ccssccsccsssssssscscssssscccsccsssscsccssccsscsccscscsssccc" />
      <path
         id="path37625-4-0-0"
         d="m 33.776278,264.51403 41.96513,-0.53454 c 0.81476,-0.0104 1.87632,-0.12586 1.87632,-0.94088 0,-0.81502 -0.66059,-1.47541 -1.47542,-1.47541 h -42.36603 c -4.11956,0 -7.96252,-2.03784 -10.27951,-5.45156 -0.32498,-0.47902 -0.9,-0.72354 -1.4705,-0.62557 l -15.17744,3.51424 v -38.78118 l 9.8599,1.69259 c 0.80322,0.1379 1.56591,-0.40131 1.70381,-1.20453 0.13888,-0.80262 -0.40151,-1.56571 -1.20453,-1.70361 l -11.58495,-1.98866 c -0.42866,-0.0736 -0.86814,0.0456 -1.2006,0.32597 -0.33246,0.28033 -0.52446,0.69305 -0.52446,1.128 v 42.28185 c 0,0.43495 0.192,0.84787 0.52446,1.128 0.33266,0.28033 0.77194,0.39954 1.2006,0.32597 l 15.99836,-3.65529 c 2.90362,3.75208 7.37904,6.02544 12.15486,5.96461 z"
         style="display:inline;stroke-width:0.196722"
         sodipodi:nodetypes="sssssccccccccssssccs" />
    </g>
  </g>
</svg>
