<?xml version="1.0" encoding="UTF-8" standalone="no"?>
<svg
   xmlns:dc="http://purl.org/dc/elements/1.1/"
   xmlns:cc="http://creativecommons.org/ns#"
   xmlns:rdf="http://www.w3.org/1999/02/22-rdf-syntax-ns#"
   xmlns:svg="http://www.w3.org/2000/svg"
   xmlns="http://www.w3.org/2000/svg"
   xmlns:sodipodi="http://sodipodi.sourceforge.net/DTD/sodipodi-0.dtd"
   xmlns:inkscape="http://www.inkscape.org/namespaces/inkscape"
   width="13.2mm"
   height="13.2mm"
   viewBox="0 0 13.2 13.2"
   version="1.1"
   id="svg2172"
   inkscape:version="1.0 (4035a4f, 2020-05-01)"
   sodipodi:docname="iconpause.svg">
  <defs
     id="defs2166" />
  <sodipodi:namedview
     id="base"
     pagecolor="#ffffff"
     bordercolor="#666666"
     borderopacity="1.0"
     inkscape:pageopacity="0.0"
     inkscape:pageshadow="2"
     inkscape:zoom="3.959798"
     inkscape:cx="11.271561"
     inkscape:cy="61.350144"
     inkscape:document-units="mm"
     inkscape:current-layer="layer1"
     inkscape:document-rotation="0"
     showgrid="false"
     inkscape:window-width="1251"
     inkscape:window-height="930"
     inkscape:window-x="0"
     inkscape:window-y="23"
     inkscape:window-maximized="0" />
  <metadata
     id="metadata2169">
    <rdf:RDF>
      <cc:Work
         rdf:about="">
        <dc:format>image/svg+xml</dc:format>
        <dc:type
           rdf:resource="http://purl.org/dc/dcmitype/StillImage" />
        <dc:title></dc:title>
      </cc:Work>
    </rdf:RDF>
  </metadata>
  <g
     inkscape:label="Layer 1"
     inkscape:groupmode="layer"
     id="layer1">
    <g
       id="g3555">
      <g
         id="g2769"
         transform="matrix(-1,0,0,1,25.61659,-6.0903296)">
        <circle
           style="display:inline;opacity:1;fill:#eeeeee;fill-opacity:1;stroke:#000000;stroke-width:0.2;stroke-miterlimit:4;stroke-dasharray:none"
           id="path6256-4-7"
           cx="19.01659"
           cy="12.69033"
           r="6.5" />
        <circle
           cy="12.69033"
           cx="19.01659"
           id="path6256-4-4-59"
           style="display:inline;opacity:1;fill:#eeeeee;fill-opacity:1;stroke:#000000;stroke-width:0.2;stroke-miterlimit:4;stroke-dasharray:none"
           r="5.4166665" />
      </g>
      <g
         transform="matrix(0.01032746,0,0,0.01032746,3.956165,3.9561702)"
         id="g711"
         style="display:inline">
        <g
           id="g660">
          <g
             id="g658">
            <path
               d="M 181.333,0 H 74.667 c -17.643,0 -32,14.357 -32,32 v 448 c 0,17.643 14.357,32 32,32 h 106.667 c 17.643,0 32,-14.357 32,-32 V 32 C 213.333,14.357 198.976,0 181.333,0 Z"
               id="path656" />
          </g>
        </g>
        <g
           id="g666">
          <g
             id="g664">
            <path
               d="M 437.333,0 H 330.667 c -17.643,0 -32,14.357 -32,32 v 448 c 0,17.643 14.357,32 32,32 h 106.667 c 17.643,0 32,-14.357 32,-32 V 32 C 469.333,14.357 454.976,0 437.333,0 Z"
               id="path662" />
          </g>
        </g>
      </g>
    </g>
  </g>
</svg>
