<?xml version="1.0" encoding="UTF-8" standalone="no"?>
<svg
   xmlns:dc="http://purl.org/dc/elements/1.1/"
   xmlns:cc="http://creativecommons.org/ns#"
   xmlns:rdf="http://www.w3.org/1999/02/22-rdf-syntax-ns#"
   xmlns:svg="http://www.w3.org/2000/svg"
   xmlns="http://www.w3.org/2000/svg"
   xmlns:sodipodi="http://sodipodi.sourceforge.net/DTD/sodipodi-0.dtd"
   xmlns:inkscape="http://www.inkscape.org/namespaces/inkscape"
   width="13.2mm"
   height="13.2mm"
   viewBox="0 0 13.2 13.2"
   version="1.1"
   id="svg2172"
   inkscape:version="1.0 (4035a4f, 2020-05-01)"
   sodipodi:docname="iconmusic.svg">
  <defs
     id="defs2166" />
  <sodipodi:namedview
     id="base"
     pagecolor="#ffffff"
     bordercolor="#666666"
     borderopacity="1.0"
     inkscape:pageopacity="0.0"
     inkscape:pageshadow="2"
     inkscape:zoom="3.959798"
     inkscape:cx="11.271561"
     inkscape:cy="61.350144"
     inkscape:document-units="mm"
     inkscape:current-layer="layer1"
     inkscape:document-rotation="0"
     showgrid="false"
     inkscape:window-width="1251"
     inkscape:window-height="930"
     inkscape:window-x="0"
     inkscape:window-y="23"
     inkscape:window-maximized="0" />
  <metadata
     id="metadata2169">
    <rdf:RDF>
      <cc:Work
         rdf:about="">
        <dc:format>image/svg+xml</dc:format>
        <dc:type
           rdf:resource="http://purl.org/dc/dcmitype/StillImage" />
        <dc:title></dc:title>
      </cc:Work>
    </rdf:RDF>
  </metadata>
  <g
     inkscape:label="Layer 1"
     inkscape:groupmode="layer"
     id="layer1">
    <g
       id="g3673">
      <g
         id="g2769"
         transform="matrix(-1,0,0,1,25.61659,-6.0903296)">
        <circle
           style="display:inline;opacity:1;fill:#eeeeee;fill-opacity:1;stroke:#000000;stroke-width:0.2;stroke-miterlimit:4;stroke-dasharray:none"
           id="path6256-4-7"
           cx="19.01659"
           cy="12.69033"
           r="6.5" />
        <circle
           cy="12.69033"
           cx="19.01659"
           id="path6256-4-4-59"
           style="display:inline;opacity:1;fill:#eeeeee;fill-opacity:1;stroke:#000000;stroke-width:0.2;stroke-miterlimit:4;stroke-dasharray:none"
           r="5.4166665" />
      </g>
      <path
         id="path441"
         d="m 9.2363391,7.4406404 c 0.28114,-0.47041 0.46763,-1.06539 0.50381,-1.65409 0.023,-0.37786 -0.0612,-0.77451 -0.24355,-1.1475 -0.286,-0.58593 -0.77729,-0.91508 -1.25188,-1.23309 -0.3542,-0.23729 -0.68891,-0.46137 -0.92551,-0.78147 l -0.0424,-0.0571 c -0.13987,-0.18788 -0.29783,-0.40082 -0.32288,-0.57966 -0.0251,-0.18093 -0.18928,-0.30967 -0.36882,-0.29923 -0.18232,0.0126 -0.32358,0.16353 -0.32358,0.34654 v 6.20025 c -0.29157,-0.17675 -0.65064,-0.28531 -1.04381,-0.28531 -0.95891,0 -1.73969,0.6242 -1.73969,1.3917495 0,0.7675501 0.78078,1.3917501 1.73969,1.3917501 0.95892,0 1.73969,-0.6242 1.73969,-1.3917501 V 5.2861704 c 0.5226,0.19972 1.37783,0.7084 1.61303,1.89626 -0.0438,0.0647 -0.0856,0.1343 -0.1343,0.18998 -0.12734,0.14404 -0.11343,0.36394 0.0313,0.49058 0.14335,0.12805 0.36325,0.11274 0.4906,-0.0313 0.0933,-0.10577 0.17605,-0.22964 0.25538,-0.35907 0.008,-0.01 0.016,-0.0202 0.023,-0.032 z"
         style="stroke-width:0.0217461" />
    </g>
  </g>
</svg>
