<?xml version="1.0" encoding="UTF-8" standalone="no"?>
<svg
   xmlns:svg="http://www.w3.org/2000/svg"
   xmlns="http://www.w3.org/2000/svg"
   version="1.1"
   viewBox="0 0 42.060001 36.082001"
   height="36.082001mm"
   width="42.060001mm">
  <g id="layer1" >
    <path style="fill:#ff0000;" id="higlight" d="m 21.029991,4.2683601 c -5.762173,0 -10.989019,1.7445562 -14.8035347,4.6020114 C 2.4119399,11.727828 0,15.731048 0,20.17527 c 0,4.444223 2.4119399,8.447442 6.2264563,11.304898 3.8145157,2.857457 9.0413617,4.602012 14.8035347,4.602012 5.762176,0 10.991019,-1.744555 14.80553,-4.602012 3.814522,-2.857456 6.224466,-6.860675 6.224466,-11.304898 0,-4.444222 -2.409944,-8.447442 -6.224466,-11.3048985 C 32.02101,6.0129163 26.792167,4.2683601 21.029991,4.2683601 Z m 0,1.2266734 c 5.513235,-1e-6 10.49326,1.6793452 14.067852,4.3570741 3.574594,2.6777284 5.733995,6.3209754 5.733995,10.3231624 0,4.002184 -2.159401,7.647425 -5.733995,10.325154 -3.574592,2.67773 -8.554617,4.355084 -14.067852,4.355084 -5.513228,0 -10.493252,-1.677354 -14.0678439,-4.355084 -3.5745929,-2.677729 -5.7340017,-6.32297 -5.7340017,-10.325154 0,-4.002187 2.1594088,-7.645434 5.7340017,-10.3231624 C 10.536739,7.1743787 15.516763,5.4950335 21.029991,5.4950335 Z"/>
    <g id="fillcolor" style="fill:#93ac93;">
      <path id="wallfill" d="m 2.3272702,20.156081 c 1.0415204,2.197753 2.7265688,4.15349 4.8711936,5.730139 3.6426062,2.677909 8.6063782,4.297999 14.0577482,4.273341 5.451367,-0.0247 10.387337,-1.690388 13.987588,-4.401911 2.060497,-1.551859 3.683293,-3.457564 4.696777,-5.590562 -0.09505,3.676802 -2.107274,7.021201 -5.39947,9.500704 C 31.167868,32.20833 26.466474,33.811484 21.2507,33.835075 16.034925,33.858686 11.305273,32.299549 7.8901235,29.788859 4.5033028,27.298991 2.421195,23.902441 2.3272702,20.156081 Z" />
      <path id="stageup" d="m 40.515487,15.685638 c 0,8.019918 -8.684672,14.521346 -19.397756,14.521344 -10.71308,0 -19.3977481,-6.501427 -19.3977481,-14.521344 0,-8.019916 8.6846681,-14.5213432 19.3977481,-14.5213432 10.713084,-2e-6 19.397756,6.5014262 19.397756,14.5213432"/>
    </g>
    <g id="bordershadow" style="fill:#000000;">
      <path style="opacity:0.5;" id="walldark" d="m 2.327255,20.156081 c 1.041521,2.197753 2.726569,4.153489 4.871194,5.730138 3.642609,2.677909 8.606381,4.298 14.057749,4.273341 5.451369,-0.0247 10.387339,-1.690388 13.98759,-4.401911 2.060497,-1.551859 3.683293,-3.457564 4.696777,-5.590562 -0.09505,3.676802 -2.107274,7.021201 -5.39947,9.500704 -3.373239,2.540538 -8.074633,4.143693 -13.290406,4.167283 C 16.034916,33.858684 11.305256,32.299548 7.890108,29.788858 4.503288,27.29899 2.42118,23.90244 2.327255,20.156081 Z" />
      <path id="wallborder" d="m 39.949585,15.055785 c 0,3.783805 -2.03525,7.230817 -5.40848,9.771355 -3.373239,2.540536 -8.074633,4.143691 -13.290403,4.167284 C 16.034927,29.018034 11.305274,27.458898 7.890125,24.948205 4.474979,22.437514 2.383846,19.005441 2.322761,15.221877 l -1.1668,0.019 c 0.0033,0.2058 0.0135,0.410204 0.02756,0.613837 h -0.0065 v 4.226316 l -0.02105,5.13e-4 c 0.0678,4.201519 2.399899,7.966923 6.042505,10.644832 3.642605,2.677912 8.606378,4.298 14.057747,4.273344 5.451373,-0.0247 10.387324,-1.690391 13.987575,-4.401913 3.456601,-2.603322 5.687924,-6.199578 5.860574,-10.20109 H 41.136 V 15.685634 H 41.09788 C 41.10923,15.476605 41.1164,15.266993 41.1164,15.05579 Z M 2.27665,20.047021 c 0.0025,0.0053 0.005,0.01066 0.0075,0.01601 h -0.0075 z m 0.05062,0.10906 c 1.04152,2.197753 2.726569,4.153489 4.871194,5.730138 3.642605,2.677909 8.606379,4.298 14.057748,4.273341 5.451366,-0.0247 10.387327,-1.690388 13.987578,-4.401911 2.060507,-1.551859 3.683303,-3.457564 4.696777,-5.590562 -0.09505,3.676802 -2.107274,7.021201 -5.39946,9.500704 C 31.167868,32.208329 26.466474,33.811484 21.2507,33.835074 16.034925,33.858684 11.305273,32.299548 7.890123,29.788858 4.503303,27.298989 2.421194,23.90244 2.32727,20.156081 Z" />
      <path id="stageborder"  d="M 21.117196,0 C 15.642391,0 10.676215,1.656467 7.051934,4.369639 3.427653,7.082811 1.136,10.883893 1.136,15.10371 c 0,4.219818 2.291653,8.020899 5.915934,10.734072 3.624281,2.713172 8.590457,4.369638 14.065262,4.369639 5.474809,0 10.442882,-1.656467 14.067158,-4.369639 3.624285,-2.713173 5.914043,-6.514254 5.914043,-10.734072 0,-4.219817 -2.289758,-8.020899 -5.914043,-10.734071 C 31.560078,1.656467 26.592005,0 21.117196,0 Z m 0,1.164734 c 5.238282,-10e-7 9.969946,1.594549 13.366269,4.137069 3.396322,2.542521 5.448032,6.001807 5.448032,9.801907 0,3.8001 -2.05171,7.261278 -5.448032,9.803798 -3.396323,2.542521 -8.127987,4.13518 -13.366269,4.135179 -5.238276,0 -9.969939,-1.592658 -13.366261,-4.135179 -3.396323,-2.54252 -5.448039,-6.003698 -5.448039,-9.803798 0,-3.8001 2.051716,-7.259386 5.448039,-9.801907 3.396322,-2.54252 8.127985,-4.137069 13.366261,-4.137069 z"/>
    </g>
  </g>
</svg>
