<?xml version="1.0" encoding="UTF-8" standalone="no"?>
<svg
   xmlns:dc="http://purl.org/dc/elements/1.1/"
   xmlns:cc="http://creativecommons.org/ns#"
   xmlns:rdf="http://www.w3.org/1999/02/22-rdf-syntax-ns#"
   xmlns:svg="http://www.w3.org/2000/svg"
   xmlns="http://www.w3.org/2000/svg"
   xmlns:sodipodi="http://sodipodi.sourceforge.net/DTD/sodipodi-0.dtd"
   xmlns:inkscape="http://www.inkscape.org/namespaces/inkscape"
   width="13.2mm"
   height="13.2mm"
   viewBox="0 0 13.2 13.2"
   version="1.1"
   id="svg2172"
   inkscape:version="1.0 (4035a4f, 2020-05-01)"
   sodipodi:docname="iconshare.svg">
  <defs
     id="defs2166" />
  <sodipodi:namedview
     id="base"
     pagecolor="#ffffff"
     bordercolor="#666666"
     borderopacity="1.0"
     inkscape:pageopacity="0.0"
     inkscape:pageshadow="2"
     inkscape:zoom="3.959798"
     inkscape:cx="11.271561"
     inkscape:cy="61.350144"
     inkscape:document-units="mm"
     inkscape:current-layer="layer1"
     inkscape:document-rotation="0"
     showgrid="false"
     inkscape:window-width="1251"
     inkscape:window-height="930"
     inkscape:window-x="0"
     inkscape:window-y="23"
     inkscape:window-maximized="0" />
  <metadata
     id="metadata2169">
    <rdf:RDF>
      <cc:Work
         rdf:about="">
        <dc:format>image/svg+xml</dc:format>
        <dc:type
           rdf:resource="http://purl.org/dc/dcmitype/StillImage" />
        <dc:title></dc:title>
      </cc:Work>
    </rdf:RDF>
  </metadata>
  <g
     inkscape:label="Layer 1"
     inkscape:groupmode="layer"
     id="layer1">
    <g
       id="g3768">
      <g
         id="g2769"
         transform="matrix(-1,0,0,1,25.61659,-6.0903296)">
        <circle
           style="display:inline;opacity:1;fill:#eeeeee;fill-opacity:1;stroke:#000000;stroke-width:0.2;stroke-miterlimit:4;stroke-dasharray:none"
           id="path6256-4-7"
           cx="19.01659"
           cy="12.69033"
           r="6.5" />
        <circle
           cy="12.69033"
           cx="19.01659"
           id="path6256-4-4-59"
           style="display:inline;opacity:1;fill:#eeeeee;fill-opacity:1;stroke:#000000;stroke-width:0.2;stroke-miterlimit:4;stroke-dasharray:none"
           r="5.4166665" />
      </g>
      <g
         style="display:inline"
         id="g528"
         transform="matrix(0.0151308,0,0,0.0151308,2.5201486,2.7265152)">
        <path
           d="m 453.33203,85.332031 c 0,38.292969 -31.03906,69.335939 -69.33203,69.335939 -38.29297,0 -69.33203,-31.04297 -69.33203,-69.335939 C 314.66797,47.042969 345.70703,16 384,16 c 38.29297,0 69.33203,31.042969 69.33203,69.332031 z m 0,0"
           id="path496" />
        <path
           d="m 384,170.66797 c -47.0625,0 -85.33203,-38.27344 -85.33203,-85.335939 C 298.66797,38.273438 336.9375,0 384,0 c 47.0625,0 85.33203,38.273438 85.33203,85.332031 0,47.062499 -38.26953,85.335939 -85.33203,85.335939 z M 384,32 c -29.41797,0 -53.33203,23.9375 -53.33203,53.332031 0,29.398439 23.91406,53.335939 53.33203,53.335939 29.41797,0 53.33203,-23.9375 53.33203,-53.335939 C 437.33203,55.9375 413.41797,32 384,32 Z m 0,0"
           id="path498" />
        <path
           d="M 453.33203,426.66797 C 453.33203,464.95703 422.29297,496 384,496 c -38.29297,0 -69.33203,-31.04297 -69.33203,-69.33203 0,-38.29297 31.03906,-69.33594 69.33203,-69.33594 38.29297,0 69.33203,31.04297 69.33203,69.33594 z m 0,0"
           id="path500" />
        <path
           d="m 384,512 c -47.0625,0 -85.33203,-38.27344 -85.33203,-85.33203 0,-47.0625 38.26953,-85.33594 85.33203,-85.33594 47.0625,0 85.33203,38.27344 85.33203,85.33594 C 469.33203,473.72656 431.0625,512 384,512 Z m 0,-138.66797 c -29.41797,0 -53.33203,23.9375 -53.33203,53.33594 C 330.66797,456.0625 354.58203,480 384,480 c 29.41797,0 53.33203,-23.9375 53.33203,-53.33203 0,-29.39844 -23.91406,-53.33594 -53.33203,-53.33594 z m 0,0"
           id="path502" />
        <path
           d="m 154.66797,256 c 0,38.29297 -31.04297,69.33203 -69.335939,69.33203 C 47.042969,325.33203 16,294.29297 16,256 c 0,-38.29297 31.042969,-69.33203 69.332031,-69.33203 38.292969,0 69.335939,31.03906 69.335939,69.33203 z m 0,0"
           id="path504" />
        <path
           d="M 85.332031,341.33203 C 38.273438,341.33203 0,303.0625 0,256 c 0,-47.0625 38.273438,-85.33203 85.332031,-85.33203 47.062499,0 85.335939,38.26953 85.335939,85.33203 0,47.0625 -38.27344,85.33203 -85.335939,85.33203 z m 0,-138.66406 C 55.914062,202.66797 32,226.60156 32,256 c 0,29.39844 23.914062,53.33203 53.332031,53.33203 29.421879,0 53.335939,-23.93359 53.335939,-53.33203 0,-29.39844 -23.91406,-53.33203 -53.335939,-53.33203 z m 0,0"
           id="path506" />
        <path
           d="m 135.70312,245.76172 c -7.42578,0 -14.63671,-3.86328 -18.56249,-10.77344 -5.82422,-10.21875 -2.23829,-23.25391 7.98046,-29.10156 L 323.07031,93.035156 c 10.21875,-5.867187 23.25391,-2.28125 29.10156,7.976564 5.82422,10.21875 2.23829,23.25391 -7.98046,29.10156 L 146.23828,242.96484 c -3.32812,1.89844 -6.95312,2.79688 -10.53516,2.79688 z m 0,0"
           id="path508" />
        <path
           d="m 333.63281,421.76172 c -3.58594,0 -7.21094,-0.89844 -10.53906,-2.79688 L 125.14063,306.11328 c -10.21875,-5.82422 -13.80079,-18.85937 -7.97657,-29.10156 5.80078,-10.23828 18.85547,-13.84375 29.09766,-7.97656 l 197.95312,112.85156 c 10.21875,5.82422 13.80078,18.85937 7.97657,29.10156 -3.94532,6.91016 -11.15625,10.77344 -18.5586,10.77344 z m 0,0"
           id="path510" />
      </g>
    </g>
  </g>
</svg>
